<svg width="32" height="32" viewBox="0 0 32 32" fill="none" xmlns="http://www.w3.org/2000/svg">
<path fill-rule="evenodd" clip-rule="evenodd" d="M11.6667 2.6665C11.6667 2.11422 11.219 1.6665 10.6667 1.6665C10.1144 1.6665 9.66667 2.11422 9.66667 2.6665V3.70684C7.61879 3.87728 5.99494 4.58696 4.85054 5.81939C3.53818 7.2327 3 9.17988 3 11.3332V22.6665C3 24.8198 3.53818 26.767 4.85054 28.1803C6.17536 29.607 8.14273 30.3332 10.6667 30.3332H21.3333C23.8573 30.3332 25.8246 29.607 27.1495 28.1803C28.4618 26.767 29 24.8198 29 22.6665V11.3332C29 9.17988 28.4618 7.2327 27.1495 5.81939C26.0051 4.58696 24.3812 3.87728 22.3333 3.70684V2.6665C22.3333 2.11422 21.8856 1.6665 21.3333 1.6665C20.781 1.6665 20.3333 2.11422 20.3333 2.6665V3.6665H11.6667V2.6665ZM9.66667 5.71488V6.6665C9.66667 7.21879 10.1144 7.6665 10.6667 7.6665C11.219 7.6665 11.6667 7.21879 11.6667 6.6665V5.6665H20.3333V6.6665C20.3333 7.21879 20.781 7.6665 21.3333 7.6665C21.8856 7.6665 22.3333 7.21879 22.3333 6.6665V5.71488C23.9133 5.87541 24.9812 6.42354 25.6839 7.18029C26.5049 8.0645 26.9635 9.37927 26.9979 11.1196H5.00209C5.03655 9.37927 5.49507 8.0645 6.31613 7.18029C7.01882 6.42354 8.08669 5.87541 9.66667 5.71488ZM5 13.1196V22.6665C5 24.5132 5.46182 25.8994 6.31613 26.8194C7.15797 27.726 8.52393 28.3332 10.6667 28.3332H21.3333C23.4761 28.3332 24.842 27.726 25.6839 26.8194C26.5382 25.8994 27 24.5132 27 22.6665V13.1196H5ZM19.5931 18.2668C19.5931 17.5304 20.1901 16.9334 20.9264 16.9334H20.9384C21.6748 16.9334 22.2717 17.5304 22.2717 18.2668C22.2717 19.0031 21.6748 19.6001 20.9384 19.6001H20.9264C20.1901 19.6001 19.5931 19.0031 19.5931 18.2668ZM20.9264 20.9334C20.1901 20.9334 19.5931 21.5304 19.5931 22.2668C19.5931 23.0031 20.1901 23.6001 20.9264 23.6001H20.9384C21.6748 23.6001 22.2717 23.0031 22.2717 22.2668C22.2717 21.5304 21.6748 20.9334 20.9384 20.9334H20.9264ZM14.6608 18.2668C14.6608 17.5304 15.2578 16.9334 15.9941 16.9334H16.0061C16.7425 16.9334 17.3394 17.5304 17.3394 18.2668C17.3394 19.0031 16.7425 19.6001 16.0061 19.6001H15.9941C15.2578 19.6001 14.6608 19.0031 14.6608 18.2668ZM15.9941 20.9334C15.2578 20.9334 14.6608 21.5304 14.6608 22.2668C14.6608 23.0031 15.2578 23.6001 15.9941 23.6001H16.0061C16.7425 23.6001 17.3394 23.0031 17.3394 22.2668C17.3394 21.5304 16.7425 20.9334 16.0061 20.9334H15.9941ZM9.72591 18.2668C9.72591 17.5304 10.3229 16.9334 11.0592 16.9334H11.0712C11.8076 16.9334 12.4046 17.5304 12.4046 18.2668C12.4046 19.0031 11.8076 19.6001 11.0712 19.6001H11.0592C10.3229 19.6001 9.72591 19.0031 9.72591 18.2668ZM11.0592 20.9334C10.3229 20.9334 9.72591 21.5304 9.72591 22.2668C9.72591 23.0031 10.3229 23.6001 11.0592 23.6001H11.0712C11.8076 23.6001 12.4046 23.0031 12.4046 22.2668C12.4046 21.5304 11.8076 20.9334 11.0712 20.9334H11.0592Z" fill="#A17FFF"/>
</svg>
