<svg width="247" height="400" viewBox="0 0 247 400" fill="none" xmlns="http://www.w3.org/2000/svg">
<path d="M202.206 363.684C202.206 363.684 206.689 332.856 206.318 314.919C205.948 296.982 206.337 276.803 206.337 276.803H204.272C204.272 276.803 205.67 312.4 204.151 333.875C202.632 355.331 198.623 363.675 198.623 363.675H202.216" fill="#263238"/>
<path d="M188.855 242.123C189.272 241.068 189.781 239.975 190.735 239.364C192.05 238.53 193.763 238.882 195.226 239.391C201.468 241.595 207.006 253.236 209.524 259.357L201.236 287.286C186.281 273.405 183.688 255.199 188.846 242.114L188.855 242.123Z" fill="#455A64"/>
<path d="M191.224 240.493C191.224 240.493 191.251 240.623 191.344 240.854C191.455 241.123 191.585 241.456 191.752 241.873C192.113 242.753 192.622 244.031 193.233 245.614C194.456 248.781 196.011 253.217 197.4 258.218C198.78 263.218 199.734 267.821 200.327 271.164C200.623 272.84 200.845 274.192 200.984 275.136C201.058 275.572 201.114 275.933 201.16 276.22C201.206 276.47 201.234 276.6 201.243 276.59C201.253 276.59 201.243 276.461 201.225 276.211C201.197 275.923 201.16 275.562 201.114 275.118C201.012 274.173 200.827 272.803 200.558 271.127C200.03 267.765 199.114 263.144 197.724 258.125C196.335 253.115 194.733 248.679 193.455 245.531C192.816 243.957 192.27 242.688 191.872 241.827C191.687 241.419 191.529 241.095 191.409 240.836C191.298 240.614 191.233 240.493 191.224 240.502V240.493Z" fill="#263238"/>
<path d="M204.921 293.991C212.69 289.695 217.265 281.62 217.691 272.757C217.987 266.562 216.089 260.478 213.931 254.662C213.746 254.153 213.524 253.616 213.052 253.347C212.403 252.977 211.588 253.31 210.931 253.681C205.282 256.894 201.865 263.025 200.05 269.257C198.837 273.406 198.216 277.786 198.772 282.064C199.328 286.352 201.782 291.01 204.921 293.991Z" fill="#455A64"/>
<path d="M204.92 293.991C204.92 293.991 204.939 293.862 204.948 293.621C204.948 293.334 204.957 292.982 204.967 292.547C204.967 291.621 205.004 290.269 205.087 288.611C205.235 285.287 205.671 280.712 206.532 275.711C207.393 270.711 208.439 266.229 209.208 262.997C209.588 261.413 209.902 260.117 210.125 259.163C210.217 258.737 210.301 258.394 210.366 258.117C210.421 257.876 210.44 257.746 210.43 257.746C210.421 257.746 210.375 257.866 210.301 258.098C210.217 258.367 210.125 258.709 209.995 259.126C209.736 260.024 209.384 261.321 208.967 262.932C208.134 266.155 207.05 270.637 206.189 275.656C205.328 280.675 204.93 285.268 204.846 288.602C204.8 290.269 204.8 291.621 204.846 292.547C204.865 292.982 204.874 293.334 204.893 293.621C204.902 293.862 204.92 293.991 204.93 293.991H204.92Z" fill="#263238"/>
<g opacity="0.3">
<path d="M204.921 293.991C212.69 289.695 217.265 281.62 217.691 272.757C217.987 266.562 216.089 260.478 213.931 254.662C213.746 254.153 213.524 253.616 213.052 253.347C212.403 252.977 211.588 253.31 210.931 253.681C205.282 256.894 201.865 263.025 200.05 269.257C198.837 273.406 198.216 277.786 198.772 282.064C199.328 286.352 201.782 291.01 204.921 293.991Z" fill="black"/>
</g>
<path d="M196.159 341.154C188.51 342.83 182.213 348.229 174.842 350.849C169.961 352.581 164.442 353.202 160.544 356.609C161.479 354.248 163.692 352.674 165.85 351.331C171.915 347.543 178.407 344.441 185.176 342.108C188.649 340.913 192.409 339.904 195.946 340.894" fill="#455A64"/>
<path d="M207.216 347.97C216.792 347.812 226.876 339.663 236.405 339.172C226.432 335.95 212.152 338.58 207.216 347.97Z" fill="#455A64"/>
<path d="M203.476 324.995C198.614 323.245 193.271 323.162 188.168 323.958C183.056 324.754 178.13 326.393 173.222 328.023C173.713 324.699 176.407 322.199 178.936 319.995C180.834 318.328 182.751 316.652 184.936 315.383C187.122 314.105 189.613 313.244 192.132 313.355C195.178 313.484 198.077 315.059 200.077 317.355C202.077 319.661 203.151 321.976 203.476 325.004" fill="#455A64"/>
<path d="M223.126 314.429C229.155 309.28 238.285 309.789 246.203 309.965C234.026 315.79 220.894 323.773 210.412 332.274C210.088 326.671 215.514 320.93 223.126 314.429Z" fill="#455A64"/>
<g opacity="0.3">
<path d="M223.126 314.429C229.155 309.28 238.285 309.789 246.203 309.965C234.026 315.79 220.894 323.773 210.412 332.274C210.088 326.671 215.514 320.93 223.126 314.429Z" fill="black"/>
</g>
<path d="M200.761 307.326C197.733 305.307 194.668 303.381 191.492 301.936C188.315 300.491 185.361 298.195 182.296 296.537C178.323 294.389 174.878 291.398 171.23 288.731C167.581 286.064 163.581 283.656 159.117 282.952C162.757 282.202 166.563 282.61 170.146 283.591C173.73 284.573 177.138 286.101 180.527 287.629C185.232 289.749 190.01 291.916 193.853 295.352C197.696 298.788 201.169 302.186 200.761 307.326Z" fill="#455A64"/>
<path d="M175.017 347.97C175.017 347.97 175.129 347.933 175.323 347.84C175.545 347.72 175.823 347.581 176.156 347.405C176.879 347.025 177.916 346.451 179.212 345.794C179.861 345.451 180.574 345.099 181.352 344.729C182.12 344.349 182.954 343.97 183.833 343.59C185.602 342.83 187.575 342.043 189.732 341.534C191.881 341.006 194.02 340.895 195.872 341.377C196.807 341.599 197.687 341.83 198.474 342.154C199.261 342.469 199.965 342.849 200.576 343.229C201.808 343.997 202.66 344.821 203.215 345.414C203.771 346.007 204.04 346.368 204.067 346.349C204.077 346.349 204.021 346.248 203.891 346.072C203.771 345.896 203.577 345.636 203.317 345.322C202.789 344.701 201.947 343.84 200.706 343.025C200.095 342.618 199.382 342.229 198.585 341.886C197.789 341.543 196.881 341.303 195.946 341.062C194.048 340.543 191.825 340.654 189.649 341.191C187.463 341.71 185.482 342.516 183.704 343.294C182.815 343.682 181.981 344.071 181.222 344.47C180.444 344.849 179.74 345.22 179.101 345.572C177.805 346.257 176.786 346.859 176.092 347.275C175.768 347.47 175.508 347.637 175.286 347.766C175.101 347.877 175.008 347.942 175.017 347.961V347.97Z" fill="#263238"/>
<path d="M214.358 343.219C214.358 343.219 214.136 343.256 213.756 343.395C213.376 343.525 212.839 343.756 212.2 344.071C210.913 344.71 209.219 345.794 207.626 347.312C206.042 348.84 204.885 350.489 204.199 351.757C203.857 352.387 203.607 352.915 203.459 353.285C203.31 353.656 203.236 353.869 203.255 353.878C203.31 353.906 203.672 353.091 204.403 351.878C205.135 350.665 206.292 349.063 207.857 347.562C209.422 346.062 211.061 344.969 212.312 344.284C213.552 343.599 214.377 343.275 214.358 343.219Z" fill="#263238"/>
<path d="M235.545 313.947C235.545 313.947 235.397 313.975 235.137 314.068C234.841 314.17 234.461 314.308 233.989 314.475C233.48 314.66 232.869 314.883 232.174 315.142C231.47 315.401 230.702 315.79 229.831 316.17C226.386 317.735 221.793 320.365 217.367 324.115C215.181 326.014 213.209 327.949 211.551 329.838C209.903 331.727 208.514 333.514 207.421 335.07C206.328 336.617 205.495 337.913 204.93 338.802C204.661 339.228 204.448 339.562 204.273 339.83C204.124 340.062 204.05 340.191 204.06 340.2C204.069 340.2 204.161 340.089 204.328 339.867C204.495 339.645 204.736 339.311 205.041 338.876C205.643 338.006 206.504 336.737 207.616 335.209C208.727 333.681 210.134 331.922 211.783 330.051C213.44 328.18 215.413 326.264 217.58 324.374C221.988 320.652 226.516 318.003 229.924 316.392C230.785 315.994 231.535 315.596 232.239 315.318C232.924 315.04 233.526 314.799 234.026 314.595C234.489 314.401 234.86 314.244 235.147 314.123C235.406 314.012 235.536 313.947 235.536 313.938L235.545 313.947Z" fill="#263238"/>
<path d="M189.103 319.615C189.103 319.615 189.381 319.605 189.863 319.513C190.122 319.466 190.418 319.411 190.742 319.346C191.085 319.281 191.483 319.281 191.918 319.235C193.641 319.105 196.15 319.253 198.503 320.531C199.688 321.133 200.679 321.939 201.494 322.754C202.318 323.56 202.948 324.402 203.42 325.134C204.383 326.606 204.679 327.671 204.735 327.643C204.753 327.643 204.698 327.366 204.54 326.893C204.364 326.43 204.096 325.754 203.624 325.004C203.17 324.245 202.549 323.365 201.716 322.532C200.892 321.689 199.882 320.846 198.66 320.226C196.234 318.902 193.641 318.8 191.9 318.985C191.455 319.05 191.057 319.068 190.715 319.152C190.39 319.235 190.103 319.309 189.835 319.374C189.353 319.504 189.094 319.578 189.103 319.605V319.615Z" fill="#263238"/>
<path d="M179.483 289.759C179.483 289.759 179.603 289.843 179.844 289.982C180.122 290.13 180.473 290.324 180.909 290.565C181.835 291.065 183.178 291.806 184.798 292.76C186.419 293.732 188.317 294.917 190.345 296.371C192.364 297.825 194.54 299.511 196.54 301.557C197.531 302.585 198.439 303.668 199.078 304.835C199.707 306.039 200.3 307.206 200.856 308.317C201.967 310.549 202.865 312.605 203.513 314.373C204.162 316.142 204.569 317.615 204.81 318.633C205.051 319.661 205.143 320.235 205.18 320.226C205.19 320.226 205.18 320.078 205.143 319.8C205.106 319.522 205.051 319.115 204.949 318.596C204.745 317.559 204.375 316.068 203.754 314.281C203.124 312.494 202.245 310.419 201.152 308.169C200.606 307.049 200.013 305.872 199.392 304.669C198.735 303.446 197.809 302.353 196.809 301.307C194.781 299.233 192.595 297.547 190.549 296.103C188.502 294.658 186.576 293.491 184.937 292.537C183.289 291.602 181.937 290.898 180.983 290.435C180.529 290.222 180.168 290.046 179.881 289.907C179.631 289.787 179.492 289.732 179.492 289.75L179.483 289.759Z" fill="#263238"/>
<path d="M206.327 318.753C206.327 318.753 206.42 318.466 206.522 317.947C206.633 317.355 206.772 316.614 206.939 315.734C207.3 313.873 207.865 311.298 208.754 308.548C209.633 305.788 210.708 303.39 211.485 301.658C211.856 300.843 212.171 300.158 212.421 299.612C212.643 299.13 212.745 298.852 212.726 298.843C212.708 298.834 212.55 299.084 212.3 299.556C212.05 300.028 211.689 300.704 211.263 301.566C210.421 303.269 209.309 305.677 208.42 308.455C207.522 311.233 207.003 313.826 206.698 315.706C206.55 316.651 206.439 317.41 206.383 317.938C206.327 318.466 206.3 318.762 206.327 318.762V318.753Z" fill="#263238"/>
<path d="M207.024 296.963C207.264 293.342 208.44 289.833 210.135 286.629C214.784 277.84 223.516 271.33 233.268 269.376C226.128 280.017 218.988 290.657 211.858 301.297L209.089 306.992C207.2 303.899 206.783 300.584 207.024 296.963Z" fill="#455A64"/>
<path d="M176.305 359.87H226.099V368.695H176.305V359.87Z" fill="#FE649F"/>
<path d="M222.385 366.944L218.143 394.327H185.084L180.028 366.944H222.385Z" fill="#FE649F"/>
<path d="M176.334 368.704C176.334 368.796 187.567 368.88 201.42 368.88C215.274 368.88 226.507 368.806 226.507 368.704C226.507 368.602 215.274 368.528 201.42 368.528C187.567 368.528 176.334 368.602 176.334 368.704Z" fill="#263238"/>
<path d="M145.994 83.3623C145.883 84.0198 132.557 107.699 128.001 110.004C123.454 112.31 94.2933 109.125 94.2933 109.125L83.0326 104.893L78.5135 95.2619L74.8001 90.9836C74.8001 90.9836 79.8934 84.8069 94.1544 87.9554C108.415 91.104 116.111 93.2153 118.417 92.0856C120.713 90.9558 139.308 72.1294 139.308 72.1294L145.994 83.3623Z" fill="#FE649F"/>
<path d="M3.18048 95.7707C5.61597 94.4002 8.6719 94.5761 11.4222 93.8816C16.5895 92.5759 20.2845 88.2327 22.1643 83.6951C24.0442 79.1575 24.4794 74.2958 25.5536 69.573C26.6278 64.8502 27.0816 60.646 30.9802 56.3491C37.8515 48.7649 51.4643 48.4315 53.2237 57.1826L48.9547 65.1836C54.122 76.5739 55.0573 89.6033 51.5939 101.781C50.9086 104.198 49.9363 106.735 47.7508 108.3C45.5654 109.865 41.8334 109.837 40.6018 107.67C38.0737 111.18 35.4345 114.755 31.7303 117.283C28.0169 119.811 22.9514 121.107 18.8028 119.514C14.6541 117.922 12.3298 112.838 14.9505 109.374C10.4129 110.273 5.24557 109.661 2.15259 106.679C-0.940388 103.688 -0.792225 98.021 3.18975 95.78L3.18048 95.7707Z" fill="#263238"/>
<path d="M59.1656 24.4567C53.5538 25.5586 49.6829 29.3461 46.3585 34.0041C43.034 38.6621 41.3856 44.4221 41.3393 50.145C41.293 56.1735 43.034 62.2762 46.6548 67.0916C50.2756 71.9162 55.8133 75.3519 61.8048 76.0001C69.991 76.8891 78.3069 72.3422 82.687 65.3784C87.0672 58.4146 87.6691 49.4042 85.0484 41.5977C83.2427 36.2174 79.9274 31.2816 75.2972 28.0034C70.667 24.7252 64.6941 23.225 59.1563 24.4474" fill="#263238"/>
<path d="M50.9635 48.08C50.9635 45.7649 49.8152 43.6258 49.3151 41.3755C48.2039 36.4119 48.3243 31.4761 52.0192 27.9757C55.4548 24.716 62.826 22.9288 68.3452 22.651C72.1327 22.4657 76.0221 23.1603 79.3096 25.0494C83.6712 27.559 86.6716 32.291 87.0605 37.3102L61.6314 42.9312C60.085 45.6538 58.4922 48.4227 56.1493 50.5063C55.464 51.1174 54.6861 51.6731 53.7879 51.8583C52.8896 52.0435 51.8432 51.7842 51.3246 51.0248C50.7597 50.1914 50.9635 49.0894 50.9635 48.0893V48.08Z" fill="#263238"/>
<path d="M67.3156 92.2056L51.5914 46.9222C50.8598 44.8664 50.0449 42.4402 52.0267 41.5326L71.3809 29.1052C77.9095 26.1233 85.2067 32.9482 87.9107 39.5972C90.9204 46.987 94.2912 56.1271 95.2913 62.063C97.2915 73.9904 89.0868 78.3428 89.0868 78.3428C89.1609 78.528 89.5313 81.4543 90.8463 85.5288L92.5595 91.8074C86.0865 92.9001 67.3156 92.2056 67.3156 92.2056Z" fill="#FFBF9D"/>
<path d="M88.4852 49.895C88.7722 50.6544 88.3648 51.5156 87.5777 51.8304C86.7905 52.1453 85.9293 51.7841 85.6422 51.0248C85.3552 50.2654 85.7626 49.4042 86.5497 49.0894C87.3369 48.7745 88.2073 49.1357 88.4852 49.895Z" fill="#263238"/>
<path d="M87.5214 45.0795C87.401 45.3295 86.0304 44.885 84.4654 45.4129C82.9004 45.9222 82.0207 47.1075 81.7892 46.9686C81.678 46.9131 81.7429 46.5056 82.1225 45.9778C82.493 45.4499 83.2153 44.8202 84.1876 44.4961C85.16 44.172 86.1045 44.2553 86.6972 44.4683C87.2991 44.6721 87.5769 44.9684 87.5214 45.0795Z" fill="#263238"/>
<path d="M75.076 54.3403C75.3631 55.0997 74.9556 55.9609 74.1685 56.2758C73.3813 56.5906 72.5201 56.2294 72.233 55.4701C71.946 54.7107 72.3534 53.8495 73.1406 53.5347C73.9277 53.2198 74.7982 53.581 75.076 54.3403Z" fill="#263238"/>
<path d="M72.7684 49.2377C72.6481 49.4878 71.2775 49.0433 69.7125 49.5711C68.1475 50.0804 67.2678 51.2658 67.0363 51.1268C66.9251 51.0713 66.99 50.6638 67.3696 50.136C67.7401 49.6081 68.4624 48.9784 69.4347 48.6543C70.4071 48.3302 71.3516 48.4135 71.9443 48.6265C72.5462 48.8303 72.824 49.1266 72.7684 49.2377Z" fill="#263238"/>
<path d="M81.8085 60.2106C81.7714 60.1273 82.6882 59.6272 84.1977 58.9049C84.5866 58.729 84.9385 58.5252 84.9107 58.2289C84.9107 57.9048 84.5959 57.5344 84.244 57.1362C83.5494 56.2935 82.8086 55.4137 82.0493 54.4877C78.9563 50.7094 76.5764 47.5516 76.7338 47.422C76.8912 47.3016 79.5119 50.2649 82.6049 54.0432C83.355 54.9785 84.0773 55.8675 84.7626 56.7194C85.0682 57.1176 85.4941 57.5529 85.4941 58.2196C85.4941 58.553 85.2626 58.8679 85.0311 59.0253C84.7996 59.192 84.5773 59.2661 84.3829 59.3494C82.8271 59.9699 81.8455 60.3032 81.8085 60.2199V60.2106Z" fill="#263238"/>
<path d="M89.0857 78.3433C89.0857 78.3433 81.6311 81.3899 72.5559 79.3804C72.5559 79.3804 78.7974 86.5665 89.7803 81.7048L89.0857 78.3433Z" fill="#FF9A6C"/>
<path d="M70.1587 43.459C70.1495 43.9313 68.5196 44.2554 66.7601 45.0888C64.9821 45.8852 63.6857 46.9224 63.3153 46.626C63.1486 46.4779 63.269 45.9963 63.732 45.3851C64.1858 44.774 65.0007 44.0702 66.0656 43.5794C67.1306 43.0886 68.1955 42.9311 68.9549 42.9774C69.7235 43.0237 70.168 43.246 70.168 43.4682L70.1587 43.459Z" fill="#263238"/>
<path d="M84.7708 38.3933C84.6134 38.8378 83.4188 38.8286 82.1131 39.2453C80.7981 39.6157 79.7979 40.2825 79.4275 39.9954C79.2608 39.8565 79.3072 39.4398 79.6776 38.9397C80.0387 38.4489 80.7333 37.9118 81.6315 37.634C82.5298 37.3654 83.4095 37.4303 83.9837 37.634C84.5671 37.847 84.8356 38.1618 84.7708 38.3748V38.3933Z" fill="#263238"/>
<path d="M45.8773 46.2927C45.6273 39.0603 51.8503 26.7162 58.8233 24.7715L72.0009 27.42C72.6584 31.3556 70.9545 35.5969 67.7504 37.9676C66.0372 39.2362 63.7869 40.2178 63.2313 42.2829C62.6664 44.385 64.2222 46.5983 63.7592 48.7189C63.1109 51.6637 58.9623 53.0157 58.7585 56.0254C58.6752 57.3403 59.416 58.609 59.3049 59.924C59.1567 61.6742 56.0267 64.9431 54.2672 64.9987C52.517 65.0635 51.5539 62.378 50.5353 61.1556C48.7943 59.0628 48.7202 57.6922 48.5258 56.2476C48.0813 52.8213 45.9977 49.7468 45.8773 46.2927Z" fill="#263238"/>
<path d="M59.3889 64.6749C59.1018 63.8322 57.4627 62.1746 56.583 62.3228C54.2401 62.721 50.2952 64.2397 52.1472 69.9071C54.6846 77.6488 61.9355 73.5001 61.8707 73.2778C61.8244 73.1019 60.3612 67.592 59.3796 64.6842L59.3889 64.6749Z" fill="#FFBF9D"/>
<path d="M58.5461 71.1102C58.5461 71.1102 58.4442 71.2491 58.2498 71.4251C58.0646 71.601 57.7034 71.7955 57.2497 71.777C56.3329 71.7492 55.2216 70.675 54.7216 69.2859C54.4715 68.5914 54.3974 67.8691 54.4623 67.2301C54.5086 66.5819 54.7493 66.0726 55.1383 65.8596C55.518 65.6281 55.8884 65.7855 56.0551 65.9707C56.231 66.1559 56.231 66.3226 56.2773 66.3226C56.3051 66.3319 56.3977 66.1374 56.231 65.8411C56.1477 65.7021 55.9995 65.5447 55.768 65.4521C55.5365 65.3595 55.2309 65.378 54.9531 65.4984C54.3697 65.7392 54.0085 66.4615 53.9344 67.156C53.8325 67.8691 53.8881 68.684 54.1752 69.4711C54.7401 71.0176 56.0088 72.2122 57.2404 72.1659C57.8331 72.1289 58.2313 71.814 58.4072 71.5547C58.5832 71.2862 58.5646 71.101 58.5368 71.0917L58.5461 71.1102Z" fill="#FF9A6C"/>
<path d="M68.917 25.9471C70.7876 28.7808 77.0013 30.9663 79.9832 32.5961C85.6691 35.7076 87.0304 36.9392 90.8827 47.2368C91.4013 42.977 91.5031 38.958 89.8455 35.0038C88.1879 31.0496 85.1875 27.5955 81.3074 25.7619C77.4273 23.9284 72.6675 23.8635 68.917 25.9471Z" fill="#263238"/>
<path d="M41.9623 47.6539C41.9623 47.6539 42.4716 47.6261 43.3791 47.4872C43.8329 47.4223 44.3885 47.3297 45.0182 47.1723C45.6572 47.0241 46.3887 46.8852 47.1666 46.6352C48.7502 46.2 50.593 45.5332 52.584 44.6442C54.5564 43.7274 56.6585 42.5791 58.7421 41.1716C60.8072 39.7362 62.6408 38.1897 64.2058 36.6803C65.743 35.143 67.0395 33.6706 68.0118 32.3464C68.5304 31.7074 68.9193 31.0777 69.2898 30.5406C69.6602 30.0035 69.9472 29.522 70.1787 29.1238C70.6325 28.3274 70.8733 27.8829 70.8455 27.8644C70.8177 27.8458 70.5214 28.2626 70.0213 29.0219C69.7713 29.4016 69.4657 29.8739 69.0768 30.3832C68.6878 30.9018 68.2804 31.513 67.7525 32.1334C66.7524 33.4206 65.4467 34.856 63.9002 36.3562C62.3352 37.8286 60.5202 39.3565 58.4736 40.7641C56.4178 42.1624 54.3434 43.3015 52.3987 44.2275C50.4448 45.1258 48.6298 45.8203 47.074 46.2926C46.3054 46.5611 45.5831 46.7278 44.9626 46.8945C44.3422 47.0704 43.7958 47.1908 43.3513 47.2834C42.4623 47.4779 41.9715 47.6075 41.9715 47.6353L41.9623 47.6539Z" fill="#455A64"/>
<path d="M43.229 53.4139C43.229 53.4139 43.5809 53.4046 44.1921 53.2935C44.8126 53.1916 45.6923 52.9879 46.7665 52.673C48.9149 52.0619 51.8134 50.9043 54.7212 49.1078C57.629 47.302 59.9441 45.2092 61.4535 43.5608C62.2036 42.7366 62.787 42.0421 63.1482 41.5328C63.5186 41.0327 63.7038 40.7456 63.6853 40.7179C63.6204 40.6623 62.7685 41.7458 61.2127 43.32C59.657 44.8943 57.3419 46.9131 54.4712 48.6911C51.6004 50.4691 48.7668 51.6544 46.6647 52.3397C44.5625 53.0342 43.2105 53.3213 43.229 53.4046V53.4139Z" fill="#455A64"/>
<path d="M77.0767 62.6841C78.4936 62.8971 81.0772 63.3601 82.457 63.7398C82.2255 66.7124 79.8456 67.3976 78.9103 67.2402C77.975 67.0828 76.9193 66.3419 76.6785 65.4622C76.4285 64.5454 76.7526 63.5823 77.0767 62.6841Z" fill="#FF9A6C"/>
<path d="M81.18 66.4341C81.18 66.4341 81.0226 66.5545 80.717 66.7026C80.5688 66.7767 80.3743 66.86 80.1521 66.9064C79.9484 66.9434 79.6428 66.9434 79.3557 66.9434C78.7723 66.9249 78.013 66.8045 77.5407 66.2489C77.0591 65.684 76.9295 64.795 77.0962 63.906C77.161 63.5078 77.2629 63.1188 77.3647 62.7392L77.1054 62.9151C80.2725 63.3041 82.6339 63.8967 82.6617 63.7763C82.6802 63.7208 82.106 63.4985 81.1244 63.2392C80.1428 62.9707 78.763 62.6651 77.161 62.4521L76.9573 62.4243L76.9017 62.628C76.7998 63.0077 76.6887 63.4059 76.6146 63.8412C76.4387 64.795 76.5776 65.8692 77.2073 66.5545C77.8555 67.2582 78.7445 67.3231 79.3557 67.3045C79.6798 67.286 79.9484 67.2675 80.2262 67.1934C80.4855 67.1101 80.6707 66.9897 80.8188 66.8878C81.1152 66.6748 81.2078 66.4804 81.18 66.4619V66.4341Z" fill="#263238"/>
<path d="M41.0063 49.562C41.0063 49.562 40.9415 49.9324 40.923 50.5992C40.9045 50.9325 40.9045 51.3493 40.9323 51.8215C40.9601 52.3031 40.9693 52.8494 41.0526 53.4421C41.173 54.646 41.4509 56.0535 41.8768 57.5908C42.3306 59.1187 42.9603 60.7671 43.7937 62.4062C44.6457 64.036 45.6366 65.4992 46.6182 66.7586C47.6275 67.9995 48.6184 69.0459 49.5259 69.833C49.9612 70.2497 50.4057 70.5739 50.7761 70.8702C51.1465 71.1758 51.4891 71.4073 51.7669 71.5925C52.3318 71.9629 52.6467 72.1574 52.6652 72.1296C52.7208 72.0555 51.4799 71.2313 49.7574 69.583C48.887 68.7681 47.9331 67.7124 46.9701 66.4808C46.0255 65.2306 45.0717 63.786 44.229 62.1839C43.4048 60.5726 42.7844 58.9613 42.3121 57.4611C41.8676 55.9517 41.562 54.5719 41.3953 53.3958C41.0527 51.0437 41.099 49.5527 41.0063 49.5527V49.562Z" fill="#455A64"/>
<path d="M55.6295 75.6946C55.4721 77.6486 56.9352 79.3525 58.8892 79.5099C60.8431 79.6673 62.547 78.2042 62.7045 76.2502C62.8526 74.2963 61.3987 72.5924 59.4448 72.4349C57.4909 72.2775 55.7869 73.7407 55.6295 75.6946Z" fill="#455A64"/>
<path d="M72.4394 364.296L71.143 397.096L111.944 398.911C111.88 395.003 91.1177 386.234 91.1177 386.234L92.8123 365.25L72.4394 364.287V364.296Z" fill="#455A64"/>
<path d="M78.5823 383.919C77.7859 384.095 77.2025 384.965 77.3415 385.771C77.4896 386.576 78.3601 387.178 79.1658 387.012C79.9714 386.845 80.703 385.826 80.4622 385.048C80.2214 384.261 79.1657 383.613 78.4249 383.965" fill="white"/>
<path d="M71.1354 397.17L71.2558 393.66L110.427 396.901C110.427 396.901 112.205 397.781 111.928 399.05L71.1354 397.17Z" fill="#263238"/>
<path d="M91.7949 386.067C91.7764 386.261 90.7763 386.308 89.7669 386.91C88.739 387.484 88.2019 388.317 88.0167 388.234C87.8315 388.187 88.1834 387.011 89.415 386.308C90.6466 385.595 91.832 385.891 91.7857 386.067H91.7949Z" fill="#263238"/>
<path d="M95.9911 388.03C96.0281 388.224 95.1484 388.53 94.4353 389.336C93.6945 390.123 93.4815 391.03 93.287 391.012C93.1018 391.03 93.0092 389.863 93.9167 388.873C94.815 387.872 95.9911 387.845 95.9911 388.03Z" fill="#263238"/>
<path d="M98.1953 393.253C98.0101 393.29 97.7786 392.281 98.3435 391.216C98.8991 390.142 99.853 389.753 99.9363 389.929C100.038 390.096 99.4085 390.66 98.964 391.54C98.5009 392.411 98.3991 393.253 98.2046 393.263L98.1953 393.253Z" fill="#263238"/>
<path d="M91.6471 381.242C91.5545 381.418 90.6562 381.103 89.5264 381.131C88.3967 381.131 87.5077 381.474 87.4058 381.298C87.2947 381.149 88.1837 380.446 89.5172 380.436C90.8507 380.418 91.7582 381.094 91.6471 381.242Z" fill="#263238"/>
<path d="M49.5939 342.432L31.4342 369.778L65.3366 392.549C67.3091 389.179 54.1408 370.899 54.1408 370.899L66.4941 353.859L49.5939 342.441V342.432Z" fill="#455A64"/>
<path d="M44.6485 362.378C43.8707 362.119 42.9261 362.554 42.6298 363.314C42.3334 364.082 42.7687 365.045 43.5373 365.323C44.3059 365.601 45.4635 365.11 45.6672 364.323C45.8709 363.527 45.306 362.425 44.4911 362.341" fill="white"/>
<path d="M31.3973 369.824L33.3327 366.888L65.1051 390.03C65.1051 390.03 66.1608 391.706 65.2718 392.651L31.4065 369.833L31.3973 369.824Z" fill="#263238"/>
<path d="M54.8082 371.083C54.6878 371.241 53.8174 370.769 52.6413 370.75C51.4652 370.704 50.567 371.139 50.4559 370.972C50.3262 370.833 51.2337 370.009 52.6506 370.056C54.0674 370.083 54.9379 370.954 54.799 371.083H54.8082Z" fill="#263238"/>
<path d="M57.3826 374.946C57.3085 375.131 56.4103 374.927 55.3731 375.251C54.3267 375.547 53.6785 376.205 53.521 376.085C53.3451 376.01 53.8822 374.955 55.1786 374.584C56.4658 374.195 57.4845 374.779 57.3826 374.946Z" fill="#263238"/>
<path d="M56.5383 380.557C56.3624 380.492 56.6865 379.511 57.7237 378.89C58.7516 378.261 59.7702 378.427 59.7517 378.612C59.7517 378.807 58.9275 378.964 58.0848 379.483C57.2329 379.983 56.7143 380.65 56.5383 380.557Z" fill="#263238"/>
<path d="M57.1957 366.889C57.029 366.991 56.4178 366.259 55.4362 365.694C54.4731 365.111 53.5285 364.935 53.5378 364.731C53.5193 364.546 54.649 364.407 55.7881 365.092C56.9364 365.768 57.3624 366.815 57.1864 366.889H57.1957Z" fill="#263238"/>
<path d="M117.843 225.344C118.723 228.594 122.103 256.588 124.001 271.349C125.89 286.101 125.057 293.528 123.658 296.991C122.26 300.455 57.2058 366.898 57.2058 366.898L36.5088 354.202C36.5088 354.202 61.3266 308.521 70.8093 299.899C80.3012 291.269 99.0813 282.453 99.0813 282.453L86.4409 201.831L112.833 198.062L117.852 225.362L117.843 225.344Z" fill="#263238"/>
<path d="M118.075 194.201C118.242 196.118 125.576 244.17 112.843 280.499C112.843 280.499 108.333 291.907 107.787 296.778C107.25 301.649 93.7112 382.687 93.7112 382.687L70.0138 383.9C70.0138 383.9 62.7537 344.525 64.5594 321.207C66.3745 297.899 73.5976 299.964 72.3011 285.12C71.0047 270.275 64.7724 239.818 64.7724 239.818C64.7724 239.818 58.8736 231.863 55.688 215.722C53.0951 202.609 58.0771 187.885 58.0771 187.885L67.2264 162.252L115.149 169.133L118.057 194.192L118.075 194.201Z" fill="#263238"/>
<path d="M118.076 194.201C118.076 194.201 118.03 193.645 117.919 192.562C117.798 191.469 117.622 189.849 117.391 187.737C116.909 183.487 116.205 177.217 115.298 169.133L115.279 169.003L115.15 169.022C102.407 170.8 84.6923 173.263 63.273 176.245L63.1618 176.264L63.1155 176.365C61.495 179.921 59.7262 183.802 57.8927 187.811V187.83C56.6703 191.719 55.7628 195.831 55.2257 200.109C54.6701 204.378 54.5404 208.851 55.0775 213.37C55.7628 217.871 56.9018 222.371 58.402 226.872C59.9485 231.354 61.8098 235.845 64.5879 239.984L64.5416 239.883C66.1437 247.856 67.6995 256.125 69.1533 264.645C69.8756 268.905 70.5609 273.239 71.1628 277.628C71.4684 279.823 71.737 282.036 71.95 284.268C72.0889 285.379 72.0981 286.499 72.1815 287.62C72.163 288.74 72.2093 289.861 72.0611 290.981C71.8666 293.223 71.2554 295.408 70.3757 297.51C69.5052 299.621 68.5051 301.714 67.7087 303.909C66.0696 308.289 65.1714 312.947 64.6343 317.661C63.5693 327.106 64.0323 336.783 64.7824 346.498C65.8659 359.333 67.6161 371.871 69.746 383.965L69.7923 384.215H70.0423C78.1174 383.789 86.0258 383.382 93.7397 382.984H93.962L93.999 382.752C98.5181 355.61 102.722 330.236 106.399 307.437C106.843 304.585 107.288 301.77 107.723 299.001C107.945 297.603 108.056 296.223 108.371 294.899C108.667 293.565 109.038 292.25 109.427 290.944C110.223 288.352 111.094 285.833 112.001 283.369C112.233 282.758 112.464 282.147 112.686 281.536C112.927 280.934 113.15 280.323 113.325 279.693C113.705 278.461 114.085 277.23 114.465 276.017C117.363 266.275 118.752 256.949 119.567 248.467C121.123 231.474 120.326 217.824 119.65 208.527C118.891 199.22 118.076 194.201 118.076 194.201C118.076 194.201 118.095 194.516 118.169 195.136C118.243 195.766 118.345 196.683 118.484 197.887C118.761 200.304 119.113 203.887 119.465 208.545C120.076 217.843 120.817 231.474 119.215 248.43C118.382 256.885 116.974 266.191 114.066 275.887C113.687 277.091 113.307 278.313 112.927 279.536C112.751 280.156 112.529 280.758 112.288 281.36C112.057 281.971 111.825 282.582 111.594 283.193C110.677 285.657 109.797 288.185 108.992 290.787C108.603 292.093 108.223 293.417 107.917 294.769C107.603 296.13 107.482 297.538 107.26 298.908C106.825 301.677 106.38 304.483 105.926 307.335C102.148 330.116 97.9532 355.49 93.4526 382.641L93.7119 382.41C85.998 382.798 78.0896 383.206 70.0145 383.613L70.3109 383.845C68.1903 371.779 66.44 359.249 65.3658 346.442C64.6157 336.737 64.1527 327.097 65.2177 317.716C65.7455 313.04 66.6345 308.428 68.2551 304.094C69.0422 301.927 70.0331 299.844 70.9128 297.705C71.8018 295.575 72.4315 293.306 72.626 291.019C72.7742 289.88 72.7278 288.731 72.7463 287.592C72.663 286.462 72.6537 285.314 72.5148 284.203C72.3018 281.962 72.0241 279.739 71.7185 277.545C71.1165 273.146 70.422 268.812 69.6904 264.543C68.2273 256.014 66.6623 247.745 65.051 239.771V239.725L65.0047 239.67C62.3006 235.641 60.4115 231.141 58.8835 226.705C57.3926 222.242 56.2443 217.741 55.5683 213.296C55.0312 208.832 55.1516 204.406 55.698 200.155C56.2258 195.905 57.1241 191.812 58.3187 187.959V187.978C60.1244 183.968 61.8932 180.079 63.5045 176.523L63.347 176.643C84.7571 173.597 102.463 171.078 115.205 169.263L115.066 169.152C116.03 177.236 116.77 183.496 117.28 187.746C117.539 189.858 117.733 191.469 117.872 192.562C118.011 193.645 118.095 194.201 118.095 194.201H118.076Z" fill="#455A64"/>
<path d="M91.6369 86.7427C91.6369 86.7427 116.723 111.422 118.27 122.701C119.242 129.785 114.529 146.648 113.788 157.075C113.658 158.881 117.047 163.123 117.529 165.447C118.4 169.651 115.908 169.688 111.528 169.901C103.759 170.272 88.405 169.521 79.7373 169.901L63.4205 169.197L67.6895 152.14C67.6895 152.14 65.18 137.212 64.291 131.498C61.9944 116.682 60.3275 112.764 60.9664 104.634C61.6147 96.5031 65.7819 89.1226 65.7819 89.1226C79.3576 88.4466 89.6089 89.9375 91.6277 86.7519L91.6369 86.7427Z" fill="#FEC430"/>
<path d="M104.563 147C104.563 147 104.832 146.796 105.239 146.361C105.656 145.926 106.212 145.25 106.851 144.379C108.129 142.638 109.666 140.018 110.805 136.851C111.935 133.684 112.425 130.646 112.546 128.452C112.611 127.35 112.62 126.461 112.574 125.849C112.537 125.238 112.5 124.896 112.462 124.896C112.37 124.896 112.379 126.257 112.148 128.414C111.925 130.572 111.379 133.535 110.277 136.638C109.166 139.74 107.721 142.342 106.536 144.129C105.36 145.917 104.499 146.926 104.573 147H104.563Z" fill="#263238"/>
<path d="M105.018 164.428C104.379 157.149 102.832 145.268 99.0353 128.322C98.063 123.997 97.4796 120.154 96.8777 116.626C94.2477 101.142 81.209 89.391 65.5034 88.8076C65.4478 88.8076 65.3923 88.8076 65.3274 88.8076C65.3274 88.8076 57.9284 97.1327 58.7525 110.079C59.0581 114.913 66.272 157.779 66.272 157.779C66.272 157.779 48.2142 210.212 54.2612 219.009C54.7057 219.657 99.7761 223.028 104.555 219.426C109.324 215.823 105.453 169.447 105.008 164.428H105.018Z" fill="#FE649F"/>
<path d="M160.197 127.664L171.208 127.59C173.115 129.702 173.347 133.147 171.736 135.499C171.05 136.499 170.087 137.295 169.467 138.332C168.633 139.721 168.485 141.398 168.031 142.944C167.578 144.5 166.624 146.111 165.05 146.482C163.679 146.796 162.234 146.028 161.392 144.907C160.549 143.787 160.188 142.379 159.947 140.99C159.151 136.591 159.243 132.035 160.197 127.674V127.664Z" fill="#E0E0E0"/>
<path d="M136.436 51.9324L134.871 45.3482C131.343 45.6261 124.879 43.6536 123.101 36.875C122.157 33.2634 121.916 32.856 120.573 24.9198C119.249 17.0762 121.268 12.5664 121.268 12.5664C121.268 12.5664 124.138 4.95435 133.371 3.77828C139.594 2.99115 145.771 5.91743 149.252 9.2697C150.975 10.9366 152.021 13.1683 152.207 15.5575C152.614 21.0212 153.373 31.4021 153.54 34.1987C153.762 38.051 154.114 39.3845 154.114 39.3845L154.966 45.4964C156.272 51.173 152.771 56.8497 147.113 58.2387C141.622 59.5907 137.788 56.4237 136.436 51.9324Z" fill="#FFBF9D"/>
<path d="M134.871 45.3849C134.871 45.3849 142.529 43.9681 144.066 42.2827C144.066 42.2827 143.474 46.1906 135.315 47.4315L134.88 45.3849H134.871Z" fill="#FF9A6C"/>
<path d="M141.389 9.78811C137.305 11.8347 135.277 11.8717 130.434 12.9366C126.258 13.8534 122.702 13.4367 122.072 13.3811C120.35 13.233 120.081 22.1971 120.081 22.1971C117.192 13.8442 122.192 6.47288 129.869 3.77811C135.018 1.97233 139.324 1.19445 144.936 3.49103C145.871 3.87071 148.872 5.05604 150.242 6.45436C155.697 12.0013 155.641 17.8817 155.067 23.5306L152.891 23.8176L152.974 24.6048C153.122 25.929 152.27 27.1606 150.983 27.494C150.64 27.5866 150.298 27.6422 149.983 27.6422C148.983 27.6422 147.816 25.679 147.631 24.6974C147.27 22.8453 147.214 21.1043 147.214 19.8264L146.908 17.3631C146.908 17.3631 143.982 16.6408 143.167 15.5018C142.362 14.372 141.389 9.77885 141.389 9.77885V9.78811Z" fill="#263238"/>
<path d="M152.169 23.2157C152.317 23.1231 158.142 19.669 158.938 26.0216C159.735 32.3835 153.141 31.3464 153.104 31.1704C153.067 30.9852 152.169 23.2157 152.169 23.2157Z" fill="#FFBF9D"/>
<path d="M154.8 28.291C154.8 28.291 154.893 28.3373 155.041 28.3836C155.189 28.4299 155.43 28.4392 155.671 28.3188C156.152 28.0688 156.476 27.2076 156.393 26.3464C156.347 25.9111 156.208 25.5037 156.004 25.1795C155.81 24.8462 155.56 24.6332 155.291 24.6147C155.032 24.5869 154.865 24.7628 154.828 24.9017C154.782 25.0406 154.828 25.1332 154.8 25.1518C154.791 25.161 154.689 25.0869 154.698 24.8832C154.698 24.7813 154.745 24.661 154.847 24.5591C154.948 24.448 155.115 24.3831 155.291 24.3831C155.661 24.3646 156.041 24.661 156.254 25.0129C156.495 25.3648 156.662 25.8185 156.708 26.3093C156.8 27.2817 156.421 28.2447 155.754 28.5318C155.43 28.6615 155.134 28.5966 154.976 28.504C154.81 28.4022 154.772 28.3003 154.791 28.291H154.8Z" fill="#FF9A6C"/>
<path d="M124.897 25.8739C125.082 26.0499 126.092 25.2164 127.592 25.1424C129.092 25.0498 130.231 25.7628 130.379 25.5776C130.453 25.4943 130.259 25.1701 129.768 24.846C129.277 24.5219 128.453 24.2256 127.527 24.2719C126.592 24.3274 125.823 24.7071 125.388 25.0775C124.943 25.4572 124.804 25.7906 124.897 25.8647V25.8739Z" fill="#263238"/>
<path d="M137.704 23.6704C137.907 23.8093 138.787 22.8277 140.25 22.5221C141.713 22.1887 142.954 22.7166 143.075 22.5036C143.139 22.411 142.899 22.1239 142.352 21.8831C141.815 21.6424 140.963 21.4757 140.046 21.6794C139.13 21.8831 138.435 22.3832 138.065 22.8184C137.685 23.2629 137.602 23.6148 137.704 23.6797V23.6704Z" fill="#263238"/>
<path d="M137.093 18.9378C137.371 19.2434 138.408 18.7619 139.714 18.5396C141.01 18.2803 142.149 18.3637 142.298 17.9747C142.362 17.7895 142.112 17.5025 141.594 17.2802C141.084 17.058 140.288 16.9376 139.445 17.095C138.603 17.2524 137.899 17.6414 137.501 18.0396C137.093 18.4285 136.973 18.7897 137.093 18.9378Z" fill="#263238"/>
<path d="M123.99 21.4842C124.268 21.7898 125.305 21.3083 126.61 21.086C127.907 20.8267 129.046 20.9101 129.194 20.5211C129.259 20.3359 129.009 20.0489 128.49 19.8266C127.981 19.6044 127.185 19.484 126.342 19.6414C125.499 19.7988 124.795 20.1878 124.397 20.586C123.99 20.9749 123.869 21.336 123.99 21.4842Z" fill="#263238"/>
<path d="M135.085 32.088C135.112 32.1528 134.881 32.3473 134.399 32.3936C134.168 32.4121 133.862 32.3751 133.566 32.2269C133.27 32.0788 132.992 31.8009 132.834 31.4305C132.677 31.0601 132.705 30.6249 132.871 30.3285C133.029 30.0137 133.279 29.81 133.529 29.7266C133.788 29.6433 133.946 29.6711 134.048 29.6525C134.149 29.6525 134.223 29.634 134.251 29.6618C134.279 29.6896 134.251 29.7729 134.131 29.8563C134.02 29.9396 133.825 29.9952 133.696 30.0878C133.418 30.2637 133.168 30.7453 133.372 31.2083C133.464 31.4398 133.64 31.6343 133.825 31.7546C134.01 31.875 134.223 31.9491 134.409 31.9769C134.779 32.0417 135.048 32.0047 135.075 32.088H135.085Z" fill="#263238"/>
<path d="M140.038 31.7544C140.26 31.7544 140.473 31.8192 140.658 32.0044C140.844 32.1803 140.992 32.4674 141.057 32.8286C141.121 33.199 141.094 33.6435 140.927 34.1065C140.76 34.5695 140.464 35.0511 140.019 35.44C139.575 35.8289 139.056 36.0697 138.575 36.1716C138.093 36.2734 137.649 36.2457 137.288 36.1438C136.936 36.0327 136.667 35.8567 136.519 35.6437C136.362 35.44 136.315 35.2178 136.352 34.9955C136.426 34.5603 136.76 34.2176 137.047 33.8843C137.352 33.5601 137.63 33.2638 137.899 33.0323C138.167 32.7915 138.501 32.5508 138.853 32.2915C139.214 32.0414 139.593 31.7636 140.038 31.7358V31.7544Z" fill="#FF9A6C"/>
<path d="M138.334 36.255C138.334 36.255 138.501 36.2087 138.788 36.1161C139.075 36.0235 139.482 35.866 139.89 35.5327C140.094 35.366 140.288 35.153 140.455 34.9029C140.612 34.6437 140.751 34.3288 140.834 34.0047C140.918 33.6713 140.955 33.3102 140.89 32.949C140.825 32.5971 140.668 32.2267 140.408 31.9581C140.279 31.8285 140.121 31.7266 139.964 31.7081C139.807 31.6803 139.64 31.7266 139.492 31.8192C139.195 32.0044 138.945 32.3008 138.686 32.5508C138.186 33.0601 137.732 33.5139 137.353 33.9121C136.584 34.6807 136.093 35.1437 136.065 35.1159C136.038 35.0882 136.473 34.5788 137.204 33.7732C137.575 33.3657 138.019 32.8934 138.501 32.3656C138.751 32.1063 138.982 31.81 139.344 31.5785C139.529 31.4673 139.76 31.384 140.01 31.421C140.251 31.4581 140.464 31.5877 140.621 31.7544C140.936 32.0878 141.103 32.4952 141.177 32.9027C141.242 33.3102 141.196 33.7176 141.094 34.0788C140.992 34.4399 140.834 34.7548 140.659 35.0419C140.473 35.3197 140.242 35.5419 140.02 35.7086C139.566 36.042 139.121 36.1809 138.825 36.2364C138.519 36.292 138.343 36.2827 138.343 36.2642L138.334 36.255Z" fill="#263238"/>
<path d="M138.594 26.652C138.649 27.3835 139.325 27.9392 140.094 27.8929C140.862 27.8466 141.437 27.2076 141.381 26.476C141.325 25.7444 140.649 25.1888 139.881 25.2351C139.112 25.2814 138.538 25.9204 138.594 26.652Z" fill="#263238"/>
<path d="M125.888 28.9762C125.943 29.7077 126.619 30.2634 127.388 30.2171C128.156 30.1708 128.731 29.5318 128.675 28.8002C128.619 28.0687 127.943 27.513 127.175 27.5593C126.406 27.6056 125.832 28.2446 125.888 28.9762Z" fill="#263238"/>
<path d="M143.129 42.7739C146.083 40.4403 149.741 39.1253 153.5 39.1624C154.621 39.1716 155.63 39.292 156.269 39.6069C158.519 40.7181 162.187 44.6723 163.613 47.0245C165.048 49.3674 175.54 75.5373 175.54 75.5373C175.54 75.5373 165.242 85.0199 159.862 88.3722C154.482 91.7245 147.833 93.6969 147.833 93.6969C147.833 93.6969 140.323 81.4176 138.86 76.3985C137.387 71.3886 135.943 58.0166 135.618 54.4976C135.341 51.4972 135.655 48.6636 135.655 48.6636L143.119 42.7739H143.129Z" fill="#FEC430"/>
<path d="M173.579 70.6479C173.579 70.6479 180.256 79.3713 179.755 85.8906C178.978 96.077 169.819 104.773 169.486 110.838C169.384 112.699 174.347 127.136 173.607 128.924C172.875 130.72 159.734 139.471 157.818 136.425C155.901 133.378 146.001 117.006 147.409 107.727C148.816 98.4477 149.696 86.9 149.696 86.9L173.57 70.6479H173.579Z" fill="#263238"/>
<path d="M149.762 1.41655C149.66 1.33321 148.873 2.07404 147.993 3.09268C147.113 4.10207 146.493 4.99107 146.594 5.08367C146.696 5.16701 147.483 4.42618 148.363 3.40754C149.243 2.39815 149.863 1.50915 149.762 1.41655Z" fill="#263238"/>
<path d="M145.29 0C145.16 0.0648229 145.623 1.15755 145.734 2.58365C145.864 4.00976 145.586 5.16731 145.725 5.20435C145.836 5.25991 146.355 4.08384 146.216 2.54661C146.095 1.00938 145.392 -0.0648229 145.29 0.0092604V0Z" fill="#263238"/>
<path d="M158.069 78.0013C158.069 78.0013 164.282 67.5093 165.403 65.9813C166.533 64.4534 167.866 54.378 167.866 54.378C167.866 54.378 167.366 53.8039 166.051 54.7207C166.051 54.7207 166.19 52.2945 165.875 50.8128C165.718 50.0812 165.477 49.4237 165.283 48.9514C165.06 48.4143 164.551 48.0347 163.977 48.0069C163.782 48.0069 163.606 48.0254 163.486 48.1273L162.634 44.775C162.514 44.312 162.18 43.923 161.717 43.7841C161.338 43.673 160.884 43.7193 160.486 44.2657C160.486 44.2657 160.449 43.1822 159.124 43.21C157.809 43.2378 157.559 44.4602 156.846 46.516C155.976 49.0163 154.114 53.5539 154.114 53.5539L143.817 67.5741C143.817 67.5741 144.734 71.3524 144.771 75.7789L156.661 81.6685L158.069 78.0013Z" fill="#FFBF9D"/>
<path d="M160.476 44.2656C160.337 44.2656 160.235 46.9975 159.541 50.2849C159.198 51.924 158.772 53.3872 158.374 54.4058C157.985 55.4337 157.643 56.0171 157.707 56.0634C157.754 56.1004 158.207 55.5541 158.689 54.5447C159.18 53.5353 159.671 52.0537 160.013 50.3868C160.717 47.0438 160.606 44.2564 160.476 44.2656Z" fill="#FF9A6C"/>
<path d="M163.382 48.3032C163.308 48.3217 163.429 48.8958 163.41 49.8219C163.401 50.7479 163.216 52.0166 162.753 53.3593C161.855 56.0726 160.845 58.1748 160.956 58.2303C161.077 58.2951 162.299 56.2671 163.207 53.5075C163.679 52.1184 163.827 50.7664 163.744 49.8033C163.67 48.8403 163.429 48.2754 163.373 48.2939L163.382 48.3032Z" fill="#FF9A6C"/>
<path d="M166.088 54.4336C165.958 54.3965 165.403 56.1653 164.68 58.323C163.958 60.4806 163.337 62.2308 163.458 62.2771C163.578 62.3327 164.402 60.6566 165.134 58.4711C165.866 56.2949 166.217 54.4521 166.088 54.4243V54.4336Z" fill="#FF9A6C"/>
<path d="M131.044 54.3964C131.044 54.3964 129.97 51.4053 129.071 50.2663C128.173 49.1272 126.923 48.7013 126.923 48.7013C126.923 48.7013 125.46 47.0159 124.608 46.951C123.756 46.8862 122.691 47.9697 122.691 47.9697C122.691 47.9697 121.858 48.1086 121.821 48.7105C121.784 49.3124 122.265 49.2198 122.265 49.2198L122.487 49.9792C122.487 49.9792 121.228 49.9514 120.858 50.8219C120.496 51.6924 120.663 52.2665 120.663 52.2665C120.663 52.2665 119.996 52.4517 119.607 53.1833C119.218 53.9149 119.709 54.7668 119.709 54.7668C119.709 54.7668 119.209 55.2021 119.07 55.8781C118.931 56.5541 120.191 58.7395 121.024 59.0544C121.858 59.3692 126.349 60.9898 126.349 60.9898L131.035 54.3964H131.044Z" fill="#FFBF9D"/>
<path d="M122.645 50.1088C122.543 50.1829 122.802 50.6737 123.377 50.9607C123.951 51.2478 124.497 51.1645 124.497 51.0348C124.497 50.8959 124.071 50.7663 123.59 50.5255C123.108 50.294 122.747 50.0254 122.645 50.1088Z" fill="#FF9A6C"/>
<path d="M126.774 48.5994C126.802 48.5439 126.57 48.3494 126.144 48.1086C125.718 47.8771 125.061 47.5808 124.264 47.5901C123.459 47.5901 122.755 48.0346 122.496 48.4976C122.209 48.9606 122.283 49.3125 122.338 49.3125C122.412 49.3218 122.477 49.0254 122.773 48.7106C123.061 48.3864 123.607 48.0809 124.283 48.0809C124.959 48.0716 125.57 48.2846 126.015 48.4328C126.459 48.5809 126.755 48.6735 126.783 48.6087L126.774 48.5994Z" fill="#FF9A6C"/>
<path d="M120.792 52.3497C120.663 52.3682 120.672 52.8961 121.116 53.3128C121.561 53.7295 122.089 53.7203 122.098 53.5813C122.126 53.4424 121.774 53.2758 121.45 52.9609C121.116 52.6553 120.931 52.3127 120.792 52.3405V52.3497Z" fill="#FF9A6C"/>
<path d="M120.949 55.739C120.977 55.6093 120.69 55.4334 120.384 55.1926C120.07 54.9703 119.82 54.7388 119.699 54.8129C119.579 54.8685 119.699 55.2852 120.097 55.5815C120.496 55.8779 120.922 55.8686 120.949 55.739Z" fill="#FF9A6C"/>
<path d="M155.097 47.7382C155.097 47.7382 153.902 61.1102 152.133 65.2681C150.328 69.5279 148.818 71.0281 145.957 71.5282C143.095 72.0282 130.89 64.3051 128.566 62.666L125.26 60.6194L130.714 53.5445C130.714 53.5445 137.557 57.9987 139.122 57.832C140.687 57.6653 142.252 57.8043 142.252 57.8043L143.262 49.5254C143.262 49.5254 144.984 45.4046 148.457 44.6452C151.93 43.8766 155.097 47.7567 155.097 47.7567V47.7382Z" fill="#FEC430"/>
<path d="M147.095 60.11C147.095 60.11 147.039 59.9896 146.891 59.7859C146.734 59.5914 146.493 59.3043 146.123 58.9987C145.391 58.3968 144.067 57.6282 142.233 57.7023H142.252C141.465 57.6467 140.603 57.5912 139.677 57.5356C139.214 57.4986 138.733 57.4615 138.251 57.3967C138.131 57.3782 138.001 57.3597 137.927 57.3411L137.594 57.1559C137.371 57.0263 137.14 56.8966 136.918 56.767C135.075 55.7206 133.028 54.5723 130.834 53.3314L130.658 53.2388L130.537 53.3962C128.843 55.5817 127 57.9801 125.074 60.4711L124.907 60.6841L125.138 60.823C125.138 60.823 125.213 60.8693 125.25 60.8879C131.658 64.8143 137.492 68.324 141.9 70.565C143.02 71.1114 144.122 71.4447 145.122 71.5188C146.123 71.6022 146.984 71.4262 147.641 71.1669C148.289 70.9076 148.734 70.565 149.003 70.3242C149.271 70.0742 149.373 69.9075 149.364 69.8982C149.336 69.8612 148.854 70.5187 147.576 70.991C146.937 71.2225 146.113 71.3521 145.15 71.2503C144.196 71.1484 143.131 70.815 142.057 70.2594C137.723 67.9536 131.908 64.3976 125.509 60.4711C125.472 60.4526 125.435 60.4248 125.407 60.4063L125.472 60.7582C127.389 58.2579 129.232 55.8687 130.917 53.674L130.621 53.7296C132.843 54.9519 134.908 56.1002 136.779 57.1281C137.01 57.2578 137.242 57.3782 137.464 57.5078L137.797 57.693C137.964 57.7486 138.084 57.7486 138.214 57.7671C138.723 57.8227 139.205 57.8505 139.668 57.8782C140.594 57.9153 141.455 57.9616 142.252 57.9894C143.983 57.8782 145.28 58.5728 146.021 59.1191C146.771 59.6933 147.067 60.1285 147.095 60.1007V60.11Z" fill="#263238"/>
<path d="M141.383 57.9066C141.457 57.9159 141.642 56.7768 141.994 54.9525C142.346 53.1282 142.892 50.6187 143.689 47.8961C144.05 46.5348 144.596 45.3124 145.3 44.3401C145.976 43.3678 146.976 42.8307 147.782 42.4139C148.606 42.0065 149.319 41.8028 149.828 41.7379C150.338 41.6824 150.616 41.7657 150.625 41.7194C150.634 41.7009 150.356 41.5435 149.819 41.5435C149.282 41.5435 148.513 41.7101 147.643 42.0898C146.8 42.4788 145.726 43.0066 144.948 44.0623C144.189 45.0809 143.605 46.3681 143.235 47.7572C142.439 50.4983 141.939 53.0449 141.67 54.8877C141.401 56.7398 141.327 57.8881 141.392 57.8973L141.383 57.9066Z" fill="#263238"/>
<path d="M62.9379 114.043C64.5863 118.562 68.2256 122.526 73.3744 124.544C79.8474 127.082 119.028 141.435 128.418 142.028C131.456 142.222 134.095 141.63 136.354 140.676C141.587 138.444 145.411 133.795 146.8 128.276C148.458 121.692 151.643 108.866 153.94 98.6892C157.107 84.6782 157.403 79.6591 157.403 79.6591L142.92 74.7974L127.89 114.58C127.89 114.58 104.378 109.061 99.285 104.597C94.201 100.143 79.9771 89.6511 70.7444 94.6702" fill="#FE649F"/>
<path d="M70.7552 94.6701C70.7737 94.7535 72.0979 93.7719 75.0057 93.4755C77.8857 93.1514 82.2103 93.9849 87.0535 96.4481C89.4797 97.6612 92.0541 99.2262 94.7118 101.152C96.0361 102.115 97.3788 103.162 98.7309 104.31C100.064 105.496 101.722 106.412 103.454 107.181C106.936 108.746 110.788 110.005 114.872 111.265C118.965 112.506 123.299 113.672 127.864 114.784L128.04 114.83L128.105 114.663C132.642 102.68 137.726 89.2621 143.162 74.8899L142.866 75.0288C147.468 76.5753 152.367 78.2144 157.34 79.8905L157.173 79.6497C156.747 84.0114 155.831 88.6416 154.886 93.2811C153.969 97.8094 152.849 102.236 151.793 106.616C150.737 110.996 149.7 115.302 148.672 119.544C148.163 121.664 147.654 123.766 147.154 125.841C146.894 126.878 146.681 127.934 146.385 128.934C146.079 129.934 145.727 130.915 145.255 131.841C143.449 135.573 140.384 138.574 136.8 140.231C133.217 141.954 129.17 142.241 125.503 141.38C121.799 140.639 118.252 139.629 114.835 138.62C108.01 136.592 101.713 134.49 95.9805 132.527C90.2483 130.563 85.081 128.73 80.5619 127.091C78.3024 126.267 76.2003 125.498 74.2741 124.766C73.3018 124.415 72.4035 124.026 71.5701 123.609C70.7459 123.164 69.9773 122.711 69.3013 122.211C66.5509 120.238 65.0137 118.016 64.1247 116.488C63.6987 115.71 63.4024 115.089 63.2264 114.673C63.0505 114.247 62.9486 114.043 62.9486 114.043C62.9486 114.043 63.1987 114.95 64.0414 116.534C64.9026 118.08 66.4213 120.34 69.1901 122.359C69.8754 122.868 70.644 123.331 71.4775 123.785C72.3202 124.22 73.2369 124.618 74.2 124.97C76.1262 125.72 78.219 126.498 80.4786 127.332C84.9977 128.998 90.1557 130.86 95.8786 132.842C101.611 134.823 107.899 136.944 114.733 138.99C118.15 140.009 121.697 141.028 125.438 141.787C129.151 142.667 133.328 142.389 137.004 140.62C140.69 138.916 143.838 135.851 145.69 132.027C146.172 131.082 146.533 130.073 146.848 129.045C147.154 128.008 147.367 126.98 147.626 125.933C148.126 123.85 148.635 121.748 149.154 119.636C150.182 115.395 151.219 111.08 152.275 106.709C153.33 102.328 154.451 97.902 155.368 93.3644C156.321 88.7064 157.229 84.104 157.664 79.6683L157.683 79.4831L157.497 79.4182C152.515 77.7514 147.626 76.1123 143.014 74.5658L142.801 74.4917L142.718 74.7047C137.3 89.0768 132.235 102.514 127.725 114.497L127.966 114.367C123.41 113.274 119.076 112.107 114.992 110.885C110.918 109.644 107.065 108.394 103.602 106.857C100.027 105.486 97.6474 102.717 94.897 100.893C92.2208 98.9762 89.6279 97.4112 87.1831 96.2166C82.3029 93.7719 77.9227 92.9662 75.0149 93.3366C73.5611 93.4941 72.4868 93.8552 71.7923 94.1423C71.107 94.4479 70.7737 94.6516 70.7737 94.6516L70.7552 94.6701Z" fill="#263238"/>
<path d="M129.278 124.72C129.408 124.702 129.223 122.442 128.852 119.674C128.491 116.905 128.083 114.673 127.954 114.682C127.824 114.701 128.009 116.96 128.38 119.729C128.741 122.498 129.148 124.73 129.278 124.72Z" fill="#263238"/>
<path opacity="0.3" d="M105.472 135.906C105.472 135.906 98.2213 138.175 87.5996 134.184C76.9779 130.192 73.3849 124.553 73.3849 124.553L105.481 135.906H105.472Z" fill="black"/>
</svg>
