<svg width="123" height="146" viewBox="0 0 123 146" fill="none" xmlns="http://www.w3.org/2000/svg">
<path d="M104.139 113.098H35.0564C33.1881 113.098 31.6729 111.532 31.6729 109.598V4.00006C31.6729 2.06663 33.1881 0.5 35.0564 0.5H104.139C106.007 0.5 107.526 2.06663 107.526 4.00349V109.598C107.526 111.532 106.011 113.102 104.139 113.102V113.098Z" fill="#263238"/>
<path d="M70.9207 107.978C70.9207 109.722 69.4809 111.135 67.7052 111.135C65.9294 111.135 64.4896 109.719 64.4896 107.978C64.4896 106.236 65.9294 104.82 67.7052 104.82C69.4809 104.82 70.9207 106.236 70.9207 107.978Z" fill="#455A64"/>
<path d="M77.3699 6.45678H61.8784C61.2819 6.45678 60.7986 5.95628 60.7986 5.33923C60.7986 4.72218 61.2819 4.22168 61.8784 4.22168H77.3699C77.9664 4.22168 78.4497 4.72218 78.4497 5.33923C78.4497 5.95628 77.9664 6.45678 77.3699 6.45678Z" fill="#455A64"/>
<path d="M104.897 8.39258H33.936V90.6663H104.897V8.39258Z" fill="white"/>
<path d="M105.131 8.54883H34.064V102.584H105.131V8.54883Z" fill="#EBEBEB"/>
<path d="M95.7893 16.2095H43.4084C41.5416 16.2095 40.0283 17.7228 40.0283 19.5895V91.4762C40.0283 93.3429 41.5416 94.8563 43.4084 94.8563H95.7893C97.6561 94.8563 99.1694 93.3429 99.1694 91.4762V19.5895C99.1694 17.7228 97.6561 16.2095 95.7893 16.2095Z" fill="white"/>
<path d="M59.2009 26.3536L59.5335 25.6029C59.8523 25.812 60.3048 25.9559 60.7196 25.9559C61.1344 25.9559 61.3058 25.8394 61.3058 25.6646C61.3058 25.0955 59.2626 25.5103 59.2626 24.1768C59.2626 23.5357 59.7871 23.0112 60.8533 23.0112C61.3195 23.0112 61.8028 23.1175 62.1559 23.3232L61.844 24.0774C61.5012 23.8922 61.1618 23.7997 60.8498 23.7997C60.4247 23.7997 60.2705 23.9437 60.2705 24.1219C60.2705 24.6704 62.3068 24.259 62.3068 25.5857C62.3068 26.213 61.7823 26.7444 60.7161 26.7444C60.1265 26.7444 59.5403 26.5867 59.2009 26.3502V26.3536Z" fill="#A17FFF"/>
<path d="M62.6193 23.0709C62.6193 22.7795 62.8558 22.5532 63.2157 22.5532C63.5757 22.5532 63.8122 22.7623 63.8122 23.0571C63.8122 23.3657 63.5757 23.5919 63.2157 23.5919C62.8558 23.5919 62.6193 23.3657 62.6193 23.0743V23.0709ZM62.7255 23.897H63.6991V26.6772H62.7255V23.897Z" fill="#A17FFF"/>
<path d="M67.3224 23.9V26.1728C67.3224 27.2253 66.726 27.7223 65.6907 27.7223C65.1559 27.7223 64.6486 27.5989 64.3092 27.359L64.6623 26.6768C64.8919 26.8619 65.2725 26.975 65.6016 26.975C66.126 26.975 66.3454 26.7385 66.3454 26.3031V26.2106C66.1569 26.43 65.8724 26.5396 65.5193 26.5396C64.7788 26.5396 64.1549 26.0152 64.1549 25.1958C64.1549 24.3765 64.7822 23.8555 65.5193 23.8555C65.9032 23.8555 66.2015 23.9789 66.39 24.2394V23.9H67.319H67.3224ZM66.3592 25.1924C66.3592 24.853 66.1021 24.6268 65.7524 24.6268C65.4027 24.6268 65.1422 24.853 65.1422 25.1924C65.1422 25.5318 65.4027 25.7615 65.7524 25.7615C66.1021 25.7615 66.3592 25.5318 66.3592 25.1924Z" fill="#A17FFF"/>
<path d="M70.9111 25.0842V26.6748H69.9375V25.2419C69.9375 24.8408 69.7627 24.6728 69.4816 24.6728C69.1696 24.6728 68.9262 24.8682 68.9262 25.331V26.6748H67.9526V23.8947H68.8816V24.1963C69.101 23.9667 69.4164 23.8467 69.7627 23.8467C70.414 23.8467 70.9111 24.2203 70.9111 25.0842Z" fill="#A17FFF"/>
<path d="M75.9399 23.898V26.6781H75.0109V26.3799C74.8018 26.6096 74.5036 26.7227 74.1848 26.7227C73.5026 26.7227 73.0055 26.3319 73.0055 25.4509V23.8945H73.9791V25.2898C73.9791 25.7217 74.147 25.8897 74.4419 25.8897C74.7367 25.8897 74.9663 25.7011 74.9663 25.2315V23.8911H75.9399V23.898Z" fill="#A17FFF"/>
<path d="M79.6846 25.283C79.6846 26.1641 79.0744 26.7194 78.3202 26.7194C77.998 26.7194 77.734 26.6234 77.5455 26.428V27.669H76.5719V23.8912H77.5009V24.1689C77.686 23.9495 77.9568 23.8467 78.3236 23.8467C79.0778 23.8467 79.688 24.402 79.688 25.283H79.6846ZM78.6973 25.283C78.6973 24.8614 78.4402 24.6214 78.1111 24.6214C77.782 24.6214 77.5249 24.8614 77.5249 25.283C77.5249 25.7047 77.782 25.9447 78.1111 25.9447C78.4402 25.9447 78.6973 25.7047 78.6973 25.283Z" fill="#A17FFF"/>
<path d="M46.7852 34.949V35.3295H47.4502V35.5969H46.7852V36.1214H46.4526V34.6816H47.5393V34.949H46.7852Z" fill="#263238"/>
<path d="M48.832 35.0137V36.1209H48.5269V35.9907C48.4412 36.0867 48.3178 36.1381 48.1841 36.1381C47.9065 36.1381 47.7111 35.9804 47.7111 35.641V35.0171H48.0333V35.5964C48.0333 35.7816 48.1156 35.8638 48.2561 35.8638C48.3967 35.8638 48.5098 35.7678 48.5098 35.5656V35.0205H48.832V35.0137Z" fill="#263238"/>
<path d="M49.13 34.6006H49.4522V36.1261H49.13V34.6006Z" fill="#263238"/>
<path d="M49.7463 34.6006H50.0686V36.1261H49.7463V34.6006Z" fill="#263238"/>
<path d="M52.2909 34.6816V36.1214H52.0166L51.3002 35.2473V36.1214H50.9711V34.6816H51.2453L51.9618 35.5558V34.6816H52.2909Z" fill="#263238"/>
<path d="M53.5895 35.4985V36.1293H53.2879V35.9922C53.2296 36.0916 53.113 36.1464 52.9519 36.1464C52.6914 36.1464 52.5371 36.0025 52.5371 35.8105C52.5371 35.6185 52.6742 35.478 53.0136 35.478H53.2673C53.2673 35.3408 53.185 35.2586 53.0136 35.2586C52.8971 35.2586 52.7736 35.2963 52.6948 35.3614L52.5782 35.1386C52.6982 35.0529 52.8799 35.0049 53.0548 35.0049C53.3907 35.0049 53.5861 35.1626 53.5861 35.4951L53.5895 35.4985ZM53.2673 35.7796V35.6665H53.0479C52.8971 35.6665 52.8491 35.7213 52.8491 35.7968C52.8491 35.8756 52.9176 35.9305 53.0308 35.9305C53.137 35.9305 53.2296 35.8825 53.2673 35.7796Z" fill="#263238"/>
<path d="M55.7503 35.497V36.1312H55.428V35.5485C55.428 35.3702 55.3492 35.2879 55.2189 35.2879C55.0749 35.2879 54.9755 35.3805 54.9755 35.5793V36.1347H54.6533V35.5519C54.6533 35.3736 54.5779 35.2913 54.4442 35.2913C54.3036 35.2913 54.2008 35.3839 54.2008 35.5827V36.1381H53.8785V35.0308H54.1836V35.1577C54.2659 35.0617 54.3893 35.0137 54.5299 35.0137C54.6841 35.0137 54.8144 35.0719 54.8933 35.1954C54.9824 35.0822 55.1264 35.0137 55.2909 35.0137C55.5549 35.0137 55.7434 35.1645 55.7434 35.5039L55.7503 35.497Z" fill="#263238"/>
<path d="M57.1276 35.6631H56.2911C56.322 35.8002 56.4385 35.8859 56.6065 35.8859C56.723 35.8859 56.8087 35.8516 56.8842 35.7796L57.0556 35.9647C56.9527 36.0813 56.7985 36.143 56.5996 36.143C56.2157 36.143 55.9689 35.903 55.9689 35.5739C55.9689 35.2448 56.2225 35.0049 56.5585 35.0049C56.8945 35.0049 57.1344 35.2243 57.1344 35.5774C57.1344 35.6014 57.131 35.6357 57.1276 35.6631ZM56.2877 35.4745H56.8327C56.8087 35.334 56.7059 35.2449 56.5619 35.2449C56.4179 35.2449 56.3117 35.334 56.2877 35.4745Z" fill="#263238"/>
<path d="M47.5668 45.3824V45.6498H46.4526V44.21H47.5393V44.4773H46.7817V44.7893H47.4502V45.0498H46.7817V45.3824H47.5633H47.5668Z" fill="#263238"/>
<path d="M49.6782 45.0078V45.642H49.356V45.0592C49.356 44.8809 49.2772 44.7987 49.1469 44.7987C49.0029 44.7987 48.9035 44.8912 48.9035 45.09V45.6454H48.5813V45.0626C48.5813 44.8844 48.5058 44.8021 48.3721 44.8021C48.2316 44.8021 48.1288 44.8946 48.1288 45.0935V45.6488H47.8065V44.5416H48.1116V44.6684C48.1939 44.5724 48.3173 44.5244 48.4578 44.5244C48.6121 44.5244 48.7424 44.5827 48.8212 44.7061C48.9104 44.593 49.0543 44.5244 49.2189 44.5244C49.4828 44.5244 49.6714 44.6752 49.6714 45.0146L49.6782 45.0078Z" fill="#263238"/>
<path d="M50.9469 45.0181V45.6488H50.6453V45.5117C50.587 45.6111 50.4704 45.666 50.3093 45.666C50.0488 45.666 49.8945 45.522 49.8945 45.33C49.8945 45.138 50.0317 44.9975 50.371 44.9975H50.6247C50.6247 44.8604 50.5424 44.7781 50.371 44.7781C50.2545 44.7781 50.1311 44.8158 50.0522 44.8809L49.9357 44.6581C50.0556 44.5724 50.2373 44.5244 50.4122 44.5244C50.7481 44.5244 50.9435 44.6821 50.9435 45.0146L50.9469 45.0181ZM50.6281 45.3026V45.1895H50.4087C50.2579 45.1895 50.2099 45.2443 50.2099 45.3197C50.2099 45.3986 50.2785 45.4534 50.3916 45.4534C50.4979 45.4534 50.5904 45.4054 50.6281 45.3026Z" fill="#263238"/>
<path d="M51.1979 44.2085C51.1979 44.1091 51.2767 44.0303 51.3967 44.0303C51.5167 44.0303 51.5955 44.1057 51.5955 44.2017C51.5955 44.3079 51.5167 44.3868 51.3967 44.3868C51.2767 44.3868 51.1979 44.3079 51.1979 44.2085ZM51.239 44.5411H51.5613V45.6483H51.239V44.5411Z" fill="#263238"/>
<path d="M51.8546 44.1201H52.1769V45.6456H51.8546V44.1201Z" fill="#263238"/>
<path d="M54.0289 45.3412H53.3604L53.2336 45.6497H52.8907L53.5318 44.21H53.8609L54.5054 45.6497H54.1557L54.0289 45.3412ZM53.9226 45.0875L53.6929 44.5356L53.4632 45.0875H53.9192H53.9226Z" fill="#263238"/>
<path d="M55.7498 44.1201V45.6456H55.4447V45.5188C55.3658 45.6148 55.2458 45.6627 55.0984 45.6627C54.7865 45.6627 54.5465 45.4399 54.5465 45.0937C54.5465 44.7475 54.7865 44.5246 55.0984 44.5246C55.2356 44.5246 55.3487 44.5692 55.431 44.6583V44.1201H55.7532H55.7498ZM55.4344 45.0937C55.4344 44.9017 55.311 44.7886 55.1533 44.7886C54.9956 44.7886 54.8687 44.9051 54.8687 45.0937C54.8687 45.2822 54.9922 45.3988 55.1533 45.3988C55.3144 45.3988 55.4344 45.2822 55.4344 45.0937Z" fill="#263238"/>
<path d="M57.1721 44.1201V45.6456H56.867V45.5188C56.7882 45.6148 56.6682 45.6627 56.5208 45.6627C56.2088 45.6627 55.9689 45.4399 55.9689 45.0937C55.9689 44.7475 56.2088 44.5246 56.5208 44.5246C56.6579 44.5246 56.771 44.5692 56.8533 44.6583V44.1201H57.1721ZM56.8567 45.0937C56.8567 44.9017 56.7333 44.7886 56.5756 44.7886C56.4179 44.7886 56.2911 44.9051 56.2911 45.0937C56.2911 45.2822 56.4145 45.3988 56.5756 45.3988C56.7368 45.3988 56.8567 45.2822 56.8567 45.0937Z" fill="#263238"/>
<path d="M58.1566 44.5244V44.8192C58.1291 44.8192 58.1086 44.8158 58.0846 44.8158C57.9063 44.8158 57.7898 44.9118 57.7898 45.1243V45.6454H57.4675V44.5381H57.7726V44.6855C57.8515 44.5793 57.9817 44.5244 58.1531 44.5244H58.1566Z" fill="#263238"/>
<path d="M59.4143 45.1826H58.5779C58.6087 45.3197 58.7253 45.4054 58.8932 45.4054C59.0098 45.4054 59.0955 45.3712 59.1709 45.2992L59.3423 45.4843C59.2395 45.6008 59.0852 45.6625 58.8864 45.6625C58.5024 45.6625 58.2556 45.4226 58.2556 45.0935C58.2556 44.7644 58.5093 44.5244 58.8452 44.5244C59.1812 44.5244 59.4212 44.7438 59.4212 45.0969C59.4212 45.1209 59.4177 45.1552 59.4143 45.1826ZM58.5744 44.9941H59.1195C59.0955 44.8535 58.9926 44.7644 58.8487 44.7644C58.7047 44.7644 58.5984 44.8535 58.5744 44.9941Z" fill="#263238"/>
<path d="M59.5276 45.5426L59.6339 45.3129C59.7333 45.378 59.8841 45.4191 60.0178 45.4191C60.1652 45.4191 60.2201 45.3814 60.2201 45.3197C60.2201 45.138 59.5516 45.3232 59.5516 44.8809C59.5516 44.6718 59.7401 44.5244 60.0624 44.5244C60.2132 44.5244 60.3846 44.5587 60.4875 44.6204L60.3812 44.8501C60.2715 44.7884 60.1618 44.7678 60.0624 44.7678C59.9184 44.7678 59.8567 44.8124 59.8567 44.8706C59.8567 45.0592 60.5252 44.8775 60.5252 45.3129C60.5252 45.5186 60.3332 45.666 60.0041 45.666C59.8156 45.666 59.627 45.6145 59.5242 45.546L59.5276 45.5426Z" fill="#263238"/>
<path d="M60.621 45.5426L60.7272 45.3129C60.8267 45.378 60.9775 45.4191 61.1112 45.4191C61.2586 45.4191 61.3135 45.3814 61.3135 45.3197C61.3135 45.138 60.645 45.3232 60.645 44.8809C60.645 44.6718 60.8335 44.5244 61.1558 44.5244C61.3066 44.5244 61.478 44.5587 61.5808 44.6204L61.4746 44.8501C61.3649 44.7884 61.2552 44.7678 61.1558 44.7678C61.0118 44.7678 60.9501 44.8124 60.9501 44.8706C60.9501 45.0592 61.6185 44.8775 61.6185 45.3129C61.6185 45.5186 61.4266 45.666 61.0975 45.666C60.9089 45.666 60.7204 45.6145 60.6176 45.546L60.621 45.5426Z" fill="#263238"/>
<path d="M47.9196 53.9141C47.9196 54.2364 47.6796 54.4352 47.2957 54.4352H47.0043V54.8329H46.6718V53.3931H47.2957C47.6796 53.3931 47.9196 53.5919 47.9196 53.9141ZM47.5802 53.9141C47.5802 53.7564 47.4774 53.6639 47.2751 53.6639H47.0043V54.1644H47.2751C47.4774 54.1644 47.5802 54.0718 47.5802 53.9141Z" fill="#263238"/>
<path d="M49.1027 54.1977V54.8285H48.801V54.6914C48.7428 54.7908 48.6262 54.8456 48.4651 54.8456C48.2046 54.8456 48.0503 54.7017 48.0503 54.5097C48.0503 54.3177 48.1874 54.1806 48.5268 54.1806H48.7805C48.7805 54.0435 48.6982 53.9612 48.5268 53.9612C48.4102 53.9612 48.2868 53.9989 48.208 54.064L48.0914 53.8412C48.2114 53.7555 48.3931 53.7075 48.5679 53.7075C48.9039 53.7075 49.0993 53.8652 49.0993 54.1977H49.1027ZM48.7805 54.4788V54.3657H48.5611C48.4102 54.3657 48.3622 54.4206 48.3622 54.496C48.3622 54.5748 48.4308 54.6297 48.5439 54.6297C48.6502 54.6297 48.7428 54.5817 48.7805 54.4788Z" fill="#263238"/>
<path d="M49.2841 54.7257L49.3903 54.496C49.4898 54.5611 49.6406 54.6022 49.7743 54.6022C49.9217 54.6022 49.9765 54.5645 49.9765 54.5028C49.9765 54.3211 49.3081 54.5063 49.3081 54.064C49.3081 53.8549 49.4966 53.7075 49.8188 53.7075C49.9697 53.7075 50.1411 53.7418 50.2439 53.8035L50.1377 54.0298C50.028 53.968 49.9183 53.9475 49.8188 53.9475C49.6749 53.9475 49.6132 53.992 49.6132 54.0503C49.6132 54.2389 50.2816 54.0572 50.2816 54.4925C50.2816 54.6982 50.0897 54.8456 49.7606 54.8456C49.572 54.8456 49.3835 54.7942 49.2806 54.7257H49.2841Z" fill="#263238"/>
<path d="M50.3775 54.7257L50.4837 54.496C50.5831 54.5611 50.734 54.6022 50.8677 54.6022C51.0151 54.6022 51.0699 54.5645 51.0699 54.5028C51.0699 54.3211 50.4014 54.5063 50.4014 54.064C50.4014 53.8549 50.59 53.7075 50.9122 53.7075C51.0631 53.7075 51.2345 53.7418 51.3373 53.8035L51.231 54.0298C51.1213 53.968 51.0116 53.9475 50.9122 53.9475C50.7683 53.9475 50.7065 53.992 50.7065 54.0503C50.7065 54.2389 51.375 54.0572 51.375 54.4925C51.375 54.6982 51.1831 54.8456 50.854 54.8456C50.6654 54.8456 50.4769 54.7942 50.374 54.7257H50.3775Z" fill="#263238"/>
<path d="M53.3322 53.7251L52.9311 54.8324H52.6226L52.3723 54.1468L52.1152 54.8324H51.8067L51.4091 53.7251H51.7107L51.9713 54.4724L52.2421 53.7251H52.5129L52.7769 54.4724L53.0477 53.7251H53.3322Z" fill="#263238"/>
<path d="M53.3702 54.2766C53.3702 53.9441 53.6273 53.7075 53.977 53.7075C54.3267 53.7075 54.5838 53.9441 54.5838 54.2766C54.5838 54.6091 54.3301 54.8456 53.977 54.8456C53.6239 54.8456 53.3702 54.6091 53.3702 54.2766ZM54.2615 54.2766C54.2615 54.0846 54.1416 53.9715 53.9804 53.9715C53.8193 53.9715 53.6959 54.088 53.6959 54.2766C53.6959 54.4651 53.8193 54.5817 53.9804 54.5817C54.1416 54.5817 54.2615 54.4651 54.2615 54.2766Z" fill="#263238"/>
<path d="M55.4862 53.7075V54.0023C55.4587 54.0023 55.4382 53.9989 55.4142 53.9989C55.2359 53.9989 55.1194 54.0949 55.1194 54.3074V54.8285H54.7971V53.7212H55.1022V53.8686C55.1811 53.7624 55.3113 53.7075 55.4827 53.7075H55.4862Z" fill="#263238"/>
<path d="M56.7952 53.3032V54.8287H56.4901V54.7019C56.4112 54.7979 56.2912 54.8459 56.1438 54.8459C55.8319 54.8459 55.5919 54.623 55.5919 54.2768C55.5919 53.9306 55.8319 53.7077 56.1438 53.7077C56.281 53.7077 56.3941 53.7523 56.4764 53.8414V53.3066H56.7986L56.7952 53.3032ZM56.4798 54.2768C56.4798 54.0848 56.3564 53.9717 56.1987 53.9717C56.041 53.9717 55.9142 54.0882 55.9142 54.2768C55.9142 54.4653 56.0376 54.5819 56.1987 54.5819C56.3598 54.5819 56.4798 54.4653 56.4798 54.2768Z" fill="#263238"/>
<path d="M70.8853 35.4819V34.6763H71.2178V35.4682C71.2178 35.7424 71.3378 35.8555 71.54 35.8555C71.7423 35.8555 71.8588 35.7424 71.8588 35.4682V34.6763H72.1879V35.4819C72.1879 35.9069 71.9445 36.1401 71.5366 36.1401C71.1286 36.1401 70.8853 35.9069 70.8853 35.4819Z" fill="#263238"/>
<path d="M72.3908 36.0176L72.497 35.788C72.5964 35.8531 72.7473 35.8942 72.881 35.8942C73.0284 35.8942 73.0832 35.8565 73.0832 35.7948C73.0832 35.6131 72.4148 35.7983 72.4148 35.356C72.4148 35.1469 72.6033 34.9995 72.9255 34.9995C73.0764 34.9995 73.2478 35.0338 73.3506 35.0955L73.2443 35.3252C73.1346 35.2635 73.0284 35.2429 72.9255 35.2429C72.7816 35.2429 72.7199 35.2875 72.7199 35.3458C72.7199 35.5343 73.3883 35.3526 73.3883 35.788C73.3883 35.9937 73.1964 36.1411 72.8673 36.1411C72.6787 36.1411 72.4902 36.0896 72.3873 36.0211L72.3908 36.0176Z" fill="#263238"/>
<path d="M74.6664 35.6577H73.8299C73.8608 35.7948 73.9773 35.8805 74.1453 35.8805C74.2619 35.8805 74.3476 35.8462 74.423 35.7743L74.5944 35.9594C74.4916 36.0759 74.3373 36.1376 74.1385 36.1376C73.7545 36.1376 73.5077 35.8977 73.5077 35.5686C73.5077 35.2395 73.7614 34.9995 74.0973 34.9995C74.4333 34.9995 74.6732 35.2189 74.6732 35.572C74.6732 35.596 74.6698 35.6303 74.6664 35.6577ZM73.8231 35.4692H74.3681C74.3441 35.3286 74.2413 35.2395 74.0973 35.2395C73.9533 35.2395 73.8471 35.3286 73.8231 35.4692Z" fill="#263238"/>
<path d="M75.5719 34.9907V35.2855C75.5444 35.2855 75.5239 35.2821 75.4999 35.2821C75.3216 35.2821 75.2051 35.3781 75.2051 35.5906V36.1117H74.8828V35.0044H75.1879V35.1518C75.2668 35.0456 75.397 34.9907 75.5684 34.9907H75.5719Z" fill="#263238"/>
<path d="M76.8941 35.4863V36.1205H76.5753V35.5377C76.5753 35.3595 76.493 35.2772 76.3524 35.2772C76.1982 35.2772 76.0885 35.3732 76.0885 35.5754V36.1239H75.7662V35.0167H76.0713V35.1469C76.157 35.0509 76.2873 34.9995 76.4381 34.9995C76.6987 34.9995 76.8975 35.1503 76.8975 35.4897L76.8941 35.4863Z" fill="#263238"/>
<path d="M78.1624 35.4844V36.1151H77.8642V35.978C77.8059 36.0774 77.6893 36.1323 77.5282 36.1323C77.2711 36.1323 77.1134 35.9883 77.1134 35.7963C77.1134 35.6043 77.2505 35.4638 77.5899 35.4638H77.8436C77.8436 35.3267 77.7613 35.2444 77.5899 35.2444C77.4734 35.2444 77.3499 35.2821 77.2711 35.3472L77.1545 35.1244C77.2745 35.0387 77.4562 34.9907 77.631 34.9907C77.967 34.9907 78.1624 35.1484 78.1624 35.4809V35.4844ZM77.8436 35.7655V35.6523H77.6242C77.4734 35.6523 77.4254 35.7072 77.4254 35.7826C77.4254 35.8615 77.4939 35.9163 77.607 35.9163C77.7133 35.9163 77.8059 35.8683 77.8436 35.7655Z" fill="#263238"/>
<path d="M80.3233 35.4829V36.1171H80.001V35.5343C80.001 35.356 79.9222 35.2738 79.7919 35.2738C79.6479 35.2738 79.5485 35.3663 79.5485 35.5651V36.1205H79.2263V35.5377C79.2263 35.3595 79.1509 35.2772 79.0172 35.2772C78.8766 35.2772 78.7738 35.3697 78.7738 35.5686V36.1239H78.4515V35.0167H78.7566V35.1435C78.8389 35.0475 78.9623 34.9995 79.1029 34.9995C79.2571 34.9995 79.3874 35.0578 79.4662 35.1812C79.5554 35.0681 79.6994 34.9995 79.8639 34.9995C80.1279 34.9995 80.3164 35.1503 80.3164 35.4897L80.3233 35.4829Z" fill="#263238"/>
<path d="M81.7004 35.6577H80.864C80.8948 35.7948 81.0114 35.8805 81.1794 35.8805C81.2959 35.8805 81.3816 35.8462 81.457 35.7743L81.6284 35.9594C81.5256 36.0759 81.3713 36.1376 81.1725 36.1376C80.7886 36.1376 80.5417 35.8977 80.5417 35.5686C80.5417 35.2395 80.7954 34.9995 81.1314 34.9995C81.4673 34.9995 81.7073 35.2189 81.7073 35.572C81.7073 35.596 81.7039 35.6303 81.7004 35.6577ZM80.8606 35.4692H81.4056C81.3816 35.3286 81.2788 35.2395 81.1348 35.2395C80.9908 35.2395 80.8846 35.3286 80.8606 35.4692Z" fill="#263238"/>
<path d="M67.3946 37.7153H47.3575C46.7631 37.7153 46.2811 38.1973 46.2811 38.7917V40.9857C46.2811 41.5802 46.7631 42.0621 47.3575 42.0621H67.3946C67.9891 42.0621 68.471 41.5802 68.471 40.9857V38.7917C68.471 38.1973 67.9891 37.7153 67.3946 37.7153Z" fill="#EBEBEB"/>
<path d="M91.4322 46.9478H47.3575C46.7631 46.9478 46.2811 47.4297 46.2811 48.0242V50.2181C46.2811 50.8126 46.7631 51.2945 47.3575 51.2945H91.4322C92.0267 51.2945 92.5087 50.8126 92.5087 50.2181V48.0242C92.5087 47.4297 92.0267 46.9478 91.4322 46.9478Z" fill="#EBEBEB"/>
<path d="M91.4322 56.1978H47.3575C46.7631 56.1978 46.2811 56.6797 46.2811 57.2742V59.4681C46.2811 60.0626 46.7631 60.5445 47.3575 60.5445H91.4322C92.0267 60.5445 92.5087 60.0626 92.5087 59.4681V57.2742C92.5087 56.6797 92.0267 56.1978 91.4322 56.1978Z" fill="#EBEBEB"/>
<path d="M91.4322 37.7153H71.8031C71.2086 37.7153 70.7267 38.1973 70.7267 38.7917V40.9857C70.7267 41.5802 71.2086 42.0621 71.8031 42.0621H91.4322C92.0267 42.0621 92.5086 41.5802 92.5086 40.9857V38.7917C92.5086 38.1973 92.0267 37.7153 91.4322 37.7153Z" fill="#EBEBEB"/>
<path d="M48.3007 63.041H47.1695C46.982 63.041 46.8301 63.193 46.8301 63.3804V64.5117C46.8301 64.6991 46.982 64.851 47.1695 64.851H48.3007C48.4882 64.851 48.6401 64.6991 48.6401 64.5117V63.3804C48.6401 63.193 48.4882 63.041 48.3007 63.041Z" fill="#A17FFF"/>
<path d="M90.4413 64.7285H50.6037C50.2334 64.7285 49.9352 64.4303 49.9352 64.0601C49.9352 63.6898 50.2334 63.3916 50.6037 63.3916H90.4413C90.8115 63.3916 91.1097 63.6898 91.1097 64.0601C91.1097 64.4303 90.8115 64.7285 90.4413 64.7285Z" fill="#E0E0E0"/>
<path d="M57.159 67.2251H50.8102C50.44 67.2251 50.1417 66.9269 50.1417 66.5567C50.1417 66.1864 50.44 65.8882 50.8102 65.8882H57.159C57.5292 65.8882 57.8275 66.1864 57.8275 66.5567C57.8275 66.9269 57.5292 67.2251 57.159 67.2251Z" fill="#E0E0E0"/>
<path d="M98.8069 20.8368C100.64 20.083 101.515 17.9857 100.762 16.1524C100.008 14.319 97.9106 13.4439 96.0773 14.1977C94.2439 14.9514 93.3687 17.0487 94.1225 18.8821C94.8763 20.7154 96.9736 21.5906 98.8069 20.8368Z" fill="#A17FFF"/>
<path d="M98.8951 16.6017L98.3643 16.0708L95.9911 18.4439L96.522 18.9748L98.8951 16.6017Z" fill="white"/>
<path d="M96.5232 16.0609L95.9923 16.5918L98.3654 18.9649L98.8963 18.434L96.5232 16.0609Z" fill="white"/>
<path d="M32.3617 86.1486C32.5708 85.4767 33.1158 84.9179 33.7843 84.6916C34.0551 84.5991 34.3705 84.5408 34.5282 84.2974C34.6413 84.126 34.6379 83.9066 34.6859 83.7078C34.8367 83.0976 35.5772 82.7102 36.1668 82.933C36.3108 82.9879 36.4479 83.077 36.6056 83.0804C37.2329 83.0976 37.3255 81.8943 37.9494 81.9183C37.7814 82.124 37.6306 82.3605 37.6066 82.6245C37.5826 82.8885 37.7334 83.1833 37.9871 83.2518C38.6522 83.4335 38.971 82.1446 39.6566 82.2303C40.0268 82.2748 40.2976 82.7342 40.661 82.6519C40.8016 82.6211 40.9113 82.5148 41.0312 82.436C41.4392 82.1789 42.0459 82.316 42.3031 82.7273C42.5225 83.077 42.5567 83.6186 42.9544 83.7318C43.2012 83.8003 43.448 83.6495 43.6606 83.5021C43.8217 83.8449 43.904 84.222 43.8971 84.5991C44.6684 84.6505 45.3129 85.4184 45.2306 86.1863C45.6351 86.272 46.0499 86.368 46.3927 86.6011C46.7355 86.8342 46.9892 87.2455 46.9172 87.6535C46.9001 87.746 46.8692 87.8386 46.8795 87.9312C46.8898 88.034 46.9481 88.1231 47.0098 88.202C47.2498 88.5139 47.5651 88.7745 47.7263 89.131C47.8874 89.4875 47.8154 90.0051 47.4486 90.1457C47.3629 90.18 47.26 90.1971 47.2121 90.2725C47.1778 90.3308 47.1881 90.4062 47.2052 90.4748C47.2806 90.7456 47.4692 90.9719 47.6268 91.205C47.7845 91.4381 47.9182 91.7158 47.8702 91.9934C47.8222 92.2711 47.5103 92.5111 47.2566 92.3911C47.548 92.7339 47.8428 93.0801 48.1342 93.4229C48.309 93.6286 48.4942 93.8857 48.4085 94.1394C48.2953 94.4719 47.8051 94.4925 47.5069 94.3074C47.2086 94.1223 46.9995 93.8137 46.6944 93.6355C46.571 93.5635 46.4305 93.5155 46.3242 93.4195C46.2385 93.3441 46.1733 93.2378 46.0602 93.2104C45.8374 93.1555 45.7037 93.4983 45.8237 93.6903C45.9437 93.8823 46.1836 93.9611 46.3893 94.0571C46.595 94.1531 46.811 94.3279 46.7938 94.5576C46.7835 94.6673 46.7218 94.7667 46.715 94.8764C46.6944 95.257 47.2738 95.3324 47.4932 95.6478C47.6543 95.8809 47.5823 96.1962 47.4897 96.4602C47.3766 96.7859 47.0406 97.1698 46.7664 96.9573C46.6704 96.8853 46.6327 96.7584 46.547 96.6762C46.4476 96.5802 46.3002 96.5528 46.1665 96.5116C45.834 96.4156 45.5289 96.2202 45.306 95.9528C45.7243 96.1482 46.2042 96.4396 46.2008 96.899C46.2008 97.091 46.1082 97.2692 46.0465 97.4543C45.93 97.8143 45.9402 98.2051 45.8271 98.565C45.7174 98.925 45.4157 99.2815 45.0387 99.2609C45.2992 99.5352 45.3438 99.9945 45.1346 100.313C44.9255 100.632 44.4867 100.776 44.1302 100.646C44.0308 100.612 43.9348 100.553 43.832 100.564C43.7188 100.57 43.6263 100.649 43.5372 100.718C42.9955 101.119 42.2208 101.174 41.6243 100.858C41.7066 100.773 41.7923 100.687 41.8745 100.605C41.2404 100.817 40.5787 101.037 39.9171 100.937C39.2555 100.838 38.6042 100.32 38.5973 99.6517C38.5973 99.3603 38.6899 99.0175 38.4739 98.8221C38.3265 98.6884 38.1002 98.7022 37.9014 98.7262C37.0718 98.8221 36.2422 98.9181 35.4092 99.0175C35.0047 99.0655 34.5796 99.1067 34.2128 98.9353C33.846 98.7639 33.5889 98.2908 33.7946 97.9377C33.4689 97.6909 33.0747 97.5366 32.6702 97.5023C32.2142 97.4612 31.7549 97.5675 31.2955 97.5503C30.8362 97.5298 30.3357 97.3378 30.1574 96.9161C29.9826 96.4911 30.3939 95.898 30.8224 96.0591C30.4625 95.4661 29.3415 95.9666 28.9439 95.4009C28.6216 94.9381 29.1358 94.3657 29.2764 93.824C29.1256 93.6835 28.8924 93.6595 28.7382 93.5223C28.4125 93.2378 28.6079 92.6962 28.8787 92.3534C29.1495 92.014 29.4958 91.6335 29.3964 91.2118C29.2935 90.7799 28.745 90.5022 28.7827 90.06C28.8067 89.8132 29.0467 89.6109 29.2935 89.6315C29.2284 88.7779 30.8362 88.6579 30.9047 87.8078C30.9116 87.7392 30.9047 87.6672 30.867 87.6123C30.8362 87.5644 30.7847 87.5301 30.7299 87.5061C30.4796 87.3861 30.1883 87.3998 29.9174 87.3415C29.6466 87.2867 29.3552 87.1119 29.3312 86.8342C29.3072 86.5565 29.7529 86.3508 29.8694 86.6011C30.0134 86.2514 30.5379 86.1383 30.8122 86.4022C30.8807 86.1074 31.2201 85.9463 31.5218 85.9703C31.8234 85.9943 32.0908 86.1588 32.3479 86.3165" fill="#263238"/>
<path d="M39.5974 92.3799C38.8535 91.4818 37.6811 91.0464 36.5327 90.8442C36.0493 90.7585 35.5454 90.7105 35.0792 90.8647C34.6164 91.019 34.205 91.4235 34.181 91.9137L34.6164 92.6062C35.1203 93.806 36.5121 94.3134 37.4925 95.1669C37.9176 95.5406 38.3598 96.024 38.9255 95.9828C39.2203 95.9623 39.4911 95.7909 39.6934 95.5749C40.4955 94.7282 40.3413 93.2747 39.5974 92.3731V92.3799Z" fill="#FE649F"/>
<path d="M42.4601 97.6532C42.6589 96.4499 41.8465 95.1644 40.6775 94.8216C40.8146 94.0674 40.225 93.3338 39.5188 93.0424C38.8126 92.751 38.0173 92.7922 37.2529 92.8367C36.0873 91.4724 33.7699 91.3181 32.433 92.5145C31.0001 91.7672 29.1969 92.4974 28.0451 93.6321C27.764 93.9097 27.4966 94.2148 27.1503 94.3999C26.8932 94.5371 26.6087 94.5988 26.3379 94.7016C24.8467 95.2604 23.9931 96.9813 24.1473 98.565C24.1713 98.8187 24.2193 99.0758 24.1748 99.3261C24.1199 99.6552 23.9177 99.9397 23.784 100.245C23.4892 100.903 23.4994 101.691 23.8148 102.343C24.0822 102.895 24.5621 103.375 24.5964 103.988C24.6136 104.297 24.5142 104.605 24.5656 104.907C24.7061 105.788 25.9368 106.103 26.1973 106.954C26.2522 107.128 26.259 107.31 26.2967 107.488C26.3756 107.852 26.595 108.181 26.8932 108.4C27.1263 108.568 27.4143 108.681 27.5651 108.928C27.6783 109.113 27.692 109.343 27.7537 109.549C27.9079 110.059 29.8517 111.297 30.383 111.335L42.3058 105.068C43.1046 104.403 43.3994 103.196 42.9949 102.237C42.9263 102.075 42.8406 101.911 42.8715 101.739C42.8955 101.595 43.0017 101.479 43.084 101.355C43.6291 100.536 43.156 99.4358 42.6109 98.6165C42.5355 98.4999 42.4567 98.3834 42.4224 98.2497C42.3744 98.0543 42.4327 97.852 42.4635 97.6532H42.4601Z" fill="#263238"/>
<path d="M39.0688 99.4941C37.9753 97.3755 35.3631 95.6684 32.7235 95.7609C31.0609 95.8192 30.0324 96.3677 29.2988 96.6591C27.6534 97.3104 26.8169 98.7502 26.8169 98.7502C26.2444 99.2541 25.0275 102.737 26.1827 105.185C27.4648 107.907 29.1377 111.177 30.5295 112.966C33.3302 116.566 36.628 115.4 36.628 115.4C36.628 115.393 38.0987 118.444 38.0987 118.444L42.2192 121.934L45.8907 115.949L46.6894 114.656L39.0688 99.4941Z" fill="#FFBE9D"/>
<path d="M35.7957 109.26C35.6758 109.075 35.4804 108.955 35.285 108.9C34.8907 108.794 34.4725 108.969 34.2702 109.318C34.0714 109.668 34.2017 110.038 34.4485 110.402C34.7262 110.552 34.9593 110.72 35.2575 110.607C35.3021 110.59 35.3501 110.57 35.3912 110.549C35.6038 110.439 35.7889 110.261 35.8746 110.024C35.9637 109.788 35.9431 109.486 35.7957 109.257V109.26Z" fill="#6F4439"/>
<path d="M29.1759 107.888C29.3131 108.159 29.6593 108.269 29.9438 108.128C30.2318 107.991 30.3518 107.659 30.2146 107.385C30.0775 107.114 29.7313 107.004 29.4467 107.141C29.1588 107.278 29.0388 107.614 29.1759 107.885V107.888Z" fill="#263238"/>
<path d="M27.922 106.205C28.0214 106.236 28.2477 105.742 28.7927 105.444C29.3344 105.139 29.8863 105.197 29.9103 105.098C29.924 105.053 29.7937 104.967 29.5504 104.936C29.3104 104.906 28.9504 104.943 28.6111 105.132C28.2717 105.32 28.0557 105.601 27.9632 105.821C27.8672 106.04 27.874 106.191 27.922 106.205Z" fill="#263238"/>
<path d="M33.4753 108.746C33.4616 108.715 33.0913 108.842 32.5017 109.075C32.3543 109.137 32.2069 109.181 32.1315 109.099C32.0424 109.017 32.0184 108.835 31.9978 108.636C31.9429 108.228 31.8847 107.8 31.8264 107.351C31.5659 105.53 31.2985 104.063 31.223 104.073C31.1511 104.084 31.3019 105.571 31.559 107.392C31.6276 107.837 31.6893 108.266 31.751 108.674C31.7853 108.862 31.7921 109.089 31.9807 109.26C32.0766 109.342 32.2172 109.363 32.32 109.339C32.4229 109.318 32.5017 109.274 32.5737 109.243C33.1428 108.969 33.4856 108.783 33.4719 108.749L33.4753 108.746Z" fill="#263238"/>
<path d="M36.6283 115.408C36.6283 115.408 39.3948 114.109 41.1534 111.079C41.1534 111.079 41.2802 114.634 37.1288 116.44L36.6317 115.408H36.6283Z" fill="#6F4439"/>
<path d="M27.1879 105.055C27.3524 105.137 27.7192 104.818 28.23 104.592C28.7305 104.348 29.2139 104.27 29.255 104.091C29.2722 104.006 29.1453 103.906 28.9019 103.865C28.662 103.824 28.3054 103.858 27.9592 104.019C27.613 104.18 27.3593 104.431 27.2359 104.64C27.1125 104.852 27.1125 105.01 27.1845 105.051L27.1879 105.055Z" fill="#263238"/>
<path d="M35.217 104.781C35.3644 105.049 35.2581 105.395 34.9804 105.552C34.7027 105.71 34.3599 105.621 34.216 105.354C34.0685 105.086 34.1748 104.74 34.4525 104.582C34.7302 104.425 35.073 104.514 35.2204 104.781H35.217Z" fill="#263238"/>
<path d="M35.4873 102.311C35.4565 102.41 34.9217 102.317 34.3664 102.599C33.8076 102.869 33.5436 103.363 33.4511 103.325C33.4065 103.312 33.4099 103.157 33.5231 102.938C33.6328 102.722 33.8693 102.448 34.2155 102.273C34.5618 102.101 34.9183 102.081 35.1514 102.129C35.3879 102.173 35.5079 102.266 35.4908 102.314L35.4873 102.311Z" fill="#263238"/>
<path d="M34.3357 100.162C34.2911 100.344 33.7941 100.429 33.2764 100.68C32.7519 100.916 32.368 101.242 32.2 101.163C32.1246 101.122 32.128 100.961 32.2583 100.745C32.3851 100.532 32.6525 100.275 33.009 100.107C33.369 99.9391 33.7324 99.898 33.9758 99.9391C34.2226 99.9768 34.3494 100.076 34.3323 100.162H34.3357Z" fill="#263238"/>
<path d="M40.4952 103.588C40.3341 103.293 40.293 102.415 40.5569 102.209C41.2665 101.661 42.696 100.955 43.793 102.916C45.2911 105.596 42.2915 106.549 42.2435 106.474C42.2058 106.416 41.0506 104.606 40.4952 103.591V103.588Z" fill="#FFBE9D"/>
<path d="M42.4358 105.077C42.4358 105.077 42.5009 105.084 42.6003 105.077C42.6963 105.07 42.8437 105.019 42.9534 104.889C43.1797 104.625 43.166 104.042 42.9089 103.552C42.7786 103.305 42.5969 103.099 42.4049 102.955C42.213 102.804 42.0107 102.739 41.853 102.794C41.6919 102.842 41.6405 102.983 41.6473 103.075C41.6542 103.171 41.7022 103.216 41.6885 103.226C41.685 103.236 41.6062 103.212 41.5651 103.092C41.5479 103.034 41.5411 102.952 41.5753 102.866C41.6096 102.777 41.6885 102.698 41.7947 102.653C42.0107 102.551 42.3021 102.64 42.5146 102.797C42.7409 102.948 42.95 103.175 43.094 103.452C43.3785 104.001 43.3854 104.662 43.0597 104.991C42.8986 105.146 42.71 105.177 42.5935 105.159C42.4735 105.139 42.4255 105.087 42.4324 105.077H42.4358Z" fill="#6F4439"/>
<path d="M25.6039 105.552C25.9604 104.915 26.0529 104.26 25.6656 103.639C26.0838 103.547 26.1969 102.882 26.2346 102.457C26.2723 102.028 26.4437 101.73 26.2209 101.363C26.1763 101.291 26.1283 101.216 26.1283 101.13C26.1283 100.996 26.2346 100.894 26.3272 100.798C26.8037 100.304 26.9991 99.5566 26.8242 98.8916C27.5407 98.8264 28.2366 98.5796 28.8365 98.1819C29.337 98.4322 29.9678 98.4082 30.4443 98.1168C30.9242 97.8254 31.2362 97.2804 31.243 96.7182C31.5893 96.965 32.0589 96.989 32.4703 96.8827C32.8816 96.7764 33.2553 96.5502 33.6187 96.3308C33.8552 97.1432 34.7671 97.6917 35.5967 97.5203C35.7098 97.4963 35.8366 97.4655 35.9292 97.5306C36.0252 97.5992 36.0355 97.7363 36.0526 97.8529C36.1555 98.5967 36.9919 99.1487 37.7152 98.9533C37.4615 99.536 37.9415 100.3 38.5757 100.328C38.7059 100.335 38.8739 100.335 38.9185 100.455C38.9356 100.499 38.9288 100.554 38.9219 100.602C38.8671 100.979 38.8293 101.38 38.987 101.723C39.1447 102.069 39.5767 102.32 39.916 102.148C39.8269 102.398 39.7721 102.69 39.8989 102.926C40.0223 103.163 40.3925 103.269 40.564 103.067C40.6359 102.981 41.8323 101.98 41.846 101.867C42.038 100.414 40.4543 99.8 39.6727 98.559C38.8911 97.3181 37.7632 96.3239 36.512 95.5629C35.9875 95.2441 35.4356 94.963 34.8425 94.7916C34.1706 94.5962 33.4644 94.555 32.7651 94.5173C31.8532 94.4693 30.9208 94.4316 30.0398 94.675C28.4012 95.131 27.1808 96.4885 26.1729 97.8597C25.789 98.3808 25.4153 98.919 25.1856 99.5257C24.908 100.249 24.8462 101.038 24.8394 101.812C24.8291 102.933 24.9388 104.075 25.381 105.103" fill="#263238"/>
<path d="M24.5588 104.898C24.5588 104.898 24.5246 104.772 24.5451 104.532C24.552 104.412 24.576 104.261 24.5794 104.086C24.5794 103.911 24.5451 103.709 24.456 103.5C24.3669 103.291 24.2297 103.075 24.0789 102.842C23.9281 102.608 23.7601 102.348 23.6607 102.029C23.5578 101.717 23.5133 101.361 23.551 100.987C23.5681 100.802 23.6093 100.61 23.6744 100.425C23.7361 100.236 23.8321 100.055 23.9246 99.8763C24.0172 99.6946 24.1098 99.506 24.1406 99.3003C24.1715 99.0947 24.1406 98.8753 24.1166 98.6524C24.0652 98.2034 24.0858 97.7269 24.1989 97.2538C24.312 96.7807 24.504 96.3042 24.8022 95.8791C24.9428 95.6597 25.1245 95.4678 25.3164 95.2792C25.5187 95.1044 25.7347 94.9364 25.9815 94.8096C26.1015 94.7444 26.2317 94.693 26.3586 94.6382C26.4888 94.5902 26.6225 94.5525 26.7528 94.5079C27.0168 94.4256 27.2602 94.2988 27.4727 94.1137C27.6887 93.9354 27.8772 93.716 28.0898 93.5206C28.2989 93.3184 28.5354 93.1367 28.7788 92.9687C29.0256 92.8007 29.2896 92.6567 29.5638 92.5299C29.8415 92.4065 30.1329 92.3105 30.4346 92.2419C31.0345 92.1185 31.6961 92.1323 32.2789 92.3928C32.3371 92.4202 32.3954 92.4442 32.4503 92.4716L32.3988 92.4785C33.1119 91.8443 34.082 91.5975 34.9733 91.6763C35.8715 91.7517 36.7251 92.1528 37.2838 92.8076L37.2461 92.7939C37.6575 92.7699 38.062 92.7493 38.4631 92.7733C38.8607 92.8007 39.2584 92.8761 39.6115 93.0407C39.9646 93.2087 40.2663 93.4658 40.4719 93.7777C40.6776 94.0897 40.7805 94.4702 40.7119 94.8301L40.6845 94.7856C41.281 94.9604 41.754 95.3649 42.0626 95.8277C42.3711 96.2905 42.5288 96.8218 42.5151 97.3189C42.5151 97.4423 42.4979 97.5657 42.4808 97.6823C42.4602 97.7988 42.4362 97.912 42.4259 98.0251C42.4191 98.1348 42.4328 98.2445 42.4739 98.3405C42.5151 98.4399 42.5768 98.5256 42.6351 98.6147C42.8682 98.9712 43.0464 99.3209 43.1664 99.6534C43.283 99.986 43.3412 100.301 43.3275 100.576C43.3172 100.85 43.2384 101.076 43.1493 101.241C43.0601 101.409 42.9573 101.511 42.9162 101.597C42.8716 101.683 42.8647 101.734 42.8613 101.731C42.8613 101.731 42.8613 101.679 42.9059 101.59C42.9436 101.501 43.0464 101.391 43.1287 101.227C43.2144 101.062 43.2864 100.84 43.2932 100.569C43.3035 100.298 43.2453 99.9894 43.1253 99.6603C43.0053 99.3346 42.8236 98.9884 42.5905 98.6387C42.5322 98.5496 42.4705 98.4605 42.4225 98.3576C42.3745 98.2548 42.3574 98.1314 42.3677 98.0148C42.3745 97.8983 42.3985 97.7817 42.4191 97.6652C42.4328 97.5486 42.4534 97.432 42.4499 97.3086C42.4602 96.8253 42.3025 96.3076 42.0009 95.8586C41.6992 95.4095 41.2364 95.0187 40.6605 94.8507L40.6262 94.8404L40.6331 94.8061C40.6948 94.4702 40.5988 94.1102 40.4 93.812C40.2011 93.5138 39.9097 93.2635 39.5738 93.1058C39.231 92.9481 38.847 92.8727 38.4562 92.8487C38.062 92.8247 37.6609 92.8453 37.2496 92.8693H37.229L37.2153 92.8556C36.6736 92.2214 35.8406 91.8306 34.9665 91.7586C34.0957 91.6832 33.1496 91.9231 32.4605 92.5402L32.4365 92.5608L32.4057 92.5471C32.3508 92.5231 32.296 92.4956 32.2377 92.4716C31.6721 92.218 31.0345 92.2042 30.4483 92.3242C30.1535 92.3894 29.8689 92.4853 29.5981 92.6053C29.3273 92.7322 29.0668 92.8693 28.8268 93.0373C28.5868 93.2052 28.3537 93.3801 28.148 93.5789C27.9355 93.7743 27.7469 93.9903 27.5241 94.1754C27.4144 94.2679 27.2944 94.3536 27.1676 94.4222C27.0408 94.4908 26.9071 94.5422 26.7734 94.5867C26.6397 94.6313 26.5094 94.669 26.3826 94.717C26.2592 94.7684 26.1323 94.8164 26.0158 94.8816C25.7758 95.0015 25.5667 95.1661 25.3679 95.3341C25.1827 95.5158 25.0045 95.7043 24.8639 95.9168C24.5691 96.3316 24.3806 96.7979 24.2675 97.2641C24.1543 97.7303 24.1303 98.1965 24.1818 98.6387C24.2057 98.8616 24.2366 99.0844 24.2023 99.3038C24.168 99.5232 24.0721 99.7186 23.9761 99.9003C23.8801 100.082 23.7875 100.257 23.7258 100.438C23.6641 100.62 23.623 100.805 23.6024 100.987C23.5647 101.35 23.6058 101.7 23.7053 102.009C23.8012 102.317 23.9624 102.578 24.1098 102.811C24.2572 103.047 24.3977 103.263 24.4834 103.479C24.576 103.692 24.6068 103.901 24.6034 104.079C24.5965 104.257 24.5726 104.405 24.5588 104.525C24.5451 104.645 24.5451 104.737 24.5486 104.799C24.5486 104.861 24.5554 104.892 24.5554 104.892L24.5588 104.898Z" fill="#455A64"/>
<path d="M30.8426 92.6178C30.8426 92.6178 30.7501 92.6178 30.5821 92.6246C30.4176 92.6315 30.1742 92.6623 29.8999 92.7755C29.6291 92.8852 29.3206 93.0806 29.084 93.3891C28.8475 93.6976 28.6864 94.1124 28.6761 94.5615C28.6761 94.6918 28.683 94.822 28.7104 94.9386C28.7378 95.0551 28.7927 95.1683 28.8852 95.2128L29.0018 95.2677L28.8749 95.2951C28.5287 95.3739 28.2544 95.6002 28.0968 95.8504C27.9356 96.1041 27.8979 96.3784 27.9116 96.5978C27.9288 96.8206 27.9939 96.9886 28.0488 97.0983C28.1036 97.208 28.1448 97.2628 28.1379 97.2662C28.1379 97.2662 28.1242 97.256 28.1036 97.232C28.083 97.208 28.0522 97.1668 28.0213 97.1154C27.9562 97.0091 27.8774 96.8343 27.8534 96.6046C27.8294 96.3749 27.8602 96.0836 28.0282 95.8093C28.1927 95.5385 28.4807 95.2951 28.8544 95.206L28.8441 95.2917C28.7104 95.2265 28.6487 95.086 28.6178 94.9591C28.5904 94.8289 28.5801 94.6952 28.5835 94.5581C28.5904 94.0884 28.7652 93.653 29.0155 93.3377C29.2657 93.0154 29.588 92.82 29.8725 92.7138C30.157 92.6075 30.4073 92.5869 30.5753 92.5869C30.661 92.5869 30.7261 92.5938 30.7707 92.6006C30.8152 92.6075 30.8358 92.6143 30.8358 92.6143L30.8426 92.6178Z" fill="#455A64"/>
<path d="M36.9071 93.3146C36.9071 93.3146 36.9003 93.3695 36.866 93.462C36.8317 93.5546 36.7734 93.6883 36.6775 93.8391C36.578 93.9899 36.4375 94.1614 36.2284 94.295C36.0227 94.4253 35.7416 94.5144 35.4502 94.4596L35.5051 94.4185C35.4982 94.4699 35.4913 94.5213 35.4879 94.5727C35.4776 94.6241 35.4639 94.6756 35.4536 94.7304C35.3679 95.0424 35.2034 95.3166 35.0114 95.5189C34.8194 95.7245 34.6069 95.8651 34.4149 95.9508C34.223 96.0365 34.055 96.0708 33.9384 96.0879C33.8219 96.0982 33.7567 96.0948 33.7567 96.0879C33.7533 96.0674 34.0207 96.0742 34.3875 95.8925C34.5692 95.8034 34.7715 95.6594 34.9497 95.4606C35.1314 95.2652 35.2857 95.0047 35.3679 94.7064C35.3782 94.655 35.3919 94.607 35.3988 94.559C35.4056 94.511 35.4125 94.4596 35.4159 94.415L35.4228 94.3636L35.4708 94.3739C35.7347 94.4253 35.9953 94.3465 36.1907 94.2299C36.3895 94.1134 36.5301 93.9522 36.6329 93.8083C36.8317 93.5203 36.9003 93.3078 36.914 93.3146H36.9071Z" fill="#455A64"/>
<path d="M39.6977 95.0332C39.6977 95.0332 39.708 95.0504 39.7182 95.0881C39.7251 95.1258 39.7354 95.1806 39.7285 95.2526C39.7217 95.3932 39.6428 95.6023 39.4509 95.7771C39.2623 95.9554 38.9606 96.0616 38.635 96.1131C38.4704 96.1405 38.3024 96.1679 38.1173 96.1782C37.9391 96.185 37.73 96.1713 37.5586 96.0445C37.5448 96.0342 37.5311 96.0205 37.5174 96.0102L37.5928 95.9931C37.4454 96.3393 37.274 96.6616 37.0581 96.9084C36.8455 97.162 36.5816 97.3266 36.345 97.402C36.1085 97.4809 35.8994 97.474 35.7622 97.4466C35.6937 97.4329 35.6423 97.4157 35.6114 97.3986C35.5771 97.3849 35.56 97.3746 35.5634 97.3712C35.5634 97.3643 35.6354 97.3917 35.7691 97.4089C35.8994 97.426 36.0982 97.4226 36.3245 97.3403C36.5507 97.2615 36.7941 97.1003 36.9964 96.8535C37.202 96.6101 37.3666 96.2947 37.5106 95.9554L37.5346 95.8971L37.5826 95.9382C37.5826 95.9382 37.6031 95.9554 37.6168 95.9657C37.754 96.0719 37.9425 96.0891 38.1139 96.0822C38.2887 96.0753 38.4601 96.0479 38.6213 96.0239C38.9435 95.9759 39.2246 95.88 39.4063 95.7223C39.5914 95.5646 39.6702 95.3726 39.6908 95.2423C39.7114 95.1086 39.684 95.0332 39.6942 95.0298L39.6977 95.0332Z" fill="#455A64"/>
<path d="M37.3144 83.8354C37.3144 83.8354 37.2698 83.8628 37.1979 83.9279C37.1293 83.9931 37.0436 84.1096 37.0025 84.2879C36.9613 84.4627 36.9716 84.689 37.0813 84.9118C37.1841 85.1415 37.3727 85.3609 37.5852 85.5905L37.6195 85.6283L37.5749 85.6523C37.2664 85.8099 36.975 86.0808 36.8002 86.4476C36.6219 86.8109 36.5945 87.2772 36.8071 87.6714C36.9887 88.0348 37.3315 88.2953 37.6915 88.3536L37.8218 88.3741L37.7052 88.4358C37.287 88.6587 37.023 89.0597 36.9305 89.4437C36.8345 89.8311 36.9133 90.1944 37.0402 90.4584C37.167 90.7258 37.335 90.8972 37.455 91.0035C37.5784 91.1097 37.6572 91.1509 37.6538 91.1577C37.6538 91.1577 37.6332 91.1509 37.5955 91.1303C37.5578 91.1097 37.503 91.0755 37.4378 91.0275C37.3076 90.9281 37.1293 90.7567 36.9887 90.4824C36.8516 90.215 36.7591 89.8345 36.855 89.4231C36.9476 89.0186 37.2184 88.597 37.6641 88.3536L37.6778 88.4358C37.287 88.3741 36.9202 88.093 36.7282 87.7091C36.6185 87.5 36.5637 87.2669 36.5705 87.0406C36.5705 86.8144 36.6357 86.5984 36.7248 86.4064C36.9099 86.0225 37.2219 85.7414 37.5441 85.5803L37.5338 85.642C37.3247 85.4089 37.1361 85.1792 37.0299 84.9358C36.9202 84.6958 36.9168 84.4524 36.9647 84.2742C37.0127 84.0925 37.1087 83.9691 37.1876 83.9074C37.2253 83.8765 37.2596 83.8559 37.2836 83.8457C37.3076 83.8354 37.3178 83.8285 37.3213 83.8319L37.3144 83.8354Z" fill="#455A64"/>
<path d="M45.3186 87.0464C45.3186 87.0464 45.3117 87.0635 45.2877 87.0978C45.2638 87.1286 45.2363 87.1766 45.1883 87.2315C45.0958 87.3446 44.9415 87.4989 44.7118 87.6531C44.4856 87.804 44.1805 87.9479 43.8102 88.0165C43.4434 88.0885 43.0047 88.0748 42.5761 87.9205L42.6344 87.8828C42.6139 88.4073 42.3807 89.0106 41.8768 89.3775C41.342 89.7648 40.6016 89.7545 40.1456 89.398L40.2142 89.3569C40.2485 89.5797 40.2142 89.8025 40.1422 89.9911C40.0668 90.1831 39.9571 90.3476 39.8371 90.4813C39.5903 90.7555 39.3023 90.9098 39.0658 91.0161C38.8258 91.1223 38.627 91.1806 38.4899 91.2218C38.3528 91.2595 38.2773 91.2766 38.2773 91.2732C38.2773 91.2697 38.3493 91.2423 38.4796 91.1943C38.6133 91.1463 38.8087 91.0812 39.0418 90.9681C39.2715 90.855 39.5492 90.6973 39.7823 90.4333C40.0085 90.1728 40.1971 89.7854 40.1285 89.3672L40.1114 89.2609L40.1971 89.326C40.6187 89.6551 41.3215 89.662 41.822 89.2986C42.2985 88.9524 42.5247 88.3799 42.5453 87.876V87.8177L42.6036 87.8383C43.0149 87.9891 43.4366 88.0097 43.7931 87.9445C44.1531 87.8862 44.4513 87.7491 44.6776 87.6086C45.1335 87.3206 45.298 87.0327 45.3117 87.0464H45.3186Z" fill="#455A64"/>
<path d="M44.6504 92.5288C44.6504 92.5288 44.6573 92.5528 44.647 92.594C44.6367 92.6351 44.599 92.6934 44.5304 92.7448C44.3967 92.8442 44.1739 92.9368 43.8825 92.9711C43.5946 93.0054 43.2278 92.9676 42.885 92.7757C42.5456 92.5871 42.2371 92.2477 42.0999 91.8124V91.8021L42.1788 91.8158C41.9217 92.1895 41.5446 92.4329 41.1812 92.5563C40.8144 92.6831 40.4579 92.69 40.1699 92.6523C39.882 92.6145 39.6592 92.5357 39.5117 92.4706C39.3643 92.4054 39.2889 92.3574 39.2923 92.354C39.2992 92.3334 39.6146 92.5254 40.1802 92.5871C40.4613 92.6145 40.8041 92.6043 41.1572 92.4774C41.5069 92.354 41.8634 92.1175 42.1068 91.7644L42.1582 91.689L42.1891 91.7781V91.785C42.3228 92.1929 42.6107 92.5186 42.9295 92.7002C43.2518 92.8854 43.6014 92.9299 43.8791 92.9059C44.1602 92.8819 44.383 92.7962 44.5133 92.714C44.647 92.6248 44.647 92.522 44.6538 92.5254L44.6504 92.5288Z" fill="#455A64"/>
<path d="M31.4835 87.1607C31.5041 87.1538 31.5041 87.548 31.8161 88.0554C31.9703 88.3056 32.2103 88.573 32.5462 88.7684C32.8822 88.9604 33.3107 89.0701 33.7564 89.0358C34.0066 89.0153 34.2466 88.9536 34.4591 88.8576L34.5105 88.8336L34.5208 88.8884C34.5928 89.2415 34.7334 89.5569 34.8979 89.8106C35.0659 90.0642 35.251 90.2665 35.4258 90.4105C35.5115 90.4825 35.5938 90.5476 35.6692 90.5922C35.7446 90.6367 35.82 90.647 35.8715 90.623C35.9263 90.599 35.9537 90.5613 35.9606 90.5305C35.9675 90.4996 35.964 90.4825 35.9675 90.4825C35.9675 90.4825 35.9812 90.4996 35.9743 90.5339C35.9709 90.5682 35.9435 90.6196 35.8818 90.6504C35.82 90.6847 35.7275 90.6744 35.6452 90.6299C35.5629 90.5853 35.4807 90.527 35.3881 90.455C35.2064 90.3145 35.0076 90.1122 34.8328 89.8551C34.6579 89.5946 34.5071 89.2724 34.4317 88.9056L34.4934 88.9364C34.274 89.0392 34.0237 89.1044 33.7598 89.125C33.2936 89.1592 32.8445 89.0427 32.4983 88.837C32.1486 88.6279 31.9086 88.3434 31.7544 88.0828C31.6001 87.8223 31.5315 87.5789 31.5007 87.4143C31.487 87.3321 31.4801 87.2669 31.4767 87.2224C31.4767 87.1778 31.4767 87.1538 31.4767 87.1538L31.4835 87.1607Z" fill="#455A64"/>
<path d="M35.3807 108.511C35.295 108.531 35.4698 109.097 35.1099 109.649C34.7534 110.201 34.1295 110.324 34.15 110.407C34.15 110.444 34.318 110.475 34.5751 110.403C34.8288 110.335 35.1682 110.143 35.3876 109.803C35.607 109.467 35.631 109.097 35.5795 108.86C35.5281 108.617 35.4218 108.497 35.3841 108.511H35.3807Z" fill="#263238"/>
<path d="M38.0309 118.219C38.0309 118.219 40.4477 134.221 43.3684 137.025C46.4948 140.025 52.11 141.502 52.11 141.502C52.11 141.502 59.5866 144.457 62.1851 143.813L66.885 127.701C66.885 127.701 66.6758 126.772 65.6097 126.734C65.1435 126.717 63.7997 127.344 63.1929 127.197C60.759 126.61 55.0547 117.883 55.0547 117.883C55.0547 117.883 49.6349 110.413 45.0139 111.085C41.8463 111.548 40.5334 112.956 39.3404 116.151C39.0524 116.923 38.6102 117.632 38.0309 118.219Z" fill="#FE649F"/>
<path d="M38.0308 118.218L35.9226 128.889L26.1834 126.123L24.5002 131.81L40.9824 139.252L44.2254 125.76L38.0308 118.218Z" fill="#FE649F"/>
<path d="M60.0705 137.039C60.0259 137.022 60.7424 135.023 61.6714 132.576C62.6004 130.128 63.3923 128.16 63.4402 128.177C63.4848 128.194 62.7683 130.193 61.8393 132.641C60.9103 135.088 60.1184 137.056 60.0705 137.039Z" fill="#263238"/>
<path d="M59.8878 134.809C59.8432 134.792 60.2443 133.585 60.7859 132.118C61.3276 130.647 61.8041 129.471 61.8486 129.488C61.8932 129.506 61.4921 130.709 60.9505 132.179C60.4088 133.65 59.9323 134.826 59.8878 134.809Z" fill="#263238"/>
<path d="M37.7778 121.307C37.8293 121.307 37.8635 122.425 37.9184 123.803C37.9458 124.492 37.9767 125.116 38.0041 125.565C38.0315 126.014 38.0555 126.292 38.0315 126.298C38.0075 126.302 37.939 126.028 37.8807 125.579C37.819 125.129 37.771 124.502 37.7436 123.81C37.7161 123.117 37.7127 122.493 37.723 122.041C37.7333 121.588 37.7538 121.307 37.7813 121.307H37.7778Z" fill="#263238"/>
<g opacity="0.3">
<path d="M32.4119 135.373L36.0422 133.796L38.0305 126.755L36.6798 135.431L34.0059 136.093L32.4119 135.373Z" fill="black"/>
</g>
<g opacity="0.3">
<path d="M62.715 129.563C62.475 129.423 62.1665 129.526 61.9711 129.728C61.7723 129.93 61.6592 130.215 61.5495 130.489C60.833 132.306 60.1131 134.119 59.3966 135.936C59.2938 136.197 59.1909 136.471 59.2184 136.752C59.2492 137.033 59.4686 137.311 59.7223 137.273C59.9588 137.239 60.0994 136.975 60.2022 136.742C61.2238 134.442 62.0979 132.059 62.811 129.618" fill="black"/>
</g>
<path d="M11.0903 127.542C11.0903 127.542 12.4033 125.79 13.1746 125.413C13.7882 125.115 17.4391 124.47 17.8848 124.556C18.3304 124.642 26.1841 126.363 26.1841 126.363L25.166 129.794L24.6655 129.561C24.6655 129.561 23.0783 130.356 21.8716 129.976C20.6649 129.595 19.1154 128.529 19.1154 128.529L18.0356 128.934C18.0356 128.934 19.2217 129.304 19.3108 129.798C19.4 130.291 18.7246 130.343 18.7246 130.343L18.6767 130.559C18.591 130.936 18.2207 131.179 17.8402 131.1C17.1443 130.96 16.1399 130.723 15.9136 130.473C15.8211 130.37 15.3446 129.496 15.3446 129.496C14.611 128.978 14.6212 128.464 14.6624 128.149C14.7447 127.521 15.4131 126.815 15.4131 126.815L14.0899 126.743C14.0899 126.743 11.9542 128.93 11.0972 127.542H11.0903Z" fill="#FFBE9D"/>
<path d="M22.1221 126.965C20.528 126.965 19.0163 126.752 17.8301 127.047C17.5182 127.126 17.1994 127.239 16.9731 127.469C16.7469 127.698 16.644 128.075 16.8051 128.353C16.9457 128.593 17.2371 128.699 17.5113 128.716C17.7856 128.734 18.0632 128.675 18.3375 128.668C19.0025 128.651 19.6333 128.932 20.2229 129.238C20.8126 129.546 21.3919 129.892 22.0432 130.029C22.6911 130.17 24.2166 130.047 24.6657 129.556" fill="#FFBE9D"/>
<path d="M24.6656 129.562C24.6656 129.562 24.6382 129.606 24.5662 129.675C24.4908 129.737 24.3639 129.819 24.1891 129.888C23.8394 130.025 23.3047 130.145 22.6362 130.152C22.3037 130.158 21.9231 130.107 21.5529 129.97C21.1793 129.836 20.8056 129.644 20.4217 129.439C20.0343 129.236 19.6332 129.024 19.1875 128.887C18.9647 128.818 18.735 128.773 18.4985 128.763C18.262 128.749 18.022 128.791 17.7615 128.808C17.5044 128.825 17.2233 128.801 16.9867 128.657C16.7433 128.523 16.5994 128.222 16.6439 127.958C16.6782 127.694 16.829 127.461 17.0244 127.313C17.2198 127.162 17.4427 127.077 17.6552 127.015C18.5225 126.778 19.3281 126.826 19.9863 126.843C20.6239 126.878 21.1518 126.909 21.5495 126.929C21.9197 126.95 22.122 126.96 22.122 126.974C22.122 126.981 22.0706 126.984 21.9746 126.991C21.8786 126.998 21.7346 127.001 21.5495 127.001C21.1793 127.001 20.6445 126.984 19.9829 126.974C19.3281 126.974 18.5294 126.943 17.7032 127.179C17.5009 127.241 17.2987 127.323 17.1307 127.454C16.9627 127.584 16.8462 127.772 16.8188 127.985C16.7879 128.194 16.8873 128.403 17.0793 128.513C17.2678 128.626 17.5078 128.653 17.7512 128.636C17.9946 128.623 18.2483 128.578 18.5054 128.592C18.759 128.602 19.0059 128.653 19.239 128.725C19.7052 128.869 20.1166 129.092 20.5005 129.298C21.2615 129.723 21.978 130.056 22.6396 130.028C23.2944 130.038 23.8223 129.939 24.1685 129.826C24.5182 129.713 24.6587 129.555 24.669 129.565L24.6656 129.562Z" fill="#6F4439"/>
<path d="M17.0244 126.599C17.0313 126.619 16.877 126.695 16.6096 126.743C16.3422 126.794 15.972 126.828 15.564 126.839C14.7447 126.859 14.0865 126.794 14.0865 126.746C14.0865 126.695 14.7482 126.681 15.5572 126.66C15.9617 126.65 16.3285 126.636 16.5925 126.616C16.8564 126.599 17.0175 126.571 17.0244 126.599Z" fill="#6F4439"/>
<path d="M18.7766 130.342C18.7869 130.383 17.9367 130.52 16.9254 130.249C15.9142 129.989 15.2388 129.45 15.2697 129.42C15.2971 129.372 15.9964 129.827 16.97 130.078C17.9436 130.338 18.7732 130.287 18.7766 130.342Z" fill="#6F4439"/>
<path d="M16.5856 128.555C16.5924 128.507 16.9489 128.514 17.374 128.62C17.7991 128.727 18.1179 128.891 18.0973 128.936C18.0802 128.984 17.7408 128.898 17.3294 128.795C16.9181 128.692 16.5787 128.607 16.5856 128.559V128.555Z" fill="#6F4439"/>
<path d="M0.460205 131.253L9.10923 127.019C9.24978 126.951 9.41775 126.965 9.54802 127.054L19.0575 133.097C19.2769 133.252 19.318 133.567 19.1466 133.773L14.1211 140.499L0.460205 131.253Z" fill="#263238"/>
<path d="M1.53906 131.571L13.1808 139.236L18.4669 133.34L9.30364 127.649L1.53906 131.571Z" fill="white"/>
<path d="M6.06412 129.275L16.0569 136.018L13.1808 139.227L1.53906 131.561L6.06412 129.275Z" fill="#E0E0E0"/>
<path d="M11.1718 129.479L9.64293 130.72C9.54352 130.802 9.39268 130.785 9.31041 130.685C9.22813 130.583 9.24527 130.435 9.34469 130.353L10.8736 129.112C10.973 129.03 11.1239 129.047 11.2061 129.146C11.2884 129.249 11.2713 129.396 11.1718 129.479Z" fill="#E0E0E0"/>
<path d="M11.8645 130.035L10.3356 131.276C10.2327 131.359 10.0853 131.341 10.003 131.242C9.92076 131.139 9.9379 130.992 10.0373 130.91L11.5662 129.669C11.6691 129.586 11.8165 129.603 11.8988 129.703C11.981 129.806 11.9639 129.953 11.8645 130.035Z" fill="#E0E0E0"/>
<path d="M12.602 130.7L11.0731 131.941C10.9737 132.023 10.8229 132.006 10.7406 131.907C10.6583 131.804 10.6755 131.656 10.7749 131.574L12.3038 130.333C12.4032 130.251 12.554 130.268 12.6363 130.367C12.7186 130.47 12.7014 130.618 12.602 130.7Z" fill="#E0E0E0"/>
<path d="M12.907 131.589L12.0397 132.292C11.9402 132.374 11.7894 132.357 11.7071 132.258C11.6249 132.158 11.642 132.007 11.7414 131.925L12.6087 131.222C12.7116 131.14 12.859 131.157 12.9412 131.257C13.0235 131.359 13.0064 131.507 12.907 131.589Z" fill="#E0E0E0"/>
<path d="M9.88665 129.274L8.8788 129.981C8.77253 130.056 8.62512 130.029 8.5497 129.922C8.47429 129.816 8.50171 129.669 8.60798 129.593L9.61583 128.887C9.7221 128.812 9.86951 128.839 9.94493 128.945C10.0203 129.052 9.99292 129.199 9.88665 129.274Z" fill="#FE649F"/>
<path d="M15.0805 132.65L14.2098 133.52C14.1172 133.613 13.9698 133.613 13.8773 133.52C13.7847 133.428 13.7847 133.28 13.8773 133.188L14.748 132.317C14.8406 132.224 14.988 132.224 15.0805 132.317C15.1731 132.41 15.1731 132.557 15.0805 132.65Z" fill="#FE649F"/>
<path d="M14.1202 140.499C13.8939 140.855 13.4208 140.958 13.0643 140.732L0.35303 132.597C-0.00348892 132.371 -0.106331 131.898 0.119922 131.541C0.346174 131.185 0.819248 131.082 1.17577 131.308L13.8905 139.443C14.247 139.669 14.3498 140.142 14.1236 140.499H14.1202Z" fill="#263238"/>
<path d="M111.763 115.556L112.133 106.499C112.133 106.499 121.406 104.49 121.635 102.824L104.159 100.818L103.004 114.908L111.766 115.559L111.763 115.556Z" fill="#455A64"/>
<g opacity="0.6">
<path d="M106.651 106.838C106.318 106.718 106.113 106.32 106.219 105.981C106.325 105.645 106.73 105.432 107.062 105.545C107.398 105.658 107.659 106.131 107.515 106.454C107.374 106.776 106.884 106.999 106.586 106.81" fill="white"/>
</g>
<path d="M104.159 100.81L104.042 102.229L120.987 103.579C120.987 103.579 121.577 103.398 121.741 102.698L104.162 100.81H104.159Z" fill="#263238"/>
<path d="M112.41 106.605C112.414 106.52 111.989 106.448 111.588 106.139C111.18 105.841 110.991 105.453 110.909 105.481C110.83 105.491 110.916 106.012 111.409 106.379C111.896 106.746 112.424 106.684 112.41 106.605Z" fill="#263238"/>
<path d="M114.309 105.983C114.337 105.901 113.977 105.726 113.713 105.342C113.438 104.965 113.394 104.568 113.308 104.564C113.229 104.544 113.13 105.041 113.466 105.514C113.798 105.987 114.299 106.062 114.306 105.98L114.309 105.983Z" fill="#263238"/>
<path d="M115.523 103.855C115.447 103.831 115.293 104.249 115.478 104.736C115.66 105.223 116.047 105.439 116.088 105.37C116.143 105.305 115.9 105.031 115.756 104.63C115.602 104.232 115.605 103.869 115.519 103.855H115.523Z" fill="#263238"/>
<path d="M112.098 108.657C112.068 108.574 111.667 108.663 111.187 108.595C110.703 108.533 110.34 108.345 110.288 108.413C110.234 108.472 110.576 108.818 111.145 108.89C111.715 108.969 112.136 108.729 112.098 108.657Z" fill="#263238"/>
<g opacity="0.3">
<path d="M111.763 115.557L112.133 106.5C112.133 106.5 121.406 104.491 121.635 102.825L104.159 100.82L103.004 114.909L111.766 115.561L111.763 115.557Z" fill="black"/>
</g>
<path d="M113.233 108.917C113.092 109.198 112.04 135.498 112.04 135.498L102.986 131.926C102.986 131.926 101.385 128.937 101.666 124.844C101.948 120.75 104.347 108.19 104.347 108.19L113.233 108.917Z" fill="#263238"/>
<path d="M110.821 116.131L106.443 108.191C106.443 108.191 113.33 101.668 112.665 100.122L96.6768 107.461L102.988 120.111L110.818 116.127L110.821 116.131Z" fill="#455A64"/>
<g opacity="0.6">
<path d="M101.931 111.332C101.585 111.404 101.204 111.168 101.119 110.825C101.033 110.482 101.27 110.091 101.616 110.016C101.959 109.94 102.428 110.208 102.473 110.557C102.517 110.907 102.216 111.353 101.863 111.342" fill="white"/>
</g>
<path d="M96.6768 107.463L97.3144 108.738L112.504 101.11C112.504 101.11 112.912 100.651 112.693 99.9688L96.6768 107.463Z" fill="#263238"/>
<path d="M106.738 108.138C106.697 108.063 106.296 108.22 105.795 108.165C105.291 108.124 104.931 107.888 104.873 107.956C104.812 108.008 105.154 108.409 105.765 108.464C106.371 108.525 106.789 108.2 106.738 108.138Z" fill="#263238"/>
<path d="M108.041 106.632C108.02 106.549 107.623 106.587 107.197 106.392C106.769 106.21 106.526 105.895 106.45 105.936C106.371 105.96 106.546 106.436 107.077 106.666C107.609 106.899 108.075 106.704 108.041 106.632Z" fill="#263238"/>
<path d="M107.979 104.183C107.9 104.203 107.99 104.639 108.398 104.958C108.805 105.28 109.251 105.263 109.251 105.184C109.261 105.098 108.915 104.992 108.583 104.724C108.243 104.464 108.058 104.152 107.979 104.183Z" fill="#263238"/>
<path d="M107.534 110.061C107.466 110.006 107.167 110.291 106.722 110.479C106.276 110.678 105.868 110.702 105.861 110.788C105.844 110.867 106.317 110.983 106.842 110.754C107.37 110.527 107.606 110.102 107.538 110.061H107.534Z" fill="#263238"/>
<g opacity="0.3">
<path d="M109.95 114.554L109.172 113.139L101.493 117.108L102.138 118.411L109.95 114.554Z" fill="black"/>
</g>
<path d="M66.8857 127.685L69.4156 126.88C69.4156 126.88 74.0743 123.14 79.2953 123.633C84.5163 124.127 88.7499 126.581 88.7499 126.581L94.1834 129.56L108.156 133.301L100.111 114.319L108.053 111.025C108.053 111.025 115.993 123.812 118.392 127.411C120.792 131.011 122.616 134.644 122.9 137.61C123.181 140.575 120.953 144.726 114.814 145.429C108.674 146.135 82.3977 144.38 82.3977 144.38L62.1824 143.797L66.8823 127.685H66.8857Z" fill="#263238"/>
<path d="M66.8858 127.685C66.8858 127.685 66.8618 127.781 66.8104 127.963C66.7589 128.148 66.6801 128.419 66.5807 128.779C66.375 129.499 66.0699 130.558 65.6722 131.936C64.8735 134.692 63.708 138.72 62.2339 143.811L62.1859 143.746C66.3544 143.862 71.2223 143.996 76.6695 144.147C82.1201 144.208 88.1364 144.706 94.6223 145.007C97.8652 145.168 101.225 145.316 104.687 145.419C106.418 145.467 108.173 145.504 109.953 145.508C110.844 145.504 111.739 145.508 112.637 145.47C113.086 145.46 113.538 145.446 113.987 145.405C114.44 145.374 114.892 145.343 115.338 145.261C117.124 144.997 118.914 144.346 120.333 143.149C121.752 141.977 122.743 140.215 122.825 138.329C122.849 138.096 122.815 137.86 122.811 137.627C122.78 137.393 122.76 137.157 122.715 136.924C122.633 136.458 122.53 135.991 122.393 135.532C122.129 134.613 121.779 133.715 121.378 132.834C120.576 131.076 119.582 129.389 118.502 127.743C116.634 124.915 114.865 122.077 113.11 119.293C111.368 116.503 109.654 113.757 107.975 111.066L108.081 111.1C105.376 112.221 102.726 113.318 100.138 114.391L100.183 114.278C103.045 121.042 105.74 127.408 108.218 133.263L108.28 133.407L108.129 133.365C103.079 132.011 98.4103 130.757 94.1595 129.615H94.1526L94.1458 129.608C92.6957 128.813 91.3005 128.045 89.9567 127.308C89.2814 126.945 88.6335 126.564 87.9821 126.239C87.3274 125.913 86.6692 125.621 86.0178 125.364C83.4125 124.339 80.9032 123.746 78.6475 123.64C77.5197 123.606 76.4638 123.75 75.5074 123.973C74.5509 124.206 73.6939 124.524 72.926 124.854C71.3971 125.529 70.2384 126.269 69.4157 126.886V126.89C68.5553 127.157 67.9245 127.356 67.5028 127.486C67.0846 127.617 66.8755 127.675 66.8755 127.675C66.8755 127.675 67.0709 127.606 67.4891 127.469C67.9108 127.332 68.5415 127.13 69.402 126.849H69.3951C70.2179 126.225 71.3731 125.474 72.902 124.792C73.6699 124.456 74.5304 124.134 75.4902 123.894C76.4535 123.664 77.5162 123.517 78.6509 123.547C80.9203 123.647 83.4399 124.233 86.059 125.258C86.7137 125.519 87.3719 125.807 88.0335 126.132C88.6952 126.461 89.3431 126.838 90.015 127.202C91.3588 127.935 92.7574 128.7 94.2075 129.495L94.1938 129.488C98.4446 130.623 103.117 131.871 108.167 133.218L108.077 133.321C105.592 127.466 102.894 121.103 100.025 114.343L99.9907 114.264L100.069 114.23C102.661 113.157 105.308 112.057 108.012 110.936L108.081 110.908L108.119 110.97C109.798 113.658 111.512 116.403 113.257 119.194C115.012 121.977 116.781 124.816 118.65 127.641C119.733 129.29 120.73 130.983 121.536 132.755C121.937 133.64 122.29 134.548 122.558 135.477C122.695 135.94 122.801 136.413 122.883 136.89C122.928 137.126 122.948 137.366 122.979 137.606C122.979 137.849 123.017 138.089 122.993 138.333C122.907 140.276 121.886 142.08 120.436 143.279C118.986 144.503 117.165 145.158 115.355 145.425C114.903 145.511 114.447 145.539 113.991 145.573C113.535 145.614 113.082 145.628 112.633 145.638C111.732 145.676 110.834 145.669 109.942 145.672C108.16 145.669 106.401 145.628 104.67 145.58C101.208 145.477 97.8481 145.323 94.6052 145.158C88.1158 144.853 82.1064 144.346 76.6558 144.274C71.2086 144.109 66.3441 143.965 62.1756 143.838H62.1105L62.1276 143.773C63.6257 138.679 64.8084 134.651 65.6174 131.895C66.0219 130.524 66.3373 129.468 66.5464 128.751C66.6527 128.398 66.7315 128.131 66.7864 127.946C66.8412 127.764 66.8721 127.675 66.8721 127.675L66.8858 127.685Z" fill="#455A64"/>
<path d="M107.197 133.003C107.197 133.003 107.317 133.007 107.523 133.045C107.728 133.082 108.026 133.147 108.393 133.237C109.12 133.422 110.135 133.692 111.177 134.196C112.226 134.687 113.049 135.389 113.515 135.986C113.638 136.13 113.734 136.274 113.817 136.397C113.902 136.521 113.971 136.63 114.019 136.726C114.118 136.911 114.17 137.018 114.159 137.025C114.128 137.042 113.909 136.63 113.419 136.068C112.935 135.502 112.13 134.841 111.101 134.358C110.076 133.864 109.079 133.572 108.362 133.36C107.643 133.154 107.193 133.031 107.2 133.003H107.197Z" fill="#455A64"/>
<path d="M19.9488 138.976C19.9488 138.976 16.3665 136.94 15.6672 136.898C14.673 136.837 10.2817 136.988 9.74348 136.953C9.26356 136.922 9.0613 137.43 9.26698 137.773C9.46924 138.115 9.96631 138.671 11.3238 138.637C12.6813 138.602 13.4629 138.839 13.8023 138.976C14.1417 139.113 14.0457 139.528 14.0457 139.528C14.0457 139.528 12.0746 139.631 11.5021 139.497C10.7171 139.312 8.11515 137.546 8.11515 137.546L7.07645 136.881C7.07645 136.881 6.64108 137.409 7.31984 138.397C7.9986 139.38 8.84876 140.265 8.84876 140.265C8.84876 140.265 7.91632 140.851 8.7322 141.749C8.7322 141.749 8.13229 142.88 9.49666 143.539C9.49666 143.539 9.79833 144.331 10.388 144.8C10.8028 145.133 11.8517 145.071 12.4962 145.109C13.2298 145.153 14.8376 144.996 15.3689 144.882C16.8396 144.574 17.8954 144.214 17.8954 144.214L21.1384 144.399L21.4332 138.87L19.9488 138.972V138.976Z" fill="#FFBE9D"/>
<path d="M10.9161 141.41C10.899 141.455 10.3197 141.277 9.6649 140.92C9.01014 140.567 8.54049 140.183 8.56791 140.145C8.59877 140.104 9.10269 140.416 9.74717 140.762C10.3916 141.109 10.9299 141.362 10.9127 141.407L10.9161 141.41Z" fill="#6F4439"/>
<path d="M10.485 142.649C10.4713 142.694 9.99822 142.591 9.47372 142.313C8.94923 142.039 8.59271 141.707 8.62356 141.672C8.65441 141.631 9.04521 141.892 9.556 142.156C10.0634 142.423 10.4987 142.601 10.485 142.649Z" fill="#6F4439"/>
<path d="M10.5589 143.974C10.5486 144.019 10.1269 143.96 9.65729 143.727C9.19107 143.494 8.8894 143.192 8.92025 143.155C8.95111 143.114 9.29049 143.343 9.73956 143.566C10.1852 143.792 10.5726 143.923 10.5589 143.974Z" fill="#6F4439"/>
<g opacity="0.3">
<path d="M46.4091 139.114C48.2396 136.724 49.1789 133.749 49.5629 130.766C49.9434 127.78 49.8543 124.945 49.7069 121.939C49.0727 128.014 47.986 133.646 46.4091 139.117V139.114Z" fill="black"/>
</g>
<path d="M50.0204 118.454C50.0513 118.76 50.0273 117.789 50.0204 118.129C49.9347 122.225 47.5179 139.688 44.3847 143.085C41.9919 145.68 19.5586 144.576 19.5586 144.576L19.8054 138.735C19.8054 138.735 20.4122 138.56 24.4402 138.056C28.4682 137.552 36.6818 135.437 36.6818 135.437L39.4483 117.166" fill="#FE649F"/>
<path d="M39.4452 117.157C39.4452 117.157 39.4349 117.27 39.4075 117.486C39.3767 117.709 39.3321 118.027 39.2738 118.446C39.1504 119.292 38.9687 120.53 38.739 122.114C38.266 125.295 37.5838 129.861 36.7542 135.439L36.7473 135.487L36.7028 135.497C34.2997 136.111 31.6704 136.748 28.8456 137.345C27.4333 137.639 25.9729 137.927 24.4543 138.13C22.9459 138.328 21.3793 138.507 19.8332 138.808L19.8949 138.73C19.8161 140.591 19.7338 142.562 19.6515 144.571L19.5658 144.478C21.1496 144.55 22.8294 144.605 24.5331 144.646C27.7418 144.722 30.8785 144.739 33.902 144.657C35.4138 144.612 36.8982 144.544 38.3482 144.427C39.7949 144.304 41.2175 144.149 42.5613 143.82C42.8939 143.735 43.223 143.639 43.5383 143.508C43.8469 143.378 44.1554 143.227 44.3645 142.984C44.7999 142.483 45.1221 141.894 45.3963 141.301C45.9448 140.111 46.3391 138.891 46.6887 137.708C47.3778 135.336 47.8577 133.08 48.2622 131.016C49.0541 126.886 49.5032 123.509 49.7637 121.171C49.894 120.002 49.9694 119.09 50.0002 118.473C50.0071 118.319 50.014 118.182 50.0208 118.065V118.051C50.0208 118.051 50.0208 118.041 50.038 118.038C50.0482 118.038 50.0448 118.041 50.0482 118.045C50.0482 118.055 50.0482 118.051 50.0482 118.055V118.079L50.0517 118.12C50.0517 118.147 50.0517 118.171 50.0517 118.199C50.0517 118.247 50.0517 118.291 50.0517 118.333C50.0448 118.411 50.062 118.473 50.0345 118.514C50.0242 118.47 50.0277 118.453 50.0277 118.453C50.0277 118.453 50.0311 118.473 50.038 118.511C50.0311 118.477 50.038 118.411 50.0311 118.336C50.0311 118.295 50.0311 118.25 50.0242 118.202C50.0242 118.178 50.0242 118.151 50.0208 118.123V118.082L50.0174 118.062C50.014 118.058 50.0174 118.062 50.0414 118.058V118.069C50.038 118.189 50.0345 118.322 50.0311 118.477C50.0105 119.097 49.9454 120.009 49.8288 121.181C49.5889 123.523 49.1569 126.906 48.3822 131.044C47.988 133.111 47.5115 135.37 46.8293 137.753C46.4796 138.942 46.0888 140.166 45.5369 141.373C45.2626 141.973 44.937 142.572 44.4845 143.1C44.2479 143.375 43.9188 143.532 43.6 143.666C43.2778 143.8 42.9418 143.899 42.6025 143.985C41.2415 144.321 39.8154 144.475 38.3654 144.602C36.9119 144.722 35.4241 144.794 33.9089 144.838C30.8785 144.924 27.7418 144.907 24.5297 144.832C22.8259 144.79 21.1462 144.736 19.559 144.66H19.4698L19.4733 144.568C19.559 142.559 19.6413 140.588 19.7235 138.726V138.658L19.7852 138.644C20.584 138.472 21.3587 138.376 22.1369 138.263C22.9116 138.161 23.6795 138.061 24.4337 137.965C25.942 137.766 27.4024 137.478 28.8113 137.187C31.6326 136.597 34.2654 135.963 36.6651 135.36L36.6136 135.418C37.4706 129.847 38.1734 125.281 38.6602 122.103C38.907 120.523 39.1024 119.286 39.2327 118.442C39.3012 118.027 39.3527 117.709 39.3869 117.486C39.4246 117.27 39.4486 117.16 39.4486 117.16L39.4452 117.157Z" fill="#263238"/>
</svg>
