<svg width="35" height="35" viewBox="0 0 35 35" fill="none" xmlns="http://www.w3.org/2000/svg">
<path d="M4.375 9.31271C4.375 8.60622 4.87868 8.03349 5.5 8.03349L9.38535 8.0328C10.1573 8.01056 10.8384 7.4524 11.101 6.62667C11.1079 6.60497 11.1159 6.57819 11.1444 6.48102L11.3118 5.90982C11.4142 5.5596 11.5035 5.25448 11.6284 4.98176C12.1218 3.90432 13.0347 3.15614 14.0896 2.96458C14.3567 2.9161 14.6395 2.9163 14.964 2.91654H20.0362C20.3608 2.9163 20.6436 2.9161 20.9106 2.96458C21.9656 3.15614 22.8785 3.90432 23.3719 4.98176C23.4968 5.25448 23.586 5.5596 23.6885 5.90982L23.8559 6.48102C23.8844 6.57819 23.8923 6.60497 23.8992 6.62667C24.1619 7.4524 24.978 8.01124 25.75 8.03349H29.5C30.1213 8.03349 30.625 8.60622 30.625 9.31271C30.625 10.0192 30.1213 10.5919 29.5 10.5919H5.5C4.87868 10.5919 4.375 10.0192 4.375 9.31271Z" fill="#EB2416"/>
<path fill-rule="evenodd" clip-rule="evenodd" d="M16.9103 32.0834H18.0897C22.1479 32.0834 24.1769 32.0834 25.4962 30.7914C26.8155 29.4994 26.9504 27.3801 27.2204 23.1416L27.6093 17.0342C27.7558 14.7345 27.8291 13.5846 27.1672 12.8559C26.5054 12.1272 25.3877 12.1272 23.1524 12.1272H11.8476C9.61227 12.1272 8.49462 12.1272 7.83278 12.8559C7.17095 13.5846 7.24418 14.7345 7.39065 17.0342L7.77961 23.1416C8.04956 27.3801 8.18453 29.4994 9.5038 30.7914C10.8231 32.0834 12.8521 32.0834 16.9103 32.0834ZM14.9425 17.7749C14.8824 17.1422 14.3464 16.6806 13.7453 16.7438C13.1443 16.8071 12.7057 17.3713 12.7658 18.004L13.495 25.6794C13.5551 26.3121 14.0911 26.7738 14.6922 26.7105C15.2932 26.6472 15.7318 26.083 15.6717 25.4503L14.9425 17.7749ZM21.2547 16.7438C21.8557 16.8071 22.2943 17.3713 22.2342 18.004L21.505 25.6794C21.4449 26.3121 20.9089 26.7738 20.3078 26.7105C19.7068 26.6472 19.2682 26.083 19.3283 25.4503L20.0575 17.7749C20.1176 17.1422 20.6536 16.6806 21.2547 16.7438Z" fill="#EB2416"/>
</svg>
