<svg width="28" height="28" viewBox="0 0 28 28" fill="none" xmlns="http://www.w3.org/2000/svg">
<path d="M3.5 7.45291C3.5 6.88771 3.90294 6.42952 4.4 6.42952L7.50828 6.42897C8.12586 6.41118 8.67069 5.96466 8.88083 5.30407C8.88635 5.28671 8.89271 5.26528 8.9155 5.18755L9.04943 4.73059C9.13138 4.45041 9.20279 4.20632 9.3027 3.98814C9.69744 3.12619 10.4278 2.52764 11.2717 2.3744C11.4853 2.33561 11.7116 2.33577 11.9712 2.33596H16.029C16.2886 2.33577 16.5149 2.33561 16.7285 2.3744C17.5724 2.52764 18.3028 3.12619 18.6975 3.98814C18.7974 4.20632 18.8688 4.45041 18.9508 4.73059L19.0847 5.18755C19.1075 5.26528 19.1138 5.28671 19.1194 5.30407C19.3295 5.96466 19.9824 6.41173 20.6 6.42952H23.6C24.0971 6.42952 24.5 6.88771 24.5 7.45291C24.5 8.0181 24.0971 8.47629 23.6 8.47629H4.4C3.90294 8.47629 3.5 8.0181 3.5 7.45291Z" fill="#EB2416"/>
<path fill-rule="evenodd" clip-rule="evenodd" d="M13.5282 25.6694H14.4718C17.7183 25.6694 19.3415 25.6694 20.397 24.6358C21.4524 23.6023 21.5604 21.9068 21.7763 18.516L22.0875 13.6301C22.2047 11.7903 22.2632 10.8704 21.7338 10.2874C21.2043 9.70451 20.3102 9.70451 18.5219 9.70451H9.47805C7.68981 9.70451 6.79569 9.70451 6.26623 10.2874C5.73676 10.8704 5.79535 11.7903 5.91252 13.6301L6.22369 18.516C6.43965 21.9068 6.54762 23.6023 7.60304 24.6358C8.65845 25.6694 10.2817 25.6694 13.5282 25.6694ZM11.954 14.2226C11.9059 13.7165 11.4771 13.3472 10.9963 13.3978C10.5154 13.4484 10.1646 13.8998 10.2127 14.4059L10.796 20.5463C10.8441 21.0525 11.2729 21.4217 11.7537 21.3711C12.2346 21.3205 12.5854 20.8692 12.5373 20.363L11.954 14.2226ZM17.0037 13.3978C17.4846 13.4484 17.8354 13.8998 17.7873 14.4059L17.204 20.5463C17.1559 21.0525 16.7271 21.4217 16.2463 21.3711C15.7654 21.3205 15.4146 20.8692 15.4627 20.363L16.046 14.2226C16.0941 13.7165 16.5229 13.3472 17.0037 13.3978Z" fill="#EB2416"/>
</svg>
