<svg width="123" height="170" viewBox="0 0 123 170" fill="none" xmlns="http://www.w3.org/2000/svg">
<rect x="0.876219" y="0.876219" width="121.157" height="121.157" rx="31.257" stroke="white" stroke-width="1.75244"/>
<path d="M74.5153 83.6564C69.1116 93.5265 56.4993 97.2146 46.6292 91.811C36.7591 86.4074 33.2199 73.8766 38.6235 64.0065C44.0271 54.1364 56.409 50.5156 66.2791 55.9193C76.1492 61.3229 79.9189 73.7863 74.5153 83.6564Z" stroke="white" stroke-width="5.09361" stroke-miterlimit="10" stroke-linecap="round" stroke-linejoin="round"/>
<path d="M80.6332 29.7082L66.2832 55.9194" stroke="white" stroke-width="5.09361" stroke-miterlimit="10" stroke-linecap="round" stroke-linejoin="round"/>
<path d="M67.1309 33.1514L80.9586 29.1077L85.0023 42.9355" stroke="white" stroke-width="5.09361" stroke-miterlimit="10" stroke-linecap="round" stroke-linejoin="round"/>
<path d="M40.0579 136.491V138.013H33.8266V142.845H38.8857V144.367H33.8266V150.825H31.9552V136.491H40.0579ZM41.6189 145.149C41.6189 143.997 41.852 142.989 42.3182 142.126C42.7843 141.248 43.4218 140.569 44.2307 140.09C45.0533 139.61 45.9651 139.37 46.9659 139.37C47.953 139.37 48.8099 139.582 49.5366 140.007C50.2632 140.432 50.8048 140.967 51.1612 141.611V139.555H53.0532V150.825H51.1612V148.727C50.791 149.385 50.2358 149.934 49.4954 150.372C48.7688 150.797 47.9188 151.01 46.9453 151.01C45.9445 151.01 45.0396 150.763 44.2307 150.269C43.4218 149.776 42.7843 149.084 42.3182 148.192C41.852 147.301 41.6189 146.287 41.6189 145.149ZM51.1612 145.169C51.1612 144.319 50.9898 143.579 50.6471 142.948C50.3043 142.318 49.8382 141.838 49.2487 141.509C48.6728 141.166 48.0353 140.995 47.3361 140.995C46.6369 140.995 45.9993 141.159 45.4235 141.488C44.8477 141.817 44.3884 142.297 44.0456 142.928C43.7029 143.558 43.5315 144.299 43.5315 145.149C43.5315 146.012 43.7029 146.766 44.0456 147.411C44.3884 148.042 44.8477 148.528 45.4235 148.871C45.9993 149.2 46.6369 149.365 47.3361 149.365C48.0353 149.365 48.6728 149.2 49.2487 148.871C49.8382 148.528 50.3043 148.042 50.6471 147.411C50.9898 146.766 51.1612 146.019 51.1612 145.169ZM58.4985 141.097V147.74C58.4985 148.288 58.6151 148.679 58.8481 148.912C59.0812 149.131 59.4857 149.241 60.0615 149.241H61.4394V150.825H59.753C58.711 150.825 57.9296 150.585 57.4086 150.105C56.8876 149.625 56.6271 148.837 56.6271 147.74V141.097H55.167V139.555H56.6271V136.717H58.4985V139.555H61.4394V141.097H58.4985ZM69.3006 139.349C70.1506 139.349 70.9184 139.534 71.6039 139.905C72.2894 140.261 72.8241 140.803 73.208 141.529C73.6056 142.256 73.8044 143.14 73.8044 144.182V150.825H71.9535V144.449C71.9535 143.325 71.6725 142.468 71.1103 141.879C70.5482 141.276 69.7805 140.974 68.807 140.974C67.8199 140.974 67.0316 141.282 66.442 141.899C65.8662 142.516 65.5783 143.414 65.5783 144.593V150.825H63.7068V135.606H65.5783V141.159C65.9485 140.583 66.4557 140.138 67.1001 139.822C67.7582 139.507 68.4917 139.349 69.3006 139.349ZM87.144 144.758C87.144 145.114 87.1235 145.491 87.0823 145.889H78.0747C78.1433 147 78.5203 147.87 79.2058 148.501C79.9051 149.118 80.7482 149.426 81.7354 149.426C82.5443 149.426 83.2161 149.241 83.7508 148.871C84.2992 148.487 84.6831 147.98 84.9024 147.349H86.9178C86.6162 148.432 86.0129 149.317 85.1081 150.002C84.2032 150.674 83.079 151.01 81.7354 151.01C80.666 151.01 79.7063 150.77 78.8562 150.29C78.0199 149.81 77.3618 149.131 76.882 148.254C76.4021 147.363 76.1622 146.335 76.1622 145.169C76.1622 144.004 76.3953 142.982 76.8614 142.105C77.3275 141.228 77.9788 140.556 78.8151 140.09C79.6651 139.61 80.6386 139.37 81.7354 139.37C82.8048 139.37 83.7508 139.603 84.5734 140.069C85.396 140.535 86.0267 141.18 86.4654 142.002C86.9178 142.811 87.144 143.73 87.144 144.758ZM85.2109 144.367C85.2109 143.654 85.0532 143.044 84.7379 142.537C84.4226 142.016 83.9907 141.625 83.4423 141.365C82.9076 141.09 82.3112 140.953 81.6531 140.953C80.7071 140.953 79.8982 141.255 79.2264 141.858C78.5683 142.461 78.1913 143.298 78.0953 144.367H85.2109ZM91.4857 141.385C91.8148 140.741 92.2809 140.24 92.8842 139.884C93.5011 139.528 94.2483 139.349 95.1258 139.349V141.282H94.6322C92.5345 141.282 91.4857 142.42 91.4857 144.696V150.825H89.6143V139.555H91.4857V141.385Z" fill="white"/>
</svg>
