<svg width="123" height="170" viewBox="0 0 123 170" fill="none" xmlns="http://www.w3.org/2000/svg">
<rect x="0.876219" y="0.876219" width="121.157" height="121.157" rx="31.257" fill="#111111" stroke="white" stroke-width="1.75244"/>
<path d="M74.5143 83.6564C69.1107 93.5265 56.4983 97.2146 46.6282 91.811C36.7582 86.4074 33.2189 73.8766 38.6225 64.0065C44.0262 54.1364 56.408 50.5156 66.2781 55.9193C76.1482 61.3229 79.9179 73.7863 74.5143 83.6564Z" stroke="white" stroke-width="5.09361" stroke-miterlimit="10" stroke-linecap="round" stroke-linejoin="round"/>
<path d="M80.6313 29.7082L66.2812 55.9194" stroke="white" stroke-width="5.09361" stroke-miterlimit="10" stroke-linecap="round" stroke-linejoin="round"/>
<path d="M67.1289 33.1514L80.9567 29.1077L85.0003 42.9355" stroke="white" stroke-width="5.09361" stroke-miterlimit="10" stroke-linecap="round" stroke-linejoin="round"/>
<path d="M40.0589 136.491V138.013H33.8276V142.845H38.8867V144.367H33.8276V150.825H31.9562V136.491H40.0589ZM41.6199 145.149C41.6199 143.997 41.853 142.989 42.3191 142.126C42.7853 141.248 43.4228 140.569 44.2317 140.09C45.0543 139.61 45.966 139.37 46.9669 139.37C47.954 139.37 48.8109 139.582 49.5375 140.007C50.2642 140.432 50.8057 140.967 51.1622 141.611V139.555H53.0542V150.825H51.1622V148.727C50.792 149.385 50.2368 149.934 49.4964 150.372C48.7698 150.797 47.9197 151.01 46.9463 151.01C45.9455 151.01 45.0406 150.763 44.2317 150.269C43.4228 149.776 42.7853 149.084 42.3191 148.192C41.853 147.301 41.6199 146.287 41.6199 145.149ZM51.1622 145.169C51.1622 144.319 50.9908 143.579 50.6481 142.948C50.3053 142.318 49.8392 141.838 49.2496 141.509C48.6738 141.166 48.0363 140.995 47.3371 140.995C46.6378 140.995 46.0003 141.159 45.4245 141.488C44.8487 141.817 44.3894 142.297 44.0466 142.928C43.7039 143.558 43.5325 144.299 43.5325 145.149C43.5325 146.012 43.7039 146.766 44.0466 147.411C44.3894 148.042 44.8487 148.528 45.4245 148.871C46.0003 149.2 46.6378 149.365 47.3371 149.365C48.0363 149.365 48.6738 149.2 49.2496 148.871C49.8392 148.528 50.3053 148.042 50.6481 147.411C50.9908 146.766 51.1622 146.019 51.1622 145.169ZM58.4995 141.097V147.74C58.4995 148.288 58.616 148.679 58.8491 148.912C59.0822 149.131 59.4866 149.241 60.0625 149.241H61.4403V150.825H59.754C58.712 150.825 57.9305 150.585 57.4095 150.105C56.8886 149.625 56.6281 148.837 56.6281 147.74V141.097H55.1679V139.555H56.6281V136.717H58.4995V139.555H61.4403V141.097H58.4995ZM69.3016 139.349C70.1516 139.349 70.9194 139.534 71.6049 139.905C72.2904 140.261 72.8251 140.803 73.209 141.529C73.6066 142.256 73.8054 143.14 73.8054 144.182V150.825H71.9545V144.449C71.9545 143.325 71.6734 142.468 71.1113 141.879C70.5492 141.276 69.7814 140.974 68.808 140.974C67.8209 140.974 67.0325 141.282 66.443 141.899C65.8672 142.516 65.5793 143.414 65.5793 144.593V150.825H63.7078V135.606H65.5793V141.159C65.9494 140.583 66.4567 140.138 67.1011 139.822C67.7592 139.507 68.4927 139.349 69.3016 139.349ZM87.145 144.758C87.145 145.114 87.1244 145.491 87.0833 145.889H78.0757C78.1443 147 78.5213 147.87 79.2068 148.501C79.906 149.118 80.7492 149.426 81.7363 149.426C82.5452 149.426 83.217 149.241 83.7517 148.871C84.3001 148.487 84.684 147.98 84.9034 147.349H86.9188C86.6172 148.432 86.0139 149.317 85.1091 150.002C84.2042 150.674 83.0799 151.01 81.7363 151.01C80.667 151.01 79.7072 150.77 78.8572 150.29C78.0209 149.81 77.3628 149.131 76.8829 148.254C76.4031 147.363 76.1632 146.335 76.1632 145.169C76.1632 144.004 76.3962 142.982 76.8624 142.105C77.3285 141.228 77.9798 140.556 78.8161 140.09C79.6661 139.61 80.6395 139.37 81.7363 139.37C82.8057 139.37 83.7517 139.603 84.5744 140.069C85.397 140.535 86.0276 141.18 86.4664 142.002C86.9188 142.811 87.145 143.73 87.145 144.758ZM85.2119 144.367C85.2119 143.654 85.0542 143.044 84.7389 142.537C84.4235 142.016 83.9917 141.625 83.4433 141.365C82.9086 141.09 82.3122 140.953 81.6541 140.953C80.7081 140.953 79.8992 141.255 79.2274 141.858C78.5693 142.461 78.1923 143.298 78.0963 144.367H85.2119ZM91.4867 141.385C91.8157 140.741 92.2819 140.24 92.8851 139.884C93.5021 139.528 94.2493 139.349 95.1267 139.349V141.282H94.6332C92.5355 141.282 91.4867 142.42 91.4867 144.696V150.825H89.6153V139.555H91.4867V141.385Z" fill="white"/>
</svg>
