<svg width="123" height="123" viewBox="0 0 123 123" fill="none" xmlns="http://www.w3.org/2000/svg">
<rect x="0.876863" y="0.876863" width="121.246" height="121.246" rx="31.28" stroke="#A17FFF" stroke-width="1.75373"/>
<path d="M62.3056 36.5181C48.1756 36.5181 36.5801 48.1136 36.5801 62.2436C36.5801 76.3735 48.1756 87.969 62.3056 87.969C76.4355 87.969 88.0311 76.3735 88.0311 62.2436C88.0311 48.1136 76.4355 36.5181 62.3056 36.5181ZM62.3056 81.9396C51.4833 81.9396 42.6095 73.0658 42.6095 62.2436C42.6095 57.9212 44.0259 53.8383 46.3967 50.5979L73.951 78.1525C70.7107 80.523 66.628 81.9396 62.3056 81.9396ZM78.2145 73.889L50.6602 46.3347C53.9005 43.9641 57.9832 42.5475 62.3056 42.5475C73.1279 42.5475 82.0016 51.4213 82.0016 62.2436C82.0016 66.5659 80.585 70.6487 78.2145 73.889Z" fill="#A17FFF"/>
</svg>
