<svg width="253" height="75" viewBox="0 0 253 75" fill="none" xmlns="http://www.w3.org/2000/svg">
<path fill-rule="evenodd" clip-rule="evenodd" d="M229.821 50.174C233.108 50.174 235.732 49.3756 237.693 47.7817C239.337 46.4805 240.488 44.6655 241.151 42.3367C241.593 40.7675 241.814 38.9387 241.814 36.8558C241.814 36.2176 241.753 34.9192 241.629 32.955C241.579 32.5876 241.554 32.071 241.554 31.4108C241.554 30.8969 241.565 30.5268 241.59 30.3085L241.077 30.64C240.146 28.9714 238.955 27.6592 237.508 26.7034C235.84 25.5984 233.94 25.0486 231.807 25.0486C230.36 25.0486 228.951 25.3055 227.576 25.8221C226.228 26.3139 225.002 27.0736 223.897 28.104C221.323 30.6069 220.036 34.1982 220.036 38.8835C220.036 42.5135 221.116 45.3699 223.273 47.4557C224.204 48.3397 225.234 49.0138 226.363 49.4779C227.518 49.942 228.67 50.174 229.821 50.174ZM228.94 57.0915C225.604 57.0915 222.662 56.6494 220.113 55.7682C217.589 54.8842 215.479 53.5968 213.785 51.9061C210.449 48.6436 208.783 44.0439 208.783 38.11C208.783 30.7505 211.101 25.2337 215.735 21.554C217.771 19.9351 220.149 18.7445 222.872 17.9848C225.596 17.2002 228.526 16.8079 231.664 16.8079C235.589 16.8079 239.093 17.4461 242.184 18.7224C245.446 20.1202 247.948 22.1203 249.688 24.7199L247.299 26.3747C249.039 26.7918 250.448 28.1399 251.528 30.4218C252.02 31.4522 252.384 32.5683 252.63 33.77C252.876 34.9468 253 36.0878 253 37.1928C253 43.3505 251.21 48.0966 247.628 51.431C243.579 55.2019 237.351 57.0915 228.94 57.0915ZM182.349 57.0528C181.882 57.0528 181.418 57.0031 180.951 56.9064C180.509 56.8097 180.056 56.6992 179.589 56.5749C179.147 56.4533 178.83 56.3677 178.634 56.3179C178.12 56.1715 177.579 56.0362 177.015 55.9146C176.477 55.7931 175.996 55.7295 175.582 55.7295C175.361 55.7295 175.189 55.7406 175.068 55.7654C174.405 52.5526 173.51 48.7513 172.383 44.3589C171.428 40.7786 170.384 37.2204 169.257 33.6899C167.981 29.7892 166.608 26.2199 165.136 22.9822L161.421 23.1287V17.7969L169.588 17.4654V17.5013L174.112 17.0593C175.781 20.076 177.25 23.5845 178.526 27.5819C179.41 30.3058 180.316 33.8722 181.249 38.2895C182.034 42.1903 182.622 46.0882 183.014 49.9889C184.975 49.5718 186.765 48.7375 188.383 47.4861C190.002 46.2844 191.4 44.6904 192.576 42.7041C194.023 40.2509 195.029 37.3945 195.592 34.1319C195.813 32.513 195.924 30.8583 195.924 29.1648C195.924 27.5708 195.813 25.8304 195.592 23.9408C195.421 22.4933 195.214 21.2308 194.968 20.1506C194.722 19.0456 194.49 18.2997 194.269 17.9074C195.054 17.5897 196.341 17.2941 198.13 17.0234C199.061 16.9019 200.02 16.8383 201 16.8383C201.884 16.8383 202.693 17.0704 203.428 17.5373C204.188 17.9793 204.814 18.6782 205.303 19.634C206.013 20.9822 206.369 22.8607 206.369 25.2641C206.369 26.6868 206.27 28.0847 206.074 29.4577C205.511 35.4165 203.746 40.6791 200.776 45.2401C199.5 47.2015 198.067 48.9447 196.473 50.4641C194.88 51.9614 193.225 53.2101 191.507 54.2156C189.914 55.1466 188.32 55.8455 186.726 56.3124C185.133 56.8097 183.674 57.0528 182.349 57.0528ZM132.506 38.9166C134.837 38.9166 137.165 38.7315 139.494 38.3641C142.805 37.8724 145.44 37.027 147.401 35.8253C149.729 34.4026 150.895 32.4771 150.895 30.0488C150.895 28.1593 149.975 26.7752 148.136 25.8912C147.523 25.5984 146.86 25.3774 146.15 25.2282C145.462 25.0818 144.838 25.0072 144.275 25.0072C142.827 25.0072 141.405 25.2779 140.007 25.8166C138.61 26.3304 137.359 27.1426 136.254 28.2449C135.077 29.4217 134.157 30.8942 133.495 32.6595C132.832 34.4247 132.5 36.4966 132.5 38.878V38.9166H132.506ZM141.557 57.0915C138.223 57.0915 135.268 56.6494 132.691 55.7682C130.142 54.8593 128.007 53.5609 126.291 51.8675C124.673 50.2983 123.446 48.4336 122.612 46.2761C121.803 44.1185 121.397 41.7151 121.397 39.0658L121.433 37.9249C121.704 30.6649 124.007 25.2061 128.349 21.5512C130.238 19.9324 132.406 18.7417 134.859 17.982C137.336 17.1975 139.96 16.8052 142.731 16.8052C145.012 16.8052 147.219 17.0124 149.351 17.4295C152.538 18.0428 155.091 19.0843 157.002 20.5567C159.479 22.4463 160.717 24.9602 160.717 28.0985C160.717 30.1345 160.203 32.071 159.173 33.9109C158.143 35.7507 156.574 37.3696 154.464 38.7675C152.132 40.3117 149.216 41.5383 145.708 42.4472C142.2 43.3533 138.093 43.8561 133.387 43.9555C134.146 46.0661 135.373 47.7568 137.066 49.0331C137.875 49.6215 138.72 50.0635 139.604 50.3564C140.51 50.6519 141.408 50.7735 142.289 50.7238C144.937 50.6243 147.351 50.1713 149.536 49.3618C150.492 49.0193 151.362 48.6491 152.149 48.2568C152.837 47.8894 153.668 47.5441 154.651 47.2264L155.828 46.8949C156.32 46.7733 156.734 46.7098 157.079 46.7098C157.422 46.7098 157.703 46.7595 157.924 46.8562C158.195 46.9778 158.391 47.2126 158.513 47.5551C158.562 47.9474 158.584 48.2181 158.584 48.3646C158.584 49.0027 158.449 49.5911 158.181 50.1298C158.035 50.4475 157.839 50.7431 157.593 51.0138C157.372 51.2846 157.054 51.6271 156.637 52.0443C154.969 53.7129 152.541 55.0112 149.354 55.945C146.73 56.7102 144.131 57.0915 141.557 57.0915ZM113.246 56.5749C108.637 56.0362 103.682 55.7654 98.387 55.7654C96.5724 55.7654 95.2494 55.7765 94.4153 55.8013C91.4489 55.8759 88.6399 56.0223 85.9912 56.2433C84.6682 56.2433 83.5993 56.0831 82.7901 55.7654C81.9808 55.4477 81.4284 54.8344 81.1356 53.9256C80.9147 53.2874 80.8042 52.6879 80.8042 52.1216C80.8042 51.0912 81.0611 50.1602 81.5776 49.3259C81.8234 48.9088 82.0554 48.5911 82.2763 48.3701C83.0359 47.243 84.6047 45.5495 86.9855 43.2925C89.3636 41.0355 92.0261 38.621 94.9677 36.0436C97.7628 33.5904 100.472 31.3224 103.096 29.2367C105.574 27.2504 107.328 26.01 108.358 25.521C107.474 25.4713 106.678 25.4464 105.966 25.4464C104.643 25.4464 103.232 25.4823 101.735 25.5569C99.4531 25.6536 96.7187 25.789 93.5314 25.9603C92.0841 26.0349 89.3139 26.231 85.2178 26.5487L83.5634 26.6592L83.232 17.5704L95.5173 17.2389L98.7902 17.203C101.831 17.1533 104.074 17.1284 105.521 17.1284C109.175 17.1781 111.749 17.2748 113.246 17.4212L114.241 17.4958C115.025 17.5455 115.649 17.656 116.116 17.8273C116.362 17.9268 116.533 18.0594 116.63 18.2334C116.997 19.0428 117.218 19.7666 117.293 20.4048C117.392 21.0181 117.428 21.5319 117.403 21.949V22.7585C117.403 23.1756 117.378 23.543 117.331 23.8635C117.282 24.1591 117.16 24.4768 116.964 24.8193C116.522 25.6288 115.652 26.4879 114.351 27.394C108.662 32.0793 103.66 36.469 99.3426 40.5659C97.7738 42.0383 96.3017 43.4859 94.929 44.9058C93.8021 46.0578 93.0895 46.8452 92.7967 47.2595C97.2601 46.4998 101.784 46.1186 106.369 46.1186C108.258 46.1186 110.098 46.1794 111.888 46.3037C114.633 46.4998 117.086 46.8313 119.245 47.2982C119.516 47.9861 119.649 48.8204 119.649 49.8011C119.649 50.2928 119.613 50.7818 119.538 51.2735C119.292 52.9421 118.693 54.2543 117.735 55.2102C116.779 56.166 115.602 56.6439 114.205 56.6439C114.009 56.6494 113.688 56.6246 113.246 56.5749Z" fill="white"/>
<path fill-rule="evenodd" clip-rule="evenodd" d="M38.605 30.6562C37.8371 30.9629 37.0803 31.3027 36.3374 31.6729C35.9866 31.8497 35.7104 32.148 35.553 32.5072C29.1534 47.052 25.1154 59.4531 15.6253 72.0227C14.7414 73.194 15.5617 74.8433 17.0035 74.5725C19.3539 74.1305 21.5635 73.2741 23.6681 72.1498C23.356 72.3128 23.0495 72.4674 22.7401 72.6166C28.9518 64.4008 37.7764 37.7836 38.605 30.6562Z" fill="#794AFF"/>
<path fill-rule="evenodd" clip-rule="evenodd" d="M38.3859 31.9346C36.69 40.6505 28.4759 64.9499 22.7393 72.616C33.1685 67.5301 45.7217 55.4301 55.977 53.5599C53.5989 47.9132 44.2026 54.6732 35.8476 61.3199C34.671 62.2536 32.942 60.69 33.685 59.3861C39.4051 49.3442 43.3188 38.4128 43.0095 31.9706C42.9735 31.2523 42.3107 30.7744 41.6146 30.9539C40.7115 31.186 39.5874 31.5258 38.3859 31.9346Z" fill="#572DCE"/>
<path fill-rule="evenodd" clip-rule="evenodd" d="M55.4364 52.6246C54.1134 52.9589 52.7766 53.4644 51.3901 53.6578L51.1084 55.9949C50.9951 56.9287 51.8873 57.6829 52.8236 57.5889C56.6075 57.2105 60.3748 58.9094 62.6562 61.7908C62.9435 62.1527 63.645 61.9427 63.6312 61.4786C63.2639 49.5029 63.5566 37.5162 64.5095 25.5737L64.4184 25.9301L64.3963 26.0185L64.3742 26.1097L64.2858 26.4716L64.2637 26.5627L64.2416 26.6539L64.2195 26.7451L64.1449 27.0738L64.1367 27.1152L64.1173 27.2092L64.098 27.3031L64.0787 27.397L64.0372 27.5876L63.9792 27.8666L63.9599 27.9606L63.9212 28.1512L63.9019 28.2479L63.8632 28.4385L63.8439 28.5352L63.808 28.7203C63.7804 28.8639 63.7527 29.0103 63.7279 29.1568L63.6947 29.3363C63.6671 29.4883 63.6423 29.643 63.6146 29.7977L63.5953 29.9109C63.5649 30.0905 63.5373 30.2728 63.5069 30.4552L63.5014 30.4855L63.4959 30.5215V30.527C63.4655 30.7204 63.4379 30.9137 63.4103 31.1099L63.4075 31.1209L63.4047 31.1375C63.3743 31.3447 63.3467 31.5547 63.3191 31.7646C61.8856 42.6297 64.109 49.4284 58.6458 55.6911C57.9029 56.5447 56.5688 55.9093 56.3506 54.7988C56.3285 54.6827 56.3037 54.5695 56.2761 54.459L56.2733 54.4452V54.4396C56.2457 54.3319 56.218 54.2297 56.1877 54.1275L56.1794 54.0971C56.1518 54.0059 56.1214 53.9175 56.091 53.8291L56.0717 53.7766C56.0413 53.6993 56.0137 53.6219 55.9805 53.5473L55.9474 53.4755C55.9198 53.4147 55.8921 53.3539 55.8618 53.2932L55.8093 53.191C55.7844 53.144 55.7596 53.0998 55.7347 53.0556C55.7098 53.0114 55.685 52.9699 55.6574 52.9285L55.6077 52.8539L55.5883 52.8263C55.5579 52.7849 55.5303 52.7407 55.4999 52.702L55.4585 52.6467L55.4364 52.6246Z" fill="#572DCE"/>
<path fill-rule="evenodd" clip-rule="evenodd" d="M74.432 1.55997C74.8519 0.247757 73.1891 -0.561671 72.2722 0.465998C67.4138 5.91375 61.9948 10.4499 58.6307 12.7124C51.2838 17.685 36.9132 21.2431 27.1994 33.8238C26.4177 34.8349 27.4783 36.1278 28.6632 35.6443C32.5825 34.0448 38.3578 31.7906 41.6141 30.9563C42.3102 30.7795 42.9758 31.2574 43.0089 31.9729C43.3155 38.4152 39.4046 49.3466 33.6845 59.3885C32.9415 60.6924 34.6705 62.256 35.8471 61.3222C44.7352 54.2529 54.8026 47.0481 56.3438 54.7999C56.5648 55.9104 57.896 56.5458 58.639 55.6922C64.1022 49.4295 61.8788 42.6308 63.3123 31.7657C65.1462 17.8784 71.1674 11.7455 74.432 1.55997Z" fill="#5CC9B5"/>
<path fill-rule="evenodd" clip-rule="evenodd" d="M53.5058 0.627182C54.6465 0.710058 55.7374 1.12997 56.6406 1.83165C57.5438 2.53334 58.2177 3.48918 58.5768 4.57487C58.9358 5.66055 58.9662 6.82911 58.6624 7.93137C58.3586 9.03362 57.7344 10.0226 56.8699 10.7713C56.0054 11.5199 54.9365 11.9951 53.8041 12.136C52.6689 12.2769 51.5171 12.0807 50.4952 11.5669C49.4733 11.053 48.6253 10.2491 48.0591 9.25463C47.4929 8.26011 47.2361 7.11918 47.3189 5.98101C47.3742 5.22407 47.5758 4.4837 47.9183 3.80412C48.258 3.12453 48.7303 2.51953 49.3048 2.02227C49.8793 1.52501 50.5449 1.14654 51.2658 0.906199C51.9867 0.665857 52.749 0.57193 53.5058 0.627182Z" fill="#FEC430"/>
<path fill-rule="evenodd" clip-rule="evenodd" d="M58.6969 27.1274C62.2736 23.2295 60.3872 14.5606 58.6334 12.7125C56.479 12.1738 52.6702 12.9832 50.9965 14.9916C45.0306 16.1574 40.0922 19.7597 37.4766 24.2406C46.1243 16.3922 57.2026 15.9502 58.6969 27.1274Z" fill="#794AFF"/>
<path fill-rule="evenodd" clip-rule="evenodd" d="M58.6969 27.1279C56.758 23.2327 49.4857 19.8072 37.4766 24.2438C48.1406 14.5528 57.5562 17.4535 58.6969 27.1279Z" fill="#4CA897"/>
<path fill-rule="evenodd" clip-rule="evenodd" d="M58.6941 27.1246C55.6117 16.6435 45.1853 18.3286 37.4766 24.2405C43.5723 15.6683 58.6527 14.7594 58.6941 27.1246Z" fill="#572DCE"/>
<path fill-rule="evenodd" clip-rule="evenodd" d="M50.9995 14.9911C50.9995 14.9911 54.6564 14.5629 57.1007 17.4331C56.982 15.8972 54.4989 13.7341 52.4772 13.7866C51.911 14.0905 51.411 14.4993 50.9995 14.9911Z" fill="#572DCE"/>
<path fill-rule="evenodd" clip-rule="evenodd" d="M17.9243 32.613C18.67 32.8175 19.3412 33.2401 19.8466 33.8258C20.3548 34.4114 20.6752 35.1325 20.7746 35.9032C20.8713 36.6712 20.7387 37.4503 20.3935 38.1437C20.0482 38.8371 19.5041 39.4117 18.833 39.7957C18.1618 40.1797 17.3884 40.3565 16.6179 40.304C15.8445 40.2515 15.1043 39.9697 14.4911 39.4973C13.878 39.0249 13.4195 38.3785 13.1709 37.6464C12.9223 36.9116 12.9002 36.1215 13.1019 35.3728C13.2372 34.8728 13.4664 34.4087 13.7841 33.9971C14.0989 33.5882 14.4911 33.2457 14.9413 32.9887C15.3888 32.7318 15.8832 32.5661 16.3969 32.5025C16.9079 32.439 17.4271 32.4749 17.9243 32.613Z" fill="#FEC430"/>
<path fill-rule="evenodd" clip-rule="evenodd" d="M20.7107 41.0038C23.0915 39.7414 26.0827 38.0479 28.1818 36.8821C29.1651 36.3351 29.8998 37.1004 29.3639 38.0894C26.1269 44.073 26.1269 43.7277 23.5113 48.2555C20.8515 52.8662 21.3376 59.9494 18.0453 63.1899C17.4874 63.7396 16.6119 63.4275 16.2501 62.7341C12.4026 55.3387 7.29294 60.2892 1.07848 62.5959C0.164262 62.9357 -0.332895 62.2589 0.252645 61.4799C2.19432 58.8969 5.91195 54.253 7.1576 52.7115C8.75127 50.7418 10.4526 48.0124 3.73827 43.5012C3.02015 43.0205 2.92624 41.979 3.72998 41.6641C7.9061 40.0204 14.5404 44.2775 20.7107 41.0038Z" fill="#FE649F"/>
<path fill-rule="evenodd" clip-rule="evenodd" d="M7.71975 45.7661C9.40456 47.0093 11.1999 50.5094 5.73389 55.482C8.42682 53.8659 12.4759 48.4347 7.71975 45.7661Z" fill="white"/>
<path fill-rule="evenodd" clip-rule="evenodd" d="M43.9116 30.7366C44.649 30.5349 45.682 30.3277 46.6073 30.1675C44.9529 41.1099 39.9012 50.2512 33.4409 59.6329C38.6555 51.2457 44.8479 38.212 43.9116 30.7366Z" fill="#4CA897"/>
</svg>
