<svg width="123" height="170" viewBox="0 0 123 170" fill="none" xmlns="http://www.w3.org/2000/svg">
<rect x="0.96704" y="0.876219" width="121.157" height="121.157" rx="31.257" fill="#111111" stroke="white" stroke-width="1.75244"/>
<path d="M82.1481 46.0113C82.1481 57.2638 73.0262 66.3857 61.7737 66.3857C50.5212 66.3857 41.2295 57.2638 41.2295 46.0113C41.2295 34.7589 50.5212 25.4671 61.7737 25.4671C73.0262 25.4671 82.1481 34.7589 82.1481 46.0113Z" stroke="white" stroke-width="5.09361" stroke-miterlimit="10" stroke-linecap="round" stroke-linejoin="round"/>
<path d="M61.7744 66.3905L61.7744 96.9521" stroke="white" stroke-width="5.09361" stroke-miterlimit="10" stroke-linecap="round" stroke-linejoin="round"/>
<path d="M51.5801 86.7627H71.9545" stroke="white" stroke-width="5.09361" stroke-miterlimit="10" stroke-linecap="round" stroke-linejoin="round"/>
<path d="M42.0232 136.594V150.825H40.1517V140.213L35.4217 150.825H34.1055L29.355 140.192V150.825H27.4835V136.594H29.4989L34.7636 148.357L40.0283 136.594H42.0232ZM50.1121 151.01C49.0564 151.01 48.0967 150.77 47.2329 150.29C46.3829 149.81 45.7111 149.131 45.2175 148.254C44.7377 147.363 44.4977 146.335 44.4977 145.169C44.4977 144.018 44.7445 143.003 45.2381 142.126C45.7454 141.234 46.4309 140.556 47.2946 140.09C48.1584 139.61 49.1249 139.37 50.1943 139.37C51.2637 139.37 52.2303 139.61 53.094 140.09C53.9578 140.556 54.6364 141.228 55.13 142.105C55.6373 142.982 55.8909 144.004 55.8909 145.169C55.8909 146.335 55.6304 147.363 55.1094 148.254C54.6022 149.131 53.9098 149.81 53.0323 150.29C52.1549 150.77 51.1815 151.01 50.1121 151.01ZM50.1121 149.365C50.7839 149.365 51.4145 149.207 52.0041 148.892C52.5936 148.576 53.0666 148.103 53.4231 147.473C53.7933 146.842 53.9783 146.074 53.9783 145.169C53.9783 144.264 53.8001 143.497 53.4436 142.866C53.0872 142.235 52.621 141.769 52.0452 141.468C51.4694 141.152 50.8456 140.995 50.1738 140.995C49.4883 140.995 48.8576 141.152 48.2818 141.468C47.7196 141.769 47.2672 142.235 46.9244 142.866C46.5817 143.497 46.4103 144.264 46.4103 145.169C46.4103 146.088 46.5748 146.862 46.9039 147.493C47.2466 148.124 47.6991 148.597 48.2612 148.912C48.8233 149.214 49.4403 149.365 50.1121 149.365ZM60.6343 141.097V147.74C60.6343 148.288 60.7508 148.679 60.9839 148.912C61.2169 149.131 61.6214 149.241 62.1972 149.241H63.5751V150.825H61.8887C60.8468 150.825 60.0653 150.585 59.5443 150.105C59.0233 149.625 58.7628 148.837 58.7628 147.74V141.097H57.3027V139.555H58.7628V136.717H60.6343V139.555H63.5751V141.097H60.6343ZM71.4363 139.349C72.2864 139.349 73.0541 139.534 73.7396 139.905C74.4252 140.261 74.9599 140.803 75.3437 141.529C75.7413 142.256 75.9401 143.14 75.9401 144.182V150.825H74.0893V144.449C74.0893 143.325 73.8082 142.468 73.2461 141.879C72.684 141.276 71.9162 140.974 70.9428 140.974C69.9556 140.974 69.1673 141.282 68.5778 141.899C68.0019 142.516 67.714 143.414 67.714 144.593V150.825H65.8426V135.606H67.714V141.159C68.0842 140.583 68.5915 140.138 69.2359 139.822C69.8939 139.507 70.6274 139.349 71.4363 139.349ZM89.2798 144.758C89.2798 145.114 89.2592 145.491 89.2181 145.889H80.2105C80.279 147 80.6561 147.87 81.3416 148.501C82.0408 149.118 82.884 149.426 83.8711 149.426C84.68 149.426 85.3518 149.241 85.8865 148.871C86.4349 148.487 86.8188 147.98 87.0382 147.349H89.0535C88.7519 148.432 88.1487 149.317 87.2438 150.002C86.3389 150.674 85.2147 151.01 83.8711 151.01C82.8017 151.01 81.842 150.77 80.992 150.29C80.1556 149.81 79.4975 149.131 79.0177 148.254C78.5378 147.363 78.2979 146.335 78.2979 145.169C78.2979 144.004 78.531 142.982 78.9971 142.105C79.4633 141.228 80.1145 140.556 80.9508 140.09C81.8009 139.61 82.7743 139.37 83.8711 139.37C84.9405 139.37 85.8865 139.603 86.7091 140.069C87.5317 140.535 88.1624 141.18 88.6011 142.002C89.0535 142.811 89.2798 143.73 89.2798 144.758ZM87.3466 144.367C87.3466 143.654 87.189 143.044 86.8736 142.537C86.5583 142.016 86.1264 141.625 85.578 141.365C85.0433 141.09 84.4469 140.953 83.7888 140.953C82.8428 140.953 82.0339 141.255 81.3621 141.858C80.704 142.461 80.327 143.298 80.231 144.367H87.3466ZM93.6214 141.385C93.9505 140.741 94.4166 140.24 95.0199 139.884C95.6368 139.528 96.3841 139.349 97.2615 139.349V141.282H96.7679C94.6703 141.282 93.6214 142.42 93.6214 144.696V150.825H91.75V139.555H93.6214V141.385Z" fill="white"/>
</svg>
