<svg width="340" height="338" viewBox="0 0 340 338" fill="none" xmlns="http://www.w3.org/2000/svg">
<path d="M161.061 173.875C160.404 175.163 158.77 175.702 157.339 175.5C155.908 175.298 154.636 174.514 153.424 173.723C152.228 172.94 150.931 171.929 150.864 170.506C150.83 169.715 151.192 168.974 151.42 168.216C152.11 165.901 151.512 163.434 151.083 161.059C150.317 156.866 150.089 152.513 150.982 148.345C151.883 144.177 153.979 140.177 157.297 137.491C159.629 135.597 162.475 134.41 165.405 133.719C170.289 132.574 175.619 132.852 180.065 135.184C184.502 137.517 187.879 142.089 188.098 147.107C188.258 150.702 187.062 154.938 189.605 157.489C190.379 158.264 191.407 158.744 192.164 159.527C193.874 161.286 193.806 164.267 192.476 166.33C191.146 168.385 188.813 169.614 186.447 170.237C183.475 171.02 180.301 170.978 177.354 170.119" fill="#263238"/>
<path d="M186.009 156.656C186.978 157.523 187.356 158.853 187.567 160.142C187.777 161.422 187.862 162.752 188.417 163.922C188.973 165.093 190.143 166.103 191.432 165.968C188.721 170.035 183.264 172.048 178.566 170.717C178.406 165.648 178.246 160.588 178.086 155.519" fill="#263238"/>
<path d="M153.844 149.818C154.089 144.691 159.536 139.495 164.647 139.967L181.243 142.872L181.227 145.625L180.704 179.752C180.704 179.752 179.441 190.774 170.154 190.285C161.801 189.839 162.138 181.023 162.138 181.023L162.298 174.59C162.298 174.59 155.554 174.413 154.08 165.901C153.348 161.665 153.583 155.519 153.861 149.818H153.844Z" fill="#FFBE9D"/>
<path d="M155.325 156.479C155.46 156.622 156.285 155.991 157.464 155.982C158.643 155.948 159.51 156.546 159.636 156.395C159.695 156.327 159.552 156.075 159.173 155.805C158.803 155.536 158.163 155.283 157.43 155.292C156.698 155.309 156.083 155.586 155.729 155.864C155.367 156.151 155.249 156.403 155.317 156.471L155.325 156.479Z" fill="#263238"/>
<path d="M166.6 156.361C166.734 156.504 167.559 155.872 168.738 155.864C169.917 155.83 170.784 156.428 170.911 156.277C170.97 156.209 170.835 155.957 170.448 155.687C170.077 155.418 169.437 155.165 168.705 155.174C167.972 155.19 167.357 155.468 167.004 155.746C166.65 156.032 166.524 156.293 166.591 156.352L166.6 156.361Z" fill="#263238"/>
<path d="M162.835 162.28C162.835 162.221 162.102 162.12 160.915 162.002C160.612 161.977 160.326 161.926 160.275 161.758C160.199 161.573 160.317 161.295 160.46 161C160.73 160.377 161.008 159.729 161.302 159.055C162.473 156.285 163.315 154.003 163.188 153.961C163.054 153.919 162.001 156.133 160.822 158.904C160.545 159.586 160.275 160.242 160.014 160.866C159.905 161.152 159.719 161.489 159.879 161.867C159.964 162.061 160.191 162.196 160.385 162.238C160.578 162.289 160.747 162.289 160.898 162.297C162.094 162.339 162.835 162.339 162.835 162.28Z" fill="#263238"/>
<path d="M162.229 174.632C162.229 174.632 167.98 174.918 173.613 171.416C173.613 171.416 170.784 177.419 162.229 176.745V174.632Z" fill="#EB996E"/>
<path d="M166.018 161.96C165.825 161.96 165.842 163.231 164.764 164.158C163.686 165.084 162.322 164.958 162.314 165.143C162.297 165.227 162.617 165.387 163.198 165.395C163.762 165.404 164.587 165.21 165.244 164.646C165.901 164.082 166.178 163.332 166.212 162.81C166.254 162.272 166.103 161.96 166.018 161.968V161.96Z" fill="#263238"/>
<path d="M166.439 151.35C166.598 151.763 167.744 151.435 169.141 151.51C170.539 151.553 171.701 151.965 171.844 151.569C171.903 151.376 171.667 151.005 171.179 150.635C170.691 150.273 169.941 149.961 169.108 149.919C168.274 149.885 167.533 150.138 167.062 150.466C166.582 150.786 166.363 151.148 166.439 151.342V151.35Z" fill="#263238"/>
<path d="M155.376 151.216C155.62 151.628 156.707 151.283 157.978 151.334C159.249 151.334 160.31 151.738 160.58 151.334C160.698 151.14 160.555 150.736 160.108 150.34C159.67 149.944 158.913 149.591 158.037 149.574C157.161 149.557 156.387 149.869 155.924 150.239C155.452 150.618 155.284 151.014 155.385 151.207L155.376 151.216Z" fill="#263238"/>
<path d="M180.604 155.586C180.764 155.519 187.121 153.809 186.785 160.251C186.439 166.692 180.04 165.025 180.04 164.84C180.04 164.654 180.604 155.594 180.604 155.594V155.586Z" fill="#FFBE9D"/>
<path d="M181.573 162.482C181.573 162.482 181.682 162.566 181.867 162.667C182.044 162.76 182.364 162.836 182.709 162.726C183.4 162.516 184.031 161.463 184.124 160.301C184.175 159.712 184.082 159.148 183.897 158.676C183.728 158.196 183.434 157.851 183.097 157.767C182.76 157.666 182.507 157.859 182.415 158.036C182.322 158.213 182.356 158.339 182.322 158.348C182.305 158.365 182.187 158.23 182.255 157.969C182.288 157.843 182.373 157.691 182.533 157.581C182.693 157.464 182.928 157.413 183.164 157.447C183.661 157.506 184.082 157.986 184.284 158.508C184.511 159.03 184.629 159.67 184.579 160.326C184.469 161.623 183.737 162.802 182.794 163.021C182.331 163.113 181.96 162.962 181.775 162.794C181.581 162.625 181.556 162.482 181.581 162.465L181.573 162.482Z" fill="#EB996E"/>
<path d="M160.362 138.881C160.783 137.121 162.728 136.405 164.395 136.06C167.932 135.319 171.62 134.932 175.131 135.799C178.642 136.675 181.985 138.973 183.526 142.451C185.286 146.442 184.452 151.124 183.585 155.435L181.269 155.392C180.394 159.022 175.872 158.55 175.072 154.037C174.786 152.412 174.138 150.627 172.824 149.701C172.049 149.153 171.073 149.128 170.146 149.01C166.105 148.488 162.408 145.566 160.758 141.592C160.404 140.742 160.135 139.782 160.354 138.881H160.362Z" fill="#263238"/>
<path d="M186.043 143.293C185.648 142.729 186.296 142.013 186.885 141.659C188.544 140.666 190.439 139.925 192.375 140.009C194.312 140.093 196.282 141.137 197.074 142.905C197.419 143.68 197.528 144.531 197.579 145.381C197.646 146.45 197.613 147.579 197.065 148.496C196.392 149.633 195.053 150.223 193.748 150.433C192.83 150.576 191.887 150.568 190.986 150.324C188.291 149.583 186.641 146.939 185.26 144.505" fill="#263238"/>
<path d="M168.58 149.372C168.555 149.659 167.721 149.945 166.231 149.903C165.49 149.861 164.538 149.701 163.578 149.145C163.107 148.867 162.669 148.513 162.282 148.118C161.886 147.713 161.549 147.343 161.17 146.779C160.505 145.709 160.235 144.657 160.033 143.714C159.848 142.771 159.789 141.912 159.798 141.205C159.806 139.773 160.076 138.898 160.37 138.889C160.682 138.881 160.96 139.706 161.339 140.994C161.524 141.643 161.734 142.4 161.995 143.217C162.265 144.017 162.585 144.901 163.031 145.617C163.225 145.928 163.553 146.333 163.839 146.644C164.126 146.964 164.412 147.242 164.698 147.461C165.262 147.899 165.919 148.177 166.525 148.387C167.746 148.791 168.622 149.069 168.588 149.381L168.58 149.372Z" fill="#263238"/>
<path d="M188.055 149.574C187.996 149.549 188.139 149.111 188.19 148.353C188.24 147.612 188.249 146.559 188.089 145.431C187.912 144.328 187.44 143.368 187.146 142.678C186.834 141.987 186.641 141.55 186.7 141.516C186.75 141.491 187.036 141.869 187.424 142.535C187.794 143.2 188.333 144.151 188.527 145.355C188.695 146.543 188.636 147.612 188.501 148.378C188.375 149.153 188.114 149.582 188.064 149.557L188.055 149.574Z" fill="#794AFF"/>
<path d="M197.097 144.876C197.038 144.927 196.71 144.514 195.952 144.228C195.203 143.925 194.074 143.841 192.82 143.958C190.302 144.152 188.366 144.91 188.324 144.784C188.265 144.691 190.184 143.723 192.786 143.521C194.066 143.394 195.295 143.537 196.078 143.942C196.878 144.329 197.139 144.851 197.097 144.868V144.876Z" fill="#FEC430"/>
<path d="M187.954 146.72C187.954 146.72 187.836 146.753 187.617 146.787C187.398 146.812 187.069 146.837 186.64 146.854C185.806 146.854 184.493 146.871 183.104 146.122C182.413 145.743 181.79 145.145 181.201 144.471C180.603 143.806 179.997 143.074 179.357 142.299C178.068 140.767 176.679 139.057 174.911 137.609C173.159 136.152 171.164 135.142 169.219 134.864C167.274 134.586 165.48 135.024 164.142 135.647C162.786 136.27 161.86 137.095 161.279 137.693C160.706 138.308 160.454 138.704 160.42 138.678C160.411 138.678 160.462 138.569 160.58 138.375C160.689 138.182 160.891 137.912 161.152 137.575C161.708 136.935 162.617 136.043 164.007 135.361C165.371 134.679 167.232 134.182 169.278 134.452C171.315 134.721 173.395 135.773 175.197 137.264C177.007 138.754 178.405 140.489 179.677 142.038C180.965 143.562 182.009 145.086 183.272 145.844C184.552 146.585 185.832 146.627 186.657 146.678C187.499 146.703 187.97 146.678 187.97 146.72H187.954Z" fill="#FEC430"/>
<path d="M155.243 250.48C155.243 250.48 158.493 273.08 159.158 283.664C160.017 297.33 164.909 318.944 164.909 318.944L177.859 318.978L178.103 267.775L189.639 317.622L204.475 316.283L198.985 261.064L197.225 247.121L155.243 250.489V250.48Z" fill="#263238"/>
<path d="M180.099 332.071L179.206 308.554L162.585 309.042C162.585 309.042 164.757 324.703 164.395 325.958C162.88 331.229 155.234 331.498 155.234 331.498C151.058 331.541 151.689 335.237 151.689 335.237L180.326 335.035L180.099 332.063V332.071Z" fill="#794AFF"/>
<path d="M173.953 323.811C173.894 323.811 173.843 322.573 173.843 321.049C173.843 319.525 173.902 318.287 173.961 318.287C174.02 318.287 174.071 319.525 174.071 321.049C174.071 322.573 174.012 323.811 173.953 323.811Z" fill="#FAFAFA"/>
<path d="M176.233 321.133C176.233 321.192 175.181 321.209 173.884 321.158C172.588 321.107 171.543 321.023 171.543 320.964C171.543 320.905 172.596 320.889 173.893 320.939C175.189 320.99 176.233 321.074 176.233 321.133Z" fill="#FAFAFA"/>
<path d="M175.712 319.618C175.754 319.668 174.929 320.409 173.876 321.277C172.824 322.144 171.931 322.809 171.898 322.759C171.855 322.708 172.681 321.967 173.733 321.1C174.786 320.233 175.678 319.567 175.712 319.618Z" fill="#FAFAFA"/>
<path d="M175.603 323.162C175.603 323.162 175.359 322.969 175.022 322.59C174.685 322.211 174.247 321.672 173.784 321.057C173.329 320.442 172.942 319.853 172.681 319.424C172.42 318.994 172.277 318.716 172.302 318.7C172.327 318.683 172.521 318.927 172.807 319.339C173.102 319.744 173.506 320.308 173.953 320.922C174.407 321.537 174.828 322.084 175.131 322.489C175.434 322.893 175.62 323.145 175.594 323.162H175.603Z" fill="#FAFAFA"/>
<path d="M168.438 316.991C168.379 316.991 168.329 315.754 168.329 314.23C168.329 312.706 168.388 311.468 168.446 311.468C168.505 311.468 168.556 312.706 168.556 314.23C168.556 315.754 168.497 316.991 168.438 316.991Z" fill="#FAFAFA"/>
<path d="M170.72 314.313C170.72 314.372 169.667 314.389 168.371 314.338C167.074 314.288 166.03 314.203 166.03 314.145C166.03 314.086 167.082 314.069 168.379 314.119C169.676 314.17 170.72 314.254 170.72 314.313Z" fill="#FAFAFA"/>
<path d="M170.199 312.797C170.241 312.848 169.416 313.589 168.363 314.456C167.311 315.323 166.418 315.988 166.384 315.938C166.342 315.887 167.167 315.146 168.22 314.279C169.272 313.412 170.165 312.747 170.199 312.797Z" fill="#FAFAFA"/>
<path d="M170.087 316.334C170.087 316.334 169.843 316.14 169.506 315.761C169.169 315.382 168.731 314.843 168.268 314.229C167.813 313.614 167.426 313.024 167.165 312.595C166.904 312.166 166.761 311.888 166.786 311.871C166.811 311.854 167.005 312.098 167.291 312.511C167.578 312.923 167.99 313.479 168.436 314.094C168.891 314.709 169.312 315.256 169.615 315.66C169.918 316.064 170.104 316.317 170.078 316.334H170.087Z" fill="#FAFAFA"/>
<path d="M169.212 333.629C169.153 333.629 169.102 332.391 169.102 330.867C169.102 329.343 169.161 328.105 169.22 328.105C169.279 328.105 169.329 329.343 169.329 330.867C169.329 332.391 169.27 333.629 169.212 333.629Z" fill="#FAFAFA"/>
<path d="M171.484 330.951C171.484 331.01 170.432 331.027 169.135 330.976C167.839 330.926 166.794 330.842 166.794 330.783C166.794 330.724 167.847 330.707 169.144 330.757C170.44 330.808 171.484 330.892 171.484 330.951Z" fill="#FAFAFA"/>
<path d="M170.972 329.435C171.014 329.486 170.189 330.227 169.137 331.094C168.084 331.961 167.191 332.627 167.158 332.576C167.116 332.525 167.941 331.785 168.993 330.917C170.046 330.05 170.938 329.385 170.972 329.435Z" fill="#FAFAFA"/>
<path d="M170.863 332.972C170.863 332.972 170.619 332.779 170.282 332.4C169.945 332.021 169.507 331.49 169.044 330.867C168.59 330.253 168.202 329.663 167.941 329.234C167.68 328.804 167.537 328.526 167.562 328.51C167.588 328.493 167.781 328.737 168.068 329.15C168.362 329.554 168.767 330.118 169.213 330.733C169.667 331.347 170.088 331.894 170.392 332.299C170.695 332.703 170.88 332.955 170.855 332.972H170.863Z" fill="#FAFAFA"/>
<path d="M205.705 331.861L204.812 308.343L186.776 308.874C186.776 308.874 190.363 324.493 190.001 325.748C188.486 331.019 180.84 331.288 180.84 331.288C176.664 331.33 177.295 335.027 177.295 335.027L205.932 334.824L205.705 331.852V331.861Z" fill="#794AFF"/>
<path d="M192.646 316.915C192.587 316.915 192.536 315.677 192.536 314.153C192.536 312.629 192.595 311.391 192.654 311.391C192.713 311.391 192.763 312.629 192.763 314.153C192.763 315.677 192.705 316.915 192.646 316.915Z" fill="#FAFAFA"/>
<path d="M194.917 314.237C194.917 314.296 193.865 314.313 192.568 314.262C191.271 314.212 190.227 314.128 190.227 314.069C190.227 314.01 191.28 313.993 192.576 314.044C193.873 314.094 194.917 314.178 194.917 314.237Z" fill="#FAFAFA"/>
<path d="M194.405 312.721C194.447 312.772 193.622 313.513 192.569 314.38C191.517 315.247 190.624 315.913 190.59 315.862C190.548 315.812 191.373 315.071 192.426 314.203C193.478 313.336 194.371 312.671 194.405 312.721Z" fill="#FAFAFA"/>
<path d="M194.296 316.258C194.296 316.258 194.052 316.064 193.715 315.685C193.378 315.306 192.94 314.768 192.477 314.153C192.022 313.538 191.635 312.949 191.374 312.519C191.113 312.09 190.97 311.812 190.995 311.795C191.02 311.778 191.214 312.023 191.5 312.435C191.795 312.839 192.199 313.403 192.645 314.018C193.1 314.633 193.521 315.18 193.824 315.584C194.127 315.988 194.313 316.241 194.287 316.258H194.296Z" fill="#FAFAFA"/>
<path d="M200.796 324.468C200.738 324.468 200.687 323.23 200.687 321.706C200.687 320.182 200.746 318.944 200.805 318.944C200.864 318.944 200.914 320.182 200.914 321.706C200.914 323.23 200.855 324.468 200.796 324.468Z" fill="#FAFAFA"/>
<path d="M203.077 321.79C203.077 321.849 202.024 321.866 200.728 321.815C199.431 321.765 198.387 321.681 198.387 321.622C198.387 321.563 199.439 321.546 200.736 321.596C202.033 321.647 203.077 321.731 203.077 321.79Z" fill="#FAFAFA"/>
<path d="M202.555 320.274C202.597 320.325 201.772 321.066 200.72 321.933C199.667 322.8 198.774 323.465 198.741 323.415C198.699 323.364 199.524 322.623 200.576 321.756C201.629 320.889 202.521 320.224 202.555 320.274Z" fill="#FAFAFA"/>
<path d="M202.446 323.82C202.446 323.82 202.202 323.626 201.865 323.247C201.528 322.868 201.09 322.33 200.627 321.715C200.173 321.1 199.785 320.511 199.524 320.081C199.263 319.652 199.12 319.374 199.145 319.357C199.171 319.34 199.364 319.585 199.651 319.997C199.945 320.401 200.35 320.965 200.796 321.58C201.25 322.195 201.671 322.742 201.975 323.146C202.278 323.55 202.463 323.803 202.438 323.82H202.446Z" fill="#FAFAFA"/>
<path d="M194.866 333.822C194.807 333.822 194.757 332.585 194.757 331.061C194.757 329.537 194.816 328.299 194.875 328.299C194.934 328.299 194.984 329.537 194.984 331.061C194.984 332.585 194.925 333.822 194.866 333.822Z" fill="#FAFAFA"/>
<path d="M197.151 331.144C197.151 331.203 196.098 331.22 194.802 331.17C193.505 331.119 192.461 331.035 192.461 330.976C192.461 330.917 193.513 330.9 194.81 330.951C196.107 331.001 197.151 331.086 197.151 331.144Z" fill="#FAFAFA"/>
<path d="M196.628 329.629C196.67 329.68 195.845 330.421 194.793 331.288C193.74 332.155 192.848 332.82 192.814 332.77C192.772 332.719 193.597 331.978 194.65 331.111C195.702 330.244 196.595 329.579 196.628 329.629Z" fill="#FAFAFA"/>
<path d="M196.518 333.174C196.518 333.174 196.274 332.98 195.937 332.601C195.6 332.222 195.162 331.684 194.699 331.069C194.244 330.454 193.857 329.865 193.596 329.435C193.335 329.006 193.192 328.728 193.217 328.711C193.242 328.694 193.436 328.939 193.722 329.351C194.017 329.755 194.421 330.32 194.868 330.934C195.322 331.549 195.743 332.096 196.046 332.5C196.35 332.904 196.535 333.157 196.509 333.174H196.518Z" fill="#FAFAFA"/>
<path d="M180.697 331.297C180.697 331.347 180.394 331.415 179.923 331.566C179.451 331.709 178.811 331.996 178.306 332.543C177.801 333.082 177.565 333.747 177.456 334.227C177.346 334.715 177.346 335.027 177.296 335.027C177.254 335.027 177.169 334.707 177.228 334.185C177.279 333.671 177.498 332.922 178.062 332.316C178.618 331.701 179.35 331.431 179.855 331.339C180.369 331.238 180.689 331.255 180.697 331.288V331.297Z" fill="#263238"/>
<path d="M144.321 186.959C143.159 185.705 141.315 185.141 139.648 185.511C137.981 185.882 136.558 187.195 136.044 188.82C135.228 185.915 131.54 184.231 128.812 185.503C126.993 183.305 124.122 182.354 121.402 181.495C120.189 181.116 118.91 180.729 117.663 180.998C115.92 181.377 114.716 182.935 113.672 184.391C111.904 186.85 110.068 189.469 109.824 192.491C109.58 195.514 111.643 198.933 114.666 198.992C114.649 200.836 115.718 202.646 117.335 203.539C118.952 204.431 121.048 204.355 122.606 203.362C124.45 206.536 129.14 207.605 132.18 205.534C133.459 208.296 137.484 209.315 139.918 207.479C142.511 209.938 151.31 209.424 153.457 206.57L158.526 183.516C155.352 181.924 145.803 183.735 144.313 186.951L144.321 186.959Z" fill="#FEC430"/>
<path d="M141.45 205.315C141.45 205.315 141.366 205.054 141.282 204.574C141.198 204.094 141.122 203.386 141.063 202.519C140.945 200.776 140.987 198.351 141.417 195.716C141.863 193.08 142.612 190.765 143.286 189.156C143.623 188.348 143.926 187.708 144.162 187.287C144.389 186.858 144.532 186.63 144.557 186.639C144.625 186.673 144.17 187.649 143.572 189.266C142.974 190.891 142.284 193.181 141.846 195.783C141.417 198.385 141.324 200.776 141.366 202.502C141.4 204.228 141.518 205.298 141.442 205.315H141.45Z" fill="#263238"/>
<path d="M133.376 201.341C133.317 201.341 133.249 200.6 133.342 199.404C133.426 198.209 133.687 196.584 134.075 194.807C134.47 193.03 134.933 191.447 135.338 190.327C135.742 189.199 136.087 188.542 136.138 188.568C136.196 188.593 135.952 189.283 135.632 190.42C135.304 191.557 134.9 193.14 134.504 194.9C134.117 196.659 133.814 198.268 133.654 199.438C133.477 200.608 133.443 201.332 133.376 201.341Z" fill="#263238"/>
<path d="M123.086 199.236C123.027 199.236 123.103 198.385 123.397 197.055C123.692 195.725 124.214 193.914 124.947 191.969C125.688 190.033 126.504 188.323 127.262 187.178C127.995 186.016 128.668 185.461 128.702 185.503C128.753 185.553 128.18 186.159 127.532 187.338C126.858 188.5 126.1 190.201 125.368 192.129C124.644 194.058 124.079 195.834 123.709 197.131C123.33 198.428 123.162 199.244 123.094 199.236H123.086Z" fill="#263238"/>
<path d="M186.261 176.342C186.261 176.342 186.21 171.753 183.887 171.121C181.563 170.49 177.723 171.559 175.466 172.401C171.543 173.875 164.975 174.86 161.043 176.333C159.359 176.965 158.702 177.369 158.02 178.826C157.54 179.836 158.534 182.918 158.534 182.918C156.917 182.539 153.541 185.149 152.067 187.305C150.501 189.595 149.844 192.374 151.974 194.167C149.086 197.089 148.59 202.596 150.046 206.435C150.535 207.707 151.166 207.563 151.267 208.928C151.393 210.603 150.375 211.824 150.055 213.474C149.575 215.975 150.678 220.413 152.48 222.206C148.573 225.886 148.202 232.689 151.68 236.781C150.341 239.172 148.968 241.631 148.59 244.342C148.211 247.054 149.027 250.119 151.292 251.651C153.179 252.931 155.62 252.922 157.902 252.872C169.774 252.594 181.647 252.316 193.528 252.047C195.077 252.013 196.719 251.946 197.99 251.07C199.868 249.773 200.28 247.214 200.533 244.949C200.929 241.362 201.03 237.059 198.125 234.912C200.752 230.769 200.415 224.959 197.342 221.145C199.245 219.68 199.464 216.884 199.093 214.518C198.723 212.144 197.931 209.744 198.42 207.395C198.731 205.879 199.565 204.499 199.834 202.975C200.188 200.954 199.514 198.916 199.337 196.878C199.093 194.091 199.767 191.279 199.506 188.492C199.245 185.705 196.281 179.432 193.502 179.045C193.502 179.045 189.216 174.734 186.278 176.367L186.261 176.342Z" fill="#FEC430"/>
<path d="M198.377 235.308C198.377 235.308 197.948 235.83 196.954 236.504C196.458 236.841 195.801 237.177 195.009 237.497C194.209 237.809 193.266 238.061 192.214 238.255C190.1 238.642 187.532 238.676 184.712 238.676C181.891 238.676 178.784 238.676 175.525 238.651C169 238.584 163.097 238.306 158.837 237.927C156.706 237.742 154.989 237.548 153.801 237.396C153.229 237.321 152.783 237.253 152.437 237.203C152.126 237.152 151.966 237.127 151.966 237.118C151.966 237.11 152.134 237.118 152.446 237.144C152.791 237.177 153.246 237.219 153.818 237.278C155.005 237.388 156.723 237.548 158.853 237.708C163.114 238.028 169.008 238.272 175.525 238.339C178.784 238.356 181.882 238.373 184.712 238.39C187.532 238.415 190.075 238.398 192.18 238.045C193.224 237.876 194.159 237.632 194.95 237.346C195.733 237.043 196.39 236.731 196.895 236.411C197.906 235.78 198.36 235.291 198.386 235.325L198.377 235.308Z" fill="#263238"/>
<path d="M197.232 221.229C197.232 221.229 197.08 221.288 196.794 221.372C196.474 221.456 196.053 221.574 195.523 221.717C194.967 221.869 194.285 222.046 193.493 222.223C192.702 222.399 191.792 222.627 190.782 222.804C189.772 223.006 188.669 223.216 187.473 223.393C186.286 223.603 185.006 223.755 183.659 223.932C180.964 224.235 177.983 224.471 174.851 224.546C171.719 224.605 168.73 224.513 166.019 224.328C164.663 224.21 163.375 224.117 162.179 223.965C160.975 223.839 159.863 223.679 158.853 223.519C157.834 223.385 156.925 223.199 156.125 223.056C155.325 222.921 154.635 222.77 154.07 222.644C153.532 222.526 153.102 222.425 152.782 222.349C152.487 222.281 152.336 222.239 152.336 222.223C152.336 222.214 152.496 222.231 152.791 222.281C153.119 222.34 153.548 222.416 154.087 222.517C154.651 222.627 155.342 222.753 156.142 222.871C156.95 222.997 157.86 223.166 158.878 223.283C159.897 223.427 161.009 223.57 162.204 223.688C163.4 223.831 164.688 223.915 166.035 224.024C168.738 224.193 171.719 224.285 174.843 224.218C177.967 224.142 180.939 223.915 183.625 223.629C184.972 223.46 186.244 223.317 187.439 223.123C188.635 222.955 189.738 222.753 190.74 222.568C191.75 222.399 192.651 222.189 193.451 222.029C194.251 221.869 194.933 221.717 195.489 221.583C196.028 221.465 196.457 221.364 196.777 221.288C197.072 221.221 197.232 221.195 197.232 221.204V221.229Z" fill="#263238"/>
<path d="M186.261 176.342C186.261 176.342 186.177 176.401 186 176.477C185.79 176.561 185.537 176.67 185.226 176.797C184.552 177.066 183.575 177.445 182.355 177.891C179.913 178.775 176.503 179.912 172.671 180.931C168.832 181.941 165.295 182.606 162.694 182.809C162.045 182.859 161.456 182.91 160.942 182.91C160.429 182.91 159.982 182.935 159.62 182.91C159.292 182.884 159.014 182.867 158.787 182.851C158.593 182.834 158.5 182.817 158.5 182.809C158.5 182.8 158.602 182.792 158.795 182.783C159.023 182.783 159.3 182.783 159.629 182.783C159.991 182.8 160.429 182.758 160.942 182.733C161.456 182.724 162.037 182.657 162.685 182.59C165.262 182.337 168.781 181.63 172.604 180.628C176.427 179.609 179.837 178.514 182.287 177.681C183.474 177.277 184.46 176.94 185.192 176.687C185.504 176.578 185.765 176.493 185.984 176.418C186.169 176.359 186.261 176.333 186.27 176.342H186.261Z" fill="#263238"/>
<path d="M151.789 188.223C151.831 188.24 151.536 188.77 151.351 189.814C151.183 190.833 151.174 192.458 152.109 194.083L152.16 194.176L152.092 194.269C151.2 195.515 150.375 197.148 150.021 199.085C149.634 201.005 149.709 203.211 150.375 205.341C150.745 206.503 151.275 207.572 151.941 208.515L152.025 208.633L151.949 208.76C150.88 210.469 150.324 212.33 150.164 214.031C149.987 215.731 150.172 217.264 150.492 218.493C151.132 220.969 152.143 222.206 152.059 222.249C152.05 222.249 151.983 222.181 151.873 222.03C151.772 221.878 151.595 221.659 151.419 221.356C151.048 220.75 150.585 219.815 150.223 218.561C149.869 217.314 149.642 215.748 149.794 213.988C149.928 212.237 150.484 210.309 151.587 208.524V208.76C150.905 207.791 150.341 206.671 149.962 205.467C149.263 203.261 149.204 200.979 149.625 199.001C150.004 197.005 150.888 195.321 151.831 194.058V194.243C150.871 192.509 150.939 190.816 151.166 189.772C151.284 189.242 151.444 188.846 151.562 188.594C151.688 188.341 151.772 188.215 151.781 188.223H151.789Z" fill="#263238"/>
<path d="M174.271 252.821C174.271 252.821 174.186 252.771 174.043 252.645C173.908 252.518 173.69 252.333 173.429 252.072C172.923 251.533 172.208 250.7 171.542 249.462C170.894 248.232 170.246 246.599 170.044 244.62C169.816 242.658 170.018 240.326 171.037 238.044L171.054 238.213C169.858 236.428 169.117 234.095 169.134 231.586C169.151 229.094 169.926 226.391 171.677 224.21L171.694 224.496C169.042 221.995 167.476 217.929 168.09 213.887C168.217 212.994 168.461 212.119 168.781 211.302C169.084 210.494 169.395 209.685 169.395 208.885C169.404 208.077 168.966 207.378 168.444 206.738C167.913 206.107 167.358 205.433 166.996 204.667C166.238 203.16 165.994 201.45 166.246 199.876C166.516 198.293 167.215 196.912 167.307 195.497C167.425 194.083 166.743 192.795 166.373 191.473C166.002 190.142 165.952 188.795 166.137 187.557C166.507 185.073 167.745 183.053 169.168 181.773L169.143 181.924C168.082 179.6 168.057 177.512 168.2 176.173C168.36 174.818 168.663 174.136 168.663 174.136C168.671 174.136 168.638 174.321 168.562 174.658C168.494 175.003 168.393 175.508 168.343 176.182C168.242 177.512 168.309 179.558 169.378 181.815L169.421 181.899L169.353 181.966C167.989 183.229 166.81 185.2 166.482 187.608C166.322 188.804 166.381 190.1 166.743 191.38C167.097 192.643 167.829 193.965 167.72 195.523C167.619 197.047 166.92 198.445 166.676 199.943C166.44 201.434 166.676 203.059 167.4 204.482C167.753 205.206 168.259 205.821 168.806 206.469C169.336 207.109 169.875 207.934 169.858 208.877C169.858 209.803 169.522 210.645 169.218 211.454C168.907 212.262 168.68 213.087 168.553 213.946C167.964 217.836 169.471 221.777 172.014 224.185L172.157 224.319L172.031 224.471C170.347 226.568 169.581 229.169 169.555 231.586C169.522 234.019 170.229 236.276 171.374 238.019L171.425 238.103L171.382 238.187C170.38 240.393 170.145 242.667 170.347 244.587C170.524 246.532 171.13 248.14 171.745 249.361C173.041 251.819 174.372 252.762 174.296 252.821H174.271Z" fill="#263238"/>
<path d="M185.974 206.099C185.974 206.099 185.536 206.208 184.728 206.334C183.928 206.461 182.757 206.612 181.317 206.789C178.429 207.143 174.43 207.539 170.009 207.842C165.58 208.136 161.564 208.28 158.659 208.322C157.202 208.338 156.032 208.347 155.215 208.322C154.398 208.305 153.952 208.288 153.952 208.254C153.952 208.221 154.398 208.187 155.215 208.153C156.108 208.111 157.261 208.069 158.651 208.002C161.555 207.884 165.563 207.69 169.984 207.395C174.405 207.092 178.404 206.747 181.292 206.469C182.673 206.343 183.827 206.233 184.719 206.149C185.527 206.082 185.982 206.057 185.982 206.082L185.974 206.099Z" fill="#263238"/>
<path d="M188.349 190.32C188.349 190.32 187.895 190.463 187.07 190.631C186.236 190.808 185.032 191.035 183.533 191.288C180.544 191.802 176.393 192.416 171.787 192.921C167.181 193.418 162.988 193.704 159.957 193.839C158.441 193.907 157.212 193.94 156.362 193.949C155.511 193.957 155.04 193.949 155.04 193.915C155.04 193.881 155.503 193.839 156.353 193.772C157.279 193.704 158.483 193.62 159.94 193.519C162.963 193.309 167.139 192.972 171.737 192.475C176.334 191.978 180.485 191.414 183.483 190.976C184.922 190.766 186.118 190.589 187.036 190.454C187.878 190.336 188.341 190.277 188.349 190.311V190.32Z" fill="#263238"/>
<path d="M185.975 176.123C189.402 174.405 199.699 176.359 201.316 179.836C202.571 178.489 204.558 177.866 206.36 178.278C208.153 178.683 209.694 180.097 210.25 181.849C211.134 178.716 215.108 176.898 218.055 178.27C220.017 175.904 223.116 174.868 226.046 173.951C227.359 173.538 228.74 173.125 230.079 173.42C231.965 173.833 233.262 175.517 234.39 177.083C236.301 179.735 238.28 182.564 238.541 185.823C238.802 189.081 236.579 192.769 233.312 192.837C233.329 194.824 232.176 196.786 230.433 197.746C228.69 198.706 226.425 198.63 224.749 197.552C222.762 200.979 217.693 202.124 214.418 199.901C213.037 202.882 208.692 203.977 206.065 202.006C203.269 204.659 198.175 204.229 195.86 201.147" fill="#FEC430"/>
<path d="M199.083 204.701C199.083 204.701 198.789 204.734 198.258 204.642C197.728 204.558 196.97 204.339 196.119 203.892C194.41 203.025 192.406 201.038 191.354 198.276C190.31 195.523 190.234 192.828 190.259 190.942C190.276 189.991 190.326 189.225 190.377 188.702C190.427 188.172 190.47 187.886 190.503 187.886C190.571 187.886 190.537 189.056 190.571 190.942C190.621 192.811 190.747 195.447 191.758 198.116C192.777 200.777 194.654 202.714 196.271 203.623C197.888 204.558 199.109 204.6 199.083 204.701Z" fill="#263238"/>
<path d="M204.028 195.986C203.977 196.003 203.556 195.152 203.068 193.687C202.579 192.231 202.057 190.151 201.796 187.81C201.544 185.469 201.603 183.322 201.771 181.79C201.931 180.257 202.158 179.331 202.209 179.339C202.276 179.348 202.158 180.291 202.074 181.815C201.99 183.339 201.981 185.452 202.226 187.759C202.478 190.067 202.95 192.13 203.354 193.595C203.767 195.068 204.078 195.961 204.019 195.986H204.028Z" fill="#263238"/>
<path d="M213.602 192.812C213.56 192.837 213.114 192.273 212.566 191.254C212.019 190.235 211.404 188.745 211.026 187.019C210.655 185.284 210.596 183.676 210.672 182.522C210.748 181.369 210.916 180.67 210.967 180.678C211.11 180.678 210.697 183.533 211.455 186.918C212.171 190.319 213.728 192.736 213.602 192.803V192.812Z" fill="#263238"/>
<path d="M224.404 196.298C224.336 196.298 224.269 195.229 223.856 193.544C223.469 191.852 222.77 189.562 221.878 187.061C220.968 184.569 220.051 182.354 219.301 180.788C218.569 179.214 217.996 178.304 218.047 178.27C218.072 178.254 218.24 178.464 218.526 178.868C218.796 179.272 219.166 179.879 219.579 180.653C220.404 182.194 221.381 184.409 222.29 186.918C223.183 189.427 223.848 191.759 224.16 193.486C224.32 194.344 224.404 195.052 224.429 195.54C224.437 196.028 224.429 196.306 224.404 196.306V196.298Z" fill="#263238"/>
<path d="M194.656 176.157C194.732 176.275 192.905 177.319 191.389 179.348C189.848 181.361 189.343 183.407 189.209 183.365C189.099 183.365 189.427 181.184 191.036 179.087C192.619 176.965 194.631 176.056 194.656 176.157Z" fill="#263238"/>
<path d="M261.403 18.2213C258.228 21.4378 256.384 25.9341 256.401 30.4557C256.401 32.4849 256.755 34.6152 255.955 36.4845C255.096 38.4884 253.025 39.8946 252.604 42.0333C252.292 43.6415 253 45.2498 253.555 46.7991C254.111 48.3399 254.49 50.1587 253.606 51.548C253.092 52.3563 252.225 52.8699 251.585 53.5856C249.859 55.497 250.019 58.4019 250.288 60.9616C258.346 60.6164 266.396 60.2796 274.454 59.9344L261.403 18.2129V18.2213Z" fill="#263238"/>
<path d="M300.473 31.5163C298.89 24.7803 297.265 17.7663 291.682 13.6742C286.706 10.0283 281.149 9.15259 275.002 9.60728C271.971 9.83462 268.595 11.3418 266.001 12.9248C262.448 15.0888 261.05 19.2988 259.425 23.1299C256.175 30.809 256.95 41.0394 259.408 43.8096L291.565 59.471C297.063 56.3808 300.768 54.8989 302.048 48.7186C302.923 44.5085 301.458 35.6927 300.473 31.5163Z" fill="#263238"/>
<path d="M290.275 24.4944L271.12 14.7187C264.678 13.9946 260.342 21.901 259.887 28.3592C259.382 35.5416 259.054 44.3321 259.871 49.6957C261.504 60.4397 269.688 60.9028 269.764 60.9197L269.831 65.2813L269.773 72.4889C272.425 81.2373 281.283 80.1764 292.355 75.638L290.275 24.4944Z" fill="#FFBE9D"/>
<path d="M263.104 37.6634C263.07 38.3959 263.668 39.019 264.426 39.0695C265.184 39.1116 265.832 38.5643 265.857 37.8318C265.891 37.0992 265.293 36.4761 264.535 36.4256C263.778 36.3835 263.129 36.9308 263.104 37.6634Z" fill="#263238"/>
<path d="M261.766 34.06C261.934 34.2452 262.987 33.4706 264.477 33.4874C265.959 33.4874 267.053 34.2536 267.213 34.0684C267.289 33.9842 267.121 33.6642 266.649 33.3106C266.186 32.9653 265.386 32.6201 264.46 32.6201C263.534 32.6201 262.751 32.9569 262.305 33.3021C261.841 33.6474 261.69 33.9758 261.774 34.06H261.766Z" fill="#263238"/>
<path d="M276.635 37.6634C276.601 38.3959 277.199 39.019 277.957 39.0695C278.714 39.1116 279.363 38.5643 279.388 37.8318C279.422 37.0992 278.824 36.4761 278.066 36.4256C277.308 36.3835 276.66 36.9308 276.635 37.6634Z" fill="#263238"/>
<path d="M275.423 33.765C275.592 33.9503 276.644 33.1756 278.135 33.1925C279.616 33.1925 280.711 33.9587 280.871 33.7735C280.947 33.6892 280.778 33.3693 280.307 33.0156C279.844 32.6704 279.044 32.3252 278.118 32.3252C277.191 32.3252 276.408 32.662 275.962 33.0072C275.507 33.3524 275.347 33.6808 275.432 33.765H275.423Z" fill="#263238"/>
<path d="M270.91 44.324C270.91 44.2398 269.992 44.0714 268.493 43.8693C268.115 43.8272 267.752 43.7514 267.694 43.4904C267.609 43.2125 267.769 42.8084 267.955 42.3621C268.317 41.4443 268.695 40.4844 269.1 39.474C270.691 35.365 271.836 31.9886 271.676 31.9212C271.508 31.8623 270.085 35.1377 268.502 39.2467C268.123 40.2571 267.752 41.2254 267.407 42.1516C267.264 42.581 267.011 43.0694 267.197 43.6419C267.298 43.9282 267.576 44.1303 267.82 44.1977C268.064 44.2734 268.274 44.2819 268.468 44.2903C269.975 44.3829 270.91 44.3913 270.918 44.3071L270.91 44.324Z" fill="#263238"/>
<path d="M269.738 60.8779C269.738 60.8779 276.988 61.3915 284.204 57.1226C284.204 57.1226 280.583 64.6417 269.806 63.5555L269.747 60.8695L269.738 60.8779Z" fill="#EB996E"/>
<path d="M275.8 47.128C275.379 46.4291 274.613 46.0671 273.821 46.0334C272.684 45.9913 271.725 46.3702 270.984 47.4143C270.731 47.7174 270.748 48.5678 270.849 48.812C270.95 49.0478 270.874 48.9299 271.051 49.0983C271.716 49.6877 272.415 50.2855 273.265 50.496C274.116 50.7065 275.168 50.4371 275.732 49.6035C276.238 48.8626 276.221 47.8269 275.8 47.1364V47.128Z" fill="#EB996E"/>
<path d="M275.549 45.4348C275.305 45.418 275.288 47.0346 273.89 48.1629C272.492 49.2996 270.775 49.0891 270.758 49.3165C270.733 49.4175 271.137 49.6364 271.861 49.6617C272.577 49.6954 273.612 49.4765 274.471 48.786C275.322 48.0956 275.701 47.1609 275.759 46.4957C275.827 45.8221 275.658 45.418 275.541 45.4264L275.549 45.4348Z" fill="#263238"/>
<path d="M275.643 29.0836C275.761 29.4962 277.259 29.4036 278.985 29.7235C280.72 30.0098 282.092 30.6077 282.345 30.2624C282.463 30.094 282.236 29.6983 281.697 29.2773C281.158 28.8479 280.282 28.4184 279.246 28.2416C278.211 28.0564 277.242 28.1658 276.586 28.3848C275.929 28.6037 275.584 28.8984 275.634 29.092L275.643 29.0836Z" fill="#263238"/>
<path d="M261.758 30.7928C262.103 31.0706 263.172 30.5317 264.52 30.2707C265.867 29.9676 267.062 30.0518 267.265 29.6561C267.349 29.4624 267.113 29.1677 266.549 28.9404C266.001 28.713 265.126 28.6035 264.2 28.7972C263.273 28.9909 262.524 29.4371 262.111 29.8581C261.69 30.2876 261.598 30.658 261.749 30.7928H261.758Z" fill="#263238"/>
<path d="M271.357 13.5479C271.34 13.6242 271.331 13.709 271.314 13.7853L271.348 13.8022C271.348 13.7174 271.348 13.6327 271.348 13.5479H271.357Z" fill="#263238"/>
<path d="M271.314 13.7839L270.649 13.5313C268.586 12.5377 267.222 11.3842 264.14 14.2639C262.473 15.83 261.008 18.1371 259.972 20.4863C259.054 22.5829 258.052 24.8563 257.766 27.1213C257.387 30.0936 257.345 32.2492 257.766 35.3898C259.559 34.1268 260.435 31.9376 260.966 29.8073C261.496 27.6771 261.774 25.4542 262.793 23.5091C262.532 25.3194 262.271 27.1719 262.616 28.9737C262.709 29.4621 262.869 29.9757 263.247 30.3041C263.626 30.6325 264.292 30.6746 264.586 30.2704C263.862 28.2075 263.929 25.9257 264.418 23.787C264.906 21.6483 265.79 19.6359 266.691 17.6319C266.304 21.2862 266.548 25.0079 267.407 28.578C267.533 29.0916 267.685 29.6305 268.064 29.9926C268.636 30.5399 269.529 30.5315 270.304 30.3967C271.078 30.262 271.878 30.0263 272.644 30.2283C270.725 24.9995 270.261 19.2401 271.314 13.7671V13.7839Z" fill="#263238"/>
<path d="M300.463 66.485C299.865 65.6177 298.644 65.4999 297.592 65.4746C297.575 65.4746 297.567 65.4746 297.55 65.4746" fill="#263238"/>
<path d="M306.795 51.8846C307.266 49.9396 307.948 47.9019 307.384 45.9822C306.862 44.2139 305.33 42.8078 305.085 40.9722C304.867 39.3808 305.666 37.7726 305.389 36.198C305.06 34.3624 303.41 33.1247 302.197 31.7185C299.646 28.7799 299.015 19.1474 293.432 15.1731L292.927 16.1582C291.192 14.7858 289.037 13.8427 286.898 13.2365C281.737 11.7629 276.179 11.6956 270.993 13.0428L270.917 13.4806C270.428 17.8254 271.161 22.3133 273.022 26.2707C273.544 27.3738 274.167 28.4684 275.093 29.2683C276.019 30.0682 277.299 30.5397 278.486 30.2534C276.592 27.9211 275.455 24.9825 275.287 21.9765C276.659 24.9993 278.065 28.0726 280.305 30.5229C281.585 31.9122 283.185 33.0826 284.936 33.7562C285.071 34.6656 285.399 35.5834 285.778 36.4169C286.553 38.101 287.538 39.8102 287.462 41.6627C287.386 43.4056 286.384 44.9381 285.677 46.5295C283.976 50.3269 283.934 54.8317 285.551 58.6628C292.86 58.8144 300.168 58.4776 307.426 57.644C306.13 56.1115 306.332 53.8381 306.812 51.8931L306.795 51.8846Z" fill="#263238"/>
<path d="M273.671 299.931L280.753 328.315L247.131 337.266C246.441 333.847 263.475 322.202 263.475 322.202L258.271 303.249L273.671 299.923V299.931Z" fill="#794AFF"/>
<g opacity="0.6">
<path d="M272.045 318.161C272.744 318.178 273.401 318.818 273.426 319.55C273.46 320.283 272.845 320.965 272.146 320.965C271.448 320.965 270.639 320.215 270.69 319.483C270.74 318.759 271.498 317.992 272.18 318.169" fill="white"/>
</g>
<g opacity="0.6">
<path d="M280.762 328.315L279.911 325.486L247.991 335.127C247.991 335.127 246.677 336.205 247.132 337.266L280.753 328.315H280.762Z" fill="white"/>
</g>
<path d="M263.055 322.657C263.106 322.825 263.948 322.69 264.899 323.027C265.859 323.339 266.474 323.97 266.608 323.869C266.752 323.793 266.238 322.834 265.076 322.446C263.914 322.05 262.979 322.514 263.055 322.665V322.657Z" fill="#263238"/>
<path d="M259.081 325.436C259.081 325.613 259.872 325.714 260.622 326.295C261.388 326.85 261.733 327.6 261.902 327.549C262.062 327.532 261.91 326.497 260.967 325.798C260.024 325.091 259.047 325.276 259.081 325.436Z" fill="#263238"/>
<path d="M258.272 330.202C258.432 330.202 258.432 329.276 257.758 328.451C257.093 327.617 256.217 327.449 256.192 327.609C256.133 327.777 256.764 328.147 257.312 328.838C257.867 329.511 258.103 330.227 258.272 330.202Z" fill="#263238"/>
<path d="M262.069 317.875C262.179 318.009 262.869 317.572 263.812 317.395C264.755 317.193 265.563 317.327 265.606 317.159C265.664 317.007 264.797 316.561 263.686 316.788C262.574 317.007 261.951 317.765 262.061 317.875H262.069Z" fill="#263238"/>
<path d="M260.359 313.799C260.376 313.875 261.05 313.799 262.043 313.345C262.532 313.117 263.096 312.772 263.652 312.309C263.929 312.073 264.207 311.812 264.477 311.518C264.603 311.374 264.763 311.215 264.873 310.97C265.007 310.743 264.99 310.255 264.704 310.036C264.46 309.808 264.123 309.775 263.879 309.834C263.626 309.893 263.441 309.994 263.273 310.095C262.928 310.288 262.608 310.516 262.321 310.751C261.757 311.231 261.336 311.753 261.05 312.233C260.469 313.202 260.376 313.909 260.435 313.926C260.528 313.959 260.764 313.32 261.387 312.486C261.698 312.073 262.119 311.61 262.658 311.198C262.928 310.996 263.222 310.802 263.542 310.625C263.871 310.431 264.174 310.347 264.308 310.49C264.359 310.541 264.367 310.566 264.325 310.701C264.275 310.819 264.157 310.962 264.031 311.105C263.786 311.391 263.534 311.644 263.281 311.871C262.776 312.334 262.271 312.688 261.824 312.957C260.932 313.496 260.317 313.715 260.343 313.808L260.359 313.799Z" fill="#263238"/>
<path d="M260.638 313.993C260.705 314.002 260.865 313.303 260.638 312.174C260.52 311.61 260.284 310.962 259.897 310.305C259.703 309.977 259.467 309.657 259.181 309.345C258.895 309.051 258.532 308.646 257.867 308.739C257.531 308.815 257.328 309.16 257.295 309.421C257.244 309.691 257.278 309.901 257.295 310.112C257.345 310.541 257.455 310.945 257.606 311.299C257.909 312.023 258.364 312.57 258.81 312.932C259.711 313.673 260.452 313.69 260.444 313.631C260.478 313.53 259.812 313.353 259.08 312.604C258.718 312.242 258.347 311.728 258.111 311.088C257.994 310.768 257.909 310.423 257.876 310.061C257.834 309.674 257.876 309.337 258.027 309.337C258.196 309.286 258.549 309.497 258.768 309.758C259.021 310.027 259.248 310.314 259.442 310.6C259.821 311.181 260.073 311.762 260.233 312.276C260.553 313.294 260.545 313.985 260.646 313.993H260.638Z" fill="#263238"/>
<path d="M301.893 306.128L301.354 335.38L266.562 335.279C266.781 331.801 286.257 324.989 286.257 324.989L286.156 305.337L301.893 306.137V306.128Z" fill="#794AFF"/>
<g opacity="0.6">
<path d="M295.58 323.314C296.254 323.508 296.717 324.299 296.557 325.015C296.397 325.731 295.631 326.228 294.957 326.042C294.283 325.857 293.702 324.922 293.938 324.232C294.174 323.542 295.109 323.003 295.723 323.356" fill="white"/>
</g>
<g opacity="0.6">
<path d="M301.356 335.379L301.272 332.424L267.945 333.434C267.945 333.434 266.396 334.133 266.565 335.278L301.356 335.379Z" fill="white"/>
</g>
<path d="M285.73 325.318C285.73 325.495 286.58 325.579 287.414 326.152C288.264 326.708 288.685 327.474 288.845 327.407C289.005 327.373 288.753 326.312 287.734 325.63C286.723 324.939 285.688 325.15 285.73 325.318Z" fill="#263238"/>
<path d="M281.164 326.96C281.122 327.128 281.863 327.439 282.436 328.189C283.034 328.921 283.168 329.738 283.345 329.73C283.505 329.755 283.623 328.719 282.899 327.793C282.175 326.867 281.181 326.783 281.173 326.951L281.164 326.96Z" fill="#263238"/>
<path d="M279.143 331.355C279.294 331.397 279.539 330.504 279.109 329.528C278.688 328.551 277.888 328.164 277.812 328.307C277.72 328.45 278.225 328.98 278.57 329.78C278.932 330.58 278.974 331.329 279.143 331.346V331.355Z" fill="#263238"/>
<path d="M286.023 320.434C286.09 320.594 286.873 320.35 287.833 320.425C288.793 320.476 289.542 320.813 289.626 320.661C289.728 320.535 288.995 319.87 287.867 319.802C286.738 319.727 285.938 320.291 286.023 320.434Z" fill="#263238"/>
<path d="M285.426 316.056C285.426 316.131 286.091 316.241 287.169 316.056C287.7 315.963 288.331 315.778 288.996 315.475C289.325 315.323 289.662 315.138 289.998 314.919C290.158 314.809 290.352 314.7 290.529 314.489C290.714 314.304 290.824 313.833 290.613 313.546C290.436 313.268 290.125 313.142 289.872 313.134C289.619 313.125 289.409 313.176 289.215 313.226C288.828 313.327 288.466 313.454 288.129 313.614C287.464 313.925 286.917 314.329 286.521 314.717C285.713 315.5 285.435 316.165 285.485 316.199C285.561 316.258 285.957 315.702 286.782 315.054C287.194 314.734 287.717 314.405 288.34 314.144C288.651 314.018 288.988 313.908 289.342 313.824C289.712 313.723 290.024 313.723 290.116 313.892C290.15 313.959 290.158 313.984 290.074 314.094C289.99 314.195 289.847 314.296 289.687 314.405C289.375 314.616 289.064 314.792 288.761 314.952C288.154 315.264 287.573 315.483 287.077 315.626C286.075 315.912 285.426 315.963 285.426 316.056Z" fill="#263238"/>
<path d="M285.644 316.317C285.703 316.342 286.048 315.711 286.115 314.557C286.149 313.985 286.09 313.294 285.888 312.562C285.787 312.191 285.635 311.821 285.45 311.45C285.248 311.088 285.004 310.608 284.339 310.524C283.994 310.507 283.707 310.794 283.606 311.029C283.488 311.274 283.463 311.484 283.421 311.695C283.354 312.124 283.362 312.537 283.421 312.924C283.53 313.698 283.825 314.347 284.153 314.81C284.827 315.753 285.534 315.972 285.551 315.913C285.61 315.82 285.021 315.475 284.499 314.566C284.246 314.12 284.019 313.53 283.951 312.848C283.918 312.511 283.926 312.149 283.985 311.796C284.044 311.408 284.179 311.097 284.322 311.139C284.499 311.139 284.785 311.425 284.928 311.737C285.105 312.065 285.248 312.402 285.358 312.73C285.576 313.387 285.661 314.018 285.686 314.549C285.728 315.618 285.543 316.283 285.635 316.309L285.644 316.317Z" fill="#263238"/>
<path d="M249.782 160.638C249.782 160.638 235.232 245.807 236.874 252.021C238.516 258.235 257.941 321.554 257.941 321.554L281.82 314.019L266.799 254.118C266.799 254.118 276.642 207.117 276.642 206.343C276.642 205.568 280.582 171.399 280.582 171.399L249.79 160.63L249.782 160.638Z" fill="#263238"/>
<path d="M314.035 180.535C312.721 164.916 308.452 154.054 308.452 154.054C307.139 154.71 271.707 173.226 271.707 173.226L278.561 254.034L282.535 322.893H303.207C303.207 322.893 306.448 264.138 307.391 251.718C307.391 251.718 315.348 196.146 314.035 180.526V180.535Z" fill="#263238"/>
<path d="M266.791 254.118C266.732 254.168 266.218 253.57 265.275 252.745C264.332 251.928 262.934 250.884 261.217 250.068C259.499 249.242 257.823 248.779 256.594 248.569C255.365 248.35 254.582 248.325 254.582 248.257C254.582 248.207 255.373 248.123 256.644 248.257C257.916 248.392 259.65 248.821 261.41 249.672C263.178 250.505 264.585 251.617 265.494 252.509C266.403 253.41 266.833 254.076 266.791 254.109V254.118Z" fill="#FEC430"/>
<path d="M301.507 261.435C301.507 261.435 301.288 261.561 300.876 261.713C300.463 261.873 299.84 262.05 299.065 262.235C297.524 262.605 295.318 262.917 292.885 262.833C290.451 262.748 288.279 262.285 286.763 261.805C286.006 261.57 285.399 261.342 284.995 261.157C284.591 260.98 284.372 260.862 284.381 260.837C284.406 260.77 285.324 261.115 286.848 261.511C288.363 261.906 290.51 262.311 292.902 262.403C295.293 262.487 297.457 262.226 298.998 261.94C300.539 261.654 301.482 261.376 301.507 261.443V261.435Z" fill="#FEC430"/>
<path d="M235.245 184.442C236.609 184.164 237.889 183.499 238.899 182.548C239.665 181.815 240.272 180.94 240.836 180.039C241.804 178.489 242.671 176.797 242.772 174.97C242.865 173.142 241.594 169.572 239.918 168.84C238.933 168.419 237.249 168.469 236.643 169.556C236.121 170.49 235.641 172.082 235.489 173.143C235.295 174.515 235.817 176.191 234.773 177.1C234.277 177.529 233.544 177.622 233.064 178.077C232.205 178.877 232.55 180.291 233.047 181.352C233.569 182.472 234.184 183.541 234.891 184.552" fill="#FFBE9D"/>
<path d="M234.882 184.543C234.882 184.543 234.772 184.442 234.612 184.231C234.452 184.012 234.217 183.684 233.947 183.254C233.669 182.817 233.358 182.269 233.029 181.612C232.709 180.956 232.339 180.156 232.398 179.171C232.432 178.691 232.659 178.143 233.114 177.815C233.551 177.487 234.09 177.36 234.494 177.082C234.907 176.805 235.143 176.341 235.21 175.803C235.286 175.264 235.244 174.674 235.235 174.06C235.21 173.437 235.311 172.78 235.471 172.165C235.623 171.534 235.816 170.911 236.069 170.279C236.204 169.967 236.33 169.664 236.524 169.344C236.734 169.024 237.046 168.78 237.391 168.629C238.081 168.334 238.848 168.317 239.572 168.494C240.321 168.671 240.919 169.227 241.315 169.791C241.727 170.363 242.039 170.986 242.291 171.609C242.771 172.856 243.1 174.161 242.94 175.432C242.78 176.678 242.317 177.781 241.803 178.741C241.281 179.701 240.742 180.552 240.195 181.301C239.109 182.825 237.77 183.667 236.81 184.046C236.33 184.239 235.934 184.341 235.673 184.399C235.404 184.458 235.261 184.467 235.261 184.45C235.252 184.408 235.816 184.315 236.743 183.894C237.66 183.473 238.915 182.631 239.942 181.124C240.464 180.383 240.986 179.524 241.483 178.581C241.971 177.638 242.401 176.569 242.536 175.39C242.679 174.236 242.359 172.982 241.896 171.778C241.652 171.18 241.348 170.591 240.969 170.06C240.582 169.521 240.094 169.083 239.462 168.923C238.831 168.763 238.14 168.789 237.568 169.033C237.29 169.159 237.046 169.344 236.886 169.589C236.726 169.841 236.583 170.153 236.465 170.447C236.01 171.651 235.623 172.889 235.64 174.06C235.64 174.657 235.682 175.264 235.589 175.862C235.513 176.459 235.202 177.066 234.697 177.394C234.2 177.714 233.678 177.823 233.316 178.101C232.945 178.362 232.751 178.783 232.709 179.213C232.642 180.08 232.962 180.871 233.257 181.52C233.56 182.177 233.855 182.732 234.099 183.179C234.604 184.071 234.915 184.543 234.89 184.559L234.882 184.543Z" fill="#EB996E"/>
<path d="M236.8 172.451C237.532 172.502 238.307 172.569 238.913 172.998C239.519 173.42 239.839 174.337 239.385 174.918C238.938 175.482 238.079 175.432 237.364 175.314C237.962 175.381 238.593 175.466 239.073 175.828C239.553 176.19 239.806 176.931 239.435 177.411C239.149 177.781 238.618 177.848 238.147 177.857C237.12 177.882 236.092 177.79 235.082 177.579C234.341 177.419 233.558 177.175 233.086 176.577C232.615 175.979 232.632 174.952 233.305 174.581C232.564 174.211 232.051 173.462 231.908 172.653C231.764 171.845 232.051 171.55 231.47 170.944C230.4 169.824 229.878 168.763 230.762 167.214C231.621 165.715 233.33 165.631 235.082 163.972L241.22 170.035L236.816 172.451H236.8Z" fill="#FFBE9D"/>
<path d="M243.182 170.616C238.753 174.682 235.082 169.361 234.669 170.22C234.257 171.087 233.095 172.476 232.076 172.468C231.048 172.468 230.366 172.283 230.459 170.674C230.543 169.066 235.115 163.669 235.115 163.669L243.19 170.607L243.182 170.616Z" fill="#FFBE9D"/>
<path d="M243.182 170.616C243.182 170.616 242.93 170.439 242.526 170.111C242.071 169.74 241.498 169.277 240.808 168.704C239.351 167.509 237.322 165.825 234.973 163.829L235.259 163.804C233.937 165.429 232.455 167.248 231.234 169.319C230.948 169.841 230.662 170.355 230.662 170.885C230.645 171.441 230.754 172.005 231.209 172.148C231.428 172.232 231.697 172.258 231.967 172.258C232.228 172.266 232.438 172.207 232.666 172.098C233.112 171.87 233.499 171.508 233.828 171.121C233.988 170.927 234.139 170.725 234.274 170.515C234.341 170.414 234.4 170.304 234.451 170.203L234.501 170.111C234.543 170.06 234.569 170.001 234.644 169.967C234.788 169.892 234.897 169.934 234.964 169.951C235.52 170.178 235.84 170.489 236.244 170.734C237.01 171.247 237.768 171.651 238.509 171.845C240.016 172.275 241.296 171.786 242.029 171.357C242.787 170.902 243.123 170.607 243.166 170.599C243.199 170.574 242.854 171.012 242.113 171.5C241.389 171.988 240.042 172.561 238.425 172.14C237.634 171.946 236.825 171.542 236.034 171.028C235.646 170.793 235.225 170.456 234.855 170.313C234.838 170.313 234.813 170.304 234.813 170.313C234.804 170.313 234.796 170.279 234.796 170.271C234.762 170.228 234.847 170.329 234.83 170.296C234.83 170.296 234.804 170.346 234.788 170.372C234.729 170.489 234.661 170.607 234.594 170.717C234.459 170.944 234.299 171.163 234.122 171.365C233.777 171.778 233.373 172.182 232.843 172.46C232.581 172.595 232.245 172.687 231.942 172.67C231.655 172.67 231.352 172.653 231.032 172.536C230.712 172.426 230.434 172.123 230.333 171.803C230.224 171.483 230.207 171.172 230.207 170.86C230.207 170.186 230.544 169.622 230.83 169.092C232.093 166.961 233.583 165.168 234.931 163.534L235.057 163.375L235.209 163.509C237.608 165.589 239.621 167.382 241.018 168.629C241.667 169.218 242.206 169.698 242.627 170.085C242.989 170.422 243.182 170.599 243.157 170.599L243.182 170.616Z" fill="#EB996E"/>
<path d="M233.012 174.953C232.524 175.113 232.44 175.82 232.726 176.241C233.012 176.662 233.518 176.864 233.997 177.049C235.488 177.605 237.054 178.144 238.62 177.933C239.125 177.866 239.698 177.647 239.824 177.159C239.967 176.595 239.428 176.089 238.906 175.828C237.711 175.222 236.347 175.087 235.016 174.961" fill="#FFBE9D"/>
<path d="M235.016 174.952C235.016 174.952 235.235 174.91 235.614 174.927C235.993 174.944 236.549 174.977 237.231 175.095C237.913 175.238 238.729 175.398 239.529 175.996C239.715 176.156 239.9 176.358 240.001 176.636C240.102 176.906 240.077 177.259 239.9 177.512C239.521 178.025 238.906 178.135 238.384 178.177C237.298 178.261 236.288 178.025 235.42 177.748C234.553 177.444 233.795 177.2 233.164 176.838C232.861 176.645 232.608 176.384 232.515 176.089C232.423 175.794 232.456 175.525 232.541 175.339C232.726 174.935 233.029 174.935 233.021 174.961C233.046 174.994 232.802 175.062 232.701 175.398C232.65 175.558 232.65 175.786 232.743 176.005C232.827 176.215 233.046 176.426 233.324 176.577C233.888 176.863 234.696 177.099 235.538 177.369C236.389 177.613 237.349 177.823 238.351 177.748C238.839 177.722 239.336 177.588 239.546 177.276C239.765 176.973 239.58 176.569 239.277 176.308C238.645 175.794 237.812 175.567 237.18 175.407C235.867 175.112 235.016 175.036 235.025 174.961L235.016 174.952Z" fill="#EB996E"/>
<path d="M237.422 174.784C237.422 174.784 237.557 174.733 237.793 174.725C238.02 174.708 238.365 174.7 238.711 174.54C239.031 174.405 239.393 173.984 239.241 173.588C239.09 173.167 238.525 172.982 237.902 172.856C236.665 172.544 235.545 172.325 234.728 172.291C233.911 172.249 233.398 172.334 233.381 172.266C233.364 172.216 233.869 172.014 234.728 171.98C235.587 171.929 236.766 172.115 238.003 172.426C238.307 172.502 238.635 172.569 238.938 172.721C239.241 172.872 239.511 173.125 239.628 173.453C239.746 173.79 239.628 174.152 239.46 174.371C239.283 174.599 239.064 174.75 238.837 174.826C238.391 174.969 238.029 174.919 237.801 174.893C237.566 174.86 237.439 174.817 237.439 174.784H237.422Z" fill="#EB996E"/>
<path d="M338.665 179.289C337.528 176.047 336.4 172.797 335.263 169.555C333.908 165.665 332.451 161.632 329.504 158.752C326.557 155.873 320.587 154.222 317.219 156.588L314.702 193.713C313.944 194.656 314.441 196.171 315.426 196.879C316.419 197.577 317.707 197.67 318.92 197.662C323.955 197.628 328.974 196.34 333.394 193.932C336.324 192.34 339.17 189.983 339.844 186.716C340.358 184.232 339.507 181.689 338.665 179.297V179.289Z" fill="#FEC430"/>
<path d="M317.716 158.314C316.082 146.425 312.319 131.732 312.319 131.732C312.319 131.732 315.611 113.384 314.904 102.8C314.415 95.475 313.573 82.0113 313.102 74.4079C312.891 71.0483 310.593 68.1771 307.359 67.2424L295.874 63.9165L271.768 68.0002L259.752 70.6357C257.386 71.1578 255.18 72.2271 253.336 73.7933C250.701 76.033 247.434 79.8726 245.792 85.935C244.167 91.947 240.218 127.808 240.218 127.808L229.895 163.551L246.465 173.302C246.465 173.302 249.454 158.701 250.288 155.956C248.461 164.318 240.049 196.465 236.74 220L268.416 221.204L272.997 208.868L275.742 221.481L315.055 222.972C315.055 222.972 321.362 184.863 317.716 158.306V158.314Z" fill="#794AFF"/>
<path d="M257.688 83.4515C257.688 83.4515 257.655 83.5272 257.571 83.6535C257.47 83.7967 257.352 83.9819 257.2 84.2093C256.855 84.6808 256.417 85.4302 255.903 86.4153C254.901 88.3941 253.807 91.4506 253.192 95.3827C252.603 99.3065 252.392 104.081 253.108 109.293C253.782 114.53 254.043 120.348 254.093 126.428C254.118 129.467 254.186 132.448 254.009 135.319C253.841 138.19 253.478 140.952 253.007 143.554C252.047 148.749 250.877 153.355 250.035 157.253C249.159 161.144 248.519 164.301 248.073 166.49C247.854 167.56 247.685 168.402 247.559 169.008C247.5 169.277 247.45 169.488 247.416 169.656C247.382 169.799 247.357 169.875 247.349 169.875C247.349 169.875 247.349 169.799 247.365 169.648C247.391 169.471 247.424 169.261 247.467 168.991C247.568 168.376 247.711 167.534 247.896 166.457C248.292 164.259 248.89 161.085 249.723 157.186C250.523 153.279 251.668 148.665 252.603 143.487C253.057 140.893 253.419 138.157 253.571 135.302C253.739 132.448 253.672 129.484 253.647 126.436C253.596 120.357 253.344 114.572 252.695 109.343C252.005 104.098 252.241 99.2812 252.881 95.3322C253.529 91.3748 254.683 88.3014 255.743 86.3311C256.282 85.3544 256.745 84.6134 257.116 84.1503C257.284 83.9314 257.419 83.763 257.529 83.6199C257.621 83.502 257.672 83.4431 257.68 83.4515H257.688Z" fill="#263238"/>
<path d="M267.557 69.9205L267.052 62.7634C274.251 63.1508 286.957 61.8457 294.679 59.4712L295.984 65.9715L267.557 69.9205Z" fill="#794AFF"/>
<path d="M275.128 62.6455C275.128 62.6455 275.153 62.7718 275.179 63.0244C275.204 63.2939 275.238 63.6643 275.271 64.1359C275.347 65.1294 275.457 66.5693 275.6 68.4048C275.886 72.1097 276.223 77.4817 276.593 84.1167C277.317 97.3868 277.999 115.751 277.738 136.043C277.461 156.336 276.282 174.675 275.187 187.928C274.631 194.555 274.135 199.91 273.739 203.606C273.545 205.442 273.394 206.865 273.293 207.858C273.242 208.33 273.2 208.692 273.166 208.961C273.133 209.214 273.107 209.34 273.107 209.34C273.107 209.34 273.107 209.214 273.124 208.961C273.141 208.692 273.175 208.321 273.208 207.85C273.293 206.856 273.419 205.425 273.579 203.589C273.916 199.893 274.37 194.529 274.884 187.903C275.903 174.658 277.031 156.319 277.309 136.043C277.57 115.768 276.939 97.412 276.299 84.142C275.97 77.5069 275.676 72.1349 275.448 68.4301C275.347 66.5945 275.263 65.1547 275.204 64.1611C275.179 63.6896 275.162 63.3191 275.153 63.0497C275.145 62.7971 275.153 62.6708 275.153 62.6708L275.128 62.6455Z" fill="#263238"/>
<path d="M281.755 86.331C281.755 86.331 281.982 86.2553 282.386 86.331C282.782 86.4068 283.363 86.6594 283.86 87.2236C284.356 87.7625 284.744 88.7223 284.432 89.7075C284.154 90.6674 283.296 91.602 282.1 91.7704C280.904 91.9136 279.827 91.2315 279.304 90.3811C278.749 89.5054 278.875 88.4782 279.212 87.8298C279.549 87.1562 280.045 86.7689 280.408 86.5921C280.778 86.4068 281.005 86.3984 281.014 86.4237C281.022 86.4573 280.812 86.5247 280.492 86.7436C280.18 86.9541 279.759 87.3499 279.49 87.9645C279.22 88.5708 279.153 89.4381 279.641 90.1706C280.096 90.8947 281.047 91.4589 282.033 91.341C283.018 91.2063 283.784 90.4064 284.037 89.5896C284.314 88.756 284.028 87.9309 283.616 87.4172C283.195 86.8868 282.689 86.6173 282.336 86.491C281.974 86.3647 281.746 86.3563 281.755 86.3226V86.331Z" fill="#263238"/>
<path d="M281.755 127.766C281.755 127.766 281.982 127.69 282.386 127.766C282.782 127.842 283.363 128.094 283.86 128.659C284.356 129.198 284.744 130.157 284.432 131.143C284.154 132.102 283.296 133.037 282.1 133.205C280.904 133.349 279.827 132.667 279.304 131.816C278.749 130.94 278.875 129.913 279.212 129.265C279.549 128.591 280.045 128.204 280.408 128.027C280.778 127.842 281.005 127.833 281.014 127.859C281.022 127.892 280.812 127.96 280.492 128.179C280.18 128.389 279.759 128.785 279.49 129.4C279.22 130.006 279.153 130.873 279.641 131.606C280.096 132.33 281.047 132.894 282.033 132.776C283.018 132.641 283.784 131.841 284.037 131.025C284.314 130.191 284.028 129.366 283.616 128.852C283.195 128.322 282.689 128.052 282.336 127.926C281.974 127.8 281.746 127.791 281.755 127.758V127.766Z" fill="#263238"/>
<path d="M281.755 169.193C281.755 169.193 281.982 169.117 282.386 169.193C282.782 169.269 283.363 169.521 283.86 170.085C284.356 170.624 284.744 171.584 284.432 172.569C284.154 173.529 283.296 174.464 282.1 174.632C280.904 174.775 279.827 174.093 279.304 173.243C278.749 172.367 278.875 171.34 279.212 170.692C279.549 170.018 280.045 169.631 280.408 169.454C280.778 169.269 281.005 169.26 281.014 169.285C281.022 169.319 280.812 169.387 280.492 169.605C280.18 169.816 279.759 170.212 279.49 170.826C279.22 171.433 279.153 172.3 279.641 173.032C280.096 173.757 281.047 174.321 282.033 174.203C283.018 174.068 283.784 173.268 284.037 172.451C284.314 171.618 284.028 170.793 283.616 170.279C283.195 169.749 282.689 169.479 282.336 169.353C281.974 169.227 281.746 169.218 281.755 169.184V169.193Z" fill="#263238"/>
<g opacity="0.3">
<path d="M272.148 111.204C282.378 121.771 293.981 131.985 308.261 135.513C309.179 135.74 310.156 135.942 311.074 135.698C311.991 135.454 312.825 134.629 312.758 133.677C308.665 134.562 301.862 129.931 296.658 127.211C287.666 122.496 280.391 115.911 271.727 110.606" fill="black"/>
</g>
<g opacity="0.3">
<path d="M252.478 102.279C250.491 106.842 249.59 111.979 249.935 116.947C250.28 121.914 251.164 126.84 251.316 131.816C251.551 139.858 248.588 149.616 249.438 156.891L249.842 157.447C256.991 134.418 253.8 120.694 252.486 102.279H252.478Z" fill="black"/>
</g>
<path d="M295.874 65.4662C295.874 65.4662 295.52 65.6767 294.846 65.9714C294.51 66.1314 294.089 66.2829 293.592 66.4598C293.103 66.6534 292.531 66.8302 291.899 67.0155C289.373 67.7901 285.786 68.4806 281.787 68.8932C277.787 69.2973 274.141 69.3731 271.514 69.2973C270.201 69.2721 269.131 69.1963 268.399 69.1289C267.666 69.0616 267.262 69.011 267.262 68.9774C267.262 68.9437 267.675 68.9437 268.407 68.9605C269.14 68.9689 270.201 68.9942 271.514 68.9858C274.133 68.9858 277.762 68.8595 281.745 68.4553C285.719 68.0427 289.289 67.4028 291.815 66.7124C292.447 66.544 293.019 66.3924 293.516 66.224C294.013 66.064 294.442 65.9461 294.787 65.8114C295.478 65.5588 295.865 65.4325 295.874 65.4578V65.4662Z" fill="#263238"/>
<path d="M309.515 69.8279C309.557 69.8953 308.757 70.4173 307.654 71.4614C306.551 72.5055 305.179 74.1306 304.134 76.1935C303.09 78.2648 302.594 80.3277 302.408 81.8349C302.223 83.3421 302.274 84.302 302.198 84.302C302.164 84.302 302.13 84.0663 302.097 83.6368C302.055 83.2074 302.046 82.5759 302.097 81.8013C302.198 80.252 302.669 78.1217 303.739 75.9914C304.817 73.8695 306.265 72.2276 307.444 71.2256C308.033 70.7204 308.538 70.3499 308.917 70.131C309.288 69.9037 309.498 69.7942 309.515 69.8195V69.8279Z" fill="#263238"/>
<path d="M260.528 73.3387C260.646 73.3808 260.09 75.1321 259.576 77.3214C259.054 79.5106 258.785 81.3293 258.659 81.3125C258.541 81.3041 258.625 79.4432 259.155 77.2203C259.677 74.9974 260.427 73.2966 260.536 73.3387H260.528Z" fill="#263238"/>
<path d="M254.339 73.0269C253.834 74.1805 263.829 135.445 318.306 163.56C318.273 160.848 317.986 158.272 317.372 155.897C317.372 155.897 276.635 125.046 269.411 99.6007L261.74 70.1978C261.74 70.1978 255.408 70.5935 254.339 73.0185V73.0269Z" fill="#FEC430"/>
<path d="M307.361 67.2427C307.361 67.2427 315.032 68.6067 317.204 74.5429C320 82.1462 323.208 100.393 323.865 113.191C324.522 125.99 315.335 133.812 310.738 133.997C306.149 134.182 269 109.158 269 109.158L277.605 95.8036L302.865 107.617L307.353 67.2511L307.361 67.2427Z" fill="#794AFF"/>
<path d="M302.317 88.958C302.317 88.958 302.333 89.0675 302.35 89.2864C302.359 89.5222 302.376 89.8337 302.401 90.2379C302.434 91.1051 302.485 92.3345 302.552 93.9259C302.662 97.1592 302.83 101.815 303.032 107.608V107.853L302.822 107.752C295.993 104.577 287.32 100.544 277.536 95.9972L277.797 95.9214C275.103 100.115 272.206 104.619 269.2 109.284L269.141 108.981C270.859 110.118 272.678 111.33 274.522 112.559C282.462 117.797 290.082 122.706 297.138 126.958C300.675 129.071 304.051 131.058 307.343 132.641C308.169 133.029 308.994 133.399 309.819 133.652C310.021 133.702 310.231 133.795 310.434 133.795L310.737 133.829C310.838 133.829 310.947 133.803 311.048 133.795L311.671 133.711L312.269 133.534C313.861 133.02 315.225 132.094 316.412 131.109C318.803 129.13 320.386 126.739 321.498 124.558C322.575 122.344 323.207 120.298 323.476 118.58C323.67 117.729 323.704 116.955 323.779 116.29C323.872 115.624 323.864 115.06 323.864 114.597C323.864 114.159 323.88 113.806 323.88 113.553C323.88 113.317 323.897 113.199 323.897 113.199C323.897 113.199 323.914 113.317 323.923 113.553C323.923 113.806 323.939 114.159 323.948 114.597C323.956 115.06 323.981 115.624 323.906 116.298C323.847 116.972 323.821 117.746 323.636 118.605C323.392 120.34 322.777 122.419 321.716 124.668C320.622 126.89 319.03 129.324 316.614 131.353C315.418 132.364 314.029 133.315 312.379 133.862L311.747 134.056C311.528 134.098 311.309 134.123 311.082 134.149C310.972 134.157 310.863 134.182 310.745 134.191L310.391 134.157C310.147 134.157 309.945 134.056 309.726 134.005C308.859 133.744 308.025 133.382 307.2 132.987C303.874 131.404 300.489 129.425 296.945 127.32C289.872 123.076 282.235 118.176 274.295 112.938C272.451 111.709 270.623 110.497 268.914 109.351L268.737 109.234L268.855 109.057C271.861 104.392 274.766 99.8957 277.469 95.7109L277.57 95.5593L277.73 95.6351C287.497 100.224 296.153 104.291 302.965 107.499L302.754 107.642C302.611 101.849 302.493 97.1928 302.418 93.9595C302.384 92.3681 302.367 91.1304 302.35 90.2715C302.35 89.8674 302.35 89.5474 302.35 89.3116C302.35 89.0927 302.35 88.9833 302.359 88.9833L302.317 88.958Z" fill="#263238"/>
<path d="M316.285 116.289C316.217 116.332 315.704 115.54 314.71 114.412C313.725 113.283 312.201 111.844 310.264 110.623C308.319 109.402 306.366 108.652 304.917 108.248C303.469 107.844 302.535 107.718 302.543 107.642C302.543 107.608 302.779 107.617 303.208 107.65C303.638 107.676 304.244 107.777 304.993 107.945C306.484 108.274 308.504 108.998 310.492 110.244C312.479 111.498 314.003 113.006 314.946 114.21C315.417 114.808 315.771 115.321 315.981 115.692C316.2 116.062 316.301 116.273 316.276 116.289H316.285Z" fill="#263238"/>
<g opacity="0.3">
<path d="M302.317 88.9585C302.124 94.4905 300.557 100.435 298.259 105.47C299.8 106.119 301.635 106.742 302.856 107.895C303.269 107.592 302.865 107.297 302.839 106.792C302.536 101.176 302.62 94.5831 302.317 88.9669" fill="black"/>
</g>
<g opacity="0.3">
<path d="M303.007 107.702C305.112 107.516 307.107 107.584 309.212 107.685C310.189 107.735 311.183 107.811 312.084 108.19C312.816 108.501 313.465 108.99 314.079 109.495C315.443 110.606 316.816 111.928 317.161 113.655C317.237 114.025 317.254 114.429 317.102 114.774C316.95 115.12 316.597 115.406 316.218 115.364C315.873 115.33 315.603 115.061 315.368 114.8C314.812 114.202 314.264 113.604 313.667 113.04C310.905 110.447 306.779 108.03 303.007 107.693" fill="black"/>
</g>
<path d="M267.045 105.453C271.078 106.842 271.221 105.722 271.221 105.722L277.384 96.014C277.384 96.014 274.901 89.4126 274.168 88.2338C273.435 87.055 270.876 81.3125 270.876 81.3125C270.876 81.3125 269.276 82.2134 269.276 84.5627C269.276 86.9119 271.162 90.3809 271.162 90.3809L265.285 88.9664L257.463 88.8653C257.463 88.8653 256.141 89.7747 257.463 91.2145C257.463 91.2145 256.494 92.4775 257.463 93.9005L258.431 95.3235C258.431 95.3235 257.909 95.6266 258.372 96.6118C258.835 97.5969 260.637 98.7 260.637 98.7C260.637 98.7 258.944 99.6851 259.601 100.729C260.258 101.773 267.061 105.453 267.061 105.453H267.045Z" fill="#FFBE9D"/>
<path d="M264.915 92.9066C264.856 93.0245 263.29 92.1994 261.185 91.7615C259.08 91.3068 257.32 91.4331 257.311 91.2984C257.286 91.1889 259.096 90.8606 261.277 91.3321C263.466 91.7868 264.982 92.8224 264.915 92.9066Z" fill="#EB996E"/>
<path d="M263.558 96.8393C263.499 96.9488 262.346 96.4267 260.864 95.9805C259.382 95.5258 258.136 95.3153 258.153 95.189C258.153 95.0711 259.466 95.0964 260.99 95.5595C262.523 96.0226 263.609 96.7383 263.558 96.8309V96.8393Z" fill="#EB996E"/>
<path d="M263.179 101.108C263.095 101.201 262.405 100.679 261.546 100.064C260.695 99.4408 259.988 98.9441 260.047 98.8346C260.106 98.7336 260.923 99.0704 261.807 99.7103C262.691 100.35 263.263 101.024 263.179 101.116V101.108Z" fill="#EB996E"/>
<path d="M42.5466 306.735L41.8309 324.872C41.8309 324.872 60.0267 331.692 60.2288 335.052L25.0075 334.934L24.957 306.625L42.5466 306.735Z" fill="#794AFF"/>
<path d="M30.9523 323.314C30.2703 323.499 29.7988 324.266 29.9503 324.956C30.1103 325.647 30.8765 326.135 31.567 325.958C32.249 325.79 32.8468 324.889 32.6195 324.215C32.3837 323.55 31.4491 323.028 30.826 323.356" fill="#E0E0E0"/>
<path d="M25.0073 334.943L25.1168 332.088L58.8476 333.267C58.8476 333.267 60.4138 333.958 60.2285 335.061L25.0073 334.943Z" fill="#263238"/>
<path d="M42.4053 324.703C42.4053 324.872 41.538 324.948 40.6876 325.503C39.8287 326.034 39.3825 326.775 39.2309 326.707C39.0709 326.674 39.332 325.647 40.3676 324.998C41.4033 324.341 42.439 324.552 42.4053 324.703Z" fill="#263238"/>
<path d="M46.1012 326.244C46.1433 326.413 45.3939 326.699 44.8045 327.423C44.1983 328.131 44.0467 328.914 43.8783 328.914C43.7183 328.939 43.6004 327.928 44.3498 327.044C45.0908 326.152 46.1012 326.084 46.1012 326.244Z" fill="#263238"/>
<path d="M48.1807 330.673C48.0207 330.707 47.785 329.848 48.2312 328.905C48.6691 327.962 49.4858 327.591 49.5532 327.734C49.6458 327.877 49.1238 328.383 48.7701 329.157C48.3996 329.924 48.3491 330.648 48.1723 330.665L48.1807 330.673Z" fill="#263238"/>
<path d="M77.2204 306.364L76.5047 324.501C76.5047 324.501 94.7005 331.321 94.9026 334.681L59.6814 334.563L59.6309 306.255L77.2204 306.364Z" fill="#794AFF"/>
<path d="M65.6261 322.944C64.9441 323.129 64.4726 323.895 64.6241 324.586C64.7841 325.276 65.5504 325.764 66.2408 325.587C66.9228 325.419 67.5207 324.518 67.2933 323.845C67.0575 323.179 66.1229 322.657 65.4998 322.986" fill="#E0E0E0"/>
<path d="M59.6826 334.572L59.7921 331.717L93.5229 332.896C93.5229 332.896 95.0891 333.587 94.9038 334.69L59.6826 334.572Z" fill="#263238"/>
<path d="M77.0762 324.325C77.0762 324.493 76.2089 324.569 75.3585 325.124C74.4996 325.655 74.0534 326.396 73.9018 326.329C73.7418 326.295 74.0029 325.268 75.0385 324.619C76.0742 323.963 77.1099 324.173 77.0762 324.325Z" fill="#263238"/>
<path d="M80.775 325.865C80.8171 326.033 80.0678 326.32 79.4783 327.044C78.8721 327.751 78.7205 328.534 78.5521 328.534C78.3921 328.559 78.2743 327.549 79.0237 326.665C79.7646 325.772 80.775 325.705 80.775 325.865Z" fill="#263238"/>
<path d="M82.8531 330.294C82.6931 330.328 82.4573 329.469 82.9036 328.526C83.3415 327.583 84.1582 327.212 84.2256 327.355C84.3182 327.499 83.7961 328.004 83.4425 328.778C83.072 329.545 83.0215 330.269 82.8447 330.286L82.8531 330.294Z" fill="#263238"/>
<path d="M22.7452 170.01C22.7452 170.01 21.6758 189.098 21.2969 193.872C20.918 198.647 23.5619 322.902 23.5619 322.902H43.9554C43.9554 322.902 51.3987 251.398 51.7776 240.065C52.1565 228.731 55.9708 196.752 55.9708 196.752V169.109L23.7977 170.187" fill="#263238"/>
<path d="M51.7686 195.498C57.1574 196.761 58.0415 263.456 58.0415 263.456L58.1762 324.064L79.0412 324.241C79.0412 324.241 82.0893 297.667 83.2597 271.497C84.0175 254.581 85.0531 240.065 85.0531 240.065C85.0531 240.065 87.1329 218.181 87.2844 199.893C87.4276 181.605 85.4994 155.89 85.4994 155.89L54.4798 163.148L51.7686 195.498Z" fill="#263238"/>
<path d="M57.1252 178.219C57.1841 178.219 57.2767 179.196 57.3104 180.787C57.3525 182.379 57.3104 184.576 57.1336 187.001C56.9483 189.426 56.6536 191.607 56.3758 193.173C56.0979 194.739 55.8622 195.699 55.8032 195.682C55.7359 195.674 55.8706 194.697 56.0642 193.123C56.2579 191.548 56.5105 189.376 56.6957 186.968C56.881 184.56 56.9568 182.37 56.9989 180.787C57.041 179.204 57.0578 178.219 57.1252 178.219Z" fill="#FEC430"/>
<path d="M33.2794 176.83C33.3215 176.847 33.0858 177.529 32.4711 178.506C31.8564 179.482 30.8208 180.729 29.3978 181.781C27.9748 182.834 26.476 183.465 25.3646 183.768C24.2531 184.071 23.529 184.097 23.529 184.055C23.4785 183.911 26.3665 183.516 29.1367 181.436C31.9406 179.39 33.1615 176.746 33.2794 176.83Z" fill="#FEC430"/>
<path d="M84.3384 187.97C84.3384 188.012 83.488 187.945 82.1998 187.515C80.9115 187.094 79.1938 186.252 77.594 184.913C76.0026 183.566 74.8743 182.025 74.2344 180.83C73.5944 179.634 73.3755 178.817 73.4176 178.8C73.485 178.775 73.8049 179.541 74.5038 180.678C75.1942 181.815 76.331 183.28 77.8802 184.585C79.438 185.882 81.0715 186.749 82.3092 187.237C83.547 187.726 84.3553 187.911 84.3469 187.987L84.3384 187.97Z" fill="#FEC430"/>
<path d="M51.684 177.579C51.684 177.579 51.7598 177.453 51.9956 177.369C52.2229 177.285 52.6018 177.251 53.0313 177.403C53.4438 177.554 53.9322 177.908 54.109 178.522C54.3027 179.146 53.9743 179.895 53.3933 180.282C52.8208 180.686 52.004 180.737 51.4904 180.333C50.9768 179.945 50.8252 179.364 50.8252 178.927C50.8336 178.472 51.002 178.135 51.162 177.95C51.322 177.765 51.4567 177.714 51.4735 177.731C51.5325 177.773 51.0694 178.135 51.1367 178.91C51.1704 179.28 51.3388 179.735 51.7261 179.996C52.0966 180.265 52.686 180.232 53.1407 179.92C53.5954 179.609 53.8396 179.07 53.7133 178.624C53.6038 178.169 53.2333 177.849 52.905 177.689C52.1977 177.352 51.7009 177.655 51.6756 177.588L51.684 177.579Z" fill="#FEC430"/>
<path d="M45.8657 255.07C45.8657 255.07 45.251 255.87 44.0891 257.007C42.9355 258.143 41.2599 259.642 39.2896 261.149C37.3193 262.656 35.4332 263.877 34.0355 264.686C32.6377 265.502 31.7284 265.932 31.7031 265.89C31.6694 265.831 32.5199 265.309 33.8755 264.425C35.2311 263.541 37.0751 262.294 39.0286 260.796C40.982 259.305 42.6745 257.849 43.8785 256.779C45.0826 255.71 45.8152 255.019 45.8657 255.07Z" fill="#FEC430"/>
<path d="M77.272 248.62C77.3141 248.662 76.7163 249.436 75.6638 250.632C74.6197 251.828 73.1125 253.427 71.3695 255.12C69.6266 256.804 67.9678 258.252 66.7385 259.263C65.5091 260.273 64.7092 260.846 64.6756 260.803C64.6335 260.753 65.366 260.096 66.5364 259.027C67.7068 257.966 69.3234 256.484 71.058 254.808C72.7925 253.124 74.325 251.567 75.428 250.43C76.531 249.293 77.2131 248.586 77.2636 248.628L77.272 248.62Z" fill="#FEC430"/>
<path d="M8.97754 181.823V191.38L11.0573 196.263C11.0573 196.263 21.4645 201.964 22.6433 201.964C23.8221 201.964 24.2684 201.871 24.0916 200.878C23.9148 199.884 20.2941 193.998 20.2941 193.998L19.9321 188.113C19.9321 188.113 20.833 185.578 21.9192 185.848C23.0054 186.117 24.9083 189.645 25.1778 190.1C25.4472 190.555 27.3502 192.634 29.0679 192.23L28.0743 188.113L24.0916 181.503L19.8058 178.118L8.97754 181.815V181.823Z" fill="#DB8A76"/>
<path d="M22.3134 201.896C22.3134 201.896 21.665 201.483 20.8062 200.608C19.9473 199.732 18.878 198.393 17.9602 196.743C17.0508 195.092 16.4951 193.467 16.2088 192.272C15.9225 191.076 15.872 190.318 15.9225 190.31C16.0657 190.276 16.5372 193.299 18.3391 196.532C20.1073 199.782 22.4144 201.795 22.3049 201.896H22.3134Z" fill="#A45B4A"/>
<path d="M17.0012 199.345C16.9675 199.387 16.5213 199.16 15.9319 198.596C15.3425 198.04 14.6604 197.131 14.13 196.019C13.5995 194.908 13.2795 193.847 13.0775 193.072C12.8754 192.298 12.7996 191.818 12.8501 191.801C12.9091 191.784 13.0943 192.239 13.3722 192.98C13.65 193.721 14.0037 194.748 14.5257 195.826C15.0393 196.903 15.654 197.787 16.1592 198.377C16.6644 198.966 17.0433 199.286 17.0012 199.337V199.345Z" fill="#A45B4A"/>
<path d="M17.9015 186.706C17.9015 186.833 17.2616 186.909 16.7143 187.405C16.1417 187.885 15.9817 188.5 15.8554 188.483C15.7965 188.483 15.7628 188.298 15.8302 188.012C15.8975 187.734 16.0912 187.363 16.428 187.069C16.7648 186.774 17.1605 186.639 17.4468 186.614C17.7331 186.589 17.9099 186.656 17.9099 186.706H17.9015Z" fill="#A45B4A"/>
<path d="M12.6397 187.565C12.6902 187.674 12.2692 187.977 12.0503 188.533C11.8145 189.081 11.9155 189.594 11.8061 189.636C11.705 189.712 11.3514 189.097 11.6461 188.365C11.9324 187.632 12.6144 187.439 12.6397 187.556V187.565Z" fill="#A45B4A"/>
<path d="M107.105 174.253V177.756C107.105 177.756 103.99 180.611 103.628 181.318C103.274 182.034 102.735 187.944 102.735 187.944C102.735 187.944 104.52 192.365 104.916 192.458C105.32 192.55 106.44 192.634 106.238 191.119C106.036 189.603 105.413 187.111 105.413 187.111L107.105 184.172L108.705 187.204V192.5C108.705 192.5 105.497 194.504 105.716 195.312C105.935 196.112 106.474 196.558 107.366 196.381C108.259 196.205 110.044 195.405 110.044 195.405C110.044 195.405 110.937 197.442 112.629 196.424L114.321 195.405C114.321 195.405 115.568 197.055 116.73 196.71C117.891 196.365 118.237 195.16 118.237 195.16L120.131 188.627C120.62 186.951 120.813 185.2 120.712 183.457L120.199 174.464L107.097 174.253H107.105Z" fill="#DB8A76"/>
<path d="M106.676 184.627C106.954 183.777 107.459 182.994 108.108 182.379C108.604 181.916 109.387 181.545 109.926 181.958C110.238 182.194 110.347 182.631 110.28 183.019C110.213 183.406 109.977 183.743 109.724 184.038C110.246 183.878 110.886 183.743 111.282 184.122C111.627 184.45 111.602 185.031 111.349 185.435C111.097 185.84 110.684 186.109 110.28 186.362C110.634 186.101 111.172 186.463 111.24 186.9C111.307 187.338 111.063 187.759 110.81 188.121C110.457 188.643 110.044 189.165 109.472 189.443C108.899 189.721 108.141 189.704 107.712 189.233C107.282 188.761 107.442 187.843 108.057 187.684C107.611 187.953 106.988 187.751 106.676 187.338C106.365 186.926 106.003 186.362 106.129 185.856C106.255 185.351 106.407 185.073 106.668 184.627" fill="#FFBE9D"/>
<path d="M114.16 187.288C114.278 187.313 113.975 189.544 113.478 192.273C113.344 192.929 113.301 193.679 112.788 194.201C112.283 194.689 111.685 194.773 111.264 194.891C110.826 194.992 110.489 195.102 110.27 195.211C110.051 195.321 109.942 195.413 109.917 195.388C109.9 195.371 109.967 195.236 110.178 195.068C110.388 194.9 110.742 194.74 111.18 194.596C111.601 194.445 112.148 194.31 112.501 193.923C112.864 193.552 112.922 192.887 113.057 192.197C113.554 189.46 114.051 187.263 114.169 187.288H114.16Z" fill="#A45B4A"/>
<path d="M117.017 189.385C117.126 189.376 117.211 191.077 116.419 192.989C116.032 193.915 115.543 194.774 114.92 195.153C114.314 195.54 113.834 195.439 113.851 195.388C113.851 195.321 114.264 195.296 114.744 194.9C115.232 194.521 115.636 193.73 116.015 192.82C116.773 191.001 116.891 189.376 117.017 189.385Z" fill="#A45B4A"/>
<path d="M25.0837 62.957C25.0837 62.957 15.7122 67.2007 11.78 80.0329C7.85623 92.8652 -2.18893 141.668 0.429714 157.371C0.429714 157.371 6.45849 181.537 7.41838 182.362L21.0252 177.588L28.4517 89.295L25.0837 62.957Z" fill="#794AFF"/>
<path d="M74.1743 60.8013L51.4485 55.2861C51.4485 55.2861 26.7777 60.8181 25.0853 62.9568C23.3928 65.0955 22.4329 146.745 21.7004 151.073C20.7826 156.496 21.7004 174.237 21.7004 174.237L87.2928 176.973L90.5009 166.288L87.2928 68.2531L74.1743 60.8097V60.8013Z" fill="#794AFF"/>
<path d="M101.682 174.236C101.682 174.236 84.2444 127.454 84.9433 120.979C85.6338 114.504 86.4926 84.377 86.4926 84.377L87.3009 68.2441C87.3009 68.2441 95.6621 71.0228 97.2282 80.4448C98.8028 89.8753 105.345 118.941 105.345 118.941C105.345 118.941 121.259 168.443 120.215 174.463L101.691 174.236H101.682Z" fill="#794AFF"/>
<path d="M31.1796 77.692C31.1796 77.692 31.2133 77.7762 31.247 77.9362C31.2891 78.1214 31.3396 78.3656 31.3985 78.6603C31.4659 78.9887 31.5417 79.3844 31.6343 79.8391C31.6932 80.3191 31.7606 80.858 31.8364 81.4726C32.0974 83.9313 32.1984 87.5435 31.5332 91.922C30.9354 96.3088 29.6135 101.42 28.0726 107.044C26.498 112.661 24.9656 118.891 24.0731 125.56C23.13 132.22 22.6416 138.62 22.3722 144.446C22.0943 150.273 22.0017 155.527 21.9428 159.939C21.8838 164.326 21.8417 167.896 21.8081 170.397C21.7828 171.61 21.7659 172.561 21.7491 173.243C21.7407 173.546 21.7323 173.79 21.7238 173.984C21.7154 174.152 21.707 174.237 21.6986 174.237C21.6902 174.237 21.6817 174.152 21.6817 173.984C21.6817 173.79 21.6733 173.546 21.6649 173.243C21.6649 172.561 21.6565 171.61 21.6396 170.397C21.6396 167.896 21.6396 164.335 21.6396 159.939C21.6649 155.527 21.7238 150.265 21.9764 144.43C22.2206 138.594 22.7006 132.178 23.6436 125.501C24.5446 118.816 26.0939 112.551 27.6853 106.935C29.2514 101.319 30.5986 96.233 31.2301 91.8714C31.929 87.5183 31.8785 83.9313 31.668 81.481C31.609 80.8748 31.5501 80.3275 31.4996 79.856C31.4238 79.3929 31.3564 79.0055 31.3059 78.6687C31.2638 78.3656 31.2217 78.1299 31.1964 77.9362C31.1712 77.7678 31.1628 77.6836 31.1712 77.6836L31.1796 77.692Z" fill="#263238"/>
<path d="M88.7984 83.0807C88.7984 83.0807 88.8068 83.308 88.79 83.7375C88.7647 84.209 88.7226 84.8236 88.6721 85.5983C88.5542 87.2149 88.4195 89.5557 88.2763 92.4522C87.9985 98.2453 87.8553 106.253 88.1753 115.094C88.5037 123.935 89.1015 131.926 89.5141 137.71C89.7162 140.565 89.8761 142.897 89.994 144.564C90.0361 145.339 90.0782 145.962 90.1035 146.425C90.1203 146.854 90.1288 147.073 90.1119 147.073C90.0951 147.073 90.0614 146.854 90.0109 146.425C89.9604 145.962 89.9014 145.339 89.8172 144.564C89.6657 142.905 89.4551 140.573 89.1941 137.727C88.7058 131.951 88.049 123.952 87.7206 115.102C87.4006 106.253 87.5859 98.22 87.948 92.4354C88.1332 89.5389 88.31 87.1981 88.4868 85.5815C88.571 84.8068 88.6384 84.1921 88.6805 83.7206C88.731 83.2996 88.7647 83.0723 88.7815 83.0723L88.7984 83.0807Z" fill="#263238"/>
<path d="M74.1403 139.184C74.1403 139.184 74.0729 139.31 73.9129 139.521C73.7193 139.773 73.4835 140.076 73.2056 140.438C72.591 141.238 71.6395 142.341 70.4186 143.672C69.2061 145.002 67.6736 146.518 65.9138 148.117C64.1372 149.7 62.108 151.368 59.8766 152.984C57.6369 154.584 55.414 155.982 53.3427 157.169C51.2629 158.331 49.3431 159.299 47.6928 160.032C46.0509 160.773 44.6952 161.32 43.7438 161.648C43.3059 161.8 42.9439 161.926 42.6492 162.036C42.3966 162.12 42.2618 162.154 42.2534 162.145C42.2534 162.128 42.3713 162.069 42.6155 161.96C42.9018 161.834 43.2554 161.682 43.6764 161.497C44.6026 161.118 45.933 160.529 47.5581 159.754C49.1831 158.988 51.0777 157.994 53.1322 156.815C55.1782 155.62 57.3843 154.222 59.6072 152.622C61.8217 151.014 63.8425 149.372 65.636 147.806C67.4042 146.231 68.9451 144.749 70.1912 143.444C71.4374 142.156 72.4142 141.078 73.0709 140.32C73.374 139.975 73.6351 139.689 73.8456 139.462C74.0224 139.268 74.1234 139.167 74.1403 139.175V139.184Z" fill="#263238"/>
<path d="M74.7952 107.945C74.7952 107.945 74.7784 108.097 74.7026 108.375C74.61 108.703 74.4921 109.099 74.3574 109.587C74.0543 110.64 73.5575 112.147 72.8755 113.991C72.2018 115.835 71.3093 117.999 70.2231 120.348C69.1201 122.697 67.8066 125.232 66.291 127.817C64.7585 130.393 63.1755 132.768 61.6515 134.873C60.1106 136.961 58.6539 138.796 57.3657 140.27C56.0858 141.752 55.008 142.922 54.225 143.697C53.8629 144.051 53.5682 144.345 53.3324 144.59C53.1219 144.792 53.0125 144.893 52.9956 144.876C52.9872 144.867 53.0798 144.741 53.2651 144.522C53.4924 144.27 53.7619 143.958 54.0987 143.579C54.8396 142.771 55.8753 141.575 57.1215 140.068C58.3761 138.569 59.7991 136.725 61.3147 134.629C62.805 132.524 64.3796 130.149 65.9036 127.589C67.4108 125.013 68.7244 122.495 69.8442 120.171C70.9473 117.83 71.865 115.692 72.5723 113.873C73.288 112.054 73.8269 110.564 74.1806 109.528C74.349 109.048 74.4921 108.661 74.6016 108.341C74.7026 108.072 74.7615 107.928 74.7784 107.937L74.7952 107.945Z" fill="#263238"/>
<g opacity="0.3">
<path d="M31.6515 95.1382C23.0967 118.992 20.8064 144.631 21.9852 169.951C25.1596 166.877 26.2121 162.187 26.1784 157.767C26.1447 153.355 25.1764 148.993 24.9996 144.581C24.3092 127.85 34.809 111.583 31.6599 95.1382H31.6515Z" fill="black"/>
</g>
<g opacity="0.3">
<path d="M73.4739 111.953C73.7434 111.178 71.5963 124.221 68.624 129.113C65.6517 134.005 61.4753 138.156 56.5664 141.095C56.5664 141.095 67.782 128.229 73.4739 111.953Z" fill="black"/>
</g>
<g opacity="0.3">
<path d="M87.7808 88.7981C87.7808 88.7981 87.9239 137.778 89.8521 140.447C89.8521 140.447 90.3741 127.935 90.7025 121.67C91.2919 110.438 89.6584 99.2222 88.0334 88.0908" fill="black"/>
</g>
<path d="M30.3037 90.465C30.3037 90.465 30.009 90.4903 29.4785 90.465C28.948 90.4314 28.1902 90.3556 27.2556 90.2377C25.3779 89.9935 22.8014 89.5136 20.0228 88.7389C17.2441 87.9559 14.7939 87.0212 13.0678 86.255C12.2005 85.8761 11.51 85.5393 11.0469 85.2951C10.5754 85.0509 10.3228 84.8994 10.3397 84.8741C10.3649 84.8152 11.4343 85.2867 13.1856 85.9687C14.937 86.6592 17.3788 87.5433 20.1406 88.3179C22.9024 89.0926 25.4453 89.6146 27.2977 89.9346C29.1501 90.2545 30.3037 90.4145 30.3037 90.4819V90.465Z" fill="white"/>
<path d="M87.3325 86.6426C87.3325 86.7605 74.9297 86.5753 59.6388 86.2132C44.348 85.8595 31.9536 85.4722 31.9536 85.3459C31.9536 85.228 44.3564 85.4133 59.6473 85.7753C74.9381 86.129 87.3325 86.5163 87.3241 86.6426H87.3325Z" fill="white"/>
<path d="M100.166 92.9831C100.209 93.101 97.632 94.0945 94.4156 95.2144C91.1991 96.3343 88.5636 97.1426 88.5215 97.0247C88.4794 96.9069 91.056 95.9133 94.2724 94.7934C97.4889 93.6735 100.124 92.8652 100.166 92.9831Z" fill="white"/>
<path d="M24.1162 119.809C24.1162 119.809 23.813 119.86 23.2741 119.86C22.7353 119.868 21.9438 119.843 20.9755 119.759C19.0388 119.607 16.3697 119.178 13.5321 118.311C10.6945 117.426 8.25272 116.281 6.56871 115.313C5.7267 114.833 5.06151 114.412 4.61525 114.101C4.16899 113.789 3.93322 113.604 3.95006 113.579C3.99216 113.52 5.00257 114.151 6.71185 115.035C8.42113 115.919 10.8545 117.014 13.6584 117.89C16.4623 118.757 19.0894 119.22 21.0007 119.456C22.9121 119.691 24.1077 119.734 24.1077 119.809H24.1162Z" fill="white"/>
<path d="M70.7131 117.544C70.7131 117.544 70.5615 117.586 70.2668 117.612C69.9216 117.637 69.5006 117.679 68.9785 117.721C67.8586 117.814 66.2336 117.89 64.2296 117.923C60.2132 117.999 54.656 117.805 48.5767 116.98C42.4974 116.147 37.0832 114.85 33.2437 113.705C31.3155 113.132 29.7746 112.627 28.7221 112.24C28.2337 112.063 27.838 111.911 27.5096 111.793C27.2318 111.684 27.0886 111.625 27.097 111.608C27.097 111.591 27.257 111.625 27.5349 111.709C27.8633 111.81 28.2758 111.928 28.7726 112.08C29.842 112.417 31.3997 112.88 33.3279 113.41C37.1843 114.479 42.5816 115.726 48.6356 116.551C54.6896 117.368 60.2216 117.612 64.2296 117.62C66.2336 117.62 67.8502 117.595 68.9701 117.561C69.4921 117.553 69.9131 117.544 70.2584 117.536C70.5531 117.536 70.7131 117.536 70.7131 117.553V117.544Z" fill="white"/>
<path d="M86.6172 111.996C86.6341 112.055 85.8931 112.282 84.689 112.56C83.4766 112.838 81.7925 113.149 79.9149 113.377C78.0372 113.604 76.3195 113.705 75.0817 113.722C73.844 113.739 73.0778 113.697 73.0693 113.638C73.0693 113.57 73.8356 113.511 75.0649 113.41C76.2942 113.309 77.9951 113.166 79.8643 112.939C81.7336 112.711 83.4176 112.45 84.6385 112.248C85.8594 112.055 86.6172 111.928 86.6257 111.987L86.6172 111.996Z" fill="white"/>
<path d="M104.434 117.907C104.459 117.957 103.676 118.344 102.38 118.875C101.083 119.414 99.2641 120.087 97.218 120.727C95.1719 121.367 93.2858 121.847 91.9218 122.142C90.5493 122.437 89.6904 122.571 89.6736 122.512C89.6567 122.453 90.4988 122.218 91.846 121.839C93.1932 121.468 95.054 120.938 97.0917 120.306C99.1293 119.675 100.956 119.043 102.278 118.589C103.6 118.134 104.417 117.848 104.442 117.907H104.434Z" fill="white"/>
<path d="M21.9691 149.187C21.9691 149.187 21.6407 149.22 21.0429 149.195C20.4451 149.178 19.5862 149.111 18.5253 148.976C16.4035 148.715 13.4985 148.142 10.4084 147.082C7.31819 146.012 4.67428 144.673 2.84713 143.562C1.92934 143.006 1.21363 142.535 0.733684 142.181C0.253739 141.827 -0.00728399 141.625 0.00955617 141.6C0.0516566 141.541 1.14627 142.265 3.00711 143.292C4.85952 144.32 7.50343 145.608 10.5599 146.66C13.6164 147.713 16.4877 148.336 18.5758 148.664C20.6724 149.001 21.986 149.102 21.9775 149.178L21.9691 149.187Z" fill="white"/>
<path d="M64.9864 148.395C64.9864 148.395 64.8349 148.421 64.5486 148.437C64.2118 148.446 63.7992 148.454 63.3024 148.471C62.2162 148.496 60.6501 148.488 58.7135 148.437C54.8402 148.345 49.485 148.033 43.6078 147.326C37.7306 146.61 32.4596 145.633 28.6706 144.8C26.7761 144.379 25.2521 144.017 24.208 143.739C23.728 143.604 23.3239 143.495 23.0039 143.411C22.726 143.335 22.5913 143.284 22.5913 143.267C22.5913 143.251 22.7429 143.267 23.0207 143.326C23.3491 143.394 23.7533 143.478 24.2416 143.579C25.3026 143.806 26.835 144.126 28.7296 144.505C32.527 145.263 37.7896 146.189 43.6583 146.905C49.5187 147.612 54.8571 147.974 58.7219 148.143C60.6585 148.227 62.2246 148.286 63.3024 148.319C63.7992 148.336 64.2118 148.353 64.5486 148.37C64.8349 148.387 64.9864 148.404 64.9864 148.421V148.395Z" fill="white"/>
<path d="M89.008 144.623C89.008 144.623 88.7385 144.741 88.2333 144.867C87.7281 145.002 86.9956 145.162 86.0778 145.339C84.2422 145.684 81.6825 146.038 78.8365 146.172C75.9905 146.307 73.4056 146.198 71.5532 146.021C70.6269 145.936 69.8776 145.844 69.3639 145.76C68.8503 145.675 68.564 145.617 68.5724 145.591C68.5724 145.524 69.726 145.625 71.5784 145.718C73.4308 145.81 75.9989 145.869 78.8197 145.743C81.6488 145.608 84.1917 145.305 86.0273 145.044C87.8629 144.775 88.9996 144.572 89.008 144.631V144.623Z" fill="white"/>
<path d="M114.455 149.827C114.455 149.827 114.236 150.012 113.806 150.282C113.377 150.551 112.737 150.913 111.937 151.334C110.337 152.176 108.047 153.212 105.42 154.096C102.793 154.972 100.343 155.527 98.5493 155.822C97.6567 155.974 96.9242 156.066 96.419 156.108C95.9138 156.15 95.6359 156.167 95.6275 156.134C95.6191 156.066 96.7221 155.889 98.4819 155.51C100.242 155.14 102.667 154.542 105.268 153.675C107.87 152.799 110.161 151.814 111.786 151.048C113.419 150.282 114.404 149.76 114.438 149.818L114.455 149.827Z" fill="white"/>
<path d="M21.2545 169.454C21.2797 169.505 20.4125 169.951 18.9389 170.515C17.4738 171.088 15.3941 171.753 13.0365 172.241C10.6788 172.73 8.50646 172.957 6.94032 173.024C5.36577 173.092 4.39746 173.024 4.39746 172.982C4.39746 172.915 5.36577 172.864 6.92349 172.721C8.4812 172.578 10.6199 172.309 12.9523 171.82C15.2846 171.332 17.356 170.717 18.8379 170.229C20.3198 169.741 21.2292 169.395 21.2545 169.454Z" fill="white"/>
<path d="M88.7562 169.74C88.7562 169.74 88.5288 169.799 88.091 169.858C87.6111 169.925 86.9711 170.01 86.1628 170.119C84.4872 170.346 82.0622 170.607 79.0563 170.885C73.0443 171.441 64.7084 171.938 55.4969 171.904C46.2769 171.862 37.9494 171.306 31.9375 170.708C28.9315 170.405 26.5065 170.127 24.8394 169.892C24.0395 169.774 23.3995 169.69 22.9196 169.614C22.4817 169.546 22.2544 169.504 22.2544 169.488C22.2544 169.471 22.4902 169.488 22.9364 169.521C23.4164 169.572 24.0647 169.631 24.873 169.715C26.5486 169.9 28.982 170.136 31.9796 170.397C37.9831 170.919 46.3106 171.424 55.5137 171.466C64.7169 171.5 73.0359 171.054 79.0478 170.574C82.0538 170.338 84.4872 170.119 86.1628 169.951C86.9711 169.875 87.6111 169.816 88.0994 169.774C88.5457 169.74 88.773 169.723 88.7814 169.74H88.7562Z" fill="white"/>
<path d="M86.8548 67.6804C86.8548 67.7983 73.8711 67.6215 57.8561 67.2847C41.8411 66.9479 28.8657 66.5774 28.8657 66.4511C28.8657 66.3332 41.8495 66.51 57.8645 66.8468C73.8711 67.1836 86.8548 67.5541 86.8548 67.6804Z" fill="white"/>
<path d="M106.649 174.237C106.548 174.296 105.883 173.244 105.47 171.77C105.058 170.297 105.083 169.05 105.193 169.05C105.319 169.042 105.487 170.238 105.891 171.652C106.287 173.075 106.759 174.178 106.649 174.237Z" fill="#263238"/>
<path d="M112.821 174.254C112.703 174.296 112.181 173.125 111.651 171.635C111.12 170.153 110.783 168.915 110.893 168.873C111.011 168.831 111.533 170.001 112.063 171.492C112.594 172.974 112.93 174.211 112.821 174.254Z" fill="#263238"/>
<path d="M11.8728 181.537C11.755 181.571 11.1908 180.072 10.6014 178.186C10.012 176.3 9.63309 174.742 9.75098 174.7C9.86886 174.666 10.433 176.165 11.0224 178.051C11.6118 179.937 11.9907 181.495 11.8728 181.537Z" fill="#263238"/>
<path d="M16.9588 179.432C16.8409 179.474 16.2852 178.11 15.7126 176.392C15.14 174.675 14.7696 173.252 14.879 173.209C14.9969 173.167 15.5526 174.531 16.1252 176.249C16.6978 177.967 17.0682 179.39 16.9588 179.432Z" fill="#263238"/>
<path d="M50.2757 62.7881C49.8715 61.904 49.6947 60.9357 49.762 59.9758L52.2881 23.4664C52.246 13.2696 58.14 4.74851 68.3367 4.98427L69.2798 5.06005C78.7439 5.8347 86.0357 13.7496 86.0189 23.2558C86.0105 32.0885 85.8758 41.8558 85.4379 46.5542C84.5201 56.2962 74.6434 57.012 74.6434 57.012L74.1718 60.801C74.1718 60.801 74.6771 67.4276 66.939 69.3811C60.9944 70.8798 54.6878 66.9224 52.086 65.0195C51.3029 64.4469 50.6798 63.6722 50.2757 62.7881Z" fill="#DB8A76"/>
<path d="M74.7192 57.0039C74.7192 57.0039 68.463 56.8692 62.249 52.2129C62.249 52.2129 64.674 59.4794 74.475 59.3952L74.7107 56.9955L74.7192 57.0039Z" fill="#A45B4A"/>
<path d="M83.0555 31.7937C83.0218 32.5347 82.365 33.1073 81.5988 33.0904C80.8326 33.0652 80.2348 32.4589 80.2684 31.7179C80.3021 30.977 80.9589 30.4044 81.7251 30.4213C82.4998 30.4465 83.0892 31.0612 83.0555 31.7937Z" fill="#263238"/>
<path d="M83.5345 27.8533C83.3492 28.0217 82.3557 27.1544 80.8569 27.0366C79.3581 26.8934 78.1962 27.5755 78.053 27.3818C77.9772 27.2976 78.1793 26.9776 78.6929 26.6745C79.1897 26.363 80.0233 26.0935 80.9579 26.1777C81.8926 26.2619 82.6504 26.6661 83.0714 27.0534C83.5008 27.4407 83.6355 27.786 83.5429 27.8617L83.5345 27.8533Z" fill="#263238"/>
<path d="M68.8426 31.0188C68.8089 31.7598 68.1522 32.3324 67.3859 32.3155C66.6197 32.2903 66.0219 31.684 66.0556 30.9431C66.0892 30.2021 66.746 29.6295 67.5122 29.6464C68.2869 29.6716 68.8763 30.2863 68.8426 31.0188Z" fill="#263238"/>
<path d="M68.784 26.9183C68.5988 27.0867 67.6052 26.2194 66.1064 26.1015C64.6076 25.9584 63.4457 26.6404 63.3025 26.4467C63.2267 26.3625 63.4288 26.0426 63.9425 25.7394C64.4392 25.4279 65.2728 25.1585 66.2075 25.2427C67.1421 25.3269 67.8999 25.731 68.3209 26.1183C68.7503 26.5057 68.885 26.8509 68.7924 26.9267L68.784 26.9183Z" fill="#263238"/>
<path d="M73.3062 38.4795C73.3062 38.3953 74.2492 38.311 75.7732 38.2437C76.1606 38.2437 76.531 38.1932 76.6152 37.9321C76.7247 37.6627 76.5984 37.2417 76.4553 36.7786C76.169 35.8271 75.8743 34.8251 75.5627 33.7726C74.3334 29.4952 73.4746 25.9925 73.643 25.942C73.8198 25.8914 74.9565 29.3184 76.1858 33.5958C76.4805 34.6483 76.7584 35.6587 77.0278 36.6186C77.1373 37.0649 77.3478 37.5785 77.1036 38.1342C76.9773 38.4121 76.6826 38.5973 76.43 38.6394C76.1774 38.6984 75.9669 38.6815 75.7732 38.6731C74.2492 38.631 73.3062 38.5637 73.3062 38.471V38.4795Z" fill="#263238"/>
<path d="M68.8169 39.1529C69.0611 39.1529 68.9348 40.7864 70.2315 42.0578C71.5282 43.3292 73.2711 43.2871 73.2711 43.5145C73.288 43.6155 72.8585 43.8008 72.126 43.7587C71.4103 43.725 70.3746 43.405 69.5831 42.6304C68.7917 41.8557 68.5054 40.879 68.5054 40.2054C68.5054 39.5234 68.7159 39.136 68.8253 39.1529H68.8169Z" fill="#263238"/>
<path d="M69.651 21.0834C69.4658 21.4791 67.9923 21.1592 66.2157 21.2265C64.439 21.2602 62.9823 21.6559 62.7718 21.2686C62.6792 21.0834 62.9571 20.7213 63.5633 20.3761C64.1612 20.0309 65.1042 19.7277 66.1651 19.7025C67.2261 19.6772 68.186 19.9214 68.8006 20.2329C69.4237 20.5445 69.7268 20.8897 69.6426 21.0834H69.651Z" fill="#263238"/>
<path d="M83.3422 23.4662C83.0475 23.7861 82.0455 23.3483 80.8077 23.2304C79.57 23.0704 78.5006 23.2725 78.2817 22.8936C78.1891 22.7083 78.3828 22.3884 78.8711 22.1021C79.3511 21.8158 80.1257 21.6222 80.9761 21.7148C81.8266 21.8158 82.5423 22.1779 82.9464 22.5652C83.359 22.9525 83.4685 23.3146 83.3422 23.4662Z" fill="#263238"/>
<path d="M53.0804 33.0816C53.1393 31.5744 51.9436 30.2778 50.428 30.2946C48.5925 30.3199 46.4874 31.1871 46.3022 34.9509C45.9654 41.6364 52.7435 40.5924 52.7688 40.3987C52.7856 40.2724 52.9625 35.8771 53.0804 33.0732V33.0816Z" fill="#DB8A76"/>
<path d="M51.4367 37.8142C51.4367 37.8142 51.3188 37.89 51.1167 37.9742C50.9231 38.05 50.5863 38.1005 50.2495 37.9489C49.559 37.6542 49.0201 36.5007 49.0454 35.2966C49.0622 34.6904 49.2138 34.1178 49.458 33.6463C49.6853 33.1663 50.0221 32.838 50.3758 32.7958C50.7294 32.7285 50.9736 32.9558 51.0494 33.1495C51.1336 33.3432 51.083 33.4695 51.1167 33.4863C51.1336 33.5031 51.2683 33.3853 51.2262 33.099C51.2009 32.9643 51.1336 32.8043 50.982 32.6695C50.8305 32.5348 50.5947 32.4506 50.3505 32.4675C49.8369 32.4759 49.3485 32.9306 49.0791 33.4442C48.7844 33.9578 48.5991 34.6062 48.5823 35.2882C48.557 36.6354 49.1801 37.9321 50.14 38.2605C50.6031 38.4036 50.9989 38.2857 51.2178 38.1342C51.4367 37.9826 51.4788 37.8311 51.4535 37.8142H51.4367Z" fill="#A45B4A"/>
<path d="M86.0198 22.97C86.0703 24.3257 87.9732 19.8209 87.3165 18.6337C89.2194 19.2315 91.4928 17.8591 91.838 15.8972C92.1917 13.9353 90.5414 11.8555 88.5458 11.7545C89.3036 10.5757 89.1099 8.87482 88.108 7.89809C87.7627 7.56129 87.0302 7.26659 86.1629 7.05608C86.2218 6.23934 86.0366 5.39733 85.6914 4.64794C84.9336 3.02286 83.3927 1.77669 81.6413 1.38095C79.8899 0.985206 77.9618 1.43147 76.5724 2.5766C75.5031 1.00204 73.6338 0.00847409 71.7309 5.40057e-05C69.828 -0.00836608 67.9503 0.968365 66.8725 2.5345C65.1969 1.42305 62.9151 1.31359 61.1469 2.24822C60.027 2.83762 59.1344 3.83961 58.6292 5.00159C57.0126 4.05012 54.7307 4.22694 53.4088 5.59941C52.8615 6.16356 52.4742 6.88768 51.8511 7.36763C51.1354 7.92335 50.1923 8.07491 49.3756 8.47908C46.8664 9.70841 46.1423 13.5059 48.0115 15.5772C47.0601 16.3013 46.0917 17.0339 45.4266 18.019C44.7529 19.0042 44.4162 20.2924 44.8456 21.4039C45.3592 22.7427 46.8327 23.5258 47.3295 24.8646C47.5568 25.4876 47.5653 26.1697 47.7758 26.7928C48.1378 27.8453 49.0051 28.5189 50.0408 28.9651C50.5712 31.6848 52.4152 32.4847 52.4405 33.2846C52.6762 41.6205 56.28 36.9221 58.6713 19.4589C59.2355 15.3583 57.8041 13.2027 61.1469 10.7946C61.5931 11.2914 61.8878 11.9229 62.2836 12.4786C64.077 15.0383 68.3208 15.3583 70.4679 13.0849C71.1752 14.39 72.514 15.3246 73.9875 15.5351C75.4526 15.7372 77.0103 15.2067 78.0375 14.1542C79.1995 15.2741 81.9276 17.1854 84.1168 15.3414C84.1168 15.3414 85.8598 18.3811 86.0114 22.97H86.0198Z" fill="#263238"/>
<path d="M76.7909 60.0181C75.6289 58.3593 72.7156 58.6625 70.4253 58.8982C64.1355 59.555 57.2311 58.2246 52.3895 54.8229C51.7496 54.3766 51.2444 53.964 50.5203 53.6104C48.4742 52.6253 47.548 53.8377 47.3459 54.966C47.1438 56.0943 46.8659 57.2226 46.5207 59.0329C45.443 62.662 48.2637 65.769 52.6 68.1266C56.9364 70.4927 62.3757 70.9305 67.5625 70.8463C69.7096 70.8126 71.983 70.6527 73.7092 69.5917C76.1594 68.0845 76.7236 65.2891 77.094 62.7799C77.2372 61.8368 77.3551 60.8264 76.7825 60.0097L76.7909 60.0181Z" fill="#794AFF"/>
<path d="M77.1706 62.1821C77.1706 62.1821 77.2042 62.3252 77.2379 62.6115C77.2379 62.8894 77.2463 63.3188 77.12 63.8408C76.8927 64.8849 76.1349 66.3837 74.5267 67.4951C73.7267 68.0509 72.7248 68.455 71.6217 68.7076C70.5187 68.9602 69.3062 69.0613 68.0516 69.1118C65.5424 69.1792 62.7722 69.297 59.8673 68.9434C56.9708 68.5982 54.2343 67.7057 52.1545 66.2153C50.0747 64.7249 48.7023 62.7883 47.936 61.0369C47.1614 59.2687 47.0267 57.6689 47.1025 56.608C47.1277 56.347 47.153 56.1112 47.1698 55.9007C47.2119 55.7155 47.2456 55.5471 47.2793 55.3955C47.3466 55.1176 47.3803 54.9829 47.3972 54.9829C47.414 54.9829 47.3972 55.1345 47.3635 55.4123C47.3466 55.5639 47.3214 55.7323 47.2961 55.9175C47.2877 56.128 47.2793 56.3638 47.2709 56.6164C47.2456 57.6605 47.4308 59.2098 48.2139 60.9106C48.997 62.6031 50.361 64.4639 52.3818 65.8869C54.4027 67.3015 57.0718 68.1688 59.9178 68.5056C62.7722 68.8592 65.534 68.7582 68.0348 68.7076C70.5187 68.6655 72.7921 68.2866 74.3498 67.2341C75.9076 66.1985 76.6822 64.7839 76.9516 63.7903C77.2295 62.7799 77.1116 62.1737 77.1706 62.1737V62.1821Z" fill="#263238"/>
<g opacity="0.3">
<path d="M62.2822 68.5727C59.7393 68.3875 55.9924 67.9917 53.6853 66.9224C49.5342 65.0026 47.707 60.7926 47.2692 56.2373L47.286 57.1635C46.7724 60.4894 48.0775 63.9585 50.3846 66.4088C52.6917 68.859 55.9166 70.3325 59.2425 70.8798C62.56 71.4355 65.9786 71.1156 69.2624 70.3746C71.3506 69.9031 73.5903 69.1116 74.6513 67.2508C70.7275 68.6738 66.4501 68.859 62.2822 68.5559V68.5727Z" fill="black"/>
</g>
<path d="M52.381 65.8952C52.3221 65.8952 52.2042 65.3395 52.0863 64.4049C51.9769 63.4787 51.8674 62.1651 52.1537 60.7253C52.44 59.2855 53.1557 58.0982 53.863 57.4499C54.5703 56.7847 55.1597 56.6163 55.1765 56.6584C55.2102 56.7258 54.6881 56.9868 54.0903 57.6604C53.4841 58.3256 52.861 59.4454 52.5915 60.8095C52.3221 62.1736 52.381 63.4534 52.4063 64.3796C52.44 65.3058 52.4568 65.8868 52.3895 65.8952H52.381Z" fill="#263238"/>
<path d="M64.077 69.3137C63.9423 69.2716 64.818 67.0824 64.9864 64.2448C65.1801 61.3989 64.5906 59.1254 64.7338 59.1002C64.8264 59.0581 65.6263 61.3399 65.4242 64.2701C65.2474 67.2003 64.1696 69.3727 64.077 69.3137Z" fill="#263238"/>
<path d="M73.7849 58.8564C73.7849 58.8564 73.9617 58.8564 74.2059 59.0248C74.4501 59.1932 74.7364 59.5469 74.9384 60.0268C75.3258 60.9951 75.5447 62.4687 75.1826 64.0264C74.8374 65.5841 74.0122 66.8218 73.2881 67.5544C72.5556 68.2869 71.9662 68.5648 71.9409 68.5227C71.8988 68.4638 72.4124 68.1017 73.0608 67.3439C73.7007 66.5945 74.4332 65.4073 74.7616 63.9338C75.1068 62.4687 74.9384 61.0709 74.6522 60.1447C74.3659 59.1848 73.7512 58.907 73.7849 58.8649V58.8564Z" fill="#263238"/>
</svg>
