<svg width="199" height="416" viewBox="0 0 199 416" fill="none" xmlns="http://www.w3.org/2000/svg">
<path d="M31.779 293.052C25.9164 290.024 19.0041 289.634 12.4818 290.713C8.98817 291.298 5.32962 292.333 2.94558 294.972C0.561539 297.596 0.111706 302.229 2.84061 304.493C4.47495 305.842 6.73906 306.037 8.85321 306.022C13.9512 305.962 19.6189 305.063 23.6823 308.136C26.0063 309.891 27.5507 312.799 30.3396 313.654C33.0535 314.494 36.1272 312.889 37.5667 310.43C39.0061 307.971 39.0511 304.913 38.3914 302.139C38.3914 302.139 37.6866 296.111 31.764 293.052H31.779Z" fill="#FEC430"/>
<path d="M45.2263 282.362C41.6428 287.49 34.6556 285.795 31.4319 282.661C28.1932 279.528 26.8287 275 25.5842 270.681C22.7354 260.8 19.8715 250.439 21.9857 240.378C22.6154 237.365 23.74 234.366 25.8541 232.147C27.9683 229.913 31.222 228.593 34.1908 229.373C37.7143 230.303 39.8885 233.751 41.4779 237.02C46.126 246.646 48.585 257.337 48.615 268.027C48.63 273.02 48.0452 278.253 45.2263 282.377" fill="#FEC430"/>
<path d="M55.0775 289.724C51.1791 285.106 50.4444 278.359 52.1687 272.556C53.908 266.768 57.8214 261.835 62.3346 257.817C67.6275 253.094 73.8499 249.435 80.5372 247.081C83.1762 246.151 85.9501 245.432 88.7239 245.687C91.4978 245.957 94.3017 247.366 95.5912 249.84C97.5104 253.498 95.6662 257.922 93.687 261.535C90.1934 267.908 86.19 273.995 81.7368 279.738C78.1532 284.356 74.0449 288.914 68.5871 290.998C63.1292 293.083 57.4466 292.843 54.5527 289.049" fill="#FEC430"/>
<path d="M45.4687 344.407C45.4687 344.407 45.2888 343.583 45.1388 342.083C44.9739 340.389 44.764 338.26 44.5241 335.726C44.2242 333.057 43.8343 329.863 43.0996 326.4C42.3649 322.936 41.1954 319.202 39.711 315.394C38.1666 311.616 36.2924 308.182 34.0883 305.438C31.9142 302.679 29.3652 300.685 26.9811 299.53C24.5971 298.361 22.4679 297.881 20.9985 297.671C19.5141 297.521 18.6744 297.401 18.6744 297.341C18.6744 297.281 19.5141 297.266 21.0285 297.311C22.5429 297.416 24.762 297.791 27.266 298.931C29.785 300.04 32.4689 302.079 34.763 304.883C37.0721 307.687 39.0213 311.196 40.5807 315.034C42.095 318.903 43.2346 322.681 43.9393 326.22C44.644 329.743 44.9739 332.967 45.1838 335.666C45.3787 338.365 45.4687 340.554 45.4987 342.068C45.5287 343.583 45.5137 344.422 45.4537 344.422L45.4687 344.407Z" fill="#1FD39D"/>
<path d="M45.0314 354.798C45.0314 354.798 44.9714 354.423 44.9714 353.719C44.9714 352.909 44.9714 351.889 44.9714 350.63C44.9714 347.946 44.9714 344.063 44.8365 339.28C44.5966 329.698 43.7719 319.383 42.1826 304.838C40.6682 291.164 38.644 275.24 36.5148 264.894C36.05 262.54 35.6002 260.426 35.1653 258.567C34.7455 256.708 34.4007 255.103 34.0558 253.814C33.7559 252.599 33.531 251.595 33.3361 250.815C33.1862 250.125 33.1112 249.75 33.1412 249.75C33.1712 249.75 33.3061 250.095 33.516 250.77C33.756 251.55 34.0558 252.524 34.4157 253.739C34.8205 255.028 35.2253 256.618 35.6901 258.462C36.17 260.306 36.6797 262.42 37.1895 264.774C39.3037 274.146 41.5378 287.25 43.1572 301.84C44.7615 316.414 45.4812 329.683 45.5412 339.294C45.6012 344.093 45.4962 347.991 45.3763 350.675C45.3013 351.934 45.2413 352.954 45.1814 353.764C45.1214 354.468 45.0764 354.843 45.0464 354.843L45.0314 354.798Z" fill="#1FD39D"/>
<path d="M44.9567 329.203C44.9567 329.203 44.8967 328.049 44.9867 325.979C45.1067 323.91 45.3915 320.912 45.9763 317.238C46.5911 313.579 47.4607 309.216 48.8252 304.493C49.4099 302.334 50.8043 297.146 54.148 289.409C58.5712 278.928 64.5688 270.352 69.8017 265.044C71.0312 263.635 72.3957 262.615 73.4903 261.625C74.06 261.146 74.5548 260.666 75.0646 260.291C75.5744 259.931 76.0542 259.616 76.489 259.301C78.2134 258.132 79.173 257.502 79.203 257.562C79.3529 257.772 75.3495 260.126 70.2965 265.509C65.2586 270.877 59.4259 279.393 55.0326 289.784C52.5886 295.422 50.8793 300.46 49.6798 304.718C48.2854 309.396 47.3557 313.714 46.651 317.328C45.9913 320.957 45.6015 323.925 45.3615 325.994C45.1666 328.049 45.0317 329.188 44.9717 329.188L44.9567 329.203Z" fill="#1FD39D"/>
<path d="M69.8613 350.823L67.2974 385.954H22.1655L19.6016 350.823H69.8613Z" fill="#1FD39D"/>
<path d="M14.2018 336.971H74.2227V350.825H14.2018V336.971Z" fill="#1FD39D"/>
<path d="M74.2227 384.621V388.46H71.4038H15.2064V384.621H74.2227Z" fill="#EBEBEB"/>
<path d="M68.6454 395.207L71.4043 388.46H17.351L20.5747 395.207H68.6454Z" fill="#1FD39D"/>
<path d="M20.4429 362.309C20.4429 362.309 20.5029 362.428 20.6528 362.638C20.8327 362.878 21.0577 363.163 21.3276 363.538C21.9723 364.363 22.8419 365.487 23.9515 366.897L24.0714 367.047L24.1914 366.897C25.8407 364.618 28.0449 361.559 30.6538 357.96H30.279C32.1982 360.674 34.3423 363.718 36.6364 366.972L36.8313 367.257L37.0562 366.987C39.4103 364.198 41.9592 361.154 44.5982 358.005H44.1633C44.2983 358.17 44.4333 358.35 44.5832 358.515C46.9223 361.454 49.1864 364.288 51.3305 366.972L51.5554 367.257L51.7653 366.957C54.0594 363.718 56.1886 360.689 58.1228 357.96H57.7479C60.8817 361.544 63.5506 364.588 65.5897 366.912L65.7247 367.077L65.8297 366.897C66.8642 365.157 67.6889 363.778 68.2887 362.773C68.5436 362.324 68.7535 361.964 68.9184 361.679C69.0534 361.424 69.1283 361.289 69.1133 361.289C69.1133 361.289 69.0084 361.394 68.8435 361.634C68.6635 361.919 68.4236 362.264 68.1537 362.683C67.524 363.673 66.6693 365.022 65.5748 366.732H65.8147C63.8055 364.363 61.1815 361.289 58.1078 357.675L57.9128 357.45L57.7329 357.69C55.7837 360.419 53.6246 363.433 51.3155 366.657H51.7503C49.6212 363.958 47.3571 361.109 45.018 358.17C44.8831 357.99 44.7331 357.81 44.5982 357.645L44.3883 357.375L44.1633 357.645C41.5244 360.794 38.9755 363.838 36.6364 366.642H37.0562C34.7322 363.418 32.573 360.404 30.6388 357.69L30.4439 357.42L30.264 357.69C27.715 361.319 25.5558 364.408 23.9365 366.717H24.1614C23.0069 365.322 22.0923 364.228 21.4325 363.433C21.1326 363.088 20.8927 362.803 20.6978 362.578C20.5329 362.383 20.4429 362.294 20.4279 362.309H20.4429Z" fill="#F5F5F5"/>
<path d="M18.9703 350.6C18.9703 350.75 30.2758 350.885 44.2351 350.885C58.1945 350.885 69.5 350.765 69.5 350.6C69.5 350.435 58.1945 350.315 44.2351 350.315C30.2758 350.315 18.9703 350.435 18.9703 350.6Z" fill="#F5F5F5"/>
<path d="M16.6917 388.834C16.6917 388.984 28.9867 389.119 44.1456 389.119C59.3046 389.119 71.5996 388.999 71.5996 388.834C71.5996 388.669 59.3046 388.549 44.1456 388.549C28.9867 388.549 16.6917 388.669 16.6917 388.834Z" fill="#F5F5F5"/>
<path d="M142.573 385.674V386.867C142.573 386.867 162.741 395.197 162.922 399.036L122.715 398.444L123.457 385.072C129.391 387.929 135.646 388.33 142.573 385.674Z" fill="#263238"/>
<path d="M122.706 398.445L122.886 395.227L161.359 396.971C161.359 396.971 163.133 397.773 162.913 399.036L122.706 398.445Z" fill="#455A64"/>
<path d="M142.704 386.988C142.704 387.188 141.711 387.259 140.739 387.88C139.746 388.471 139.235 389.313 139.055 389.233C138.874 389.193 139.185 388.02 140.378 387.299C141.561 386.557 142.754 386.817 142.704 386.998V386.988Z" fill="white"/>
<path d="M146.895 388.791C146.935 388.982 146.083 389.303 145.401 390.125C144.7 390.927 144.519 391.819 144.319 391.809C144.138 391.839 144.018 390.686 144.88 389.684C145.732 388.671 146.895 388.611 146.895 388.791Z" fill="white"/>
<path d="M149.221 393.874C149.041 393.914 148.78 392.931 149.301 391.859C149.812 390.786 150.745 390.375 150.825 390.546C150.935 390.706 150.324 391.277 149.913 392.159C149.482 393.031 149.411 393.864 149.211 393.874H149.221Z" fill="white"/>
<path d="M113.826 373.554L130.947 378.346L126.677 388.049L131.117 412.618C131.358 414.002 130.566 415.425 129.183 415.806C128.12 416.097 127.007 415.776 126.306 414.984C122.527 410.744 108.703 395.086 109.034 393.182L109.586 388.069C109.696 387.007 110.728 384.491 110.728 384.26L113.846 373.554H113.826Z" fill="#263238"/>
<path d="M128.66 415.896L109.183 391.387L109.083 392.5C108.862 393.703 109.353 394.234 109.875 395.066C111.408 397.532 115.759 403.136 126.214 414.964C126.825 415.656 127.748 415.997 128.67 415.886L128.66 415.896Z" fill="#455A64"/>
<path d="M123.53 403.806C123.68 403.897 124.412 402.563 126.096 401.972C127.76 401.33 129.214 401.842 129.264 401.681C129.294 401.621 128.973 401.381 128.341 401.24C127.72 401.09 126.798 401.1 125.876 401.431C124.953 401.771 124.262 402.373 123.911 402.884C123.55 403.395 123.47 403.786 123.53 403.806Z" fill="white"/>
<path d="M125.135 407.516C125.255 407.647 126.198 406.865 127.641 406.604C129.075 406.313 130.258 406.674 130.318 406.514C130.408 406.384 129.155 405.712 127.521 406.033C125.887 406.343 125.005 407.436 125.135 407.516Z" fill="white"/>
<path d="M120.351 398.955C120.461 399.095 121.914 397.893 124.11 397.291C126.295 396.66 128.19 396.92 128.21 396.75C128.27 396.609 126.285 396.058 123.939 396.74C121.584 397.391 120.22 398.875 120.351 398.965V398.955Z" fill="white"/>
<path d="M126.865 384.701C126.785 384.701 126.715 385.984 126.665 388.009V388.039C126.875 389.462 127.176 391.277 127.527 393.251C127.938 395.587 128.339 397.702 128.65 399.226C128.96 400.749 129.191 401.682 129.261 401.672C129.331 401.662 129.231 400.699 129.001 399.166C128.78 397.622 128.439 395.507 128.028 393.171C127.687 391.196 127.347 389.382 127.066 387.979V388.009C127.026 385.984 126.946 384.701 126.865 384.701Z" fill="#455A64"/>
<path d="M102.503 226.56C101.15 220.044 97.7418 208.276 99.0851 202.853C102.203 190.292 107.676 183.025 115.164 167.077H120.717L174.076 166.154L178.446 175.828C183.288 188.879 186.606 196.668 187.969 206.211C189.543 217.207 186.786 233.136 180.672 249.215C167.49 283.928 160.122 311.695 159.611 319.173C159.1 326.651 158.308 334.38 151.371 358.057C146.309 375.339 142.57 385.684 142.57 385.684C137.317 388.651 131.734 389.453 126.662 386.566L111.174 380.591C111.174 380.591 115.916 339.823 121.459 329.007C125.449 321.218 131.974 317.519 128.927 307.375C125.88 297.23 106.633 246.548 102.493 226.57L102.503 226.56Z" fill="#263238"/>
<path d="M164.953 193.63C164.953 193.63 164.872 193.72 164.742 193.901C164.602 194.101 164.401 194.372 164.151 194.723C163.629 195.464 162.868 196.547 161.895 197.93C159.921 200.767 157.054 204.887 153.435 210.1L153.405 210.15V210.2C153.826 214.751 153.976 220.044 154.257 225.938C154.537 231.832 154.848 238.318 155.179 245.274C155.54 252.241 155.931 259.679 156.342 267.478C156.803 275.277 157.204 283.426 157.986 291.817C158.798 298.793 159.52 305.65 158.918 312.236C158.768 313.88 158.567 315.504 158.256 317.088C157.936 318.671 157.645 320.265 157.104 321.739C156.001 324.696 154.718 327.563 153.505 330.349C148.583 341.496 143.972 351.45 140.123 359.831C136.273 368.181 133.146 374.947 130.981 379.648C129.908 381.974 129.076 383.788 128.505 385.041C128.234 385.643 128.024 386.114 127.873 386.445C127.733 386.765 127.673 386.936 127.673 386.936C127.673 386.936 127.763 386.786 127.923 386.475C128.084 386.144 128.314 385.683 128.605 385.091C129.196 383.848 130.058 382.044 131.171 379.739C133.376 375.057 136.544 368.311 140.464 359.991C144.343 351.631 148.994 341.687 153.946 330.55C155.169 327.753 156.452 324.916 157.585 321.899C158.146 320.375 158.437 318.782 158.758 317.188C159.068 315.584 159.279 313.94 159.429 312.286C160.041 305.63 159.319 298.733 158.507 291.766C157.725 283.416 157.324 275.247 156.853 267.458C156.432 259.659 156.031 252.221 155.65 245.254C155.299 238.288 154.969 231.812 154.668 225.918C154.357 220.034 154.177 214.731 153.736 210.18L153.706 210.28C157.274 205.037 160.101 200.887 162.046 198.03C162.998 196.617 163.73 195.524 164.241 194.773C164.481 194.412 164.662 194.131 164.792 193.931C164.913 193.74 164.973 193.64 164.973 193.64L164.953 193.63Z" fill="#455A64"/>
<path d="M195.58 184.098C195.58 185.09 196.131 194.673 196.131 194.673L186.628 191.716C186.628 191.716 188.362 187.296 189.565 182.594L195.58 184.088V184.098Z" fill="#FFBF9D"/>
<path d="M165.415 86.623C165.415 86.623 175.048 87.8059 180.111 100.085C185.173 112.365 193.603 145.194 196.971 159.128C200.339 173.061 195.528 188.88 195.528 188.88L177.464 183.687L178.908 150.627L170.718 120.164L165.415 86.6331V86.623Z" fill="#FE649F"/>
<path d="M164.783 86.6235C164.021 86.5333 151.561 82.4133 151.561 82.4133L138.55 79.6266L118.802 78.6743L119.825 97.2992L144.093 118.52L165.405 120.966L171.82 112.696L164.773 86.6135L164.783 86.6235Z" fill="#FFBF9D"/>
<path d="M158.629 84.5285L165.415 86.6236C169.395 94.4725 179.148 118.972 179.148 122.991C179.148 129.838 174.808 140.704 174.808 140.704C174.808 140.704 191.448 157.795 189.273 182.114C187.679 199.927 178.647 207.325 178.647 207.325C178.647 207.325 169.756 215.564 148.795 213.199C147.332 213.038 145.938 212.858 144.595 212.667C128.225 210.322 113.3 202.002 102.564 189.421L111.766 166.145L106.152 128.895L109.41 83.6965L123.845 80.98C123.845 80.98 146.66 116.576 157.737 116.335C168.813 116.095 158.639 84.5285 158.639 84.5285H158.629Z" fill="#FE649F"/>
<path d="M155.781 128.434C155.781 128.434 155.981 128.273 156.242 127.892C156.502 127.522 156.833 126.94 157.134 126.178C157.745 124.655 158.096 122.349 157.765 119.873C157.425 117.397 156.633 115.282 156.031 113.788C155.42 112.295 154.979 111.403 154.908 111.423C154.838 111.453 155.159 112.395 155.68 113.919C156.192 115.432 156.913 117.537 157.244 119.943C157.575 122.339 157.294 124.554 156.783 126.058C156.292 127.572 155.7 128.384 155.771 128.434H155.781Z" fill="#263238"/>
<g opacity="0.3">
<path d="M150.781 144.403C152.355 143.631 153.959 142.849 155.683 142.568C157.407 142.287 159.322 142.568 160.635 143.721L159.372 144.934C156.264 144.773 153.307 146.347 150.941 148.362C148.576 150.377 146.651 152.863 144.416 155.028C136.216 162.987 123.676 166.175 112.669 163.118C125.37 156.883 138.07 150.638 150.771 144.403H150.781Z" fill="black"/>
</g>
<path d="M110.533 82.603C110.533 82.603 98.1831 88.0061 94.3238 99.8145C90.4645 111.623 89.5322 148.953 90.0134 154.156C90.4945 159.348 94.835 166.435 101.581 165.964C108.328 165.493 137.959 156.05 137.959 156.05L134.591 137.626L111.465 140.934L115.324 109.528L110.543 82.603H110.533Z" fill="#FE649F"/>
<path d="M186.635 191.717C186.635 191.717 186.685 191.647 186.755 191.506C186.836 191.336 186.946 191.125 187.066 190.865C187.207 190.584 187.367 190.233 187.527 189.802C187.698 189.381 187.898 188.89 188.069 188.319C188.82 186.073 189.592 182.685 189.733 178.425C189.803 176.3 189.733 173.964 189.442 171.488C189.151 169.002 188.57 166.386 187.828 163.689C186.344 158.306 184.159 152.382 180.19 147.189C179.207 145.886 178.075 144.744 177.162 143.491C176.25 142.258 175.548 140.844 175.649 139.391C175.719 137.937 176.591 136.644 177.072 135.251C177.212 134.91 177.343 134.569 177.483 134.228C177.593 133.877 177.704 133.537 177.814 133.186C177.924 132.845 178.034 132.494 178.135 132.163C178.215 131.812 178.305 131.472 178.385 131.131C179.698 125.637 179.418 120.425 178.435 116.305C177.513 112.135 175.899 109.037 174.676 107.013C174.356 106.521 174.075 106.08 173.824 105.689C173.554 105.339 173.323 105.028 173.133 104.767C172.952 104.547 172.812 104.356 172.692 104.206C172.591 104.086 172.541 104.025 172.531 104.025C172.531 104.025 172.561 104.106 172.651 104.236C172.762 104.396 172.882 104.587 173.042 104.827C173.223 105.098 173.443 105.409 173.694 105.77C173.935 106.171 174.195 106.612 174.496 107.113C175.649 109.158 177.202 112.245 178.075 116.375C179.007 120.465 179.237 125.607 177.914 131.01C177.834 131.351 177.744 131.682 177.664 132.023C177.553 132.354 177.453 132.695 177.343 133.035C177.232 133.376 177.122 133.717 177.012 134.058C176.882 134.389 176.741 134.729 176.611 135.06C176.15 136.413 175.248 137.717 175.147 139.361C175.037 140.995 175.829 142.528 176.761 143.801C177.704 145.094 178.836 146.227 179.789 147.51C183.688 152.623 185.873 158.477 187.377 163.82C188.129 166.506 188.72 169.092 189.031 171.548C189.342 174.004 189.432 176.32 189.382 178.425C189.292 182.645 188.58 186.013 187.898 188.268C187.738 188.84 187.557 189.331 187.407 189.752C187.267 190.183 187.116 190.544 186.996 190.825C186.886 191.085 186.806 191.306 186.735 191.486C186.675 191.637 186.655 191.717 186.665 191.717H186.635Z" fill="#263238"/>
<path d="M152.411 132.104C157.393 130.931 169.382 131.472 170.855 132.104C172.329 132.735 172.7 134.64 172.7 134.64C172.7 134.64 175.346 135.592 175.266 137.106C175.186 138.62 175.436 137.757 175.436 137.757C175.436 137.757 176.76 138.8 176.75 140.705C176.75 140.705 178.414 144.163 179.236 144.965C180.068 145.767 182.925 147.752 183.015 148.664C183.105 149.566 181.04 150.187 179.787 149.746C178.534 149.305 172.87 145.677 172.87 145.677C172.87 145.677 167.056 146.489 163.187 145.677C159.318 144.865 155.99 143.602 155.99 143.602L137.675 154.658L134.788 138.87C134.788 138.87 147.419 133.297 152.401 132.124L152.411 132.104Z" fill="#FFBF9D"/>
<path d="M113.818 116.916C113.818 116.916 113.788 117.057 113.758 117.327C113.728 117.618 113.677 118.029 113.617 118.55C113.497 119.643 113.327 121.227 113.106 123.272C112.675 127.412 112.063 133.416 111.292 140.924L111.272 141.135L111.482 141.105C117.998 140.193 125.847 139.08 134.618 137.847L134.367 137.666C135.4 143.33 136.522 149.545 137.715 156.091L137.886 155.81C132.944 157.364 127.761 158.958 122.378 160.532C116.995 162.085 111.432 163.719 105.668 164.992C103.994 165.333 102.31 165.734 100.656 165.694C99.012 165.644 97.3881 165.113 96.0449 164.18C93.3384 162.316 91.544 159.359 90.682 156.311C90.2208 154.778 90.1908 153.184 90.1707 151.59C90.1406 149.996 90.1507 148.422 90.1707 146.859C90.2008 143.741 90.301 140.684 90.3913 137.697C90.8624 125.778 91.5942 115.042 93.0577 106.14C93.2181 105.028 93.4787 103.955 93.6792 102.903C93.8897 101.85 94.2105 100.868 94.4611 99.8854C95.1427 97.9908 95.8745 96.2165 96.8368 94.7129C98.6612 91.6355 100.887 89.4402 102.811 87.8363C104.746 86.2325 106.43 85.22 107.593 84.5785C108.174 84.2677 108.625 84.0372 108.936 83.8868C109.247 83.7465 109.397 83.6562 109.397 83.6562C109.397 83.6562 109.227 83.7064 108.916 83.8367C108.605 83.967 108.144 84.1775 107.543 84.4782C106.36 85.0897 104.656 86.0821 102.681 87.6759C100.726 89.2698 98.4607 91.4651 96.5862 94.5525C95.6038 96.0662 94.842 97.8505 94.1403 99.7751C93.8797 100.757 93.5489 101.76 93.3283 102.822C93.1178 103.875 92.8472 104.948 92.6868 106.07C91.1731 114.992 90.4013 125.738 89.9001 137.666C89.7898 140.654 89.6895 143.711 89.6595 146.839C89.6394 148.402 89.6294 149.986 89.6595 151.58C89.6695 153.164 89.7096 154.838 90.1808 156.422C91.0729 159.579 92.9073 162.627 95.7542 164.591C97.1676 165.574 98.8917 166.145 100.636 166.195C102.4 166.235 104.084 165.824 105.768 165.484C111.552 164.19 117.116 162.556 122.509 161.003C127.892 159.419 133.084 157.825 138.016 156.251L138.227 156.181L138.186 155.971C136.984 149.435 135.831 143.22 134.788 137.556L134.748 137.346L134.538 137.376C125.777 138.649 117.928 139.792 111.422 140.734L111.612 140.914C112.324 133.396 112.885 127.392 113.276 123.252C113.457 121.207 113.597 119.623 113.697 118.52C113.738 117.999 113.768 117.588 113.798 117.297C113.818 117.027 113.818 116.876 113.818 116.876V116.916Z" fill="#263238"/>
<path d="M103.758 151.209C103.919 151.27 104.721 148.383 106.926 145.516C109.101 142.619 111.677 141.075 111.577 140.945C111.547 140.895 110.866 141.205 109.883 141.907C108.901 142.609 107.638 143.731 106.515 145.205C105.392 146.678 104.641 148.192 104.23 149.325C103.819 150.458 103.698 151.199 103.758 151.219V151.209Z" fill="#263238"/>
<path d="M124.925 187.667C124.925 187.667 124.975 187.807 125.116 188.047C125.266 188.288 125.466 188.649 125.767 189.08C126.349 189.962 127.271 191.205 128.524 192.628C131.01 195.485 135.04 199.014 140.282 201.57C145.525 204.126 150.788 205.119 154.567 205.319C156.461 205.429 158.005 205.389 159.057 205.309C159.589 205.279 160 205.219 160.27 205.189C160.551 205.149 160.691 205.129 160.691 205.109C160.691 205.068 160.1 205.088 159.047 205.109C157.995 205.129 156.461 205.109 154.587 204.958C150.848 204.667 145.665 203.625 140.503 201.109C135.34 198.593 131.331 195.155 128.795 192.388C127.511 191.005 126.559 189.812 125.928 188.97C125.296 188.128 124.945 187.656 124.915 187.677L124.925 187.667Z" fill="#263238"/>
<path d="M108.717 90.6021C108.667 90.6822 109.609 91.2937 110.872 92.5768C111.524 93.1983 112.185 94.0403 112.887 94.9926C113.559 95.975 114.22 97.0977 114.782 98.3407C115.343 99.5937 115.724 100.837 116.005 101.99C116.255 103.142 116.405 104.205 116.426 105.097C116.506 106.891 116.285 108.004 116.385 108.014C116.426 108.014 116.496 107.753 116.596 107.242C116.656 106.992 116.706 106.681 116.726 106.32C116.756 105.959 116.806 105.548 116.786 105.087C116.806 104.165 116.696 103.072 116.466 101.879C116.205 100.696 115.824 99.4033 115.253 98.1202C114.671 96.8471 113.98 95.6943 113.268 94.712C112.526 93.7496 111.814 92.9176 111.113 92.3162C110.782 91.9954 110.451 91.7448 110.17 91.5243C109.89 91.2937 109.629 91.1133 109.409 90.983C108.978 90.7123 108.727 90.582 108.707 90.6121L108.717 90.6021Z" fill="#263238"/>
<g opacity="0.3">
<path d="M124.688 189.621C126.112 190.483 127.255 191.726 128.447 192.889C137.509 201.68 150.531 206.211 163.091 204.948L163.121 207.073C150.31 208.877 136.858 205.609 126.312 198.131C124.247 196.668 122.182 194.833 120.979 192.668C119.857 190.633 122.032 188.278 124.117 189.31C124.308 189.41 124.498 189.511 124.688 189.621Z" fill="black"/>
</g>
<path d="M192.262 192.961C192.262 192.961 189.676 191.066 186.077 191.968C182.479 192.87 177.687 192.69 177.587 193.682C177.497 194.675 177.497 197.121 179.431 197.572C181.366 198.023 182.84 197.572 182.84 197.572C182.84 197.572 181.947 198.915 177.547 198.153C173.146 197.391 166.881 193.863 164.936 194.494C163.002 195.126 164.656 197.391 164.936 197.572C165.217 197.752 169.457 200.92 169.457 200.92C169.457 200.92 162.811 197.742 160.506 198.153C158.2 198.564 159.032 200.549 159.032 200.549C159.032 200.549 157.539 202.083 158.882 203.085C160.225 204.087 161.238 204.438 161.238 204.438C161.238 204.438 160.957 205.611 161.789 206.243C162.621 206.874 179.963 207.957 179.963 207.957C179.963 207.957 193.906 204.057 195.64 197.562C195.871 196.9 196.092 195.667 196.102 194.665L192.232 192.951L192.262 192.961Z" fill="#FFBF9D"/>
<path d="M169.175 200.819C169.115 200.949 170.539 201.781 172.433 202.513C174.328 203.255 175.942 203.596 175.982 203.465C176.022 203.325 174.488 202.754 172.624 202.032C170.749 201.31 169.245 200.689 169.175 200.829V200.819Z" fill="#6F4439"/>
<path d="M159.051 200.549C159.021 200.609 159.692 201.03 160.835 201.622C161.968 202.213 163.572 202.975 165.386 203.717C167.2 204.448 168.884 205.02 170.107 205.381C171.34 205.741 172.112 205.912 172.132 205.842C172.182 205.691 169.185 204.689 165.576 203.225C161.968 201.772 159.121 200.409 159.051 200.539V200.549Z" fill="#6F4439"/>
<path d="M160.706 204.459C160.666 204.599 161.709 205.06 163.042 205.491C164.375 205.922 165.488 206.173 165.538 206.032C165.578 205.892 164.536 205.431 163.202 205C161.869 204.569 160.756 204.318 160.706 204.459Z" fill="#6F4439"/>
<path d="M105.198 13.6566C103.043 13.8772 101.108 15.5512 100.577 17.6563C100.447 18.1675 100.386 18.7289 100.066 19.1499C99.6547 19.6912 98.923 19.8616 98.3115 20.1423C96.6274 20.9141 95.5448 22.8287 95.7553 24.6632C94.4422 25.024 93.0689 25.435 92.1567 26.4374C91.2445 27.4399 91.0941 29.2643 92.2068 30.0361C90.1919 31.4896 90.0817 34.9279 92.0063 36.5017C89.6005 37.7347 88.1169 40.5615 88.4678 43.2379C87.2248 43.6189 85.8815 44.0699 85.1397 45.1325C84.3979 46.2051 84.7287 48.0596 86.0118 48.3102C85.1999 49.6534 85.5908 51.5881 86.8739 52.5003C85.3803 53.2521 85.0796 55.6078 86.3326 56.7104C87.5856 57.8131 89.8812 57.2116 90.4425 55.6479C90.7934 57.1615 91.9762 58.4546 93.4498 58.9558C92.5175 60.8504 92.8984 63.3163 94.372 64.82C93.0688 65.2811 92.317 66.8849 92.7882 68.1781C93.2593 69.4712 94.8832 70.213 96.1663 69.7218C96.3969 70.9848 96.7477 72.288 97.5897 73.2603C98.4318 74.2327 99.8753 74.784 101.048 74.2527C100.246 76.2776 100.286 78.7736 101.69 80.4376C102.101 80.9188 102.602 81.3097 103.093 81.7007C104.126 82.5126 105.158 83.3146 106.19 84.1265C107.173 84.8984 108.717 85.6301 109.519 84.6678C111.002 87.0335 114.791 87.4746 116.776 85.5098C117.919 88.066 120.465 86.7528 121.377 85.3896C121.868 84.6578 123.823 83.1441 124.555 82.653C125.708 81.8811 128.184 85.1891 128.905 83.9962C129.296 83.3446 129.837 82.7933 130.188 82.1217C131.131 80.3775 130.589 77.9817 128.995 76.7988C130.599 74.4732 130.208 71.3758 129.747 68.5891C129.356 66.1933 128.925 63.7173 127.552 61.7125C127.351 61.4218 127.121 61.111 127.141 60.7602C127.151 60.289 127.572 59.9582 127.923 59.6375C129.677 58.0537 130.369 55.3872 129.597 53.1518C129.366 52.4902 129.026 51.8186 129.136 51.127C129.226 50.5656 129.617 50.0945 129.958 49.6334C131.642 47.398 132.424 43.8394 130.279 42.0451C133.125 39.6493 133.927 35.1484 132.073 31.9207C134.88 30.1364 135.752 25.8961 133.867 23.1495C134.96 21.7562 136.093 20.2525 136.283 18.4883C136.463 16.724 135.251 14.6891 133.486 14.6991C134.268 13.8772 134.138 12.4938 133.496 11.5516C132.865 10.6093 131.842 10.0179 130.86 9.44648C129.386 8.59443 127.843 7.72232 126.139 7.62208C124.434 7.52184 122.55 8.45409 122.149 10.1081C121.958 9.2059 120.916 8.70469 120.004 8.78488C119.092 8.8751 118.28 9.39636 117.508 9.89757C116.195 7.95288 112.696 8.2937 111.774 10.4489C110 8.83501 106.622 9.90759 106.1 12.2532" fill="#263238"/>
<path d="M186.392 30.3968C185.71 28.7328 183.835 27.8206 182.031 27.6903C183.094 26.3671 182.542 24.2119 181.159 23.2295C179.776 22.2471 177.861 22.2772 176.287 22.8987C176.869 20.9039 175.946 18.6685 174.332 17.3754C172.719 16.0823 170.523 15.6512 168.458 15.8918C169.13 14.1877 168.769 12.1127 167.556 10.7394C166.343 9.35605 164.348 8.72453 162.564 9.16559C162.163 7.76221 160.72 6.86003 159.266 6.66958C157.813 6.47912 156.359 6.83999 154.946 7.20086C154.214 4.84518 152.039 3.00073 149.603 2.64989C147.157 2.29904 144.561 3.46184 143.197 5.5168C139.669 3.85279 132.632 5.7273 132.632 10.7594L148.39 80.9787C149.964 82.2418 153.332 84.1764 159.607 84.1764C161.622 84.1764 166.403 80.5176 166.083 78.5228C169.19 78.2722 171.776 75.1948 171.486 72.0873C173.43 72.7689 175.094 70.5736 175.986 68.7192C176.458 67.7568 175.766 69.0499 176.277 68.1177C177.791 65.3611 176.758 62.4641 176.037 61.7423C177.209 61.9729 179.435 62.3037 180.658 60.1585C181.169 59.2664 180.698 56.9608 180.698 56.9608C180.938 55.8882 181.369 55.3469 181.59 54.2643C181.8 53.1817 181.57 51.8786 180.608 51.3272C182.181 51.1167 184.166 50.4752 184.226 48.8914C184.256 48.1897 183.845 47.5281 183.845 46.8164C183.845 46.2951 184.066 45.7939 184.166 45.2827C184.647 42.8368 182.432 40.7618 180.437 39.2581C181.51 38.8371 182.612 38.3961 183.414 37.5841C184.216 36.7721 184.667 35.469 184.156 34.4465C185.961 34.3864 187.053 32.0808 186.371 30.4168L186.392 30.3968Z" fill="#263238"/>
<path d="M151.94 83.4955C151.619 79.4457 151.188 74.3635 151.188 74.3835C151.188 74.3835 160.551 72.7897 162.445 60.5502C163.387 54.4655 163.037 44.4915 162.485 36.3418C161.994 29.0041 155.148 19.3809 146.086 19.8922L142.036 19.6616L126.99 26.6986C124.774 26.9392 123.11 28.8438 123.16 31.0791L126.078 85.8211L147.078 93.7502L152.14 89.6804L151.94 83.4955Z" fill="#FFBF9D"/>
<path d="M144.15 58.7955C144.201 58.1539 144.521 57.5725 144.942 57.1515C145.804 56.3295 147.118 56.1692 148.12 56.7806C149.122 57.3921 149.764 58.7253 149.654 60.0084C149.153 60.7903 148.351 61.3416 147.438 61.4719C147.298 61.492 147.158 61.502 147.007 61.512C146.306 61.5321 145.584 61.3416 145.023 60.8605C144.461 60.3793 144.08 59.5874 144.14 58.7955H144.15Z" fill="#6F4439"/>
<path d="M157.634 47.3681C157.664 48.2001 156.992 48.9118 156.13 48.9619C155.268 49.0121 154.536 48.3805 154.506 47.5585C154.476 46.7265 155.148 46.0148 156.01 45.9647C156.872 45.9146 157.604 46.5461 157.634 47.3681Z" fill="#263238"/>
<path d="M159.61 40.581C159.42 40.7815 158.227 39.9094 156.533 39.9194C154.849 39.9094 153.616 40.7815 153.426 40.571C153.335 40.4807 153.536 40.1098 154.067 39.7189C154.598 39.328 155.501 38.937 156.553 38.937C157.606 38.937 158.488 39.3179 158.999 39.7189C159.52 40.1098 159.701 40.4807 159.6 40.571L159.61 40.581Z" fill="#263238"/>
<path d="M149.933 54.4145C149.933 54.3142 150.976 54.1338 152.67 53.9033C153.101 53.8531 153.512 53.7729 153.582 53.4722C153.682 53.1615 153.502 52.7004 153.291 52.1991C152.88 51.1566 152.449 50.064 151.998 48.9212C150.214 44.26 148.911 40.4208 149.101 40.3506C149.292 40.2804 150.896 43.9994 152.68 48.6706C153.111 49.8234 153.522 50.9161 153.913 51.9686C154.083 52.4598 154.364 53.0111 154.143 53.6627C154.033 53.9834 153.712 54.224 153.442 54.2942C153.161 54.3844 152.921 54.3844 152.71 54.3944C150.996 54.4947 149.943 54.5047 149.933 54.4145Z" fill="#263238"/>
<path d="M151.189 74.3843C151.189 74.3843 142.97 74.9457 134.79 70.084C134.79 70.084 139.19 78.5444 151.42 77.3415L151.179 74.3743L151.189 74.3843Z" fill="#6F4439"/>
<path d="M144.981 55.6076C145.251 55.5875 145.261 57.422 146.835 58.7151C148.409 60.0082 150.354 59.7977 150.374 60.0583C150.404 60.1686 149.943 60.4192 149.121 60.4392C148.309 60.4693 147.126 60.2187 146.163 59.4268C145.201 58.6349 144.79 57.5723 144.72 56.8205C144.65 56.0587 144.85 55.5976 144.971 55.6076H144.981Z" fill="#263238"/>
<path d="M159.618 36.8328C159.337 37.2437 158.044 36.9731 156.53 37.1034C155.017 37.1836 153.774 37.6347 153.443 37.2638C153.293 37.0834 153.453 36.6824 153.974 36.2614C154.485 35.8504 155.378 35.4594 156.42 35.3893C157.463 35.3191 158.395 35.5697 158.956 35.9105C159.528 36.2514 159.738 36.6222 159.618 36.8227V36.8328Z" fill="#263238"/>
<path d="M139.691 47.439C139.691 48.271 140.402 48.9427 141.264 48.9527C142.127 48.9627 142.828 48.3011 142.818 47.4691C142.818 46.6371 142.107 45.9655 141.244 45.9454C140.382 45.9354 139.681 46.597 139.691 47.429V47.439Z" fill="#263238"/>
<path d="M137.165 41.2836C137.366 41.4841 138.518 40.5518 140.202 40.4817C141.887 40.3914 143.16 41.2034 143.33 40.9929C143.42 40.9027 143.2 40.5418 142.648 40.1709C142.097 39.8 141.185 39.4592 140.132 39.5093C139.08 39.5594 138.218 39.9804 137.727 40.4015C137.225 40.8225 137.065 41.1934 137.165 41.2836Z" fill="#263238"/>
<path d="M137.855 35.8309C138.206 36.2018 139.489 35.7508 141.052 35.6605C142.616 35.5302 143.949 35.8009 144.24 35.3799C144.37 35.1794 144.14 34.8085 143.548 34.4677C142.967 34.1268 141.995 33.8762 140.922 33.9464C139.85 34.0266 138.927 34.4075 138.406 34.8185C137.865 35.2395 137.704 35.6405 137.855 35.8209V35.8309Z" fill="#263238"/>
<path d="M126.47 51.4383C126.47 50.5261 125.397 48.3809 124.505 48.2506C122.099 47.8897 117.779 48.1002 117.759 54.1949C117.739 62.535 126.119 60.8309 126.129 60.5903C126.139 60.3999 126.49 54.5758 126.47 51.4383Z" fill="#FFBF9D"/>
<path d="M123.832 57.5436C123.832 57.5436 123.682 57.6438 123.441 57.7541C123.2 57.8644 122.79 57.9345 122.358 57.7742C121.476 57.4534 120.745 56.05 120.704 54.5464C120.684 53.7845 120.845 53.0628 121.115 52.4714C121.376 51.8599 121.767 51.4389 122.208 51.3587C122.649 51.2584 122.96 51.5191 123.06 51.7597C123.17 51.9902 123.12 52.1606 123.16 52.1706C123.18 52.1907 123.341 52.0303 123.271 51.6895C123.241 51.5191 123.14 51.3286 122.94 51.1682C122.739 51.0078 122.449 50.9176 122.138 50.9577C121.496 50.9978 120.915 51.5892 120.614 52.2508C120.283 52.9124 120.083 53.7244 120.103 54.5764C120.153 56.2605 121.005 57.8343 122.218 58.1851C122.8 58.3355 123.291 58.1651 123.551 57.9646C123.812 57.7641 123.852 57.5737 123.822 57.5536L123.832 57.5436Z" fill="#6F4439"/>
<path d="M119.292 57.2515C119.292 57.2515 118.841 57.3918 118.179 57.9131C117.528 58.4243 116.686 59.4267 116.405 60.9404C116.254 61.6822 116.264 62.5342 116.495 63.3963C116.746 64.2484 117.207 65.1205 117.908 65.8422C118.59 66.574 119.492 67.1854 120.545 67.5162C121.587 67.8571 122.78 67.8771 123.893 67.5363C125.006 67.2055 125.998 66.574 126.73 65.752C127.461 64.93 127.903 63.9176 128.053 62.9252C128.344 60.9103 127.582 59.0759 126.509 58.0133C125.958 57.472 125.336 57.1613 124.785 56.9407C124.234 56.7202 123.722 56.6099 123.301 56.5799C122.88 56.5498 122.55 56.5799 122.339 56.63C122.129 56.6801 122.018 56.7302 122.018 56.7403C122.018 56.7703 122.469 56.5899 123.291 56.7002C123.702 56.7503 124.194 56.8706 124.725 57.1011C125.256 57.3317 125.858 57.6525 126.369 58.1737C127.381 59.2062 128.093 60.9805 127.802 62.9051C127.652 63.8574 127.231 64.8097 126.529 65.5816C125.838 66.3635 124.885 66.9649 123.823 67.2757C122.76 67.5964 121.637 67.5764 120.645 67.2556C119.653 66.9449 118.781 66.3635 118.119 65.6618C117.447 64.9701 116.996 64.1481 116.746 63.3261C116.515 62.5041 116.485 61.6822 116.625 60.9705C116.876 59.5169 117.668 58.5246 118.269 57.9933C118.891 57.452 119.332 57.2715 119.312 57.2415L119.292 57.2515Z" fill="#1FD39D"/>
<path d="M139.387 22.5474C133.743 22.5474 128.099 23.65 122.867 25.7852C121.313 26.4167 119.699 27.2186 118.827 28.6621C118.065 29.9251 117.985 31.4889 118.025 32.9625C118.146 37.5936 120.1 43.2372 121.935 47.4875L127.769 50.8656C132.209 49.7429 130.044 42.0845 129.774 38.2352C132.861 36.8218 134.976 33.5138 134.966 30.1156C137.482 28.4416 139.166 25.5646 139.377 22.5474H139.387Z" fill="#263238"/>
<path d="M137.738 20.3421C135.883 20.1717 133.979 21.1139 132.986 22.6777C131.994 24.2515 131.964 26.3766 132.916 27.9705C130.901 28.211 129.207 30.0655 129.137 32.0904C129.067 34.1153 130.621 36.08 132.605 36.4709C131.412 36.9722 130.621 38.2553 130.58 39.5484C130.54 40.8415 131.192 42.1146 132.194 42.9466C132.896 43.528 133.808 43.9189 134.72 43.8387C135.633 43.7585 136.515 43.147 136.755 42.2649C136.996 41.3828 136.435 40.3202 135.532 40.1498C136.775 39.8391 137.487 38.4156 137.417 37.1426C137.347 35.8595 136.695 34.6866 136.044 33.594C137.397 32.8322 137.577 30.6168 136.364 29.6445C138.309 29.4039 140.043 27.9003 140.544 26.0057C140.665 25.5446 140.334 24.8028 139.963 25.0935C141.336 24.6725 142.128 22.9584 141.577 21.6452" fill="#263238"/>
<path d="M166.754 39.1288C167.385 35.6705 165.661 32.974 163.115 30.5381C165.12 27.1299 164.077 22.2581 160.86 19.9726C161.2 18.4991 160.619 16.8551 159.426 15.9329C158.233 15.0006 156.499 14.8402 155.156 15.5319C154.043 14.1185 152.84 12.645 151.146 12.0134C149.462 11.3819 147.167 12.0134 146.645 13.7376C145.001 11.1113 140.781 10.6501 138.616 12.8655C136.381 11.7929 133.353 13.9381 133.624 16.404L136.501 20.3235C135.098 21.2357 134.376 23.0801 134.787 24.7141C135.198 26.338 136.701 27.6311 138.365 27.7714C137.694 29.656 138.215 31.9214 139.638 33.3248C140.3 33.9764 141.713 34.247 141.934 33.3348C142.596 34.1869 144.129 33.4551 144.34 32.3926C144.55 31.33 143.949 30.2975 143.378 29.3853C144.41 29.7462 145.683 29.1848 146.104 28.1724C146.525 27.1599 146.044 25.8568 145.052 25.3756C145.934 25.4358 146.816 25.4959 147.698 25.5661C147.517 26.8893 147.768 28.3328 148.67 29.3151C149.572 30.2975 151.216 30.6183 152.279 29.8164C151.607 32.3825 154.013 35.2394 156.649 35.0089C156.649 35.0089 157.993 35.5101 158.654 33.9263C159.306 32.3424 158.654 30.3877 158.654 30.3877C158.654 30.3877 159.216 34.9888 161.17 35.48C161.902 35.6604 162.353 36.5827 162.634 37.6653C163.105 39.4696 165.24 40.2315 166.754 39.1388V39.1288Z" fill="#263238"/>
<path d="M129.438 48.5611C131.022 47.7892 131.383 45.3132 130.099 44.1103C131.292 42.7571 130.711 40.2911 129.047 39.5995C130.089 38.1259 130.28 36.0409 129.398 34.4671C128.516 32.8833 126.551 31.951 124.797 32.3821C123.042 32.8131 121.709 34.6676 121.99 36.4519L122.782 44.5815C122.301 45.0526 122.251 45.9047 122.682 46.436C123.103 46.9672 123.945 47.0975 124.516 46.7267C123.694 47.7291 123.433 49.1525 123.834 50.3855C123.975 50.7965 124.205 51.2175 124.596 51.418C124.827 51.5383 125.117 51.5383 125.358 51.438C124.737 52.2399 124.827 53.5832 125.659 54.1947C126.631 54.9164 128.255 54.3851 128.606 53.2223C129.107 53.6533 129.929 53.493 130.38 53.0118C130.831 52.5407 130.982 51.849 130.992 51.1874C131.012 50.0847 130.52 48.7916 129.438 48.5611Z" fill="#263238"/>
<path d="M163.817 42.9681C163.817 42.9681 164.038 43.0182 164.459 43.0082C164.88 42.9981 165.521 42.8979 166.203 42.4669C166.534 42.2463 166.884 41.9556 167.165 41.5547C167.436 41.1537 167.646 40.6525 167.676 40.0811C167.717 39.5097 167.586 38.8983 167.285 38.3269C166.985 37.7555 166.504 37.2242 165.842 36.9235L165.742 36.8734L165.832 36.8032C166.885 36.0013 167.356 34.3473 166.834 32.8737C166.584 32.142 166.063 31.4603 165.321 31.0894C164.95 30.909 164.529 30.7987 164.118 30.8589C163.917 30.8789 163.707 30.9491 163.536 31.0594C163.366 31.1796 163.216 31.33 163.115 31.5104C162.895 31.8713 162.905 32.3625 163.216 32.6532C163.516 32.9439 164.018 32.974 164.429 32.8336C164.86 32.7033 165.17 32.3324 165.321 31.9014C165.481 31.4703 165.491 30.9792 165.431 30.508C165.321 29.5557 164.94 28.6034 164.298 27.8416C163.978 27.4707 163.597 27.1299 163.135 26.9394C162.684 26.749 162.153 26.7389 161.702 26.9394L161.441 27.0597L161.572 26.7991C162.273 25.4759 162.484 23.7417 161.842 22.2581C161.602 21.7269 161.261 21.2457 160.82 20.8848C160.379 20.524 159.848 20.2834 159.306 20.1531C158.214 19.8824 156.991 20.1531 156.249 20.945L156.088 20.8247C156.499 20.2132 156.419 19.4012 156.088 18.7798C155.748 18.1482 155.176 17.647 154.515 17.4566C153.843 17.2461 153.131 17.2661 152.46 17.4064C151.788 17.5468 151.157 17.7974 150.555 18.0981L150.405 18.1683L150.425 17.9979C150.525 17.0556 150.174 16.1334 149.613 15.4517C149.052 14.7601 148.24 14.309 147.418 14.2288C146.586 14.1386 145.774 14.3892 145.132 14.8102C144.491 15.2312 144.009 15.8427 143.769 16.5043L143.729 16.6145L143.648 16.5243C142.636 15.4217 141.283 14.9305 140.12 14.8102C138.947 14.6799 137.925 14.9204 137.153 15.2212C136.381 15.5319 135.87 15.9329 135.539 16.2236C135.379 16.374 135.268 16.4942 135.188 16.5744C135.108 16.6546 135.068 16.6947 135.068 16.6947C135.068 16.6947 135.208 16.5143 135.509 16.1935C135.83 15.9028 136.341 15.4818 137.113 15.151C137.885 14.8302 138.917 14.5896 140.12 14.6999C140.721 14.74 141.353 14.9104 141.974 15.1811C142.596 15.4517 143.217 15.8627 143.739 16.4341L143.618 16.4541C143.859 15.7625 144.36 15.1209 145.032 14.6799C145.693 14.2388 146.545 13.9782 147.418 14.0584C149.172 14.2087 150.776 16.0031 150.595 18.0179L150.465 17.9277C151.066 17.627 151.718 17.3663 152.41 17.216C153.101 17.0656 153.843 17.0456 154.555 17.2661C155.277 17.4766 155.888 18.0079 156.249 18.6895C156.429 19.0304 156.55 19.4012 156.56 19.8022C156.58 20.1932 156.469 20.6041 156.249 20.9349L156.088 20.8147C156.89 19.9526 158.194 19.6719 159.336 19.9626C159.908 20.1029 160.469 20.3535 160.94 20.7345C161.411 21.1154 161.772 21.6266 162.023 22.1779C162.694 23.7417 162.464 25.526 161.742 26.8993L161.612 26.759C162.123 26.5385 162.714 26.5485 163.206 26.759C163.707 26.9595 164.108 27.3304 164.449 27.7213C165.11 28.5132 165.511 29.4956 165.621 30.488C165.672 30.9792 165.672 31.4904 165.491 31.9716C165.401 32.2121 165.281 32.4327 165.11 32.6131C164.94 32.8036 164.709 32.9339 164.479 33.0141C164.018 33.1745 163.446 33.1444 163.075 32.7835C162.895 32.6031 162.785 32.3625 162.775 32.1119C162.765 31.8613 162.835 31.6207 162.945 31.4102C163.055 31.1997 163.226 31.0293 163.426 30.899C163.627 30.7687 163.857 30.6985 164.078 30.6684C164.539 30.6183 164.99 30.7286 165.371 30.929C166.153 31.32 166.704 32.0417 166.965 32.8136C167.496 34.3573 167.005 36.0714 165.892 36.9135V36.7932C166.564 37.114 167.065 37.6753 167.366 38.2667C167.666 38.8682 167.797 39.4997 167.757 40.0911C167.727 40.6826 167.496 41.2038 167.215 41.6148C166.925 42.0258 166.564 42.3265 166.223 42.537C165.521 42.9681 164.87 43.0583 164.439 43.0483C164.008 43.0483 163.797 42.9681 163.797 42.9681H163.817Z" fill="#455A64"/>
<path d="M111.785 59.3366C111.785 59.3366 111.555 59.3366 111.144 59.1963C110.733 59.0559 110.131 58.7753 109.58 58.1337C109.309 57.823 109.048 57.422 108.878 56.9408C108.718 56.4597 108.637 55.8883 108.748 55.2869C108.848 54.6954 109.129 54.084 109.57 53.5527C110.011 53.0314 110.632 52.5803 111.394 52.3899L111.434 52.5102C111.063 52.6906 110.612 52.7006 110.211 52.5503C109.81 52.4099 109.439 52.1393 109.169 51.7884C108.607 51.0567 108.557 50.0442 108.728 49.112C108.808 48.6408 108.928 48.1697 109.079 47.6986C109.229 47.2274 109.439 46.7463 109.74 46.3253C110.041 45.9042 110.482 45.5434 110.993 45.3629C111.504 45.1825 112.116 45.1725 112.617 45.4832L112.717 45.5434L112.637 45.6236C111.905 46.3152 110.753 46.4455 109.79 46.0646C109.309 45.8742 108.868 45.5534 108.567 45.1123C108.257 44.6813 108.076 44.16 108.026 43.6187C107.906 42.5461 108.317 41.3934 109.159 40.6516C109.981 39.8998 111.123 39.4888 112.276 39.5188H112.417L112.366 39.6592C112.286 39.8597 112.116 40.0401 111.905 40.1203C111.705 40.2005 111.474 40.2105 111.274 40.1704C110.853 40.1002 110.472 39.8597 110.231 39.4888C110.001 39.0978 110.001 38.6568 110.081 38.2458C110.161 37.8348 110.342 37.4539 110.542 37.083C110.753 36.7221 110.973 36.3813 111.204 36.0304C111.434 35.6896 111.685 35.3488 111.976 35.028C112.537 34.3965 113.349 33.9053 114.241 33.9053C114.592 33.9053 114.943 33.9855 115.243 34.1659L115.534 34.3364L115.193 34.3564C114.04 34.4266 112.938 33.8051 112.296 32.8929C111.986 32.4318 111.775 31.9005 111.745 31.3391C111.705 30.7878 111.845 30.2365 112.076 29.7453C112.567 28.783 113.499 28.0312 114.572 27.9109C115.103 27.8708 115.644 28.0011 116.095 28.2818C116.316 28.4221 116.516 28.6126 116.657 28.8431C116.797 29.0737 116.857 29.3543 116.837 29.615V29.6751L116.767 29.6952C116.426 29.8054 116.045 29.7553 115.735 29.5949C115.424 29.4345 115.183 29.1839 114.993 28.8932C114.632 28.3319 114.512 27.6001 114.742 26.9786C114.963 26.3571 115.394 25.8559 115.875 25.465C116.356 25.064 116.887 24.7633 117.419 24.4826L117.369 24.5728C117.168 23.4401 117.439 22.2973 117.99 21.3851C118.541 20.4629 119.383 19.7712 120.326 19.4404C121.268 19.1096 122.26 19.1297 123.132 19.3703C124.005 19.6209 124.766 20.102 125.318 20.7235L125.197 20.7636C125.217 19.9216 125.488 19.1497 125.879 18.5182C126.27 17.8867 126.781 17.3855 127.343 17.0447C127.894 16.6938 128.485 16.5134 129.037 16.4332C129.588 16.363 130.099 16.4031 130.54 16.4933C131.432 16.6738 132.034 17.0547 132.405 17.3354C132.776 17.6261 132.916 17.8266 132.916 17.8266C132.916 17.8266 132.866 17.7865 132.786 17.7063C132.706 17.6261 132.565 17.5058 132.385 17.3654C132.014 17.0948 131.402 16.7339 130.53 16.5635C130.099 16.4833 129.598 16.4532 129.057 16.5234C128.525 16.6036 127.944 16.784 127.413 17.1349C126.871 17.4757 126.38 17.9669 125.999 18.5884C125.628 19.2099 125.368 19.9617 125.348 20.7737V20.9441L125.227 20.8138C124.696 20.2223 123.954 19.7512 123.102 19.5206C122.25 19.2901 121.288 19.2801 120.386 19.6008C119.484 19.9216 118.672 20.5932 118.15 21.4854C117.629 22.3675 117.369 23.4702 117.559 24.5628V24.6229L117.509 24.653C116.988 24.9337 116.466 25.2344 116.005 25.6254C115.544 26.0063 115.133 26.4874 114.933 27.0588C114.722 27.6202 114.832 28.2918 115.163 28.813C115.334 29.0737 115.554 29.3042 115.825 29.4446C116.095 29.5849 116.416 29.625 116.707 29.5348L116.637 29.615C116.687 29.1539 116.386 28.7128 115.985 28.4622C115.574 28.2016 115.073 28.0813 114.592 28.1214C113.599 28.2216 112.717 28.9333 112.256 29.8455C112.036 30.3066 111.905 30.8179 111.945 31.3391C111.976 31.8504 112.166 32.3516 112.467 32.7826C113.068 33.6347 114.111 34.2261 115.183 34.1559L115.143 34.3464C114.873 34.196 114.562 34.1158 114.251 34.1158C113.85 34.1158 113.449 34.2361 113.088 34.4165C112.727 34.607 112.417 34.8777 112.136 35.1684C111.585 35.7698 111.154 36.4916 110.733 37.1732C110.532 37.524 110.362 37.8849 110.291 38.2759C110.221 38.6467 110.231 39.0678 110.422 39.3785C110.622 39.6893 110.963 39.8998 111.324 39.9699C111.685 40.0401 112.076 39.9098 112.196 39.579L112.286 39.7193C111.184 39.6893 110.091 40.0802 109.309 40.7919C108.507 41.5036 108.126 42.5862 108.237 43.5987C108.287 44.1099 108.457 44.5911 108.748 45.0021C109.028 45.403 109.439 45.7138 109.891 45.8942C110.783 46.2551 111.875 46.1248 112.547 45.4933V45.6336C112.126 45.3529 111.565 45.3529 111.083 45.5233C110.602 45.6937 110.191 46.0145 109.901 46.4255C109.61 46.8265 109.409 47.2876 109.259 47.7487C109.109 48.2098 108.988 48.6809 108.908 49.142C108.748 50.0542 108.798 51.0266 109.309 51.6982C109.81 52.3598 110.712 52.7307 111.404 52.3899L111.444 52.5102C110.723 52.6906 110.111 53.1116 109.68 53.6228C109.249 54.1341 108.968 54.7155 108.868 55.2969C108.748 55.8783 108.828 56.4296 108.978 56.9007C109.139 57.3719 109.389 57.7628 109.65 58.0836C110.181 58.7151 110.773 59.0058 111.174 59.1562C111.575 59.2965 111.805 59.3065 111.805 59.3266L111.785 59.3366Z" fill="#455A64"/>
<path d="M98.1072 55.1371C98.1072 55.1371 98.047 55.1571 97.9167 55.1972C97.8566 55.2173 97.7763 55.2273 97.6761 55.2373C97.5759 55.2574 97.4656 55.2574 97.3453 55.2473C96.8441 55.2473 96.0622 55.0068 95.3906 54.295C95.0598 53.9442 94.7491 53.4831 94.5887 52.9017C94.4283 52.3303 94.4082 51.6687 94.5285 50.9871C94.6588 50.3054 94.9195 49.6037 95.3004 48.9121C95.4908 48.5712 95.7014 48.2204 95.952 47.8896C96.2026 47.5688 96.5534 47.228 97.0346 47.1879V47.3282C96.6236 47.3884 96.1625 47.2581 95.8016 46.9874C95.4407 46.7268 95.15 46.3459 94.9696 45.9148C94.6087 45.0227 94.8192 44.0002 95.2002 43.098C95.5811 42.1858 96.1023 41.2736 96.8842 40.5419C97.2752 40.181 97.7262 39.8502 98.2575 39.6698C98.7788 39.4793 99.4003 39.4994 99.9315 39.7399L99.8413 39.9003C99.2499 39.5695 98.879 38.938 98.7487 38.2864C98.6084 37.6248 98.6484 36.9332 98.7788 36.2716C98.9191 35.6 99.1396 34.9484 99.4704 34.3269C99.8113 33.7154 100.302 33.134 100.984 32.8333C101.656 32.5526 102.478 32.5226 103.139 32.9135C103.47 33.114 103.741 33.4147 103.861 33.7956C103.921 33.9861 103.931 34.1966 103.861 34.3971C103.801 34.5976 103.651 34.768 103.46 34.8582C103.089 35.0386 102.638 34.9985 102.297 34.768C101.966 34.5274 101.776 34.1665 101.656 33.7956C101.445 33.0538 101.455 32.2619 101.626 31.5101C102.127 29.3349 103.991 27.5506 106.136 27.31V27.5105C105.655 27.4002 105.244 27.0794 105.004 26.6785C104.753 26.2775 104.643 25.8164 104.633 25.3553C104.603 24.4531 104.954 23.5209 105.645 22.9395C106.307 22.358 107.139 22.0273 107.961 21.8468C108.783 21.6564 109.605 21.5962 110.407 21.5361L110.337 21.6764C109.735 20.6539 109.815 19.4009 110.246 18.4085C110.677 17.4061 111.479 16.6042 112.432 16.2132C113.374 15.8022 114.386 15.7321 115.309 15.8624C116.241 15.9927 117.093 16.3235 117.825 16.7545H117.734C118.998 15.5516 120.511 14.9201 121.844 14.6795C123.198 14.4189 124.401 14.5292 125.333 14.7397C126.275 14.9502 126.947 15.281 127.388 15.5216C127.608 15.6419 127.759 15.7621 127.869 15.8323C127.979 15.9025 128.029 15.9426 128.029 15.9426C128.029 15.9426 127.969 15.9125 127.859 15.8524C127.749 15.7922 127.588 15.682 127.368 15.5617C126.927 15.3311 126.245 15.0204 125.313 14.8199C124.391 14.6294 123.198 14.5292 121.864 14.7998C120.541 15.0605 119.058 15.682 117.825 16.8849L117.785 16.925L117.734 16.8949C117.013 16.4739 116.171 16.1631 115.269 16.0428C114.366 15.9225 113.384 15.9927 112.482 16.3937C111.58 16.7746 110.818 17.5464 110.397 18.5088C109.976 19.4611 109.916 20.6539 110.487 21.6062L110.567 21.7366H110.417C109.615 21.8067 108.803 21.8769 108.001 22.0573C107.199 22.2378 106.407 22.5585 105.776 23.1099C105.134 23.6512 104.813 24.5132 104.833 25.3653C104.843 25.7963 104.954 26.2274 105.174 26.5882C105.395 26.9491 105.746 27.2298 106.167 27.33L106.738 27.4603L106.157 27.5205C104.102 27.741 102.297 29.4752 101.816 31.5703C101.646 32.292 101.646 33.0538 101.846 33.7455C101.946 34.0863 102.127 34.4071 102.408 34.6076C102.678 34.798 103.069 34.8281 103.35 34.6878C103.651 34.5474 103.751 34.1765 103.64 33.8658C103.54 33.545 103.3 33.2744 103.009 33.104C102.418 32.7531 101.656 32.7732 101.034 33.0338C100.413 33.3145 99.9416 33.8558 99.6208 34.4372C99.3 35.0286 99.0795 35.6802 98.9391 36.3317C98.8088 36.9833 98.7687 37.6449 98.899 38.2764C99.0193 38.8979 99.3602 39.4693 99.8915 39.77L99.8012 39.9304C99.3201 39.6999 98.7587 39.6898 98.2675 39.8602C97.7764 40.0306 97.3353 40.3414 96.9644 40.6922C96.2026 41.404 95.6813 42.2861 95.3104 43.1883C94.9395 44.0704 94.739 45.0528 95.0698 45.8848C95.3806 46.6967 96.1825 47.3182 96.9845 47.208V47.3483C96.5835 47.3784 96.2627 47.6791 96.0121 47.9898C95.7615 48.3106 95.551 48.6514 95.3605 48.9923C94.9796 49.6639 94.719 50.3555 94.5887 51.0272C94.4584 51.6888 94.4784 52.3403 94.6288 52.9017C94.7791 53.463 95.0798 53.9141 95.4006 54.265C96.0522 54.9667 96.814 55.2173 97.3052 55.2273C97.8064 55.2473 98.057 55.1371 98.0671 55.1571L98.1072 55.1371Z" fill="#455A64"/>
<path d="M126.507 48.6608C126.507 48.6608 126.357 48.7912 126.016 48.8914C125.675 48.9916 125.104 49.0217 124.482 48.731C124.171 48.5907 123.851 48.3701 123.58 48.0594C123.299 47.7486 123.099 47.3276 123.009 46.8565C122.808 45.9142 123.069 44.7715 123.77 43.7991L123.811 43.9294C123.069 43.7089 122.377 43.2177 121.866 42.5361C121.365 41.8544 121.044 40.9623 121.104 40.03C121.194 38.1455 123.069 36.4013 125.184 36.5516V36.7521C125.003 36.7722 124.803 36.7521 124.622 36.6719C124.262 36.5116 123.991 36.2008 123.851 35.85C123.71 35.4991 123.69 35.1182 123.71 34.7573C123.77 34.0456 123.881 33.3539 124.151 32.7124C124.292 32.3916 124.472 32.0909 124.703 31.8403C124.933 31.5897 125.244 31.3992 125.565 31.299C125.886 31.1987 126.226 31.1787 126.557 31.2489C126.878 31.319 127.179 31.5095 127.369 31.7801L127.55 32.0408L127.259 31.9205C126.487 31.6097 125.886 31.0384 125.485 30.3968C125.284 30.076 125.134 29.7352 125.033 29.3944C124.933 29.0536 124.883 28.7027 124.863 28.3719C124.853 27.7003 125.023 27.0588 125.324 26.5576C125.615 26.0463 125.996 25.6554 126.387 25.3647C127.169 24.7833 127.961 24.6129 128.472 24.5828C128.993 24.5527 129.264 24.6429 129.264 24.6429C129.264 24.663 128.983 24.6028 128.472 24.6429C127.971 24.6931 127.209 24.8735 126.447 25.4549C126.076 25.7356 125.705 26.1265 125.434 26.6277C125.154 27.1189 125.003 27.7204 125.013 28.3719C125.033 28.6927 125.084 29.0235 125.184 29.3543C125.294 29.6851 125.434 30.0059 125.625 30.3066C126.006 30.9181 126.597 31.4493 127.319 31.7501L127.209 31.8904C126.888 31.4193 126.196 31.299 125.615 31.4894C125.013 31.6599 124.572 32.1911 124.322 32.7926C124.071 33.4041 123.961 34.0857 123.901 34.7774C123.881 35.1182 123.901 35.469 124.021 35.7798C124.141 36.0805 124.382 36.3612 124.683 36.4915C124.833 36.5617 124.993 36.5817 125.134 36.5617V36.7622C123.159 36.6118 121.355 38.2758 121.274 40.0501C121.214 40.9322 121.515 41.7843 121.986 42.4358C122.467 43.0974 123.129 43.5686 123.831 43.7791L123.941 43.8091L123.871 43.8994C123.189 44.8216 122.928 45.9242 123.109 46.8264C123.269 47.7486 123.911 48.3601 124.492 48.6408C125.084 48.9315 125.635 48.9114 125.976 48.8313C126.317 48.7511 126.477 48.6308 126.477 48.6508L126.507 48.6608Z" fill="#455A64"/>
<path d="M146.076 24.8334C146.076 24.8334 146.036 24.5026 145.665 24.0616C145.304 23.6305 144.542 23.2095 143.54 23.0792C143.038 23.0191 142.477 23.009 141.886 23.0792C141.304 23.1594 140.673 23.3498 140.161 23.7608C139.66 24.1618 139.239 24.8034 139.269 25.5151C139.279 25.8559 139.41 26.2168 139.66 26.4674C139.901 26.718 140.282 26.8082 140.643 26.728C141.003 26.6478 141.304 26.4172 141.515 26.1265C141.725 25.8258 141.845 25.475 141.906 25.1241C142.026 24.4224 141.906 23.7007 141.615 23.1093C141.334 22.5078 140.903 22.0166 140.412 21.6959C139.921 21.3651 139.38 21.2147 138.878 21.1746C137.866 21.0944 137.074 21.4553 136.603 21.756C136.132 22.0768 135.941 22.3374 135.921 22.3174C135.921 22.3174 136.092 22.0367 136.553 21.6858C137.014 21.355 137.826 20.9641 138.878 21.0242C139.4 21.0543 139.981 21.2047 140.492 21.5455C141.013 21.8763 141.465 22.3875 141.775 23.0191C142.076 23.6405 142.226 24.3924 142.096 25.1542C142.036 25.5251 141.906 25.906 141.675 26.2368C141.455 26.5676 141.094 26.8383 140.683 26.9185C140.282 27.0187 139.811 26.9185 139.52 26.6077C139.229 26.307 139.089 25.906 139.079 25.5151C139.059 24.7232 139.52 24.0415 140.061 23.6105C140.612 23.1694 141.274 22.989 141.886 22.9088C142.497 22.8386 143.068 22.8587 143.58 22.9288C144.612 23.0792 145.394 23.5303 145.745 24.0014C145.935 24.232 146.005 24.4525 146.056 24.5928C146.086 24.7432 146.096 24.8234 146.096 24.8234L146.076 24.8334Z" fill="#455A64"/>
<path d="M170.984 24.8439C170.984 24.8439 171.004 24.6334 170.984 24.2324C170.954 23.8315 170.863 23.24 170.522 22.5584C170.182 21.8868 169.56 21.1249 168.558 20.7039C167.585 20.2829 166.242 20.2027 165.039 20.8242L164.919 20.8844V20.7541C165.019 19.5211 165.15 18.1478 164.819 16.7444C164.648 16.0527 164.348 15.361 163.866 14.7696C163.395 14.1882 162.734 13.7071 161.952 13.5567C161.571 13.4865 161.16 13.5066 160.799 13.677C160.448 13.8374 160.178 14.1782 160.097 14.5591C160.057 14.7496 160.067 14.9501 160.137 15.1305C160.218 15.3109 160.348 15.4513 160.518 15.5415C160.869 15.7219 161.33 15.6818 161.671 15.4813C162.032 15.2809 162.222 14.8699 162.233 14.4489C162.233 14.0278 162.092 13.5968 161.822 13.256C161.28 12.5643 160.348 12.2736 159.446 12.1734C157.702 11.9729 155.937 12.3538 154.494 13.1858L154.283 13.3061L154.354 13.0655C154.434 12.7748 154.474 12.4741 154.464 12.1734C154.454 11.8726 154.394 11.5719 154.303 11.2912C154.113 10.7199 153.792 10.2086 153.391 9.78761C152.589 8.93556 151.436 8.54462 150.354 8.47445C149.261 8.40428 148.189 8.60476 147.256 8.95561C146.805 9.14607 146.394 9.43677 146.104 9.79764C145.963 9.97807 145.853 10.1786 145.813 10.3991C145.773 10.6096 145.813 10.8301 145.923 11.0106L146.224 11.5318L145.803 11.1108C144.77 10.0583 143.437 9.58713 142.284 9.46684C141.112 9.33653 140.099 9.55706 139.327 9.83774C138.555 10.1284 138.024 10.5194 137.683 10.79C137.513 10.9304 137.403 11.0507 137.322 11.1309C137.242 11.211 137.192 11.2411 137.192 11.2411C137.192 11.2411 137.232 11.191 137.302 11.1108C137.383 11.0306 137.493 10.9003 137.653 10.7499C137.984 10.4592 138.515 10.0583 139.297 9.74752C140.079 9.44679 141.112 9.20621 142.304 9.33653C143.487 9.44679 144.851 9.91793 145.923 11.0005L145.803 11.0908C145.683 10.8802 145.622 10.6196 145.673 10.369C145.713 10.1184 145.843 9.88786 145.993 9.6974C146.304 9.30645 146.735 9.00573 147.206 8.79522C148.169 8.42433 149.251 8.22385 150.384 8.28399C151.497 8.35416 152.7 8.75513 153.552 9.64728C153.973 10.0883 154.313 10.6196 154.514 11.2211C154.604 11.5218 154.664 11.8325 154.684 12.1533C154.684 12.4741 154.654 12.7949 154.564 13.1156L154.414 12.9953C155.897 12.1433 157.702 11.7423 159.486 11.9528C159.957 12.003 160.418 12.1032 160.859 12.2836C161.3 12.4641 161.701 12.7347 162.002 13.1156C162.293 13.4966 162.463 13.9577 162.453 14.4388C162.453 14.91 162.222 15.4011 161.791 15.6417C161.38 15.8823 160.869 15.9224 160.438 15.7119C160.228 15.6016 160.057 15.4112 159.967 15.2007C159.877 14.9801 159.867 14.7396 159.917 14.519C160.017 14.078 160.328 13.687 160.729 13.5066C161.13 13.3161 161.581 13.3061 161.992 13.3763C162.824 13.5367 163.526 14.0479 164.007 14.6594C164.498 15.2708 164.819 15.9926 164.989 16.7043C165.32 18.1478 165.18 19.5311 165.079 20.7641L164.969 20.6939C166.222 20.0524 167.605 20.1526 168.598 20.5937C169.62 21.0448 170.252 21.8367 170.583 22.5183C170.923 23.21 171.004 23.8214 171.014 24.2324C171.014 24.6434 170.974 24.8439 170.974 24.8439H170.984Z" fill="#455A64"/>
<path d="M175.127 47.9593C175.127 47.9593 175.277 48.0595 175.508 48.3201C175.729 48.5808 176.019 49.0218 176.15 49.6734C176.28 50.3049 176.24 51.1971 175.658 51.9689C175.107 52.7207 174.045 53.3422 172.822 53.1819L172.621 53.1518L172.792 53.0415C173.122 52.841 173.553 52.811 173.934 52.9212C174.315 53.0415 174.676 53.2921 174.927 53.6329C175.177 53.9838 175.277 54.4249 175.277 54.8659C175.277 55.307 175.167 55.748 174.987 56.1691C174.275 57.8431 172.391 59.1563 170.275 59.0961V58.9057C170.646 58.8856 171.007 59.0259 171.298 59.2465C171.589 59.477 171.809 59.7778 171.959 60.1186C172.27 60.8103 172.17 61.6122 171.909 62.3139C171.649 63.0256 171.268 63.6772 170.867 64.3187C170.456 64.9603 169.975 65.5817 169.393 66.113C168.942 66.524 168.441 66.8749 167.87 67.0854C167.308 67.2959 166.677 67.346 166.095 67.1956L166.206 67.0353C166.907 68.0577 167.388 69.2306 167.419 70.4335C167.419 71.0249 167.328 71.6263 167.078 72.1576C166.827 72.6889 166.416 73.1299 165.935 73.4206C165.464 73.7214 164.923 73.9118 164.371 73.9319C163.83 73.9519 163.269 73.8216 162.858 73.4808C162.447 73.17 162.126 72.6588 162.216 72.1275C162.256 71.8569 162.457 71.6363 162.687 71.5261C162.908 71.4058 163.218 71.3958 163.429 71.5762L163.459 71.5962V71.6363C163.479 72.4583 163.218 73.2202 162.827 73.8417C162.427 74.4531 161.895 74.9343 161.324 75.245C160.752 75.5558 160.141 75.6861 159.58 75.6861C159.018 75.6861 158.517 75.5658 158.096 75.3954C157.244 75.0546 156.713 74.5333 156.422 74.1524C156.131 73.7715 156.041 73.5209 156.041 73.5209C156.051 73.5209 156.161 73.7514 156.462 74.1223C156.763 74.4832 157.294 74.9844 158.136 75.3052C158.557 75.4656 159.048 75.5859 159.59 75.5658C160.131 75.5658 160.722 75.4355 161.264 75.1248C161.815 74.824 162.316 74.3529 162.707 73.7514C163.078 73.15 163.329 72.4182 163.309 71.6263L163.339 71.6865C163.028 71.4258 162.457 71.7165 162.396 72.1476C162.326 72.5886 162.597 73.0498 162.978 73.3304C163.349 73.6412 163.87 73.7615 164.371 73.7414C164.882 73.7214 165.394 73.5409 165.835 73.2502C166.286 72.9696 166.667 72.5586 166.897 72.0574C167.128 71.5562 167.228 70.9948 167.218 70.4234C167.188 69.2706 166.717 68.1279 166.035 67.1355L165.885 66.915L166.145 66.9851C166.687 67.1255 167.258 67.0754 167.799 66.8749C168.331 66.6744 168.822 66.3436 169.253 65.9426C169.814 65.4214 170.285 64.8199 170.686 64.1884C171.087 63.5569 171.458 62.8953 171.709 62.2237C171.949 61.552 172.05 60.8102 171.759 60.1787C171.498 59.5572 170.917 59.046 170.265 59.0761V58.8856C172.28 58.9558 174.115 57.6927 174.806 56.0889C175.157 55.297 175.217 54.3647 174.766 53.7131C174.325 53.0716 173.443 52.7809 172.832 53.1418L172.802 53.0115C173.954 53.1718 174.987 52.5904 175.528 51.8687C176.089 51.1369 176.15 50.2749 176.029 49.6534C175.909 49.0118 175.638 48.5808 175.438 48.3101C175.227 48.0495 175.077 47.9392 175.087 47.9292L175.127 47.9593Z" fill="#455A64"/>
<path d="M174.222 39.0582C174.222 39.0582 174.262 38.998 174.362 38.9078C174.483 38.7976 174.623 38.6572 174.793 38.4868C175.154 38.1159 175.716 37.5947 176.137 36.7627C176.337 36.3517 176.487 35.8605 176.487 35.3292C176.487 34.7979 176.287 34.2366 175.906 33.7755C175.525 33.3043 175.024 32.8933 174.443 32.5926C173.861 32.2919 173.179 32.1014 172.498 32.2117C172.388 32.2317 172.277 32.2618 172.167 32.2919L172.117 32.0914C172.768 31.9711 173.27 31.4498 173.52 30.8885C173.781 30.3171 173.811 29.6756 173.751 29.0942C173.621 27.9213 173.33 26.8588 172.789 26.1571C172.257 25.4454 171.515 25.1847 171.034 25.1446C170.543 25.1146 170.282 25.2549 170.272 25.2248C170.272 25.2248 170.333 25.1847 170.463 25.1446C170.593 25.1045 170.784 25.0645 171.044 25.0645C171.546 25.0645 172.327 25.3251 172.899 26.0669C173.48 26.7986 173.791 27.8712 173.941 29.0741C174.001 29.6756 173.981 30.3372 173.701 30.9687C173.43 31.5802 172.889 32.1515 172.147 32.2919L172.097 32.0914C172.207 32.0613 172.327 32.0212 172.458 32.0112C173.2 31.8909 173.921 32.1014 174.533 32.4122C175.144 32.7329 175.655 33.164 176.056 33.6552C176.457 34.1463 176.668 34.7578 176.658 35.3292C176.658 35.9006 176.477 36.4118 176.267 36.8328C175.816 37.6749 175.234 38.1961 174.854 38.547C174.653 38.7174 174.503 38.8477 174.392 38.9379C174.282 39.0281 174.222 39.0682 174.222 39.0582Z" fill="#455A64"/>
<path d="M86.9132 62.5049C86.9332 62.4247 87.2239 62.4548 87.7151 62.3545C88.1963 62.2543 88.908 62.0037 89.6598 61.5325C90.0206 61.292 90.3815 60.9812 90.582 60.5802C90.7925 60.1793 90.8627 59.658 90.7023 59.227C90.6221 59.0065 90.4918 58.826 90.3013 58.6756C90.1109 58.5253 89.8803 58.4351 89.6498 58.415C89.4192 58.395 89.2087 58.4551 89.0483 58.5955C88.8879 58.7358 88.7576 58.9664 88.7275 59.1869C88.6975 59.4174 88.7576 59.5879 88.898 59.7382C89.0383 59.8886 89.2688 59.9788 89.5094 59.9988C89.9806 60.049 90.4918 59.7683 90.8827 59.3974C91.6947 58.6255 92.0856 57.6031 92.1959 56.731C92.3162 55.8488 92.1758 55.1271 92.0455 54.6359C91.9052 54.1447 91.7849 53.8741 91.8551 53.834C91.9052 53.8039 92.1458 54.0044 92.4164 54.4956C92.677 54.9868 92.9477 55.7787 92.9176 56.8011C92.8876 57.8035 92.5267 59.0666 91.5443 60.079C91.2937 60.3296 91.003 60.5602 90.6522 60.7406C90.3013 60.9211 89.8703 61.0414 89.4292 61.0013C88.9982 60.9712 88.5371 60.8108 88.1762 60.46C87.9958 60.2895 87.8554 60.059 87.7753 59.8084C87.6951 59.5578 87.685 59.2971 87.7151 59.0566C87.7853 58.5654 88.0259 58.1243 88.3967 57.8136C88.7777 57.4928 89.2989 57.3725 89.74 57.4226C90.6321 57.5128 91.3639 58.1544 91.5945 58.9263C91.825 59.6881 91.6546 60.4399 91.3138 61.0013C90.9629 61.5726 90.4617 61.9235 90.0207 62.154C89.1185 62.6151 88.3166 62.7655 87.7452 62.7555C87.1738 62.7354 86.8931 62.5751 86.9132 62.5149V62.5049Z" fill="#263238"/>
<path d="M105.969 86.2716C105.969 86.2716 106.029 86.2214 106.029 86.1914C106.029 86.1613 106.029 86.1212 106.029 86.0711C106.049 85.9307 106.149 85.6902 106.27 85.4396C106.51 84.9183 106.891 84.2266 107.342 83.4848C108.244 82.0013 109.076 80.8485 109.327 80.9788C109.578 81.0991 109.137 82.4925 108.214 84.0161C107.753 84.778 107.262 85.4195 106.861 85.8405C106.661 86.0611 106.49 86.2014 106.33 86.3217C106.23 86.3919 106.119 86.4219 106.029 86.3919C105.939 86.3518 105.939 86.2916 105.969 86.2716Z" fill="#263238"/>
<path d="M186.982 59.2765C186.982 59.2765 186.662 59.5973 185.91 59.7577C185.168 59.898 183.965 59.878 182.752 59.1362C182.451 58.9557 182.161 58.7152 181.88 58.4345C181.609 58.1538 181.369 57.813 181.168 57.4321C180.787 56.6702 180.607 55.748 180.727 54.7957C180.838 53.8534 181.219 52.8711 181.94 52.0992C182.301 51.7083 182.742 51.3775 183.253 51.1469C183.765 50.9164 184.366 50.786 184.978 50.8963C185.589 51.0066 186.15 51.3173 186.541 51.8185C186.732 52.0691 186.872 52.3699 186.932 52.6806C186.992 52.9914 186.982 53.3121 186.902 53.6028C186.762 54.1842 186.421 54.6754 185.98 55.0062C185.549 55.337 185.048 55.5275 184.567 55.6177C183.604 55.7881 182.682 55.6177 181.91 55.2869C181.138 54.9461 180.527 54.4449 180.086 53.8835C179.645 53.3222 179.404 52.7207 179.274 52.1894C179.144 51.6481 179.133 51.177 179.174 50.7961C179.254 50.0342 179.474 49.6633 179.534 49.6834C179.615 49.7034 179.534 50.1044 179.575 50.8061C179.625 51.4877 179.845 52.5302 180.647 53.4324C181.048 53.8735 181.589 54.2644 182.241 54.515C182.883 54.7556 183.654 54.8659 184.386 54.7055C184.747 54.6253 185.098 54.4749 185.379 54.2544C185.649 54.0339 185.86 53.7231 185.93 53.3823C186.01 53.0415 185.95 52.7207 185.729 52.4601C185.519 52.1894 185.168 51.9889 184.807 51.9288C184.055 51.8085 183.213 52.2295 182.662 52.8109C182.091 53.4024 181.76 54.1842 181.65 54.9461C181.529 55.7179 181.65 56.4697 181.92 57.0912C182.061 57.402 182.241 57.6827 182.451 57.9232C182.662 58.1638 182.893 58.3844 183.133 58.5448C184.115 59.2565 185.168 59.3868 185.85 59.3768C186.551 59.3567 186.932 59.2164 186.962 59.2966L186.982 59.2765Z" fill="#263238"/>
<path d="M188.568 41.5853C188.568 41.5853 188.448 41.9562 187.906 42.317C187.385 42.6679 186.433 43.0488 185.24 42.8182C184.648 42.708 184.017 42.3972 183.506 41.906C182.984 41.4149 182.573 40.7332 182.393 39.9413C182.213 39.1494 182.273 38.2272 182.744 37.4152C182.984 37.0143 183.335 36.6434 183.816 36.4128C184.288 36.2023 184.839 36.1321 185.37 36.2925C185.631 36.3727 185.891 36.513 186.102 36.7135C186.312 36.914 186.463 37.1546 186.563 37.4052C186.753 37.9164 186.723 38.4377 186.573 38.8988C186.503 39.1294 186.383 39.3499 186.242 39.5504C186.102 39.7408 185.952 39.9112 185.781 40.0516C185.44 40.3423 185.069 40.5428 184.699 40.6831C183.215 41.2344 181.781 41.1041 180.699 40.7733C179.596 40.4425 178.834 39.8912 178.383 39.4602C177.932 39.0191 177.762 38.7184 177.812 38.6682C177.872 38.6181 178.133 38.8286 178.634 39.1394C179.135 39.4501 179.887 39.8511 180.889 40.0616C181.882 40.2721 183.155 40.2922 184.358 39.7909C184.939 39.5504 185.47 39.1193 185.631 38.578C185.711 38.2973 185.721 37.9866 185.631 37.746C185.541 37.4954 185.36 37.335 185.1 37.2548C184.839 37.1746 184.518 37.2047 184.267 37.325C184.017 37.4353 183.786 37.6558 183.626 37.9164C183.295 38.4477 183.215 39.1294 183.335 39.7308C183.456 40.3423 183.746 40.8836 184.127 41.2946C184.508 41.7056 184.969 41.9762 185.43 42.1065C186.373 42.3772 187.215 42.1667 187.736 41.9562C188.267 41.7356 188.528 41.5151 188.588 41.5753L188.568 41.5853Z" fill="#263238"/>
<path d="M110.93 59.9087C110.93 59.9087 110.398 60.1393 109.917 60.9412C109.687 61.3422 109.476 61.8835 109.476 62.525C109.456 63.1666 109.647 63.9084 110.178 64.4898L110.388 64.7103L110.098 64.6301C109.356 64.4296 108.484 64.4497 107.652 64.7203C106.81 65.001 106.008 65.5623 105.487 66.3843C104.795 67.4669 104.635 68.7901 104.945 69.8527L105.025 70.1334L104.795 69.963C103.983 69.3515 103.031 69.1009 102.189 69.1109C101.347 69.1009 100.615 69.3214 100.053 69.582C98.9308 70.1334 98.5398 70.825 98.5098 70.7749C98.5098 70.7749 98.5298 70.7348 98.5799 70.6646C98.6401 70.5945 98.7102 70.4842 98.8205 70.3539C99.0511 70.1033 99.432 69.7625 99.9934 69.4718C100.555 69.1811 101.307 68.9405 102.179 68.9405C103.041 68.9204 104.043 69.171 104.905 69.8026L104.755 69.9028C104.424 68.7801 104.584 67.3968 105.306 66.264C105.857 65.412 106.699 64.8105 107.582 64.5299C108.464 64.2392 109.366 64.2392 110.138 64.4497L110.048 64.6C109.486 63.9685 109.296 63.1766 109.326 62.505C109.346 61.8334 109.576 61.272 109.827 60.871C110.088 60.46 110.378 60.2195 110.589 60.0691C110.689 59.9989 110.789 59.9588 110.839 59.9288C110.9 59.8987 110.93 59.8887 110.93 59.8887V59.9087Z" fill="#455A64"/>
<path d="M114.141 78.7746C114.141 78.7746 114.061 78.8047 113.911 78.8348C113.83 78.8548 113.74 78.8749 113.62 78.8749C113.51 78.8749 113.369 78.8949 113.229 78.8849C112.637 78.8648 111.745 78.6443 110.933 77.9226C110.532 77.5717 110.161 77.0805 109.941 76.4891C109.821 76.1984 109.771 75.8676 109.74 75.5268C109.74 75.186 109.761 74.8351 109.881 74.4943C109.981 74.1535 110.141 73.8127 110.362 73.5119C110.572 73.2012 110.833 72.9205 111.134 72.6799C111.435 72.4293 111.775 72.2289 112.156 72.0785C112.527 71.9281 112.938 71.8379 113.349 71.8379C113.76 71.8379 114.181 71.888 114.552 72.0885C114.733 72.1888 114.903 72.3391 114.993 72.5396C115.083 72.7401 115.113 72.9606 115.043 73.1711C114.973 73.3816 114.773 73.552 114.572 73.5921C114.362 73.6423 114.161 73.5921 113.971 73.542C113.6 73.4117 113.309 73.2012 113.028 72.9606C111.946 71.9983 111.635 70.5548 111.906 69.5223C112.166 68.4598 112.828 67.8082 113.309 67.4674C113.8 67.1266 114.131 67.0664 114.131 67.0664C114.141 67.0865 113.82 67.1767 113.349 67.5375C112.898 67.8884 112.277 68.54 112.046 69.5624C111.795 70.5548 112.116 71.9181 113.149 72.8303C113.399 73.0508 113.7 73.2513 114.021 73.3716C114.181 73.4217 114.352 73.4518 114.512 73.4117C114.662 73.3816 114.793 73.2714 114.843 73.121C114.893 72.9706 114.873 72.7902 114.803 72.6398C114.733 72.4895 114.592 72.3692 114.442 72.279C114.121 72.0985 113.72 72.0584 113.339 72.0584C112.948 72.0584 112.567 72.1386 112.216 72.279C111.866 72.4193 111.535 72.6098 111.244 72.8403C110.953 73.0709 110.703 73.3415 110.502 73.6322C110.292 73.9229 110.141 74.2437 110.041 74.5645C109.931 74.8852 109.911 75.216 109.901 75.5368C109.921 75.8576 109.971 76.1683 110.081 76.449C110.282 77.0204 110.633 77.4915 111.014 77.8324C111.775 78.5441 112.647 78.7746 113.209 78.8247C113.79 78.8648 114.111 78.7646 114.111 78.7846L114.141 78.7746Z" fill="#455A64"/>
<path d="M94.1906 37.3335C94.1906 37.3335 93.9801 37.3936 93.6092 37.534C93.2483 37.6743 92.7271 37.9349 92.2259 38.4362C91.7247 38.9173 91.2535 39.6591 91.1132 40.5713C90.9729 41.4735 91.1633 42.5461 91.7748 43.4182C91.855 43.5385 91.9552 43.6587 92.0454 43.759L92.1758 43.9093L91.9853 43.9294C90.9729 44.0296 90.0908 44.5509 89.5294 45.2025C88.948 45.854 88.6974 46.6359 88.6372 47.2875C88.5771 47.9491 88.6874 48.4804 88.7976 48.8312C88.9079 49.1821 89.0081 49.3625 88.9881 49.3725C88.9881 49.3725 88.958 49.3324 88.9079 49.2422C88.8578 49.162 88.7976 49.0217 88.7275 48.8513C88.5971 48.5004 88.4568 47.9591 88.5069 47.2775C88.547 46.6058 88.7976 45.7738 89.3991 45.0822C89.9905 44.3905 90.9127 43.8292 91.9853 43.7289L91.9151 43.8993C91.8249 43.7891 91.7146 43.6688 91.6345 43.5385C90.9929 42.6162 90.7924 41.4935 90.9528 40.5513C91.1032 39.5889 91.6244 38.8271 92.1457 38.3359C92.677 37.8347 93.2283 37.5941 93.6092 37.4638C93.7997 37.4037 93.95 37.3636 94.0603 37.3535C94.1606 37.3335 94.2207 37.3335 94.2207 37.3435L94.1906 37.3335Z" fill="#455A64"/>
<path d="M101.565 25.396C101.565 25.396 101.335 25.2857 100.913 25.1754C100.492 25.0652 99.8309 24.995 99.069 25.2155C98.3273 25.426 97.4551 25.9573 97.0241 26.9096C96.583 27.8318 96.553 29.1049 97.1645 30.1274C97.2346 30.2577 97.3248 30.368 97.405 30.4682L97.5053 30.6085L97.3449 30.6386C96.2122 30.8491 95.2599 31.5107 94.6484 32.2826C94.0269 33.0645 93.7763 33.9566 93.7262 34.6984C93.6761 35.4502 93.8064 36.0517 93.9367 36.4526C94.067 36.8536 94.1773 37.0541 94.1572 37.0641C94.1572 37.0641 94.1171 37.014 94.067 36.9238C94.0069 36.8235 93.9367 36.6732 93.8665 36.4827C93.7161 36.0817 93.5558 35.4703 93.5858 34.6984C93.6159 33.9366 93.8565 32.9943 94.498 32.1723C95.1195 31.3604 96.1119 30.6587 97.3048 30.4381L97.2446 30.5985C97.1644 30.4782 97.0642 30.368 96.994 30.2276C96.3425 29.135 96.3826 27.8018 96.8537 26.8294C97.0843 26.3382 97.4451 25.9373 97.8361 25.6566C98.227 25.3659 98.648 25.1855 99.039 25.0852C99.8309 24.8747 100.513 24.975 100.944 25.1153C101.164 25.1855 101.324 25.2556 101.425 25.3158C101.525 25.3759 101.585 25.406 101.575 25.416L101.565 25.396Z" fill="#455A64"/>
<path d="M164.638 57.6931C164.638 57.6931 164.709 57.6831 164.849 57.6831C164.929 57.6831 165.009 57.6831 165.1 57.6831C165.2 57.6731 165.32 57.6631 165.44 57.643C165.952 57.5728 166.703 57.4024 167.475 56.9012C168.257 56.4201 169.069 55.5981 169.52 54.4754C169.741 53.914 169.871 53.2725 169.821 52.6209C169.791 52.3001 169.711 51.9693 169.56 51.6786C169.4 51.3879 169.159 51.1473 168.859 50.997C168.608 50.8767 168.337 50.8266 168.087 50.8767L167.866 50.9168L167.976 50.7263C168.628 49.5836 169.109 48.4107 169.199 47.288C169.25 46.7367 169.199 46.1954 169.049 45.7343C168.899 45.2632 168.658 44.8622 168.397 44.5414C167.866 43.8898 167.235 43.5691 166.784 43.4789C166.322 43.3786 166.062 43.4388 166.062 43.4087C166.062 43.4087 166.322 43.3285 166.794 43.4087C167.265 43.4789 167.936 43.7896 168.508 44.4512C168.788 44.782 169.039 45.193 169.209 45.6842C169.37 46.1754 169.43 46.7267 169.39 47.3081C169.31 48.4709 168.819 49.6738 168.157 50.8266L168.047 50.6762C168.337 50.6161 168.668 50.6762 168.949 50.8165C169.29 50.987 169.56 51.2676 169.731 51.5884C169.901 51.9092 169.991 52.26 170.011 52.6109C170.061 53.3025 169.921 53.9641 169.681 54.5455C169.199 55.7184 168.347 56.5504 167.535 57.0215C166.723 57.5227 165.952 57.6731 165.43 57.7232C165.3 57.7232 165.19 57.7332 165.08 57.7432C164.989 57.7432 164.899 57.7332 164.819 57.7232C164.679 57.7132 164.608 57.7031 164.608 57.6931H164.638Z" fill="#455A64"/>
<path d="M95.5227 77.7515C95.4625 77.7915 95.252 77.5911 94.9312 77.1901C94.6205 76.7891 94.1694 76.1777 93.8586 75.2554C93.7083 74.7943 93.6181 74.253 93.6682 73.6516C93.7183 73.0601 93.9489 72.3885 94.4401 71.8673C94.9212 71.346 95.6029 70.9751 96.3848 70.905C97.1666 70.8248 98.0287 71.0854 98.6201 71.757C98.7605 71.9274 98.8908 72.1179 98.971 72.3284C99.0612 72.5389 99.1113 72.7895 99.1113 73.01C99.1113 73.4711 98.961 73.8921 98.7003 74.243C98.4397 74.5938 98.0087 74.8545 97.5476 74.8946C97.0965 74.9246 96.6654 74.7542 96.3747 74.5237C95.7733 74.0425 95.5026 73.411 95.3923 72.8196C95.2721 72.2382 95.3021 71.6868 95.3923 71.2057C95.5928 70.2434 96.074 69.5818 96.4449 69.2109C96.8358 68.84 97.1165 68.7397 97.1466 68.7899C97.1967 68.85 97.0062 69.0605 96.7456 69.4615C96.495 69.8624 96.1742 70.494 96.094 71.3159C96.0539 71.7269 96.074 72.178 96.1943 72.6291C96.3046 73.0702 96.5652 73.5112 96.916 73.7618C97.0965 73.8821 97.2669 73.9323 97.4473 73.9122C97.6077 73.8922 97.7681 73.8019 97.8884 73.6315C98.0187 73.4611 98.0889 73.2306 98.0788 73.02C98.0788 72.8196 97.9886 72.6091 97.8282 72.4286C97.5075 72.0577 96.9561 71.8572 96.4549 71.9074C95.9437 71.9475 95.4525 72.188 95.1117 72.5289C94.7608 72.8697 94.5804 73.3108 94.5002 73.7618C94.43 74.2129 94.4601 74.674 94.5403 75.075C94.7207 75.887 95.0515 76.5385 95.252 76.9896C95.4625 77.4507 95.5628 77.7114 95.5026 77.7515H95.5227Z" fill="#263238"/>
<path d="M170.114 78.3721C170.114 78.312 170.304 78.2418 170.645 78.0915C170.976 77.9311 171.447 77.6704 171.888 77.1893C172.319 76.7081 172.72 76.0064 172.74 75.1443C172.77 74.2923 172.419 73.2999 171.667 72.6483L170.174 71.3552L172.108 71.8163C173.251 72.097 174.635 71.9166 175.837 71.255C176.519 70.8841 177.11 70.3929 177.562 69.8315C178.013 69.2602 178.313 68.6286 178.464 67.9771C178.785 66.6739 178.534 65.4109 178.143 64.4486C177.732 63.4862 177.171 62.8146 176.75 62.4036C176.639 62.3034 176.549 62.2132 176.459 62.133C176.379 62.0628 176.299 61.9926 176.238 61.9425C176.118 61.8323 176.058 61.7621 176.078 61.722C176.098 61.6919 176.188 61.7019 176.339 61.7621C176.419 61.7922 176.519 61.8222 176.629 61.8824C176.74 61.9425 176.86 62.0227 177 62.0929C177.542 62.4337 178.243 63.0953 178.805 64.1378C179.336 65.1703 179.717 66.6038 179.396 68.1776C179.236 68.9594 178.885 69.7513 178.364 70.433C177.832 71.1146 177.141 71.7061 176.339 72.1471C174.925 72.919 173.271 73.1094 171.888 72.7285L172.329 71.9065C173.321 72.8288 173.682 74.1119 173.582 75.1744C173.482 76.267 172.9 77.0991 172.329 77.5902C171.748 78.0914 171.166 78.2919 170.775 78.3721C170.374 78.4423 170.154 78.4022 170.154 78.3521L170.114 78.3721Z" fill="#263238"/>
<path d="M114.478 9.42604C114.478 9.42604 114.568 9.13534 114.939 8.76445C115.3 8.40358 115.911 7.92242 116.804 7.56155C117.686 7.20068 118.869 6.97012 120.172 7.19065C120.813 7.30092 121.535 7.5014 122.156 8.05273C122.467 8.32338 122.718 8.7043 122.848 9.12532C122.978 9.54633 122.988 10.0576 122.778 10.5287L121.846 10.1578C122.146 9.2857 122.668 8.44368 123.379 7.78208C124.763 6.44887 126.667 5.85744 128.331 6.06795C129.163 6.16819 129.915 6.46891 130.537 6.84983C131.158 7.23075 131.669 7.69186 132.06 8.163C132.852 9.10527 133.173 10.0776 133.293 10.7392C133.394 11.4108 133.323 11.7817 133.263 11.7817C133.183 11.7817 133.113 11.4309 132.902 10.8395C132.682 10.258 132.291 9.42604 131.519 8.65418C130.767 7.88232 129.614 7.14053 128.221 7.02024C126.848 6.88993 125.244 7.41119 124.071 8.53389C123.47 9.09525 123.039 9.78691 122.778 10.4986L121.846 10.1277C122.046 9.73679 121.866 9.11529 121.485 8.77447C121.094 8.40358 120.533 8.19307 119.981 8.07278C118.869 7.8322 117.816 7.95249 116.994 8.20309C116.162 8.44367 115.551 8.80454 115.14 9.06517C114.729 9.33583 114.508 9.49621 114.458 9.45612L114.478 9.42604Z" fill="#263238"/>
<path d="M153.926 8.44416C153.846 8.42411 153.996 7.86276 153.966 6.87037C153.936 6.37918 153.856 5.76771 153.645 5.10611C153.435 4.44452 153.074 3.72278 152.543 3.04114C152.262 2.71034 151.961 2.36952 151.59 2.08884C151.229 1.79814 150.808 1.54754 150.347 1.35708C149.896 1.15659 149.385 1.02628 148.854 0.966134C148.322 0.905989 147.771 0.905989 147.22 0.996206C146.117 1.17664 144.974 1.64778 144.082 2.46976C143.641 2.88075 143.24 3.36191 142.969 3.90321C142.699 4.43449 142.568 5.03594 142.709 5.5572C142.839 6.08848 143.23 6.52954 143.661 6.61976C144.092 6.72 144.623 6.4694 144.944 6.07846C145.105 5.87797 145.205 5.65744 145.255 5.43691C145.295 5.19633 145.275 4.94573 145.215 4.69512C145.085 4.20394 144.744 3.76288 144.343 3.45213C143.521 2.84065 142.378 2.79053 141.406 2.99102C140.423 3.1915 139.561 3.64259 138.86 4.15382C137.466 5.21638 136.754 6.53957 136.414 7.46179C136.083 8.40406 136.033 8.97544 135.953 8.96542C135.902 8.96542 135.802 8.38402 136.033 7.3415C136.283 6.32906 136.925 4.83546 138.408 3.58244C139.15 2.97097 140.093 2.41964 141.215 2.15901C141.777 2.0287 142.378 1.95853 143.02 2.01867C143.651 2.07882 144.313 2.26928 144.894 2.69029C145.465 3.10128 145.937 3.69271 146.147 4.42447C146.257 4.78534 146.287 5.18631 146.227 5.58727C146.157 5.99826 145.977 6.37918 145.726 6.69996C145.476 7.02073 145.145 7.27133 144.754 7.45177C144.373 7.62218 143.912 7.69235 143.461 7.61215C143.01 7.52194 142.609 7.26131 142.318 6.94054C142.027 6.60974 141.827 6.2188 141.726 5.80781C141.516 4.95575 141.726 4.12375 142.077 3.45213C142.418 2.78051 142.899 2.20913 143.431 1.72797C144.503 0.765651 145.826 0.244394 147.099 0.0639592C147.741 -0.0262582 148.382 -0.0162341 148.994 0.0639592C149.605 0.154177 150.187 0.314563 150.708 0.565167C151.239 0.805747 151.711 1.1165 152.111 1.46734C152.522 1.80816 152.853 2.19911 153.144 2.59005C153.705 3.38196 154.036 4.19391 154.217 4.9357C154.397 5.67749 154.417 6.32906 154.387 6.86034C154.287 7.9229 153.996 8.44416 153.946 8.42411L153.926 8.44416Z" fill="#263238"/>
</svg>
