<svg width="79" height="62" viewBox="0 0 79 62" fill="none" xmlns="http://www.w3.org/2000/svg">
<path d="M5.37938 4.9435C6.90774 1.45694 10.5853 0.119629 13.5465 0.119629C16.46 0.119629 20.042 2.3644 19.4212 5.70768C18.9913 7.76141 17.2241 9.28976 15.2659 9.28976C13.1167 9.28976 11.5406 7.76141 11.5406 6.04201C11.5406 4.60917 12.5913 3.03306 14.454 3.27186C13.6898 4.22708 14.645 5.5644 15.7913 5.03902C16.9853 4.46589 16.5077 2.88977 15.1227 2.55545C13.1644 2.07783 11.3495 2.79425 10.5376 4.60917C8.24505 9.8629 17.8928 12.442 15.3615 18.7942C13.8331 22.5674 10.4898 24.0002 7.52863 24.0002C3.89878 24.0002 1.46297 22.4718 0.507744 19.6539C-0.590762 16.3584 2.17938 11.6301 7.38535 14.0181C5.37938 14.4957 4.18535 17.2181 6.23908 19.3674C7.71967 20.8957 10.1555 20.848 11.0152 18.5554C12.448 14.7823 2.60923 11.0569 5.37938 4.9435Z" fill="black"/>
<path d="M32.1626 8.19126C32.7834 8.04798 33.2133 7.90469 33.9775 7.90469C34.2163 7.90469 34.3118 8.04798 34.073 8.3823C33.8342 8.66887 32.4014 11.3913 30.7297 16.4539C29.0581 21.3733 30.9685 23.1883 35.267 18.0778C35.6969 18.1256 36.079 18.1256 36.2222 18.6509C33.882 22.0897 31.9237 24.0002 29.3446 24.0002C27.5297 24.0002 26.3357 23.236 25.7148 21.9942C24.4252 23.0927 22.6103 24.0002 20.7954 24.0002C17.2611 24.0002 15.7327 20.9912 17.3088 16.9315C17.6909 15.9763 19.2193 12.7286 20.079 11.2957C21.1775 9.57633 21.8461 8.52559 23.7088 8.19126C24.3297 8.04798 24.7118 7.90469 25.5238 7.90469C25.7148 7.90469 25.8581 8.04798 25.6193 8.3823C25.3805 8.66887 24.4252 10.1017 23.6611 11.7733C23.3267 12.5375 22.0372 15.4032 21.273 18.1256C20.5566 20.7524 24.5208 20.5136 26.0491 16.7883C26.7178 15.1644 27.8641 12.3942 28.5805 11.2957C29.679 9.57633 30.2999 8.52559 32.1626 8.19126Z" fill="black"/>
<path d="M42.1125 10.1017C42.9245 9.19424 44.7394 7.95245 46.8409 7.95245C51.7125 7.95245 50.6618 13.5405 49.8976 15.7853C48.3692 20.2748 44.8827 24.048 40.2976 24.048C39.1991 24.048 37.8618 23.4748 37.0021 22.3763C36.3334 24.1435 35.8081 25.7674 35.426 27.0091C34.8528 29.0629 34.232 30.5912 35.0917 31.5465C35.2827 31.7375 35.1394 31.833 34.8051 31.833C31.2708 31.833 29.4081 30.4957 30.7454 26.3405C32.6558 20.5136 35.9036 13.8271 37.5275 11.3435C38.6737 9.67185 39.2946 8.52559 41.1573 8.19126C41.7304 8.09574 42.1603 7.95245 42.9722 7.95245C43.1633 7.95245 43.3066 8.09574 43.02 8.43007C42.8767 8.62111 42.4469 9.38529 42.1125 10.1017ZM40.0588 14.4957C39.9633 14.6868 39.8678 14.9256 39.7722 15.1644C40.0588 15.1166 40.2976 15.0689 40.5364 15.0689C43.3066 15.0689 43.9275 18.7942 41.7304 19.3196C42.1603 18.3644 40.7275 17.8868 40.1066 18.842C39.7722 19.3674 39.7245 20.3226 40.8708 20.3226C45.2648 20.3226 48.7991 10.8659 45.5991 10.3883C44.023 10.1495 41.1573 11.8211 40.0588 14.4957Z" fill="black"/>
<path d="M55.4204 24.0002C45.5338 24.0002 52.4114 7.90469 60.8174 7.90469C68.1726 7.90469 63.7308 17.9345 55.086 17.3614C55.086 18.7465 55.6592 19.7972 56.8532 20.3226C58.6204 21.0868 61.9159 20.2748 64.4472 18.1733C64.8771 18.2211 65.2592 18.2211 65.4024 18.7465C63.9218 21.3256 58.6204 24.0002 55.4204 24.0002ZM55.6114 14.5913C56.089 14.639 56.5189 14.6868 56.901 14.6868C58.2383 14.6868 59.1457 14.2569 59.8621 13.7316C62.298 11.8211 61.1995 9.81514 58.8114 10.9136C57.3786 11.5345 56.2323 12.9674 55.6114 14.5913Z" fill="black"/>
<path d="M71.4547 9.95842C72.6965 8.57335 74.2726 7.90469 75.5144 7.90469C80.4338 7.90469 78.8576 14.5913 74.3203 14.5913C71.6935 14.5913 71.4069 11.2957 74.0338 10.8659C73.6517 11.7256 74.7024 12.3942 75.4188 11.6778C76.0875 10.9614 75.7054 10.245 74.8457 10.245C72.6487 10.245 70.8815 12.2032 69.8308 14.5435C69.2577 15.833 68.6845 17.2659 68.1591 19.1763C67.586 21.23 66.9651 22.7584 67.8248 23.6659C68.0159 23.9047 67.8726 24.0002 67.5383 24.0002C64.0039 24.0002 62.1412 22.6629 63.4786 18.5077C63.9562 17.0271 65.198 13.7793 66.8696 11.2957C67.9681 9.62409 68.589 8.52559 70.4517 8.19126C71.0726 8.04798 71.4547 7.90469 72.2666 7.90469C72.5054 7.90469 72.6009 8.04798 72.3621 8.3823C72.1711 8.57335 71.8368 9.28976 71.4547 9.95842Z" fill="black"/>
<path d="M26.2706 40.6032C28.1333 38.645 29.9482 38.1196 31.381 38.1196C35.6318 38.1196 36.9691 42.036 35.5362 45.6181C34.1512 49.248 32.6228 53.5942 31.6676 56.4599C30.7601 58.9912 33.2437 60.233 36.1094 57.7495C36.8736 57.1286 37.5422 57.5584 36.8258 58.4659C35.4885 60.2808 33.578 62.0002 30.6646 62.0002C27.4168 62.0002 24.981 60.4241 26.3661 56.5077C27.2736 53.8808 29.1362 48.9614 30.0915 47.0032C32.0497 43.039 31.2855 40.7943 28.8019 42.4181C27.5601 43.2301 26.4616 44.9495 25.793 46.7166C24.5034 49.9644 22.4975 55.2181 21.9721 57.1763C21.3989 59.1823 20.7781 60.7584 21.6378 61.6659C21.8288 61.9047 21.6855 62.0002 21.3512 62.0002C17.8169 62.0002 15.4766 60.6151 16.8616 56.4599C17.7691 53.642 19.6795 49.8211 20.7303 47.0032C21.8288 44.0898 22.2109 41.4629 19.7751 42.4659C19.0587 42.7525 17.6258 43.8987 15.7631 48.6748C14.5691 51.7793 13.3751 55.0271 12.8019 57.1763C12.181 59.1823 11.5602 60.7584 12.4199 61.6659C12.6109 61.9047 12.5154 62.0002 12.181 62.0002C8.64672 62.0002 6.30643 60.6151 7.64374 56.4599C8.59896 53.642 9.84075 50.5375 11.0825 47.8629C12.0378 45.8569 12.7542 42.036 10.5094 41.1763C8.79001 40.5554 7.07061 41.5584 6.54523 42.9435C6.21091 43.8032 6.21091 45.1883 7.35717 45.6181C8.07359 45.9047 9.21986 45.6181 9.45866 44.5196C10.4139 45.3316 10.4616 46.4778 10.2228 47.3375C9.84075 48.9136 7.88255 49.9166 5.63777 49.5823C-0.189086 48.7226 2.15121 38.1196 10.6049 38.1196C13.1363 38.1196 14.9034 39.0271 15.9064 40.6032C17.8646 38.9793 20.3482 38.1196 22.0198 38.1196C24.1691 38.1196 25.6019 39.1226 26.2706 40.6032Z" fill="black"/>
<path d="M41.7101 62.0002C31.9191 62.0002 36.5042 45.9047 46.3907 45.9047C50.5459 45.9047 51.5489 49.1525 50.1638 51.1107C51.1668 54.8838 47.3459 62.0002 41.7101 62.0002ZM47.1549 48.0062C42.14 48.0062 37.7937 58.1315 42.7131 58.1315C45.0534 58.1315 47.4892 55.4569 47.6325 52.5435C47.4892 52.5913 47.3459 52.5913 47.1549 52.5913C44.528 52.5913 44.2892 49.2957 46.8683 48.8659C46.4862 49.7256 47.5847 50.3942 48.2534 49.6778C48.731 49.1525 48.54 48.0062 47.1549 48.0062Z" fill="black"/>
<path d="M65.6224 48.3405C67.7239 46.3345 69.8731 45.9047 70.7806 45.9047C76.1776 45.9047 71.7358 53.5465 71.3537 54.4539C69.4433 59.2778 71.6403 61.1883 75.9388 56.0778C76.3687 56.1256 76.7507 56.1256 76.894 56.6509C74.5537 60.0897 72.5478 62.0002 69.9687 62.0002C66.1478 62.0002 65.4314 58.4181 67.1508 54.4539C67.7717 53.1166 69.7776 48.8659 67.7239 49.439C66.6254 49.7256 64.9537 51.0151 64.2373 52.9256C63.7597 54.1196 63.3299 55.5047 62.8523 57.1763C62.2791 59.23 61.6582 60.7584 62.5179 61.6659C62.709 61.9047 62.5657 62.0002 62.2314 62.0002C58.697 62.0002 57.2642 60.6629 58.6493 56.5077C58.9358 55.648 59.4612 54.1674 60.1776 52.5913C60.894 51.1107 61.2284 49.0569 59.9388 49.439C58.8403 49.7256 57.1687 51.0151 56.4523 52.9256C55.9747 54.1196 55.5448 55.5047 55.0672 57.1763C54.4463 59.23 53.8732 60.7584 54.6851 61.6659C54.9239 61.9047 54.7806 62.0002 54.4463 62.0002C50.912 62.0002 49.4791 60.6629 50.8642 56.5077C51.3418 55.0271 52.5359 51.7793 54.2075 49.2957C55.3538 47.6241 56.1657 46.4301 57.3597 46.1913C57.9329 46.048 58.3627 45.9047 59.1746 45.9047C59.3657 45.9047 59.509 46.048 59.2224 46.3823C59.0791 46.6211 58.6493 47.3853 58.2672 48.1017C59.9388 46.4778 62.0403 45.9047 62.9955 45.9047C65.0015 45.9047 65.6224 46.9554 65.6224 48.3405Z" fill="black"/>
</svg>
