<svg width="79" height="62" viewBox="0 0 79 62" fill="none" xmlns="http://www.w3.org/2000/svg">
<path d="M5.10985 4.82387C6.6382 1.33731 10.3158 0 13.277 0C16.1904 0 19.7725 2.24477 19.1516 5.58805C18.7218 7.64178 16.9546 9.17014 14.9964 9.17014C12.8472 9.17014 11.271 7.64178 11.271 5.92238C11.271 4.48955 12.3218 2.91343 14.1845 3.15223C13.4203 4.10746 14.3755 5.44477 15.5218 4.9194C16.7158 4.34626 16.2382 2.77014 14.8531 2.43582C12.8949 1.95821 11.08 2.67462 10.2681 4.48955C7.97552 9.74327 17.6233 12.3224 15.0919 18.6746C13.5636 22.4477 10.2203 23.8806 7.2591 23.8806C3.62925 23.8806 1.19343 22.3522 0.238212 19.5343C-0.860294 16.2388 1.90985 11.5104 7.11582 13.8985C5.10985 14.3761 3.91582 17.0985 5.96955 19.2477C7.45014 20.7761 9.88596 20.7283 10.7457 18.4358C12.1785 14.6627 2.3397 10.9373 5.10985 4.82387Z" fill="white"/>
<path d="M31.893 8.07163C32.5139 7.92835 32.9438 7.78506 33.7079 7.78506C33.9468 7.78506 34.0423 7.92835 33.8035 8.26267C33.5647 8.54924 32.1318 11.2716 30.4602 16.3343C28.7885 21.2537 30.699 23.0686 34.9975 17.9582C35.4273 18.0059 35.8094 18.0059 35.9527 18.5313C33.6124 21.9701 31.6542 23.8806 29.0751 23.8806C27.2602 23.8806 26.0662 23.1164 25.4453 21.8746C24.1557 22.9731 22.3408 23.8806 20.5259 23.8806C16.9915 23.8806 15.4632 20.8716 17.0393 16.8119C17.4214 15.8567 18.9498 12.6089 19.8095 11.1761C20.908 9.4567 21.5766 8.40596 23.4393 8.07163C24.0602 7.92835 24.4423 7.78506 25.2542 7.78506C25.4453 7.78506 25.5886 7.92835 25.3497 8.26267C25.1109 8.54924 24.1557 9.98208 23.3915 11.6537C23.0572 12.4179 21.7677 15.2836 21.0035 18.0059C20.2871 20.6328 24.2512 20.394 25.7796 16.6686C26.4483 15.0448 27.5945 12.2746 28.3109 11.1761C29.4094 9.4567 30.0303 8.40596 31.893 8.07163Z" fill="white"/>
<path d="M41.843 9.98208C42.6549 9.07461 44.4699 7.83282 46.5714 7.83282C51.443 7.83282 50.3923 13.4209 49.6281 15.6657C48.0997 20.1552 44.6132 23.9283 40.0281 23.9283C38.9296 23.9283 37.5923 23.3552 36.7326 22.2567C36.0639 24.0238 35.5385 25.6477 35.1564 26.8895C34.5833 28.9432 33.9624 30.4716 34.8221 31.4268C35.0132 31.6179 34.8699 31.7134 34.5356 31.7134C31.0012 31.7134 29.1385 30.3761 30.4759 26.2209C32.3863 20.394 35.6341 13.7074 37.2579 11.2239C38.4042 9.55223 39.0251 8.40596 40.8878 8.07163C41.4609 7.97611 41.8908 7.83282 42.7027 7.83282C42.8937 7.83282 43.037 7.97611 42.7505 8.31044C42.6072 8.50148 42.1773 9.26566 41.843 9.98208ZM39.7893 14.3761C39.6938 14.5671 39.5982 14.806 39.5027 15.0448C39.7893 14.997 40.0281 14.9492 40.2669 14.9492C43.037 14.9492 43.6579 18.6746 41.4609 19.2C41.8908 18.2448 40.4579 17.7671 39.837 18.7224C39.5027 19.2477 39.455 20.203 40.6012 20.203C44.9952 20.203 48.5296 10.7463 45.3296 10.2686C43.7535 10.0298 40.8878 11.7015 39.7893 14.3761Z" fill="white"/>
<path d="M55.1508 23.8806C45.2643 23.8806 52.1419 7.78506 60.5478 7.78506C67.9031 7.78506 63.4613 17.8149 54.8165 17.2418C54.8165 18.6268 55.3896 19.6776 56.5837 20.203C58.3508 20.9671 61.6463 20.1552 64.1777 18.0537C64.6075 18.1015 64.9896 18.1015 65.1329 18.6268C63.6523 21.2059 58.3508 23.8806 55.1508 23.8806ZM55.3419 14.4716C55.8195 14.5194 56.2493 14.5671 56.6314 14.5671C57.9687 14.5671 58.8762 14.1373 59.5926 13.6119C62.0284 11.7015 60.9299 9.69551 58.5419 10.794C57.109 11.4149 55.9628 12.8477 55.3419 14.4716Z" fill="white"/>
<path d="M71.1851 9.83879C72.4269 8.45372 74.003 7.78506 75.2448 7.78506C80.1642 7.78506 78.5881 14.4716 74.0508 14.4716C71.4239 14.4716 71.1374 11.1761 73.7642 10.7463C73.3821 11.606 74.4329 12.2746 75.1493 11.5582C75.818 10.8418 75.4359 10.1254 74.5762 10.1254C72.3792 10.1254 70.612 12.0836 69.5613 14.4239C68.9881 15.7134 68.415 17.1462 67.8896 19.0567C67.3165 21.1104 66.6956 22.6388 67.5553 23.5462C67.7463 23.785 67.6031 23.8806 67.2687 23.8806C63.7344 23.8806 61.8717 22.5433 63.209 18.388C63.6866 16.9074 64.9284 13.6597 66.6001 11.1761C67.6986 9.50446 68.3195 8.40596 70.1822 8.07163C70.803 7.92835 71.1851 7.78506 71.9971 7.78506C72.2359 7.78506 72.3314 7.92835 72.0926 8.26267C71.9016 8.45372 71.5672 9.17014 71.1851 9.83879Z" fill="white"/>
<path d="M9.11786 47.0269C9.11786 42.4418 13.6552 38 20.2462 38C26.2164 38 30.6104 42.394 31.5656 48.3164C32.9507 57.1045 26.2641 61.8806 20.2462 61.8806C17.5238 61.8806 13.9895 61.3074 12.0313 59.8268C14.7059 56.0059 18.3835 52.7582 19.9119 43.8269C20.9626 43.5881 22.682 43.397 24.0193 43.2537C23.3029 47.2179 22.1567 52.5194 19.1955 57.1522C24.1149 58.4418 28.2223 54.0477 28.3656 50.4657C28.6522 44.4 25.1656 40.5791 20.1984 40.5791C15.5179 40.5791 13.2731 44.0179 13.3208 46.3582C13.3208 47.2657 13.5119 48.2209 14.5626 48.5075C15.3268 48.6985 16.3776 48.1254 16.4731 46.9313C17.4761 47.7433 17.5238 48.794 17.3328 49.7015C17.0462 51.2776 15.3746 52.5194 13.1776 52.1851C10.5985 51.803 9.11786 49.5582 9.11786 47.0269Z" fill="white"/>
<path d="M47.8346 46.0716C48.4555 45.9283 48.8853 45.7851 49.6495 45.7851C49.8883 45.7851 49.9839 45.9283 49.745 46.2627C49.5062 46.5492 48.8376 47.791 48.4077 48.6507C47.9301 49.7492 46.8794 52.8537 46.4018 54.3343C44.6824 59.2537 46.6406 61.0686 50.9391 55.9582C51.3689 56.0059 51.751 56.0059 51.8943 56.5313C49.554 59.9701 47.5958 61.8806 45.0167 61.8806C43.0585 61.8806 41.7689 60.9731 41.1958 59.5403C39.6675 60.9253 37.757 61.8806 35.6078 61.8806C27.1063 61.8806 34.0794 45.7851 42.5809 45.7851C44.0137 45.7851 44.9689 46.5492 45.3988 47.5045C46.0197 46.788 46.6883 46.2627 47.8346 46.0716ZM42.1988 47.8866C39.1421 47.8866 33.6495 58.0119 37.6615 58.0119C38.951 58.0119 40.8137 56.197 41.5301 54.3343C41.8167 53.7134 42.0555 53.0925 42.3898 52.4716C42.2943 52.4716 42.1988 52.4716 42.1033 52.4716C39.4764 52.4716 39.1898 49.1761 41.8167 48.7463C41.4346 49.606 42.5331 50.2746 43.2018 49.5582C43.6794 49.0328 43.5839 47.8866 42.1988 47.8866Z" fill="white"/>
<path d="M69.0428 38.2388C69.6637 38.1433 70.0458 38 70.8577 38C71.0965 38 71.192 38.1433 70.9532 38.4298C70.7144 38.7164 70.0458 40.006 69.6159 40.8657C68.5652 42.9194 65.8905 49.7492 64.2189 54.3343C62.404 59.2059 64.4577 61.0686 68.7562 55.9582C69.1861 56.0059 69.5682 56.0059 69.7114 56.5313C67.3711 59.9701 65.4129 61.8806 62.8338 61.8806C60.8756 61.8806 59.5861 60.9731 59.013 59.5403C57.4846 60.9253 55.5741 61.8806 53.4249 61.8806C44.9234 61.8806 51.8965 45.7851 60.398 45.7851C61.401 45.7851 62.1652 46.1672 62.6906 46.6925C63.7891 44.3522 64.792 42.3463 65.4607 41.391C66.5592 39.6716 67.1801 38.5731 69.0428 38.2388ZM60.0159 47.8866C56.9592 47.8866 51.4667 58.0119 55.4786 58.0119C56.7682 58.0119 58.6309 56.1492 59.3473 54.3343C59.5861 53.7612 59.8727 53.0925 60.1592 52.4716C60.0637 52.4716 60.0159 52.4716 59.9204 52.4716C57.2935 52.4716 57.007 49.1761 59.6338 48.7463C59.2518 49.606 60.3503 50.2746 61.0189 49.5582C61.4965 49.0328 61.401 47.8866 60.0159 47.8866Z" fill="white"/>
</svg>
