<svg width="79" height="62" viewBox="0 0 79 62" fill="none" xmlns="http://www.w3.org/2000/svg">
<path d="M5.37938 4.82387C6.90774 1.33731 10.5853 0 13.5465 0C16.46 0 20.042 2.24477 19.4212 5.58805C18.9913 7.64178 17.2241 9.17014 15.2659 9.17014C13.1167 9.17014 11.5406 7.64178 11.5406 5.92238C11.5406 4.48955 12.5913 2.91343 14.454 3.15223C13.6898 4.10746 14.645 5.44477 15.7913 4.9194C16.9853 4.34626 16.5077 2.77014 15.1227 2.43582C13.1644 1.95821 11.3495 2.67462 10.5376 4.48955C8.24505 9.74327 17.8928 12.3224 15.3615 18.6746C13.8331 22.4477 10.4898 23.8806 7.52863 23.8806C3.89878 23.8806 1.46297 22.3522 0.507744 19.5343C-0.590762 16.2388 2.17938 11.5104 7.38535 13.8985C5.37938 14.3761 4.18535 17.0985 6.23908 19.2477C7.71967 20.7761 10.1555 20.7283 11.0152 18.4358C12.448 14.6627 2.60923 10.9373 5.37938 4.82387Z" fill="white"/>
<path d="M32.1626 8.07163C32.7834 7.92835 33.2133 7.78506 33.9775 7.78506C34.2163 7.78506 34.3118 7.92835 34.073 8.26267C33.8342 8.54924 32.4014 11.2716 30.7297 16.3343C29.0581 21.2537 30.9685 23.0686 35.267 17.9582C35.6969 18.0059 36.079 18.0059 36.2222 18.5313C33.882 21.9701 31.9237 23.8806 29.3446 23.8806C27.5297 23.8806 26.3357 23.1164 25.7148 21.8746C24.4252 22.9731 22.6103 23.8806 20.7954 23.8806C17.2611 23.8806 15.7327 20.8716 17.3088 16.8119C17.6909 15.8567 19.2193 12.6089 20.079 11.1761C21.1775 9.4567 21.8461 8.40596 23.7088 8.07163C24.3297 7.92835 24.7118 7.78506 25.5238 7.78506C25.7148 7.78506 25.8581 7.92835 25.6193 8.26267C25.3805 8.54924 24.4252 9.98208 23.6611 11.6537C23.3267 12.4179 22.0372 15.2836 21.273 18.0059C20.5566 20.6328 24.5208 20.394 26.0491 16.6686C26.7178 15.0448 27.8641 12.2746 28.5805 11.1761C29.679 9.4567 30.2999 8.40596 32.1626 8.07163Z" fill="white"/>
<path d="M42.1125 9.98208C42.9245 9.07461 44.7394 7.83282 46.8409 7.83282C51.7125 7.83282 50.6618 13.4209 49.8976 15.6657C48.3692 20.1552 44.8827 23.9283 40.2976 23.9283C39.1991 23.9283 37.8618 23.3552 37.0021 22.2567C36.3334 24.0238 35.8081 25.6477 35.426 26.8895C34.8528 28.9432 34.232 30.4716 35.0917 31.4268C35.2827 31.6179 35.1394 31.7134 34.8051 31.7134C31.2708 31.7134 29.4081 30.3761 30.7454 26.2209C32.6558 20.394 35.9036 13.7074 37.5275 11.2239C38.6737 9.55223 39.2946 8.40596 41.1573 8.07163C41.7304 7.97611 42.1603 7.83282 42.9722 7.83282C43.1633 7.83282 43.3066 7.97611 43.02 8.31044C42.8767 8.50148 42.4469 9.26566 42.1125 9.98208ZM40.0588 14.3761C39.9633 14.5671 39.8678 14.806 39.7722 15.0448C40.0588 14.997 40.2976 14.9492 40.5364 14.9492C43.3066 14.9492 43.9275 18.6746 41.7304 19.2C42.1603 18.2448 40.7275 17.7671 40.1066 18.7224C39.7722 19.2477 39.7245 20.203 40.8708 20.203C45.2648 20.203 48.7991 10.7463 45.5991 10.2686C44.023 10.0298 41.1573 11.7015 40.0588 14.3761Z" fill="white"/>
<path d="M55.4204 23.8806C45.5338 23.8806 52.4114 7.78506 60.8174 7.78506C68.1726 7.78506 63.7308 17.8149 55.086 17.2418C55.086 18.6268 55.6592 19.6776 56.8532 20.203C58.6204 20.9671 61.9159 20.1552 64.4472 18.0537C64.8771 18.1015 65.2592 18.1015 65.4024 18.6268C63.9218 21.2059 58.6204 23.8806 55.4204 23.8806ZM55.6114 14.4716C56.089 14.5194 56.5189 14.5671 56.901 14.5671C58.2383 14.5671 59.1457 14.1373 59.8621 13.6119C62.298 11.7015 61.1995 9.69551 58.8114 10.794C57.3786 11.4149 56.2323 12.8477 55.6114 14.4716Z" fill="white"/>
<path d="M71.4547 9.83879C72.6965 8.45372 74.2726 7.78506 75.5144 7.78506C80.4338 7.78506 78.8576 14.4716 74.3203 14.4716C71.6935 14.4716 71.4069 11.1761 74.0338 10.7463C73.6517 11.606 74.7024 12.2746 75.4188 11.5582C76.0875 10.8418 75.7054 10.1254 74.8457 10.1254C72.6487 10.1254 70.8815 12.0836 69.8308 14.4239C69.2577 15.7134 68.6845 17.1462 68.1591 19.0567C67.586 21.1104 66.9651 22.6388 67.8248 23.5462C68.0159 23.785 67.8726 23.8806 67.5383 23.8806C64.0039 23.8806 62.1412 22.5433 63.4786 18.388C63.9562 16.9074 65.198 13.6597 66.8696 11.1761C67.9681 9.50446 68.589 8.40596 70.4517 8.07163C71.0726 7.92835 71.4547 7.78506 72.2666 7.78506C72.5054 7.78506 72.6009 7.92835 72.3621 8.26267C72.1711 8.45372 71.8368 9.17014 71.4547 9.83879Z" fill="white"/>
<path d="M26.2706 40.4836C28.1333 38.5254 29.9482 38 31.381 38C35.6318 38 36.9691 41.9164 35.5362 45.4985C34.1512 49.1283 32.6228 53.4746 31.6676 56.3403C30.7601 58.8716 33.2437 60.1134 36.1094 57.6298C36.8736 57.0089 37.5422 57.4388 36.8258 58.3462C35.4885 60.1612 33.578 61.8806 30.6646 61.8806C27.4168 61.8806 24.981 60.3044 26.3661 56.388C27.2736 53.7612 29.1362 48.8418 30.0915 46.8836C32.0497 42.9194 31.2855 40.6746 28.8019 42.2985C27.5601 43.1104 26.4616 44.8298 25.793 46.597C24.5034 49.8448 22.4975 55.0985 21.9721 57.0567C21.3989 59.0627 20.7781 60.6388 21.6378 61.5462C21.8288 61.785 21.6855 61.8806 21.3512 61.8806C17.8169 61.8806 15.4766 60.4955 16.8616 56.3403C17.7691 53.5224 19.6795 49.7015 20.7303 46.8836C21.8288 43.9701 22.2109 41.3433 19.7751 42.3463C19.0587 42.6328 17.6258 43.7791 15.7631 48.5552C14.5691 51.6597 13.3751 54.9074 12.8019 57.0567C12.181 59.0627 11.5602 60.6388 12.4199 61.5462C12.6109 61.785 12.5154 61.8806 12.181 61.8806C8.64672 61.8806 6.30643 60.4955 7.64374 56.3403C8.59896 53.5224 9.84075 50.4179 11.0825 47.7433C12.0378 45.7373 12.7542 41.9164 10.5094 41.0567C8.79001 40.4358 7.07061 41.4388 6.54523 42.8239C6.21091 43.6836 6.21091 45.0686 7.35717 45.4985C8.07359 45.7851 9.21986 45.4985 9.45866 44.4C10.4139 45.2119 10.4616 46.3582 10.2228 47.2179C9.84075 48.794 7.88255 49.797 5.63777 49.4627C-0.189086 48.603 2.15121 38 10.6049 38C13.1363 38 14.9034 38.9075 15.9064 40.4836C17.8646 38.8597 20.3482 38 22.0198 38C24.1691 38 25.6019 39.003 26.2706 40.4836Z" fill="white"/>
<path d="M41.7101 61.8806C31.9191 61.8806 36.5042 45.7851 46.3907 45.7851C50.5459 45.7851 51.5489 49.0328 50.1638 50.991C51.1668 54.7642 47.3459 61.8806 41.7101 61.8806ZM47.1549 47.8866C42.14 47.8866 37.7937 58.0119 42.7131 58.0119C45.0534 58.0119 47.4892 55.3373 47.6325 52.4239C47.4892 52.4716 47.3459 52.4716 47.1549 52.4716C44.528 52.4716 44.2892 49.1761 46.8683 48.7463C46.4862 49.606 47.5847 50.2746 48.2534 49.5582C48.731 49.0328 48.54 47.8866 47.1549 47.8866Z" fill="white"/>
<path d="M65.6224 48.2209C67.7239 46.2149 69.8731 45.7851 70.7806 45.7851C76.1776 45.7851 71.7358 53.4268 71.3537 54.3343C69.4433 59.1582 71.6403 61.0686 75.9388 55.9582C76.3687 56.0059 76.7507 56.0059 76.894 56.5313C74.5537 59.9701 72.5478 61.8806 69.9687 61.8806C66.1478 61.8806 65.4314 58.2985 67.1508 54.3343C67.7717 52.997 69.7776 48.7463 67.7239 49.3194C66.6254 49.606 64.9537 50.8955 64.2373 52.806C63.7597 54 63.3299 55.3851 62.8523 57.0567C62.2791 59.1104 61.6582 60.6388 62.5179 61.5462C62.709 61.785 62.5657 61.8806 62.2314 61.8806C58.697 61.8806 57.2642 60.5433 58.6493 56.388C58.9358 55.5283 59.4612 54.0477 60.1776 52.4716C60.894 50.991 61.2284 48.9373 59.9388 49.3194C58.8403 49.606 57.1687 50.8955 56.4523 52.806C55.9747 54 55.5448 55.3851 55.0672 57.0567C54.4463 59.1104 53.8732 60.6388 54.6851 61.5462C54.9239 61.785 54.7806 61.8806 54.4463 61.8806C50.912 61.8806 49.4791 60.5433 50.8642 56.388C51.3418 54.9074 52.5359 51.6597 54.2075 49.1761C55.3538 47.5045 56.1657 46.3104 57.3597 46.0716C57.9329 45.9283 58.3627 45.7851 59.1746 45.7851C59.3657 45.7851 59.509 45.9283 59.2224 46.2627C59.0791 46.5015 58.6493 47.2657 58.2672 47.9821C59.9388 46.3582 62.0403 45.7851 62.9955 45.7851C65.0015 45.7851 65.6224 46.8358 65.6224 48.2209Z" fill="white"/>
</svg>
