<svg width="79" height="62" viewBox="0 0 79 62" fill="none" xmlns="http://www.w3.org/2000/svg">
<path d="M5.10985 4.9435C6.6382 1.45694 10.3158 0.119629 13.277 0.119629C16.1904 0.119629 19.7725 2.3644 19.1516 5.70768C18.7218 7.76141 16.9546 9.28976 14.9964 9.28976C12.8472 9.28976 11.271 7.76141 11.271 6.04201C11.271 4.60917 12.3218 3.03306 14.1845 3.27186C13.4203 4.22708 14.3755 5.5644 15.5218 5.03902C16.7158 4.46589 16.2382 2.88977 14.8531 2.55545C12.8949 2.07783 11.08 2.79425 10.2681 4.60917C7.97552 9.8629 17.6233 12.442 15.0919 18.7942C13.5636 22.5674 10.2203 24.0002 7.2591 24.0002C3.62925 24.0002 1.19343 22.4718 0.238212 19.6539C-0.860294 16.3584 1.90985 11.6301 7.11582 14.0181C5.10985 14.4957 3.91582 17.2181 5.96955 19.3674C7.45014 20.8957 9.88596 20.848 10.7457 18.5554C12.1785 14.7823 2.3397 11.0569 5.10985 4.9435Z" fill="black"/>
<path d="M31.893 8.19126C32.5139 8.04798 32.9438 7.90469 33.7079 7.90469C33.9468 7.90469 34.0423 8.04798 33.8035 8.3823C33.5647 8.66887 32.1318 11.3913 30.4602 16.4539C28.7885 21.3733 30.699 23.1883 34.9975 18.0778C35.4273 18.1256 35.8094 18.1256 35.9527 18.6509C33.6124 22.0897 31.6542 24.0002 29.0751 24.0002C27.2602 24.0002 26.0662 23.236 25.4453 21.9942C24.1557 23.0927 22.3408 24.0002 20.5259 24.0002C16.9915 24.0002 15.4632 20.9912 17.0393 16.9315C17.4214 15.9763 18.9498 12.7286 19.8095 11.2957C20.908 9.57633 21.5766 8.52559 23.4393 8.19126C24.0602 8.04798 24.4423 7.90469 25.2542 7.90469C25.4453 7.90469 25.5886 8.04798 25.3497 8.3823C25.1109 8.66887 24.1557 10.1017 23.3915 11.7733C23.0572 12.5375 21.7677 15.4032 21.0035 18.1256C20.2871 20.7524 24.2512 20.5136 25.7796 16.7883C26.4483 15.1644 27.5945 12.3942 28.3109 11.2957C29.4094 9.57633 30.0303 8.52559 31.893 8.19126Z" fill="black"/>
<path d="M41.843 10.1017C42.6549 9.19424 44.4699 7.95245 46.5714 7.95245C51.443 7.95245 50.3923 13.5405 49.6281 15.7853C48.0997 20.2748 44.6132 24.048 40.0281 24.048C38.9296 24.048 37.5923 23.4748 36.7326 22.3763C36.0639 24.1435 35.5385 25.7674 35.1564 27.0091C34.5833 29.0629 33.9624 30.5912 34.8221 31.5465C35.0132 31.7375 34.8699 31.833 34.5356 31.833C31.0012 31.833 29.1385 30.4957 30.4759 26.3405C32.3863 20.5136 35.6341 13.8271 37.2579 11.3435C38.4042 9.67185 39.0251 8.52559 40.8878 8.19126C41.4609 8.09574 41.8908 7.95245 42.7027 7.95245C42.8937 7.95245 43.037 8.09574 42.7505 8.43007C42.6072 8.62111 42.1773 9.38529 41.843 10.1017ZM39.7893 14.4957C39.6938 14.6868 39.5982 14.9256 39.5027 15.1644C39.7893 15.1166 40.0281 15.0689 40.2669 15.0689C43.037 15.0689 43.6579 18.7942 41.4609 19.3196C41.8908 18.3644 40.4579 17.8868 39.837 18.842C39.5027 19.3674 39.455 20.3226 40.6012 20.3226C44.9952 20.3226 48.5296 10.8659 45.3296 10.3883C43.7535 10.1495 40.8878 11.8211 39.7893 14.4957Z" fill="black"/>
<path d="M55.1508 24.0002C45.2643 24.0002 52.1419 7.90469 60.5478 7.90469C67.9031 7.90469 63.4613 17.9345 54.8165 17.3614C54.8165 18.7465 55.3896 19.7972 56.5837 20.3226C58.3508 21.0868 61.6463 20.2748 64.1777 18.1733C64.6075 18.2211 64.9896 18.2211 65.1329 18.7465C63.6523 21.3256 58.3508 24.0002 55.1508 24.0002ZM55.3419 14.5913C55.8195 14.639 56.2493 14.6868 56.6314 14.6868C57.9687 14.6868 58.8762 14.2569 59.5926 13.7316C62.0284 11.8211 60.9299 9.81514 58.5419 10.9136C57.109 11.5345 55.9628 12.9674 55.3419 14.5913Z" fill="black"/>
<path d="M71.1851 9.95842C72.4269 8.57335 74.003 7.90469 75.2448 7.90469C80.1642 7.90469 78.5881 14.5913 74.0508 14.5913C71.4239 14.5913 71.1374 11.2957 73.7642 10.8659C73.3821 11.7256 74.4329 12.3942 75.1493 11.6778C75.818 10.9614 75.4359 10.245 74.5762 10.245C72.3792 10.245 70.612 12.2032 69.5613 14.5435C68.9881 15.833 68.415 17.2659 67.8896 19.1763C67.3165 21.23 66.6956 22.7584 67.5553 23.6659C67.7463 23.9047 67.6031 24.0002 67.2687 24.0002C63.7344 24.0002 61.8717 22.6629 63.209 18.5077C63.6866 17.0271 64.9284 13.7793 66.6001 11.2957C67.6986 9.62409 68.3195 8.52559 70.1822 8.19126C70.803 8.04798 71.1851 7.90469 71.9971 7.90469C72.2359 7.90469 72.3314 8.04798 72.0926 8.3823C71.9016 8.57335 71.5672 9.28976 71.1851 9.95842Z" fill="black"/>
<path d="M9.11786 47.1465C9.11786 42.5614 13.6552 38.1196 20.2462 38.1196C26.2164 38.1196 30.6104 42.5136 31.5656 48.436C32.9507 57.2241 26.2641 62.0002 20.2462 62.0002C17.5238 62.0002 13.9895 61.4271 12.0313 59.9465C14.7059 56.1256 18.3835 52.8778 19.9119 43.9465C20.9626 43.7077 22.682 43.5166 24.0193 43.3734C23.3029 47.3375 22.1567 52.639 19.1955 57.2718C24.1149 58.5614 28.2223 54.1674 28.3656 50.5853C28.6522 44.5196 25.1656 40.6987 20.1984 40.6987C15.5179 40.6987 13.2731 44.1375 13.3208 46.4778C13.3208 47.3853 13.5119 48.3405 14.5626 48.6271C15.3268 48.8181 16.3776 48.245 16.4731 47.051C17.4761 47.8629 17.5238 48.9136 17.3328 49.8211C17.0462 51.3972 15.3746 52.639 13.1776 52.3047C10.5985 51.9226 9.11786 49.6778 9.11786 47.1465Z" fill="black"/>
<path d="M47.8346 46.1913C48.4555 46.048 48.8853 45.9047 49.6495 45.9047C49.8883 45.9047 49.9839 46.048 49.745 46.3823C49.5062 46.6689 48.8376 47.9107 48.4077 48.7704C47.9301 49.8689 46.8794 52.9733 46.4018 54.4539C44.6824 59.3733 46.6406 61.1883 50.9391 56.0778C51.3689 56.1256 51.751 56.1256 51.8943 56.6509C49.554 60.0897 47.5958 62.0002 45.0167 62.0002C43.0585 62.0002 41.7689 61.0927 41.1958 59.6599C39.6675 61.045 37.757 62.0002 35.6078 62.0002C27.1063 62.0002 34.0794 45.9047 42.5809 45.9047C44.0137 45.9047 44.9689 46.6689 45.3988 47.6241C46.0197 46.9077 46.6883 46.3823 47.8346 46.1913ZM42.1988 48.0062C39.1421 48.0062 33.6495 58.1315 37.6615 58.1315C38.951 58.1315 40.8137 56.3166 41.5301 54.4539C41.8167 53.833 42.0555 53.2121 42.3898 52.5913C42.2943 52.5913 42.1988 52.5913 42.1033 52.5913C39.4764 52.5913 39.1898 49.2957 41.8167 48.8659C41.4346 49.7256 42.5331 50.3942 43.2018 49.6778C43.6794 49.1525 43.5839 48.0062 42.1988 48.0062Z" fill="black"/>
<path d="M69.0428 38.3584C69.6637 38.2629 70.0458 38.1196 70.8577 38.1196C71.0965 38.1196 71.192 38.2629 70.9532 38.5495C70.7144 38.836 70.0458 40.1256 69.6159 40.9853C68.5652 43.039 65.8905 49.8689 64.2189 54.4539C62.404 59.3256 64.4577 61.1883 68.7562 56.0778C69.1861 56.1256 69.5682 56.1256 69.7114 56.6509C67.3711 60.0897 65.4129 62.0002 62.8338 62.0002C60.8756 62.0002 59.5861 61.0927 59.013 59.6599C57.4846 61.045 55.5741 62.0002 53.4249 62.0002C44.9234 62.0002 51.8965 45.9047 60.398 45.9047C61.401 45.9047 62.1652 46.2868 62.6906 46.8122C63.7891 44.4719 64.792 42.4659 65.4607 41.5107C66.5592 39.7913 67.1801 38.6928 69.0428 38.3584ZM60.0159 48.0062C56.9592 48.0062 51.4667 58.1315 55.4786 58.1315C56.7682 58.1315 58.6309 56.2689 59.3473 54.4539C59.5861 53.8808 59.8727 53.2121 60.1592 52.5913C60.0637 52.5913 60.0159 52.5913 59.9204 52.5913C57.2935 52.5913 57.007 49.2957 59.6338 48.8659C59.2518 49.7256 60.3503 50.3942 61.0189 49.6778C61.4965 49.1525 61.401 48.0062 60.0159 48.0062Z" fill="black"/>
</svg>
